# Blender 4.2.0
# www.blender.org
mtllib Zone_3.mtl
o Ground.001
v 0.000000 0.006795 -7.702667
v 0.000000 0.006796 -0.000000
v 1.502716 0.006795 -7.554662
v 2.947684 0.006795 -7.116336
v 4.279373 0.006795 -6.404533
v 5.446608 0.006795 -5.446608
v 6.404533 0.006795 -4.279373
v 7.116336 0.006795 -2.947683
v 7.554662 0.006795 -1.502716
v 7.702667 0.006795 0.000000
v 7.554662 0.006795 1.502716
v 7.116336 0.006795 2.947683
v 6.404533 0.006795 4.279373
v 5.446608 0.006795 5.446608
v 4.279373 0.006795 6.404533
v 2.947684 0.006795 7.116336
v 1.502716 0.006795 7.554662
v 0.000000 0.006795 7.702667
v -1.502716 0.006795 7.554662
v -2.947683 0.006795 7.116336
v -4.279373 0.006795 6.404533
v -5.446608 0.006795 5.446608
v -6.404533 0.006795 4.279373
v -7.116336 0.006795 2.947683
v -7.554662 0.006795 1.502716
v -7.702667 0.006795 0.000000
v -7.554662 0.006795 -1.502716
v -7.116336 0.006795 -2.947683
v -6.404533 0.006795 -4.279373
v -5.446608 0.006795 -5.446608
v -4.279373 0.006795 -6.404533
v -2.947683 0.006795 -7.116336
v -1.502716 0.006795 -7.554662
vn -0.0000 1.0000 -0.0000
vt 0.877434 0.190248
vt 0.500000 0.500000
vt 0.809752 0.122566
vt 0.730167 0.069388
vt 0.641736 0.032759
vt 0.547858 0.014086
vt 0.452142 0.014086
vt 0.358264 0.032759
vt 0.269833 0.069388
vt 0.190248 0.122566
vt 0.122566 0.190248
vt 0.069388 0.269833
vt 0.032759 0.358264
vt 0.014086 0.452142
vt 0.014086 0.547858
vt 0.032759 0.641736
vt 0.069388 0.730167
vt 0.122566 0.809752
vt 0.190248 0.877434
vt 0.269833 0.930612
vt 0.358264 0.967241
vt 0.452142 0.985914
vt 0.547858 0.985914
vt 0.641736 0.967241
vt 0.730167 0.930612
vt 0.809752 0.877434
vt 0.877434 0.809752
vt 0.930612 0.730167
vt 0.967241 0.641736
vt 0.985914 0.547858
vt 0.985914 0.452142
vt 0.967241 0.358264
vt 0.930612 0.269833
s 0
f 1/1/1 2/2/1 3/3/1
f 3/3/1 2/2/1 4/4/1
f 4/4/1 2/2/1 5/5/1
f 5/5/1 2/2/1 6/6/1
f 6/6/1 2/2/1 7/7/1
f 7/7/1 2/2/1 8/8/1
f 8/8/1 2/2/1 9/9/1
f 9/9/1 2/2/1 10/10/1
f 10/10/1 2/2/1 11/11/1
f 11/11/1 2/2/1 12/12/1
f 12/12/1 2/2/1 13/13/1
f 13/13/1 2/2/1 14/14/1
f 14/14/1 2/2/1 15/15/1
f 15/15/1 2/2/1 16/16/1
f 16/16/1 2/2/1 17/17/1
f 17/17/1 2/2/1 18/18/1
f 18/18/1 2/2/1 19/19/1
f 19/19/1 2/2/1 20/20/1
f 20/20/1 2/2/1 21/21/1
f 21/21/1 2/2/1 22/22/1
f 22/22/1 2/2/1 23/23/1
f 23/23/1 2/2/1 24/24/1
f 24/24/1 2/2/1 25/25/1
f 25/25/1 2/2/1 26/26/1
f 26/26/1 2/2/1 27/27/1
f 27/27/1 2/2/1 28/28/1
f 28/28/1 2/2/1 29/29/1
f 29/29/1 2/2/1 30/30/1
f 30/30/1 2/2/1 31/31/1
f 31/31/1 2/2/1 32/32/1
f 32/32/1 2/2/1 33/33/1
f 33/33/1 2/2/1 1/1/1
