# Blender 4.2.0
# www.blender.org
mtllib Debree.mtl
o Cube_cell.074
v -0.098443 -0.043032 0.182034
v -0.011357 -0.215384 0.028694
v -0.113188 -0.066556 0.173929
v 0.035178 0.183181 0.047341
v 0.021301 0.182998 0.049018
v -0.153482 -0.024908 0.178342
v -0.171829 -0.002107 0.168211
v -0.023929 -0.156824 -0.103074
v -0.026473 -0.215578 0.025476
v -0.053251 -0.181865 -0.055572
v 0.057722 0.079469 -0.183345
v -0.058809 0.115108 -0.090055
v -0.041371 0.145526 -0.025856
v -0.023988 0.167929 0.020723
v 0.098786 0.016731 -0.205326
v -0.036454 -0.142243 -0.109433
v -0.162370 -0.065311 0.166610
v -0.186564 -0.161312 0.056394
v -0.235403 -0.106700 0.107684
v -0.199666 -0.149562 0.067502
v 0.054089 0.057474 -0.193817
v -0.085989 0.028270 -0.123836
v -0.097064 -0.123007 -0.086121
v -0.069482 0.112000 -0.085403
v -0.138026 0.055290 -0.076106
v -0.171760 0.048761 0.066049
v -0.216568 -0.003691 0.112435
v -0.202245 -0.009990 0.144703
v -0.174349 -0.149255 -0.003807
v -0.202892 -0.145954 0.024467
v -0.193638 -0.156777 0.050103
v -0.240917 -0.013794 0.040039
v -0.252470 -0.027814 0.054077
v -0.248564 -0.091852 0.061024
v -0.253820 -0.075348 0.063729
v -0.251111 -0.029950 0.072713
v -0.250811 -0.062612 0.102290
v -0.242474 -0.097956 0.103454
v -0.251514 -0.074718 0.100189
v 0.203049 -0.107888 -0.150560
v 0.203049 -0.159789 -0.036625
v 0.203049 0.030848 0.087999
v 0.203049 -0.010616 -0.201148
v 0.203049 0.178720 0.031660
v 0.203049 0.053337 0.098401
v 0.203049 0.049745 0.100309
v 0.203049 0.102774 -0.149871
v 0.203049 0.090503 -0.155436
v 0.203049 0.111904 -0.129835
v 0.203049 0.179855 0.019597
v 0.203049 0.181289 0.022775
v 0.203049 -0.159789 -0.036625
v 0.203049 -0.107888 -0.150560
v 0.203049 0.030848 0.087999
v 0.203049 0.049745 0.100309
v 0.203049 -0.010616 -0.201148
v 0.203049 0.178720 0.031660
v 0.203049 0.053337 0.098401
v 0.203049 0.102774 -0.149871
v 0.203049 0.090503 -0.155436
v 0.203049 0.181289 0.022775
v 0.203049 0.111904 -0.129835
v 0.203049 0.179855 0.019597
vn 0.0989 -0.9068 -0.4098
vn -0.1285 -0.7501 0.6487
vn -0.1316 -0.7545 0.6430
vn -0.0864 -0.4597 -0.8839
vn -0.7047 -0.1219 -0.6990
vn -0.3524 -0.8996 -0.2578
vn 0.1051 -0.9050 -0.4122
vn -0.4394 -0.6539 -0.6159
vn 0.3689 -0.5086 0.7780
vn 0.3681 -0.5080 0.7787
vn -0.3533 -0.9009 -0.2521
vn -0.1253 -0.7321 0.6695
vn -0.7635 -0.6458 0.0098
vn -0.7631 -0.6462 0.0036
vn -0.6070 -0.7862 0.1158
vn -0.7632 -0.6461 0.0027
vn -0.7055 -0.1241 -0.6977
vn -0.7036 -0.1230 -0.6998
vn -0.4440 -0.6446 -0.6224
vn -0.4414 -0.6493 -0.6194
vn -0.1186 -0.7339 0.6688
vn -0.5867 -0.1079 0.8026
vn 0.1089 -0.9046 -0.4122
vn 0.3666 -0.5001 0.7846
vn -0.1436 -0.2407 0.9599
vn -0.1488 -0.2454 0.9579
vn -0.5794 -0.1072 0.8080
vn 0.0941 0.4668 0.8793
vn -0.6272 -0.1362 0.7669
vn -0.7828 -0.6219 0.0229
vn -0.9326 -0.3511 0.0834
vn -0.9477 -0.3125 0.0653
vn -0.7217 -0.1180 -0.6821
vn -0.7069 -0.1188 -0.6973
vn -0.7104 -0.1106 -0.6951
vn -0.6438 0.7556 -0.1208
vn -0.6425 0.7563 -0.1232
vn -0.4718 0.4456 -0.7608
vn -0.4725 0.4413 -0.7629
vn -0.4731 0.4385 -0.7641
vn -0.5008 0.7731 0.3893
vn -0.4052 -0.1941 -0.8934
vn 0.1385 0.4070 -0.9029
vn 0.1421 0.4088 -0.9015
vn 0.1431 0.4077 -0.9018
vn -0.0504 0.9088 -0.4141
vn -0.0498 0.9092 -0.4134
vn -0.0499 0.9104 -0.4108
vn 0.0514 0.9594 0.2774
vn 0.0916 0.5649 0.8200
vn -0.0597 0.9175 -0.3931
vn -0.5927 -0.0974 0.7995
vn -0.5886 -0.1049 0.8016
vn -0.9966 0.0462 0.0676
vn -0.9972 0.0410 0.0624
vn -0.9948 0.0631 0.0798
vn -0.6963 0.7056 0.1317
vn -0.6929 0.7085 0.1342
vn -0.6920 0.7094 0.1337
vn -0.6440 0.7572 -0.1088
vn -0.5067 0.7733 0.3812
vn -0.0550 0.9079 -0.4156
vn -0.0640 0.9085 -0.4131
vn -0.6330 0.7630 -0.1307
vn -0.3870 0.8695 -0.3069
vn -0.4640 0.4618 -0.7560
vn -0.5119 0.7715 0.3778
vn -0.8059 0.4007 0.4359
vn -0.8082 0.3912 0.4402
vn -0.4060 -0.1930 -0.8933
vn 1.0000 -0.0000 -0.0000
vn -0.0852 -0.4597 -0.8840
vn -0.0857 -0.4601 -0.8837
vn -0.3541 -0.9005 -0.2523
vn -0.3540 -0.9006 -0.2522
vn 0.0949 0.4678 0.8787
vn 0.0949 0.4671 0.8791
vn 0.0948 0.4669 0.8792
vn 0.0945 0.4673 0.8791
vt 0.000000 0.000000
vt 1.000000 0.000000
vt 1.000000 1.000000
vt 0.095181 0.095181
vt 1.000000 0.094885
vt 0.094885 0.094885
vt 0.066358 0.000000
vt 0.910224 0.000000
vt 1.000000 0.095180
vt 0.930621 0.930621
vt 1.000000 0.930621
vt 1.000000 0.943435
vt 0.866325 0.000000
vt 1.000000 0.177005
vt 0.177005 0.177005
vt 1.000000 0.175727
vt 1.000000 0.910110
vt 0.866324 0.866324
vt 0.909902 0.000000
vt 0.910109 0.910109
vt 1.000000 0.881897
vt 0.909902 0.909902
vt 0.882129 0.000000
vt 0.881897 0.881897
vt 0.882129 0.882129
vt 0.490015 0.556964
vt 0.545266 0.555606
vt 0.551225 0.562736
vt 0.824273 0.000000
vt 1.000000 0.089776
vt 0.109860 0.000000
vt 0.570149 0.604351
vt 0.570548 0.605236
vt 0.569833 0.607710
vt 0.534915 0.626297
vt 0.533564 0.626605
vt 0.528652 0.623400
vt 0.475562 0.588694
vt 0.517105 0.542876
vt 0.548683 0.557156
s 0
f 10/1/1 2/2/1 9/3/1
f 2/1/2 20/2/2 9/3/2
f 20/1/3 18/2/3 9/3/3
f 8/3/4 16/1/4 15/1/4
f 25/1/5 22/2/5 29/3/5 34/1/5
f 29/1/6 10/2/6 9/3/6
f 8/1/7 2/2/7 10/3/7
f 29/1/8 8/2/8 10/3/8
f 2/3/9 52/4/9 54/5/9
f 54/6/10 55/7/10 3/2/10 2/3/10
f 29/2/11 18/1/11 31/1/11
f 17/1/12 19/2/12 20/3/12
f 19/1/13 34/2/13 20/3/13
f 34/1/14 31/2/14 20/3/14
f 31/1/15 18/2/15 20/3/15
f 34/1/16 30/2/16 31/3/16
f 34/1/17 29/2/17 30/3/17
f 22/1/18 23/2/18 29/3/18
f 23/1/19 16/2/19 29/3/19
f 16/1/20 8/2/20 29/3/20
f 17/1/21 20/2/21 2/3/21 3/1/21
f 7/1/22 39/2/22 19/2/22 17/3/22
f 53/8/23 52/9/23 2/3/23 8/1/23
f 55/10/24 1/1/24 3/2/24
f 1/1/25 6/2/25 3/3/25
f 6/1/26 17/2/26 3/3/26
f 6/1/27 7/2/27 17/3/27
f 55/11/28 58/12/28 5/1/28
f 39/1/29 38/2/29 19/3/29
f 38/1/30 34/2/30 19/3/30
f 38/1/31 39/2/31 34/3/31
f 39/1/32 35/2/32 34/3/32
f 35/1/33 33/2/33 34/3/33
f 33/1/34 25/2/34 34/3/34
f 33/1/35 32/2/35 25/3/35
f 32/1/36 14/2/36 25/3/36
f 14/1/37 24/2/37 25/3/37
f 24/1/38 11/2/38 25/3/38
f 11/1/39 21/2/39 25/3/39
f 21/1/40 22/2/40 25/3/40
f 14/1/41 28/2/41 7/2/41 5/3/41
f 15/1/42 16/2/42 23/3/42
f 21/1/43 11/2/43 15/3/43
f 11/1/44 59/13/44 60/14/44 15/3/44
f 15/3/45 60/15/45 56/16/45
f 62/17/46 59/18/46 11/1/46 14/2/46
f 14/1/47 63/19/47 62/20/47
f 14/1/48 4/2/48 61/21/48 63/22/48
f 4/1/49 57/23/49 61/24/49
f 57/25/50 4/1/50 5/2/50
f 4/1/51 14/2/51 5/3/51
f 28/1/52 37/2/52 7/3/52
f 37/1/53 39/2/53 7/3/53
f 37/1/54 33/2/54 39/3/54
f 33/1/55 35/2/55 39/3/55
f 37/1/56 36/2/56 33/3/56
f 36/1/57 32/2/57 33/3/57
f 36/1/58 27/2/58 32/3/58
f 27/1/59 26/2/59 32/3/59
f 26/1/60 14/2/60 32/3/60
f 26/1/61 28/2/61 14/3/61
f 11/1/62 12/2/62 14/3/62
f 12/1/63 13/2/63 14/3/63
f 13/1/64 24/2/64 14/3/64
f 13/1/65 12/2/65 24/3/65
f 12/1/66 11/2/66 24/3/66
f 26/1/67 27/2/67 28/3/67
f 27/1/68 36/2/68 28/3/68
f 36/1/69 37/2/69 28/3/69
f 15/1/70 23/2/70 22/3/70 21/1/70
f 40/26/71 48/27/71 49/28/71
f 56/29/72 53/30/72 15/1/72
f 53/30/73 8/3/73 15/1/73
f 31/1/74 30/1/74 29/2/74
f 29/2/75 9/3/75 18/1/75
f 58/12/76 57/31/76 5/1/76
f 5/1/77 7/3/77 1/2/77
f 7/3/78 6/1/78 1/2/78
f 1/2/79 55/11/79 5/1/79
f 50/32/71 51/33/71 44/34/71
f 44/34/71 45/35/71 50/32/71
f 45/35/71 46/36/71 42/37/71
f 50/32/71 45/35/71 42/37/71
f 42/37/71 41/38/71 40/26/71
f 48/27/71 40/26/71 43/39/71
f 42/37/71 40/26/71 49/28/71
f 48/27/71 47/40/71 49/28/71
f 49/28/71 50/32/71 42/37/71
