# Blender 4.2.0
# www.blender.org
mtllib Slash.mtl
o Slash_Curve
v -0.933608 0.000000 -0.310699
v -1.022554 0.051691 -0.237716
v -1.195643 0.115783 -0.095688
v -1.312259 0.147171 0.000000
v -1.388996 0.115894 0.062966
v -1.488025 0.051914 0.144224
v -1.537092 0.000000 0.184486
v -0.842825 0.000000 -0.155485
v -0.919783 0.047989 -0.081411
v -1.069545 0.107490 0.062740
v -1.170443 0.136630 0.159858
v -1.236838 0.107594 0.223766
v -1.322521 0.048195 0.306239
v -1.364974 0.000000 0.347102
v -0.744254 0.000000 -0.012451
v -0.809224 0.044286 0.061682
v -0.935659 0.099198 0.205948
v -1.020841 0.126089 0.303144
v -1.076894 0.099293 0.367103
v -1.149231 0.044477 0.449641
v -1.185072 0.000000 0.490537
v -0.639001 0.000000 0.116874
v -0.691982 0.040584 0.190040
v -0.795085 0.090905 0.332422
v -0.864548 0.115549 0.428349
v -0.910257 0.090993 0.491473
v -0.969245 0.040759 0.572934
v -0.998472 0.000000 0.613296
v -0.527789 0.000000 0.231380
v -0.568866 0.036882 0.302458
v -0.648803 0.082612 0.440776
v -0.702659 0.105008 0.533966
v -0.738098 0.082692 0.595287
v -0.783833 0.037041 0.674423
v -0.806493 0.000000 0.713633
v -0.410998 0.000000 0.330119
v -0.440424 0.033180 0.397856
v -0.497689 0.074320 0.529675
v -0.536270 0.094467 0.618484
v -0.561658 0.074391 0.676924
v -0.594420 0.033323 0.752341
v -0.610654 0.000000 0.789709
v -0.288499 0.000000 0.412183
v -0.306816 0.029478 0.475187
v -0.342461 0.066027 0.597794
v -0.366475 0.083926 0.680398
v -0.382278 0.066091 0.734754
v -0.402672 0.029605 0.804901
v -0.412776 0.000000 0.839657
v -0.159522 0.000000 0.476458
v -0.167708 0.025775 0.533242
v -0.183638 0.057734 0.643747
v -0.194371 0.073386 0.718197
v -0.201433 0.057790 0.767188
v -0.210547 0.025886 0.830411
v -0.215063 0.000000 0.861736
v -0.021908 0.000000 0.521219
v -0.021707 0.022073 0.570350
v -0.021315 0.049442 0.665959
v -0.021051 0.062845 0.730374
v -0.020878 0.049489 0.772762
v -0.020654 0.022168 0.827463
v -0.020543 0.000000 0.854566
v 0.124853 0.000000 0.535214
v 0.131503 0.019384 0.577845
v 0.144443 0.043419 0.660806
v 0.153161 0.055190 0.716700
v 0.158898 0.043461 0.753480
v 0.166302 0.019468 0.800944
v 0.169970 0.000000 0.824462
v 0.279235 0.000000 0.525036
v 0.290646 0.016696 0.560403
v 0.312851 0.037397 0.629228
v 0.327812 0.047535 0.675598
v 0.337656 0.037433 0.706110
v 0.350360 0.016768 0.745487
v 0.356655 0.000000 0.764997
v 0.440985 0.000000 0.485464
v 0.455224 0.014007 0.513201
v 0.482933 0.031375 0.567176
v 0.501602 0.039880 0.603541
v 0.513886 0.031405 0.627470
v 0.529740 0.014067 0.658351
v 0.537594 0.000000 0.673652
v 0.609812 0.000000 0.410516
v 0.624710 0.011318 0.430832
v 0.653702 0.025352 0.470367
v 0.673235 0.032225 0.497004
v 0.686089 0.025377 0.514531
v 0.702676 0.011367 0.537150
v 0.710895 0.000000 0.548358
v 0.783902 0.000000 0.294326
v 0.797412 0.008630 0.307982
v 0.823702 0.019330 0.334555
v 0.841415 0.024570 0.352458
v 0.853070 0.019349 0.364239
v 0.868111 0.008667 0.379442
v 0.875564 0.000000 0.386975
v 0.960342 0.000000 0.131896
v 0.970796 0.005941 0.139996
v 0.991138 0.013308 0.155758
v 1.004843 0.016915 0.166378
v 1.013862 0.013321 0.173366
v 1.025500 0.005967 0.182384
v 1.031267 0.000000 0.186853
v 1.135869 0.000000 -0.080742
v 1.142060 0.003253 -0.076989
v 1.154107 0.007285 -0.069685
v 1.162223 0.009261 -0.064764
v 1.167565 0.007292 -0.061525
v 1.174457 0.003267 -0.057346
v 1.177872 0.000000 -0.055276
v 1.307438 0.000000 -0.346798
v 1.308570 0.000000 -0.346257
v 1.310774 0.001263 -0.345203
v 1.312259 0.001606 -0.344493
v 1.313236 0.001264 -0.344026
v 1.314497 0.000000 -0.343423
v 1.315121 0.000000 -0.343124
v -1.022554 -0.051691 -0.237716
v -1.195643 -0.115783 -0.095688
v -1.312259 -0.147171 0.000000
v -1.388996 -0.115894 0.062966
v -1.488025 -0.051914 0.144224
v -0.919783 -0.047989 -0.081411
v -1.069545 -0.107490 0.062740
v -1.170443 -0.136630 0.159858
v -1.236838 -0.107594 0.223766
v -1.322521 -0.048195 0.306239
v -0.809224 -0.044286 0.061682
v -0.935659 -0.099198 0.205948
v -1.020841 -0.126089 0.303144
v -1.076894 -0.099293 0.367103
v -1.149231 -0.044477 0.449641
v -0.691982 -0.040584 0.190040
v -0.795085 -0.090905 0.332422
v -0.864548 -0.115549 0.428349
v -0.910257 -0.090993 0.491473
v -0.969245 -0.040759 0.572934
v -0.568866 -0.036882 0.302458
v -0.648803 -0.082612 0.440776
v -0.702659 -0.105008 0.533966
v -0.738098 -0.082692 0.595287
v -0.783833 -0.037041 0.674423
v -0.440424 -0.033180 0.397856
v -0.497689 -0.074320 0.529675
v -0.536270 -0.094467 0.618484
v -0.561658 -0.074391 0.676924
v -0.594420 -0.033323 0.752341
v -0.306816 -0.029478 0.475187
v -0.342461 -0.066027 0.597794
v -0.366475 -0.083926 0.680398
v -0.382278 -0.066091 0.734754
v -0.402672 -0.029605 0.804901
v -0.167708 -0.025775 0.533242
v -0.183638 -0.057734 0.643747
v -0.194371 -0.073386 0.718197
v -0.201433 -0.057790 0.767188
v -0.210547 -0.025886 0.830411
v -0.021707 -0.022073 0.570350
v -0.021315 -0.049442 0.665959
v -0.021051 -0.062845 0.730374
v -0.020878 -0.049489 0.772762
v -0.020654 -0.022168 0.827463
v 0.131503 -0.019384 0.577845
v 0.144443 -0.043419 0.660806
v 0.153161 -0.055190 0.716700
v 0.158898 -0.043461 0.753480
v 0.166302 -0.019468 0.800944
v 0.290646 -0.016696 0.560403
v 0.312851 -0.037397 0.629228
v 0.327812 -0.047535 0.675598
v 0.337656 -0.037433 0.706110
v 0.350360 -0.016768 0.745487
v 0.455224 -0.014007 0.513201
v 0.482933 -0.031375 0.567176
v 0.501602 -0.039880 0.603541
v 0.513886 -0.031405 0.627470
v 0.529740 -0.014067 0.658351
v 0.624710 -0.011318 0.430832
v 0.653702 -0.025352 0.470367
v 0.673235 -0.032225 0.497004
v 0.686089 -0.025377 0.514531
v 0.702676 -0.011367 0.537150
v 0.797412 -0.008630 0.307982
v 0.823702 -0.019330 0.334555
v 0.841415 -0.024570 0.352458
v 0.853070 -0.019349 0.364239
v 0.868111 -0.008667 0.379442
v 0.970796 -0.005941 0.139996
v 0.991138 -0.013308 0.155758
v 1.004843 -0.016915 0.166378
v 1.013862 -0.013321 0.173366
v 1.025500 -0.005967 0.182384
v 1.142060 -0.003253 -0.076989
v 1.154107 -0.007285 -0.069685
v 1.162223 -0.009261 -0.064764
v 1.167565 -0.007292 -0.061525
v 1.174457 -0.003267 -0.057346
v 1.310774 -0.001263 -0.345203
v 1.312259 -0.001606 -0.344493
v 1.313236 -0.001264 -0.344026
vn 0.8608 -0.0000 -0.5089
vn 0.3050 0.9355 -0.1786
vn 0.2144 0.9694 -0.1193
vn -0.0090 0.9972 0.0740
vn -0.2511 0.9250 0.2852
vn -0.3751 0.8350 0.4026
vn -0.6861 -0.0000 0.7275
vn 0.8435 -0.0000 -0.5371
vn 0.2934 0.9375 -0.1869
vn 0.2091 0.9697 -0.1266
vn -0.0059 0.9971 0.0753
vn -0.2382 0.9253 0.2950
vn -0.3557 0.8370 0.4158
vn -0.6564 -0.0000 0.7544
vn 0.7998 -0.0000 -0.6002
vn 0.2784 0.9374 -0.2093
vn 0.1989 0.9696 -0.1426
vn 0.0014 0.9970 0.0770
vn -0.2113 0.9252 0.3152
vn -0.3180 0.8369 0.4456
vn -0.5880 -0.0000 0.8088
vn 0.7470 -0.0000 -0.6649
vn 0.2600 0.9372 -0.2323
vn 0.1865 0.9695 -0.1591
vn 0.0096 0.9969 0.0782
vn -0.1799 0.9251 0.3345
vn -0.2740 0.8366 0.4743
vn -0.5082 -0.0000 0.8612
vn 0.6823 -0.0000 -0.7311
vn 0.2374 0.9371 -0.2559
vn 0.1711 0.9694 -0.1761
vn 0.0188 0.9967 0.0785
vn -0.1433 0.9249 0.3522
vn -0.2224 0.8364 0.5010
vn -0.4148 -0.0000 0.9099
vn 0.6025 -0.0000 -0.7981
vn 0.2093 0.9370 -0.2798
vn 0.1518 0.9693 -0.1934
vn 0.0289 0.9966 0.0775
vn -0.1007 0.9247 0.3671
vn -0.1623 0.8361 0.5240
vn -0.3059 -0.0000 0.9521
vn 0.5037 -0.0000 -0.8639
vn 0.1743 0.9369 -0.3030
vn 0.1278 0.9692 -0.2103
vn 0.0397 0.9964 0.0747
vn -0.0521 0.9245 0.3776
vn -0.0931 0.8358 0.5411
vn -0.1806 -0.0000 0.9836
vn 0.3818 -0.0000 -0.9243
vn 0.1311 0.9371 -0.3236
vn 0.0981 0.9693 -0.2256
vn 0.0507 0.9963 0.0697
vn 0.0021 0.9243 0.3817
vn -0.0155 0.8355 0.5493
vn -0.0400 -0.0000 0.9992
vn 0.2110 -0.0000 -0.9775
vn 0.0697 0.9386 -0.3378
vn 0.0549 0.9700 -0.2368
vn 0.0524 0.9967 0.0625
vn 0.0508 0.9244 0.3779
vn 0.0572 0.8358 0.5460
vn 0.0948 -0.0000 0.9955
vn 0.0185 -0.0000 -0.9998
vn 0.0050 0.9389 -0.3443
vn 0.0088 0.9703 -0.2417
vn 0.0522 0.9971 0.0550
vn 0.0987 0.9249 0.3672
vn 0.1297 0.8361 0.5330
vn 0.2282 -0.0000 0.9736
vn -0.1475 -0.0000 -0.9891
vn -0.0519 0.9392 -0.3395
vn -0.0311 0.9705 -0.2393
vn 0.0589 0.9971 0.0474
vn 0.1539 0.9249 0.3478
vn 0.2105 0.8360 0.5067
vn 0.3760 -0.0000 0.9266
vn -0.3181 -0.0000 -0.9481
vn -0.1098 0.9395 -0.3246
vn -0.0719 0.9706 -0.2296
vn 0.0638 0.9972 0.0386
vn 0.2062 0.9249 0.3195
vn 0.2877 0.8360 0.4672
vn 0.5178 -0.0000 0.8555
vn -0.4779 -0.0000 -0.8784
vn -0.1638 0.9397 -0.3003
vn -0.1101 0.9708 -0.2133
vn 0.0662 0.9974 0.0294
vn 0.2519 0.9250 0.2845
vn 0.3555 0.8362 0.4176
vn 0.6430 -0.0000 0.7659
vn -0.6147 -0.0000 -0.7888
vn -0.2101 0.9398 -0.2696
vn -0.1431 0.9709 -0.1922
vn 0.0666 0.9976 0.0210
vn 0.2885 0.9252 0.2465
vn 0.4104 0.8365 0.3631
vn 0.7450 -0.0000 0.6671
vn -0.7235 -0.0000 -0.6903
vn -0.2470 0.9398 -0.2361
vn -0.1696 0.9709 -0.1688
vn 0.0656 0.9977 0.0141
vn 0.3161 0.9254 0.2090
vn 0.4520 0.8368 0.3089
vn 0.8228 -0.0000 0.5683
vn -0.8021 -0.0000 -0.5971
vn -0.2696 0.9420 -0.1997
vn -0.1960 0.9692 -0.1494
vn 0.0640 0.9979 0.0088
vn 0.3461 0.9209 0.1792
vn 0.4756 0.8419 0.2548
vn 0.8788 -0.0000 0.4772
vn -0.8383 -0.0000 -0.5452
vn -0.8371 -0.0000 -0.5470
vn -0.2102 0.9674 -0.1415
vn 0.0629 0.9980 0.0064
vn 0.3637 0.9164 0.1672
vn 0.9042 -0.0000 0.4271
vn 0.9036 -0.0000 0.4284
vn 0.3050 -0.9355 -0.1786
vn 0.2144 -0.9694 -0.1193
vn -0.0090 -0.9972 0.0740
vn -0.2511 -0.9250 0.2852
vn -0.3751 -0.8350 0.4026
vn 0.2934 -0.9375 -0.1869
vn 0.2091 -0.9697 -0.1266
vn -0.0059 -0.9971 0.0753
vn -0.2382 -0.9253 0.2950
vn -0.3557 -0.8370 0.4158
vn 0.2784 -0.9374 -0.2093
vn 0.1989 -0.9696 -0.1426
vn 0.0014 -0.9970 0.0770
vn -0.2113 -0.9252 0.3152
vn -0.3180 -0.8369 0.4456
vn 0.2600 -0.9372 -0.2323
vn 0.1865 -0.9695 -0.1591
vn 0.0096 -0.9969 0.0782
vn -0.1799 -0.9251 0.3345
vn -0.2740 -0.8366 0.4743
vn 0.2374 -0.9371 -0.2559
vn 0.1711 -0.9694 -0.1761
vn 0.0188 -0.9967 0.0785
vn -0.1433 -0.9249 0.3522
vn -0.2224 -0.8364 0.5010
vn 0.2093 -0.9370 -0.2798
vn 0.1518 -0.9693 -0.1934
vn 0.0289 -0.9966 0.0775
vn -0.1007 -0.9247 0.3671
vn -0.1623 -0.8361 0.5240
vn 0.1743 -0.9369 -0.3030
vn 0.1278 -0.9692 -0.2103
vn 0.0397 -0.9964 0.0747
vn -0.0521 -0.9245 0.3776
vn -0.0931 -0.8358 0.5411
vn 0.1311 -0.9371 -0.3236
vn 0.0981 -0.9693 -0.2256
vn 0.0507 -0.9963 0.0697
vn 0.0021 -0.9243 0.3817
vn -0.0155 -0.8355 0.5493
vn 0.0697 -0.9386 -0.3378
vn 0.0549 -0.9700 -0.2368
vn 0.0524 -0.9967 0.0625
vn 0.0508 -0.9244 0.3779
vn 0.0572 -0.8358 0.5460
vn 0.0050 -0.9389 -0.3443
vn 0.0088 -0.9703 -0.2417
vn 0.0522 -0.9971 0.0550
vn 0.0987 -0.9249 0.3672
vn 0.1297 -0.8361 0.5330
vn -0.0519 -0.9392 -0.3395
vn -0.0311 -0.9705 -0.2393
vn 0.0589 -0.9971 0.0474
vn 0.1539 -0.9249 0.3478
vn 0.2105 -0.8360 0.5067
vn -0.1098 -0.9395 -0.3246
vn -0.0719 -0.9706 -0.2296
vn 0.0638 -0.9972 0.0386
vn 0.2062 -0.9249 0.3195
vn 0.2877 -0.8360 0.4672
vn -0.1638 -0.9397 -0.3003
vn -0.1101 -0.9708 -0.2133
vn 0.0662 -0.9974 0.0294
vn 0.2519 -0.9250 0.2845
vn 0.3555 -0.8362 0.4176
vn -0.2101 -0.9398 -0.2696
vn -0.1431 -0.9709 -0.1922
vn 0.0666 -0.9976 0.0210
vn 0.2885 -0.9252 0.2465
vn 0.4104 -0.8365 0.3631
vn -0.2470 -0.9398 -0.2361
vn -0.1696 -0.9709 -0.1688
vn 0.0656 -0.9977 0.0141
vn 0.3161 -0.9254 0.2090
vn 0.4520 -0.8368 0.3089
vn -0.2696 -0.9420 -0.1997
vn -0.1960 -0.9692 -0.1494
vn 0.0640 -0.9979 0.0088
vn 0.3461 -0.9209 0.1792
vn 0.4756 -0.8419 0.2548
vn -0.2102 -0.9674 -0.1415
vn 0.0629 -0.9980 0.0064
vn 0.3637 -0.9164 0.1672
vt 0.012343 0.182676
vt 0.073132 0.182676
vt 0.073132 0.022758
vt 0.012343 0.022758
vt 0.012343 0.342594
vt 0.073132 0.342593
vt 0.012343 0.502512
vt 0.073132 0.502511
vt 0.012343 0.662429
vt 0.073132 0.662429
vt 0.012343 0.822347
vt 0.073132 0.822347
vt 0.012343 0.982265
vt 0.073132 0.982264
vt 0.133921 0.182676
vt 0.133921 0.022758
vt 0.133921 0.342594
vt 0.133921 0.502512
vt 0.133921 0.662429
vt 0.133921 0.822347
vt 0.133921 0.982265
vt 0.194710 0.182676
vt 0.194710 0.022758
vt 0.194710 0.342594
vt 0.194710 0.502512
vt 0.194710 0.662429
vt 0.194710 0.822347
vt 0.194710 0.982265
vt 0.255499 0.182676
vt 0.255499 0.022758
vt 0.255499 0.342594
vt 0.255499 0.502511
vt 0.255499 0.662429
vt 0.255499 0.822347
vt 0.255499 0.982265
vt 0.316288 0.182676
vt 0.316288 0.022758
vt 0.316288 0.342594
vt 0.316288 0.502512
vt 0.316288 0.662429
vt 0.316288 0.822347
vt 0.316288 0.982265
vt 0.377077 0.182676
vt 0.377077 0.022758
vt 0.377077 0.342594
vt 0.377077 0.502512
vt 0.377077 0.662430
vt 0.377077 0.822347
vt 0.377077 0.982265
vt 0.437866 0.182676
vt 0.437866 0.022758
vt 0.437866 0.342594
vt 0.437866 0.502512
vt 0.437866 0.662430
vt 0.437866 0.822347
vt 0.437866 0.982265
vt 0.498655 0.182676
vt 0.498655 0.022758
vt 0.498655 0.342594
vt 0.498655 0.502512
vt 0.498655 0.662430
vt 0.498655 0.822347
vt 0.498655 0.982265
vt 0.559444 0.182676
vt 0.559444 0.022758
vt 0.559444 0.342594
vt 0.559444 0.502512
vt 0.559444 0.662430
vt 0.559444 0.822347
vt 0.559444 0.982265
vt 0.620233 0.182676
vt 0.620233 0.022758
vt 0.620233 0.342594
vt 0.620233 0.502512
vt 0.620233 0.662430
vt 0.620233 0.822348
vt 0.620233 0.982265
vt 0.681022 0.182676
vt 0.681022 0.022758
vt 0.681022 0.342594
vt 0.681022 0.502512
vt 0.681022 0.662430
vt 0.681022 0.822348
vt 0.681022 0.982265
vt 0.741811 0.182676
vt 0.741811 0.022758
vt 0.741811 0.342594
vt 0.741811 0.502512
vt 0.741811 0.662430
vt 0.741811 0.822348
vt 0.741811 0.982266
vt 0.802600 0.182676
vt 0.802600 0.022758
vt 0.802600 0.342594
vt 0.802600 0.502512
vt 0.802600 0.662430
vt 0.802600 0.822348
vt 0.802600 0.982266
vt 0.863389 0.182676
vt 0.863389 0.022758
vt 0.863389 0.342594
vt 0.863389 0.502512
vt 0.863389 0.662430
vt 0.863389 0.822348
vt 0.863389 0.982266
vt 0.924178 0.182676
vt 0.924178 0.022758
vt 0.924178 0.342594
vt 0.924178 0.502512
vt 0.924178 0.662430
vt 0.924178 0.822348
vt 0.924178 0.982266
vt 0.984967 0.182676
vt 0.984967 0.022758
vt 0.984967 0.342594
vt 0.984967 0.502512
vt 0.984967 0.662430
vt 0.984967 0.822348
vt 0.984967 0.982266
s 1
usemtl Material.001
f 2/1/2 9/2/9 8/3/8 1/4/1
f 3/5/3 10/6/10 9/2/9 2/1/2
f 4/7/4 11/8/11 10/6/10 3/5/3
f 5/9/5 12/10/12 11/8/11 4/7/4
f 6/11/6 13/12/13 12/10/12 5/9/5
f 7/13/7 14/14/14 13/12/13 6/11/6
f 9/2/9 16/15/16 15/16/15 8/3/8
f 10/6/10 17/17/17 16/15/16 9/2/9
f 11/8/11 18/18/18 17/17/17 10/6/10
f 12/10/12 19/19/19 18/18/18 11/8/11
f 13/12/13 20/20/20 19/19/19 12/10/12
f 14/14/14 21/21/21 20/20/20 13/12/13
f 16/15/16 23/22/23 22/23/22 15/16/15
f 17/17/17 24/24/24 23/22/23 16/15/16
f 18/18/18 25/25/25 24/24/24 17/17/17
f 19/19/19 26/26/26 25/25/25 18/18/18
f 20/20/20 27/27/27 26/26/26 19/19/19
f 21/21/21 28/28/28 27/27/27 20/20/20
f 23/22/23 30/29/30 29/30/29 22/23/22
f 24/24/24 31/31/31 30/29/30 23/22/23
f 25/25/25 32/32/32 31/31/31 24/24/24
f 26/26/26 33/33/33 32/32/32 25/25/25
f 27/27/27 34/34/34 33/33/33 26/26/26
f 28/28/28 35/35/35 34/34/34 27/27/27
f 30/29/30 37/36/37 36/37/36 29/30/29
f 31/31/31 38/38/38 37/36/37 30/29/30
f 32/32/32 39/39/39 38/38/38 31/31/31
f 33/33/33 40/40/40 39/39/39 32/32/32
f 34/34/34 41/41/41 40/40/40 33/33/33
f 35/35/35 42/42/42 41/41/41 34/34/34
f 37/36/37 44/43/44 43/44/43 36/37/36
f 38/38/38 45/45/45 44/43/44 37/36/37
f 39/39/39 46/46/46 45/45/45 38/38/38
f 40/40/40 47/47/47 46/46/46 39/39/39
f 41/41/41 48/48/48 47/47/47 40/40/40
f 42/42/42 49/49/49 48/48/48 41/41/41
f 44/43/44 51/50/51 50/51/50 43/44/43
f 45/45/45 52/52/52 51/50/51 44/43/44
f 46/46/46 53/53/53 52/52/52 45/45/45
f 47/47/47 54/54/54 53/53/53 46/46/46
f 48/48/48 55/55/55 54/54/54 47/47/47
f 49/49/49 56/56/56 55/55/55 48/48/48
f 51/50/51 58/57/58 57/58/57 50/51/50
f 52/52/52 59/59/59 58/57/58 51/50/51
f 53/53/53 60/60/60 59/59/59 52/52/52
f 54/54/54 61/61/61 60/60/60 53/53/53
f 55/55/55 62/62/62 61/61/61 54/54/54
f 56/56/56 63/63/63 62/62/62 55/55/55
f 58/57/58 65/64/65 64/65/64 57/58/57
f 59/59/59 66/66/66 65/64/65 58/57/58
f 60/60/60 67/67/67 66/66/66 59/59/59
f 61/61/61 68/68/68 67/67/67 60/60/60
f 62/62/62 69/69/69 68/68/68 61/61/61
f 63/63/63 70/70/70 69/69/69 62/62/62
f 65/64/65 72/71/72 71/72/71 64/65/64
f 66/66/66 73/73/73 72/71/72 65/64/65
f 67/67/67 74/74/74 73/73/73 66/66/66
f 68/68/68 75/75/75 74/74/74 67/67/67
f 69/69/69 76/76/76 75/75/75 68/68/68
f 70/70/70 77/77/77 76/76/76 69/69/69
f 72/71/72 79/78/79 78/79/78 71/72/71
f 73/73/73 80/80/80 79/78/79 72/71/72
f 74/74/74 81/81/81 80/80/80 73/73/73
f 75/75/75 82/82/82 81/81/81 74/74/74
f 76/76/76 83/83/83 82/82/82 75/75/75
f 77/77/77 84/84/84 83/83/83 76/76/76
f 79/78/79 86/85/86 85/86/85 78/79/78
f 80/80/80 87/87/87 86/85/86 79/78/79
f 81/81/81 88/88/88 87/87/87 80/80/80
f 82/82/82 89/89/89 88/88/88 81/81/81
f 83/83/83 90/90/90 89/89/89 82/82/82
f 84/84/84 91/91/91 90/90/90 83/83/83
f 86/85/86 93/92/93 92/93/92 85/86/85
f 87/87/87 94/94/94 93/92/93 86/85/86
f 88/88/88 95/95/95 94/94/94 87/87/87
f 89/89/89 96/96/96 95/95/95 88/88/88
f 90/90/90 97/97/97 96/96/96 89/89/89
f 91/91/91 98/98/98 97/97/97 90/90/90
f 93/92/93 100/99/100 99/100/99 92/93/92
f 94/94/94 101/101/101 100/99/100 93/92/93
f 95/95/95 102/102/102 101/101/101 94/94/94
f 96/96/96 103/103/103 102/102/102 95/95/95
f 97/97/97 104/104/104 103/103/103 96/96/96
f 98/98/98 105/105/105 104/104/104 97/97/97
f 100/99/100 107/106/107 106/107/106 99/100/99
f 101/101/101 108/108/108 107/106/107 100/99/100
f 102/102/102 109/109/109 108/108/108 101/101/101
f 103/103/103 110/110/110 109/109/109 102/102/102
f 104/104/104 111/111/111 110/110/110 103/103/103
f 105/105/105 112/112/112 111/111/111 104/104/104
f 107/106/107 114/113/114 113/114/113 106/107/106
f 108/108/108 115/115/115 114/113/114 107/106/107
f 109/109/109 116/116/116 115/115/115 108/108/108
f 110/110/110 117/117/117 116/116/116 109/109/109
f 111/111/111 118/118/118 117/117/117 110/110/110
f 112/112/112 119/119/119 118/118/118 111/111/111
f 120/1/120 1/4/1 8/3/8 125/2/125
f 121/5/121 120/1/120 125/2/125 126/6/126
f 122/7/122 121/5/121 126/6/126 127/8/127
f 123/9/123 122/7/122 127/8/127 128/10/128
f 124/11/124 123/9/123 128/10/128 129/12/129
f 7/13/7 124/11/124 129/12/129 14/14/14
f 125/2/125 8/3/8 15/16/15 130/15/130
f 126/6/126 125/2/125 130/15/130 131/17/131
f 127/8/127 126/6/126 131/17/131 132/18/132
f 128/10/128 127/8/127 132/18/132 133/19/133
f 129/12/129 128/10/128 133/19/133 134/20/134
f 14/14/14 129/12/129 134/20/134 21/21/21
f 130/15/130 15/16/15 22/23/22 135/22/135
f 131/17/131 130/15/130 135/22/135 136/24/136
f 132/18/132 131/17/131 136/24/136 137/25/137
f 133/19/133 132/18/132 137/25/137 138/26/138
f 134/20/134 133/19/133 138/26/138 139/27/139
f 21/21/21 134/20/134 139/27/139 28/28/28
f 135/22/135 22/23/22 29/30/29 140/29/140
f 136/24/136 135/22/135 140/29/140 141/31/141
f 137/25/137 136/24/136 141/31/141 142/32/142
f 138/26/138 137/25/137 142/32/142 143/33/143
f 139/27/139 138/26/138 143/33/143 144/34/144
f 28/28/28 139/27/139 144/34/144 35/35/35
f 140/29/140 29/30/29 36/37/36 145/36/145
f 141/31/141 140/29/140 145/36/145 146/38/146
f 142/32/142 141/31/141 146/38/146 147/39/147
f 143/33/143 142/32/142 147/39/147 148/40/148
f 144/34/144 143/33/143 148/40/148 149/41/149
f 35/35/35 144/34/144 149/41/149 42/42/42
f 145/36/145 36/37/36 43/44/43 150/43/150
f 146/38/146 145/36/145 150/43/150 151/45/151
f 147/39/147 146/38/146 151/45/151 152/46/152
f 148/40/148 147/39/147 152/46/152 153/47/153
f 149/41/149 148/40/148 153/47/153 154/48/154
f 42/42/42 149/41/149 154/48/154 49/49/49
f 150/43/150 43/44/43 50/51/50 155/50/155
f 151/45/151 150/43/150 155/50/155 156/52/156
f 152/46/152 151/45/151 156/52/156 157/53/157
f 153/47/153 152/46/152 157/53/157 158/54/158
f 154/48/154 153/47/153 158/54/158 159/55/159
f 49/49/49 154/48/154 159/55/159 56/56/56
f 155/50/155 50/51/50 57/58/57 160/57/160
f 156/52/156 155/50/155 160/57/160 161/59/161
f 157/53/157 156/52/156 161/59/161 162/60/162
f 158/54/158 157/53/157 162/60/162 163/61/163
f 159/55/159 158/54/158 163/61/163 164/62/164
f 56/56/56 159/55/159 164/62/164 63/63/63
f 160/57/160 57/58/57 64/65/64 165/64/165
f 161/59/161 160/57/160 165/64/165 166/66/166
f 162/60/162 161/59/161 166/66/166 167/67/167
f 163/61/163 162/60/162 167/67/167 168/68/168
f 164/62/164 163/61/163 168/68/168 169/69/169
f 63/63/63 164/62/164 169/69/169 70/70/70
f 165/64/165 64/65/64 71/72/71 170/71/170
f 166/66/166 165/64/165 170/71/170 171/73/171
f 167/67/167 166/66/166 171/73/171 172/74/172
f 168/68/168 167/67/167 172/74/172 173/75/173
f 169/69/169 168/68/168 173/75/173 174/76/174
f 70/70/70 169/69/169 174/76/174 77/77/77
f 170/71/170 71/72/71 78/79/78 175/78/175
f 171/73/171 170/71/170 175/78/175 176/80/176
f 172/74/172 171/73/171 176/80/176 177/81/177
f 173/75/173 172/74/172 177/81/177 178/82/178
f 174/76/174 173/75/173 178/82/178 179/83/179
f 77/77/77 174/76/174 179/83/179 84/84/84
f 175/78/175 78/79/78 85/86/85 180/85/180
f 176/80/176 175/78/175 180/85/180 181/87/181
f 177/81/177 176/80/176 181/87/181 182/88/182
f 178/82/178 177/81/177 182/88/182 183/89/183
f 179/83/179 178/82/178 183/89/183 184/90/184
f 84/84/84 179/83/179 184/90/184 91/91/91
f 180/85/180 85/86/85 92/93/92 185/92/185
f 181/87/181 180/85/180 185/92/185 186/94/186
f 182/88/182 181/87/181 186/94/186 187/95/187
f 183/89/183 182/88/182 187/95/187 188/96/188
f 184/90/184 183/89/183 188/96/188 189/97/189
f 91/91/91 184/90/184 189/97/189 98/98/98
f 185/92/185 92/93/92 99/100/99 190/99/190
f 186/94/186 185/92/185 190/99/190 191/101/191
f 187/95/187 186/94/186 191/101/191 192/102/192
f 188/96/188 187/95/187 192/102/192 193/103/193
f 189/97/189 188/96/188 193/103/193 194/104/194
f 98/98/98 189/97/189 194/104/194 105/105/105
f 190/99/190 99/100/99 106/107/106 195/106/195
f 191/101/191 190/99/190 195/106/195 196/108/196
f 192/102/192 191/101/191 196/108/196 197/109/197
f 193/103/193 192/102/192 197/109/197 198/110/198
f 194/104/194 193/103/193 198/110/198 199/111/199
f 105/105/105 194/104/194 199/111/199 112/112/112
f 195/106/195 106/107/106 113/114/113 114/113/114
f 196/108/196 195/106/195 114/113/114 200/115/200
f 197/109/197 196/108/196 200/115/200 201/116/201
f 198/110/198 197/109/197 201/116/201 202/117/202
f 199/111/199 198/110/198 202/117/202 118/118/118
f 112/112/112 199/111/199 118/118/118 119/119/119
