# Blender 4.2.0
# www.blender.org
mtllib Slash_1.mtl
o Cylinder.005
v 1.507378 0.000000 -1.439271
v 1.710731 -0.000000 -1.210797
v 1.820616 -0.000000 -0.848553
v 1.857720 -0.000000 -0.471831
v 1.820616 -0.000000 -0.095110
v 1.710731 -0.000000 0.267134
v 1.532287 -0.000000 0.600980
v 1.292140 -0.000000 0.893598
v 0.999522 -0.000000 1.133744
v 0.665676 -0.000000 1.312189
v 0.303432 -0.000000 1.422074
v -0.073289 -0.000000 1.459178
v -0.446396 -0.000000 1.421691
v -0.774567 -0.000000 1.308190
v -1.021600 -0.000000 1.121865
v -1.263253 -0.000000 0.888899
v -1.454077 -0.000000 0.621517
v -1.639135 0.000000 0.289472
v -1.738204 -0.000000 -0.107419
v -1.697037 0.000000 -0.543226
v -1.517292 -0.000000 -0.966545
v -1.396550 0.000000 -1.116869
v 0.625408 -0.000000 -0.732033
v 0.598915 -0.000000 -0.564946
v 0.638221 0.000000 -0.435370
v 0.651493 0.000000 -0.300616
v 0.638221 -0.000000 -0.165863
v 0.598915 -0.000000 -0.036287
v 0.535085 -0.000000 0.083130
v 0.449184 0.000000 0.187800
v 0.344514 0.000000 0.273701
v 0.225097 -0.000000 0.337531
v 0.095521 -0.000000 0.376837
v -0.039233 0.000000 0.390109
v -0.173920 0.000000 0.376830
v -0.302361 -0.000000 0.337403
v -0.421575 -0.000000 0.271783
v -0.548742 0.000000 0.176013
v -0.691252 0.000000 0.046924
v -0.834133 0.000000 -0.118138
v -0.956963 -0.000000 -0.334202
v -1.025005 -0.000000 -0.565647
v -1.097827 0.000000 -0.768581
v -1.069837 0.078379 0.326845
v -0.902676 0.077050 0.522545
v 1.227989 0.077021 -0.376564
v 1.203349 0.077021 -0.626734
v -0.303505 0.077021 0.881018
v -0.054339 0.077021 0.905764
v -1.300574 0.059006 -0.836179
v 0.658084 0.077021 0.689653
v 0.852404 0.077021 0.530179
v -1.228204 0.087592 0.081432
v 1.203349 0.077021 -0.126394
v -0.531223 0.077021 0.806684
v 1.062049 0.065863 -1.050423
v 0.436386 0.077021 0.808153
v -1.327722 0.102972 -0.222233
v 1.130378 0.077021 0.114162
v -0.716809 0.077021 0.683948
v 1.130378 0.077021 -0.867290
v 0.195830 0.077021 0.881125
v -1.343368 0.090332 -0.548814
v 1.011878 0.077021 0.335859
v 1.036053 0.000000 -1.114190
v -1.236252 -0.000000 -0.973332
v -1.069837 -0.078379 0.326845
v -0.902676 -0.077050 0.522545
v 1.227989 -0.077021 -0.376564
v 1.203349 -0.077021 -0.626734
v -0.303505 -0.077021 0.881018
v -0.054339 -0.077021 0.905764
v -1.300574 -0.059006 -0.836179
v 0.658084 -0.077021 0.689653
v 0.852404 -0.077021 0.530179
v -1.228204 -0.087592 0.081432
v 1.203349 -0.077021 -0.126394
v -0.531223 -0.077021 0.806684
v 1.062049 -0.065863 -1.050423
v 0.436386 -0.077021 0.808153
v -1.327722 -0.102972 -0.222233
v 1.130378 -0.077021 0.114162
v -0.716809 -0.077021 0.683948
v 1.130378 -0.077021 -0.867290
v 0.195830 -0.077021 0.881125
v -1.343368 -0.090332 -0.548814
v 1.011878 -0.077021 0.335859
v 1.396453 0.020564 -1.347923
v 1.588189 0.023135 -1.137841
v 1.724745 0.023135 -0.451324
v 1.690275 0.023135 -0.101340
v 1.588189 0.023135 0.235194
v 1.422409 0.023135 0.545345
v 0.927458 0.023135 1.040296
v 0.617307 0.023135 1.206075
v 0.280773 0.023135 1.308161
v -0.416180 0.023135 1.307842
v -0.723393 0.023135 1.202644
v -0.957803 0.023135 1.029785
v -1.373872 0.023543 0.559646
v -1.552982 0.026310 0.245859
v -1.651352 0.030930 -0.131425
v -1.622168 0.027133 -0.543999
v -1.350306 -0.000000 -1.105349
v 0.925095 0.000000 -1.018763
v -1.187941 0.023144 0.811926
v 1.690275 0.023135 -0.801307
v -0.069210 0.023135 1.342632
v -1.473086 0.017724 -0.939179
v 1.199308 0.023135 0.817194
v 1.396453 -0.020564 -1.347923
v 1.588189 -0.023135 -1.137841
v 1.724745 -0.023135 -0.451323
v 1.690275 -0.023135 -0.101340
v 1.588189 -0.023135 0.235194
v 1.422409 -0.023135 0.545345
v 0.927458 -0.023135 1.040296
v 0.617307 -0.023135 1.206075
v 0.280773 -0.023135 1.308161
v -0.416180 -0.023135 1.307842
v -0.723394 -0.023135 1.202644
v -0.957803 -0.023135 1.029785
v -1.373872 -0.023543 0.559646
v -1.552983 -0.026310 0.245859
v -1.651352 -0.030930 -0.131425
v -1.622168 -0.027133 -0.543999
v -1.187941 -0.023144 0.811926
v 1.690275 -0.023135 -0.801307
v -0.069210 -0.023135 1.342632
v -1.473086 -0.017724 -0.939179
v 1.199308 -0.023135 0.817194
v 1.487682 0.005415 -1.423051
v 1.688972 0.006092 -1.197842
v 1.834109 0.006092 -0.468190
v 1.797473 0.006092 -0.096216
v 1.688972 0.006092 0.261463
v 1.512776 0.006092 0.591101
v 0.986726 0.006092 1.117151
v 0.657088 0.006092 1.293347
v 0.299409 0.006092 1.401847
v -0.441031 0.006092 1.401475
v -0.765480 0.006092 1.289449
v -1.010272 0.006092 1.105515
v -1.439836 0.006199 0.610531
v -1.623837 0.006928 0.281728
v -1.722783 0.008144 -0.111682
v -1.683743 0.007144 -0.543363
v 0.683594 0.018165 -0.450494
v 0.481571 0.018165 0.215488
v -0.040399 0.018165 0.431695
v -0.577648 0.018171 0.204064
v -1.116579 0.020679 -0.762429
v -1.378126 0.000000 -1.124232
v -1.054712 0.000000 -0.668295
v -0.995951 0.000000 -0.452195
v -0.901138 0.000000 -0.220833
v -0.763432 -0.000000 -0.029793
v -0.618829 0.000000 0.115491
v -0.483194 0.000000 0.227978
v -0.362256 0.000000 0.308052
v -0.239431 0.000000 0.360331
v -0.106927 0.000000 0.386780
v 0.028470 0.000000 0.386780
v 0.161274 0.000000 0.360364
v 0.286372 0.000000 0.308547
v 0.398957 0.000000 0.233320
v 0.494704 0.000000 0.137573
v 0.569931 0.000000 0.024988
v 0.621748 0.000000 -0.100110
v 0.648164 0.000000 -0.232914
v 0.648164 0.000000 -0.368319
v 0.621748 0.000000 -0.501123
v 0.581221 0.000000 -0.632180
v -1.426760 -0.000000 -1.086546
v -1.618080 0.000000 -0.770938
v -1.737194 -0.000000 -0.320387
v -1.704014 0.000000 0.097247
v -1.550487 0.000000 0.464588
v -1.362205 -0.000000 0.761180
v -1.145611 0.000000 1.009553
v -0.902885 -0.000000 1.222767
v -0.620534 -0.000000 1.374611
v -0.262109 -0.000000 1.449824
v 0.115982 -0.000000 1.449872
v 0.487251 -0.000000 1.376022
v 0.836979 -0.000000 1.231160
v 1.151725 -0.000000 1.020853
v 1.419395 -0.000000 0.753183
v 1.629703 -0.000000 0.438437
v 1.774564 -0.000000 0.088709
v 1.848414 -0.000000 -0.282560
v 1.848414 -0.000000 -0.661103
v 1.774564 -0.000000 -1.032372
v 1.626589 0.000000 -1.368928
v 1.070339 0.000000 -1.143775
v 0.936910 0.077021 0.436933
v -1.329651 0.077584 -0.702695
v 0.071350 0.077021 0.899584
v 1.172768 0.077021 -0.748803
v -0.810464 0.077025 0.607458
v 1.076569 0.077021 0.227919
v -1.344386 0.099891 -0.385969
v 0.317899 0.077021 0.850543
v 1.083530 0.075073 -0.976774
v -0.626485 0.077021 0.750862
v 1.172768 0.077021 -0.004325
v -1.288290 0.096925 -0.064532
v 0.550144 0.077021 0.754344
v -0.422462 0.077021 0.850106
v 1.221809 0.077021 -0.250875
v -1.152392 0.081371 0.211551
v 0.759158 0.077021 0.614685
v -1.258844 0.031992 -0.934555
v -0.179904 0.077021 0.899571
v 1.221809 0.077021 -0.502254
v -0.987812 0.077260 0.429665
v 1.487682 -0.005415 -1.423051
v 1.688972 -0.006092 -1.197842
v 1.834109 -0.006092 -0.468190
v 1.797473 -0.006092 -0.096216
v 1.688972 -0.006092 0.261463
v 1.512776 -0.006092 0.591101
v 0.986726 -0.006092 1.117151
v 0.657088 -0.006092 1.293347
v 0.299409 -0.006092 1.401847
v -0.441031 -0.006092 1.401475
v -0.765480 -0.006092 1.289449
v -1.010272 -0.006092 1.105515
v -1.439836 -0.006199 0.610531
v -1.623837 -0.006928 0.281728
v -1.722782 -0.008144 -0.111682
v -1.683743 -0.007144 -0.543363
v 0.683594 -0.018165 -0.450494
v 0.481571 -0.018165 0.215488
v -0.040399 -0.018165 0.431695
v -0.577648 -0.018171 0.204064
v -1.116579 -0.020679 -0.762429
v 0.936910 -0.077021 0.436933
v -1.329651 -0.077584 -0.702695
v 0.071350 -0.077021 0.899584
v 1.172768 -0.077021 -0.748803
v -0.810464 -0.077025 0.607458
v 1.076569 -0.077021 0.227919
v -1.344386 -0.099891 -0.385969
v 0.317899 -0.077021 0.850543
v 1.083530 -0.075073 -0.976774
v -0.626485 -0.077021 0.750862
v 1.172768 -0.077021 -0.004325
v -1.288290 -0.096925 -0.064532
v 0.550144 -0.077021 0.754344
v -0.422462 -0.077021 0.850106
v 1.221809 -0.077021 -0.250875
v -1.152392 -0.081371 0.211551
v 0.759158 -0.077021 0.614685
v -1.258844 -0.031992 -0.934555
v -0.179904 -0.077021 0.899571
v 1.221809 -0.077021 -0.502254
v -0.987812 -0.077260 0.429665
v 1.008483 -0.000000 -1.090439
v -1.249881 0.006094 0.875231
v 1.797473 0.006092 -0.840164
v -0.072565 0.006092 1.438484
v -1.509443 0.004667 -0.961686
v 1.275657 0.006092 0.880032
v -1.249881 -0.006094 0.875231
v 1.797473 -0.006092 -0.840164
v -0.072565 -0.006092 1.438484
v -1.509443 -0.004667 -0.961685
v 1.275657 -0.006092 0.880032
v 1.509667 -0.022814 -1.284477
v 1.647491 -0.023135 -0.972079
v 1.716100 -0.023135 -0.627161
v 1.716100 -0.023135 -0.275486
v 1.647492 -0.023135 0.069432
v 1.512911 -0.023135 0.394338
v 1.317531 -0.023135 0.686745
v 1.068859 -0.023135 0.935417
v 0.776451 -0.023135 1.130798
v 0.451546 -0.023135 1.265378
v 0.106628 -0.023135 1.333986
v -0.244671 -0.023135 1.333947
v -0.578768 -0.023135 1.264190
v -0.844909 -0.023135 1.123493
v -1.075551 -0.023136 0.925041
v -1.284058 -0.023207 0.691548
v -1.467276 -0.024442 0.411493
v -1.616458 -0.029113 0.063370
v -1.653860 -0.030005 -0.334021
v -1.557729 -0.023304 -0.755798
v -1.389286 -0.009609 -1.061524
v 0.968638 0.004015 -1.056184
v 1.509667 0.022814 -1.284476
v 1.647492 0.023135 -0.972079
v 1.716100 0.023135 -0.627161
v 1.716100 0.023135 -0.275486
v 1.647492 0.023135 0.069432
v 1.512911 0.023135 0.394338
v 1.317531 0.023135 0.686745
v 1.068859 0.023135 0.935417
v 0.776451 0.023135 1.130798
v 0.451546 0.023135 1.265378
v 0.106628 0.023135 1.333986
v -0.244671 0.023135 1.333946
v -0.578768 0.023135 1.264189
v -0.844909 0.023135 1.123493
v -1.075551 0.023136 0.925041
v -1.284058 0.023207 0.691548
v -1.467276 0.024442 0.411493
v -1.616458 0.029113 0.063370
v -1.653860 0.030005 -0.334021
v -1.557729 0.023304 -0.755798
v -1.389286 0.009609 -1.061524
v -0.722199 0.018485 0.069607
v 0.697778 0.018165 -0.306482
v -0.184299 0.018165 0.417499
v 0.369710 0.018165 0.307290
v -0.866140 0.020658 -0.101928
v 0.683594 0.018165 -0.162471
v -0.320861 0.018165 0.375290
v 0.665669 0.015384 -0.764042
v 0.242089 0.018165 0.375505
v -0.986627 0.024285 -0.325071
v 0.641588 0.018165 -0.023994
v -0.445612 0.018165 0.305106
v 0.641588 0.018165 -0.588971
v 0.103612 0.018165 0.417511
v -1.050454 0.021304 -0.564055
v 0.573373 0.018165 0.103627
v -0.722199 -0.018485 0.069607
v 0.697778 -0.018165 -0.306482
v -0.184299 -0.018165 0.417499
v 0.369710 -0.018165 0.307290
v -0.866140 -0.020658 -0.101928
v 0.683594 -0.018165 -0.162471
v -0.320861 -0.018165 0.375290
v 0.665669 -0.015384 -0.764042
v 0.242089 -0.018165 0.375505
v -0.986627 -0.024285 -0.325071
v 0.641588 -0.018165 -0.023994
v -0.445612 -0.018165 0.305106
v 0.641588 -0.018165 -0.588971
v 0.103612 -0.018165 0.417511
v -1.050454 -0.021304 -0.564055
v 0.573373 -0.018165 0.103627
v 0.968639 -0.004015 -1.056184
v -0.648994 0.018221 0.140935
v 0.694221 0.018165 -0.378836
v -0.112739 0.018165 0.428136
v 0.427894 0.018165 0.264134
v -1.607364 0.006136 -0.768249
v -1.722397 0.007900 -0.322808
v -1.688468 0.007666 0.091232
v -1.535712 0.006436 0.455160
v -1.133171 0.006092 0.994547
v -0.892591 0.006092 1.205139
v -0.613118 0.006092 1.355005
v 0.114321 0.006092 1.429295
v 0.480911 0.006092 1.356376
v 0.826231 0.006092 1.213340
v 1.401308 0.006092 0.741386
v 1.608965 0.006092 0.430606
v 1.752001 0.006092 0.085286
v 1.824920 0.006092 -0.281304
v 1.752001 0.006092 -1.021666
v 1.605828 0.006007 -1.353932
v 1.049801 0.001057 -1.126076
v -0.648994 -0.018221 0.140935
v 0.694221 -0.018165 -0.378836
v -0.112739 -0.018165 0.428136
v 0.427894 -0.018165 0.264134
v -1.607364 -0.006136 -0.768249
v -1.722397 -0.007900 -0.322808
v -1.688468 -0.007666 0.091232
v -1.535712 -0.006436 0.455160
v -1.133171 -0.006092 0.994547
v -0.892591 -0.006092 1.205140
v -0.613118 -0.006092 1.355005
v 0.114321 -0.006092 1.429295
v 0.480911 -0.006092 1.356376
v 0.826231 -0.006092 1.213340
v 1.401308 -0.006092 0.741386
v 1.608965 -0.006092 0.430606
v 1.752001 -0.006092 0.085286
v 1.824920 -0.006092 -0.281304
v 1.752001 -0.006092 -1.021666
v 1.605828 -0.006007 -1.353932
v 1.049801 -0.001057 -1.126076
v 1.824920 -0.006092 -0.655076
v 1.137011 -0.006092 1.005683
v -0.259012 -0.006092 1.429249
v -1.348329 -0.006110 0.748816
v -1.416875 -0.002530 -1.085055
v 1.824920 0.006092 -0.655076
v 1.137011 0.006092 1.005683
v -0.259012 0.006092 1.429249
v -1.348329 0.006110 0.748816
v -1.416875 0.002530 -1.085054
v 0.530217 -0.018165 0.161811
v -1.077156 -0.019103 -0.668987
v 0.031954 -0.018165 0.428138
v 0.665990 -0.018165 -0.520763
v -0.509891 -0.018166 0.258679
v 0.610613 -0.018165 0.041491
v -1.023696 -0.023558 -0.446750
v 0.173882 -0.018165 0.399907
v 0.622150 -0.017817 -0.660387
v -0.383700 -0.018165 0.343826
v 0.665990 -0.018165 -0.092201
v -0.932356 -0.022859 -0.208115
v 0.307574 -0.018165 0.344530
v -0.254161 -0.018165 0.399852
v 0.694221 -0.018165 -0.234129
v -0.795165 -0.019190 -0.010217
v 0.530217 0.018165 0.161811
v -1.077156 0.019103 -0.668987
v 0.031954 0.018165 0.428138
v 0.665990 0.018165 -0.520763
v -0.509890 0.018166 0.258679
v 0.610613 0.018165 0.041491
v -1.023696 0.023558 -0.446750
v 0.173882 0.018165 0.399907
v 0.622150 0.017817 -0.660387
v -0.383700 0.018165 0.343826
v 0.665990 0.018165 -0.092201
v -0.932356 0.022859 -0.208115
v 0.307574 0.018165 0.344530
v -0.254161 0.018165 0.399852
v 0.694221 0.018165 -0.234129
v -0.795165 0.019190 -0.010217
vn 0.2458 0.9517 -0.1838
vn 0.2907 0.9418 -0.1690
vn 0.0029 0.9997 0.0254
vn 0.0015 0.9999 0.0153
vn 0.2149 0.9571 -0.1943
vn -0.0018 1.0000 0.0054
vn -0.2376 0.9711 -0.0230
vn -0.2368 0.9704 -0.0467
vn 0.0023 1.0000 0.0010
vn 0.0023 1.0000 0.0007
vn -0.2360 0.9718 0.0004
vn 0.0022 1.0000 0.0005
vn 0.0767 0.9663 -0.2456
vn 0.1035 0.9663 -0.2355
vn -0.0046 1.0000 0.0041
vn -0.0021 1.0000 0.0040
vn 0.0510 0.9660 -0.2534
vn -0.0008 1.0000 0.0036
vn -0.1770 0.9706 -0.1630
vn 0.0493 0.9884 -0.1434
vn 0.2438 0.9310 -0.2718
vn -0.0051 0.9785 -0.2064
vn 0.3589 0.8711 -0.3353
vn 0.1110 0.9676 -0.2270
vn -0.1224 0.9657 -0.2288
vn -0.0997 0.9655 -0.2404
vn 0.0012 1.0000 0.0032
vn 0.0014 1.0000 0.0031
vn -0.1437 0.9660 -0.2147
vn 0.0017 1.0000 0.0029
vn 0.3435 0.9267 -0.1526
vn 0.3900 0.9110 -0.1337
vn -0.0084 0.9999 -0.0073
vn -0.0008 0.9998 0.0207
vn -0.2336 0.9698 -0.0705
vn -0.2279 0.9691 -0.0940
vn 0.0024 1.0000 0.0015
vn 0.0024 1.0000 0.0012
vn 0.1292 0.9656 -0.2259
vn 0.1494 0.9643 -0.2185
vn -0.0046 1.0000 0.0001
vn -0.0058 1.0000 0.0019
vn -0.3310 0.9406 -0.0754
vn -0.2254 0.9719 0.0685
vn -0.0035 1.0000 -0.0066
vn -0.0472 0.9972 -0.0582
vn -0.2471 0.9622 -0.1148
vn -0.0493 0.9931 -0.1061
vn -0.0757 0.9654 -0.2496
vn -0.0509 0.9654 -0.2559
vn 0.0007 1.0000 0.0034
vn 0.0009 1.0000 0.0033
vn 0.4224 0.8987 -0.1180
vn 0.4407 0.8895 -0.1208
vn -0.0033 0.9975 -0.0700
vn -0.0093 0.9990 -0.0429
vn -0.2198 0.9685 -0.1171
vn -0.2091 0.9679 -0.1394
vn 0.0023 1.0000 0.0020
vn 0.0023 1.0000 0.0017
vn 0.1644 0.9633 -0.2122
vn 0.1780 0.9621 -0.2064
vn -0.0063 1.0000 0.0009
vn -0.0048 1.0000 0.0007
vn -0.2181 0.9737 0.0665
vn -0.2261 0.9730 0.0454
vn 0.0020 1.0000 0.0001
vn 0.0019 1.0000 -0.0001
vn -0.0255 0.9654 -0.2595
vn 0.0001 0.9655 -0.2603
vn 0.0001 1.0000 0.0035
vn 0.0004 1.0000 0.0034
vn 0.4616 0.8722 -0.1620
vn 0.4431 0.8663 -0.2307
vn 0.0085 0.9952 -0.0971
vn -0.1961 0.9674 -0.1605
vn -0.1807 0.9669 -0.1804
vn 0.0020 1.0000 0.0025
vn 0.0021 1.0000 0.0022
vn 0.2653 0.9103 -0.3179
vn 0.2860 0.9060 -0.3120
vn 0.1938 0.9603 -0.2007
vn 0.3140 0.8985 -0.3068
vn -0.3510 0.9339 0.0684
vn -0.3599 0.9324 0.0341
vn -0.2321 0.9724 0.0232
vn -0.3655 0.9308 -0.0014
vn -0.0003 0.9164 -0.4003
vn 0.0387 0.9169 -0.3973
vn 0.0256 0.9657 -0.2582
vn 0.0773 0.9175 -0.3902
vn -0.2774 0.9194 -0.2787
vn -0.2504 0.9184 -0.3063
vn -0.1632 0.9664 -0.1985
vn -0.2203 0.9176 -0.3309
vn 0.6020 0.7305 -0.3223
vn -0.1201 0.9868 0.1087
vn -0.0056 1.0000 0.0011
vn -0.1325 0.9860 0.1017
vn -0.2670 0.9605 -0.0783
vn -0.2457 0.9616 -0.1221
vn -0.3709 0.9144 -0.1621
vn -0.3948 0.9126 -0.1060
vn -0.2977 0.9345 -0.1950
vn -0.3596 0.9056 -0.2249
vn -0.4458 0.8752 -0.1877
vn -0.4717 0.8738 -0.1180
vn -0.2504 0.9677 0.0290
vn -0.2679 0.9630 -0.0281
vn -0.3969 0.9171 -0.0384
vn -0.3775 0.9255 0.0311
vn -0.4728 0.8804 -0.0379
vn -0.4500 0.8921 0.0403
vn -0.1809 0.9787 0.0974
vn -0.2165 0.9734 0.0748
vn -0.3362 0.9377 0.0876
vn -0.2871 0.9498 0.1244
vn -0.4033 0.9092 0.1037
vn -0.3476 0.9260 0.1474
vn -0.1420 0.9847 0.1011
vn -0.1557 0.9824 0.1029
vn -0.2479 0.9583 0.1419
vn -0.2251 0.9634 0.1457
vn -0.3028 0.9377 0.1706
vn -0.2763 0.9447 0.1768
vn -0.0000 0.9887 0.1496
vn -0.0002 1.0000 0.0035
vn -0.0148 0.9888 0.1483
vn -0.1006 0.9879 0.1184
vn -0.1082 0.9874 0.1155
vn -0.1691 0.9698 0.1761
vn -0.1576 0.9709 0.1805
vn -0.1883 0.9682 0.1645
vn -0.2295 0.9523 0.2009
vn -0.2071 0.9542 0.2157
vn -0.1936 0.9557 0.2215
vn -0.0700 0.9887 0.1322
vn -0.0899 0.9883 0.1232
vn -0.1416 0.9718 0.1884
vn -0.1102 0.9729 0.2033
vn -0.1721 0.9577 0.2305
vn -0.1336 0.9596 0.2476
vn -0.0303 0.9889 0.1453
vn -0.0481 0.9889 0.1403
vn -0.0752 0.9734 0.2163
vn -0.0471 0.9734 0.2241
vn -0.0923 0.9602 0.2637
vn -0.0582 0.9600 0.2740
vn 0.1030 0.9893 0.1032
vn 0.0019 1.0000 0.0027
vn 0.0932 0.9891 0.1138
vn 0.0293 0.9887 0.1472
vn 0.0147 0.9887 0.1493
vn 0.0227 0.9729 0.2301
vn 0.0452 0.9728 0.2270
vn -0.0000 0.9730 0.2307
vn -0.0003 0.9593 0.2824
vn 0.0276 0.9591 0.2817
vn 0.0553 0.9590 0.2778
vn 0.0572 0.9887 0.1382
vn 0.0435 0.9887 0.1435
vn 0.0671 0.9729 0.2213
vn 0.0882 0.9730 0.2132
vn 0.0823 0.9591 0.2708
vn 0.1083 0.9593 0.2608
vn 0.0822 0.9890 0.1232
vn 0.0702 0.9888 0.1314
vn 0.1082 0.9732 0.2027
vn 0.1268 0.9735 0.1901
vn 0.1329 0.9596 0.2478
vn 0.1559 0.9601 0.2323
vn 0.1254 0.9918 -0.0248
vn 0.0021 1.0000 0.0003
vn 0.1292 0.9915 -0.0126
vn 0.1187 0.9897 0.0795
vn 0.1116 0.9895 0.0917
vn 0.1722 0.9748 0.1416
vn 0.1832 0.9754 0.1227
vn 0.1590 0.9743 0.1593
vn 0.1954 0.9613 0.1943
vn 0.2115 0.9620 0.1725
vn 0.2251 0.9628 0.1492
vn 0.1287 0.9902 0.0535
vn 0.1244 0.9900 0.0667
vn 0.1921 0.9760 0.1030
vn 0.1988 0.9766 0.0826
vn 0.2359 0.9637 0.1250
vn 0.2440 0.9646 0.0999
vn 0.1329 0.9908 0.0266
vn 0.1315 0.9905 0.0401
vn 0.2032 0.9772 0.0619
vn 0.2055 0.9778 0.0412
vn 0.2494 0.9655 0.0745
vn 0.2520 0.9665 0.0490
vn 0.1317 0.9913 0.0002
vn 0.1330 0.9910 0.0133
vn 0.2056 0.9784 0.0205
vn 0.2036 0.9790 0.0003
vn 0.2521 0.9674 0.0237
vn 0.2496 0.9683 -0.0011
vn 0.2149 -0.9571 -0.1943
vn -0.0018 -1.0000 0.0054
vn 0.0015 -0.9999 0.0153
vn 0.2458 -0.9517 -0.1838
vn 0.1125 0.9923 -0.0511
vn 0.1207 0.9920 -0.0364
vn 0.1867 0.9808 -0.0564
vn 0.1753 0.9815 -0.0775
vn 0.1941 0.9802 -0.0383
vn 0.2378 0.9701 -0.0484
vn 0.2287 0.9709 -0.0705
vn 0.2138 0.9722 -0.0959
vn 0.0462 0.9912 -0.1236
vn 0.0807 0.9923 -0.0943
vn 0.1335 0.9819 -0.1346
vn 0.0854 0.9832 -0.1616
vn 0.1659 0.9744 -0.1520
vn 0.1172 0.9720 -0.2037
vn -0.6528 -0.0229 -0.7571
vn -0.6530 -0.0000 -0.7573
vn -0.6522 -0.0000 -0.7580
vn -0.5925 0.3874 -0.7063
vn -0.6881 -0.0000 -0.7256
vn 0.0029 -0.9997 0.0254
vn 0.2907 -0.9418 -0.1690
vn -0.2360 -0.9718 0.0004
vn 0.0022 -1.0000 0.0005
vn 0.0023 -1.0000 0.0007
vn -0.2376 -0.9711 -0.0230
vn 0.0023 -1.0000 0.0010
vn -0.2368 -0.9704 -0.0467
vn 0.0510 -0.9660 -0.2534
vn -0.0008 -1.0000 0.0036
vn -0.0021 -1.0000 0.0040
vn 0.0767 -0.9663 -0.2456
vn -0.0046 -1.0000 0.0041
vn 0.1035 -0.9663 -0.2355
vn 0.3589 -0.8711 -0.3353
vn 0.2438 -0.9310 -0.2718
vn -0.0051 -0.9785 -0.2064
vn 0.1110 -0.9676 -0.2270
vn -0.1437 -0.9660 -0.2147
vn 0.0017 -1.0000 0.0029
vn 0.0014 -1.0000 0.0031
vn -0.1224 -0.9657 -0.2288
vn 0.0493 -0.9884 -0.1434
vn -0.1770 -0.9706 -0.1630
vn 0.0012 -1.0000 0.0032
vn -0.0997 -0.9655 -0.2404
vn -0.0008 -0.9998 0.0207
vn 0.3435 -0.9267 -0.1526
vn -0.0084 -0.9999 -0.0073
vn 0.3900 -0.9110 -0.1337
vn 0.0024 -1.0000 0.0012
vn -0.2336 -0.9698 -0.0705
vn 0.0024 -1.0000 0.0015
vn -0.2279 -0.9691 -0.0940
vn -0.0058 -1.0000 0.0019
vn 0.1292 -0.9656 -0.2259
vn -0.0046 -1.0000 0.0001
vn 0.1494 -0.9643 -0.2185
vn -0.2471 -0.9622 -0.1148
vn -0.0493 -0.9931 -0.1061
vn -0.0472 -0.9972 -0.0582
vn -0.3310 -0.9406 -0.0754
vn -0.0035 -1.0000 -0.0065
vn -0.2254 -0.9719 0.0685
vn 0.0009 -1.0000 0.0033
vn -0.0757 -0.9654 -0.2496
vn 0.0007 -1.0000 0.0034
vn -0.0509 -0.9654 -0.2559
vn -0.0093 -0.9990 -0.0429
vn 0.4224 -0.8987 -0.1180
vn -0.0033 -0.9975 -0.0700
vn 0.4408 -0.8895 -0.1208
vn 0.0023 -1.0000 0.0017
vn -0.2198 -0.9685 -0.1171
vn 0.0023 -1.0000 0.0020
vn -0.2091 -0.9679 -0.1394
vn -0.0048 -1.0000 0.0007
vn 0.1644 -0.9633 -0.2122
vn -0.0063 -1.0000 0.0009
vn 0.1780 -0.9621 -0.2064
vn 0.0019 -1.0000 -0.0001
vn -0.2181 -0.9737 0.0665
vn 0.0020 -1.0000 0.0001
vn -0.2261 -0.9730 0.0454
vn 0.0004 -1.0000 0.0034
vn -0.0255 -0.9654 -0.2595
vn 0.0001 -1.0000 0.0035
vn 0.0001 -0.9655 -0.2603
vn 0.0085 -0.9952 -0.0971
vn 0.4616 -0.8722 -0.1620
vn 0.4431 -0.8663 -0.2307
vn 0.0021 -1.0000 0.0022
vn -0.1961 -0.9674 -0.1605
vn 0.0020 -1.0000 0.0025
vn -0.1807 -0.9669 -0.1804
vn 0.6020 -0.7305 -0.3223
vn 0.1938 -0.9603 -0.2007
vn 0.3140 -0.8985 -0.3068
vn 0.2860 -0.9060 -0.3120
vn 0.2653 -0.9103 -0.3179
vn -0.2321 -0.9724 0.0232
vn -0.3655 -0.9308 -0.0014
vn -0.3599 -0.9324 0.0341
vn -0.3510 -0.9339 0.0684
vn 0.0256 -0.9657 -0.2582
vn 0.0773 -0.9175 -0.3902
vn 0.0387 -0.9169 -0.3973
vn -0.0003 -0.9164 -0.4003
vn -0.1632 -0.9664 -0.1985
vn -0.2203 -0.9176 -0.3309
vn -0.2504 -0.9184 -0.3063
vn -0.2774 -0.9194 -0.2787
vn -0.0056 -1.0000 0.0011
vn -0.1325 -0.9860 0.1017
vn -0.1420 -0.9847 0.1011
vn -0.2670 -0.9605 -0.0783
vn -0.3948 -0.9126 -0.1060
vn -0.3709 -0.9144 -0.1621
vn -0.2457 -0.9616 -0.1221
vn -0.4717 -0.8738 -0.1180
vn -0.4458 -0.8753 -0.1877
vn -0.3596 -0.9056 -0.2249
vn -0.2977 -0.9345 -0.1950
vn -0.2504 -0.9677 0.0290
vn -0.3775 -0.9255 0.0311
vn -0.3969 -0.9171 -0.0384
vn -0.2679 -0.9630 -0.0281
vn -0.4500 -0.8921 0.0403
vn -0.4728 -0.8804 -0.0379
vn -0.1809 -0.9787 0.0974
vn -0.2871 -0.9498 0.1244
vn -0.3362 -0.9377 0.0876
vn -0.2165 -0.9734 0.0748
vn -0.3476 -0.9260 0.1474
vn -0.4033 -0.9092 0.1037
vn -0.2251 -0.9634 0.1457
vn -0.2479 -0.9583 0.1419
vn -0.1557 -0.9824 0.1029
vn -0.2763 -0.9447 0.1768
vn -0.3028 -0.9377 0.1706
vn -0.0002 -1.0000 0.0035
vn -0.0148 -0.9888 0.1483
vn -0.0303 -0.9889 0.1453
vn -0.1201 -0.9868 0.1087
vn -0.1006 -0.9879 0.1184
vn -0.1576 -0.9709 0.1805
vn -0.1691 -0.9698 0.1761
vn -0.1082 -0.9874 0.1155
vn -0.1936 -0.9557 0.2215
vn -0.2071 -0.9542 0.2157
vn -0.2295 -0.9523 0.2009
vn -0.1883 -0.9682 0.1645
vn -0.0700 -0.9887 0.1322
vn -0.1102 -0.9729 0.2033
vn -0.1416 -0.9718 0.1884
vn -0.0899 -0.9883 0.1232
vn -0.1336 -0.9596 0.2476
vn -0.1721 -0.9577 0.2305
vn -0.0471 -0.9734 0.2241
vn -0.0752 -0.9734 0.2163
vn -0.0481 -0.9889 0.1403
vn -0.0582 -0.9600 0.2740
vn -0.0923 -0.9602 0.2637
vn 0.0019 -1.0000 0.0027
vn 0.0932 -0.9891 0.1138
vn 0.0822 -0.9890 0.1232
vn -0.0000 -0.9887 0.1496
vn 0.0293 -0.9887 0.1472
vn 0.0452 -0.9728 0.2270
vn 0.0227 -0.9729 0.2301
vn 0.0147 -0.9887 0.1493
vn 0.0553 -0.9590 0.2778
vn 0.0276 -0.9591 0.2817
vn -0.0003 -0.9593 0.2824
vn -0.0000 -0.9730 0.2307
vn 0.0572 -0.9887 0.1382
vn 0.0882 -0.9730 0.2132
vn 0.0671 -0.9729 0.2213
vn 0.0435 -0.9887 0.1435
vn 0.1083 -0.9593 0.2608
vn 0.0823 -0.9591 0.2708
vn 0.1268 -0.9735 0.1901
vn 0.1082 -0.9732 0.2027
vn 0.0702 -0.9888 0.1314
vn 0.1559 -0.9601 0.2323
vn 0.1329 -0.9596 0.2478
vn 0.0021 -1.0000 0.0003
vn 0.1292 -0.9915 -0.0126
vn 0.1317 -0.9913 0.0002
vn 0.1030 -0.9893 0.1032
vn 0.1187 -0.9897 0.0795
vn 0.1832 -0.9754 0.1227
vn 0.1722 -0.9748 0.1416
vn 0.1116 -0.9895 0.0917
vn 0.2251 -0.9628 0.1492
vn 0.2115 -0.9620 0.1725
vn 0.1954 -0.9613 0.1943
vn 0.1590 -0.9743 0.1593
vn 0.1287 -0.9902 0.0535
vn 0.1988 -0.9766 0.0826
vn 0.1921 -0.9760 0.1030
vn 0.1244 -0.9900 0.0667
vn 0.2440 -0.9646 0.0999
vn 0.2359 -0.9637 0.1250
vn 0.1329 -0.9908 0.0266
vn 0.2055 -0.9778 0.0412
vn 0.2032 -0.9772 0.0619
vn 0.1315 -0.9905 0.0401
vn 0.2520 -0.9665 0.0490
vn 0.2494 -0.9655 0.0745
vn 0.2036 -0.9790 0.0003
vn 0.2056 -0.9784 0.0205
vn 0.1330 -0.9910 0.0133
vn 0.2496 -0.9683 -0.0011
vn 0.2521 -0.9674 0.0237
vn -0.5925 -0.3874 -0.7063
vn -0.6341 -0.3821 -0.6723
vn -0.6435 -0.3571 -0.6770
vn 0.1254 -0.9918 -0.0248
vn 0.1125 -0.9923 -0.0511
vn 0.1753 -0.9815 -0.0775
vn 0.1867 -0.9808 -0.0564
vn 0.1207 -0.9920 -0.0364
vn 0.2138 -0.9722 -0.0959
vn 0.2287 -0.9709 -0.0705
vn 0.2378 -0.9701 -0.0484
vn 0.1941 -0.9802 -0.0383
vn 0.0462 -0.9912 -0.1236
vn 0.0854 -0.9832 -0.1616
vn 0.1335 -0.9819 -0.1346
vn 0.0807 -0.9923 -0.0943
vn 0.1172 -0.9720 -0.2037
vn 0.1659 -0.9744 -0.1520
vn -0.6528 0.0229 -0.7571
vn 0.2448 -0.9692 -0.0252
vn 0.1998 -0.9796 -0.0194
vn 0.1767 -0.9606 0.2143
vn 0.1438 -0.9739 0.1755
vn -0.0286 -0.9596 0.2798
vn -0.0229 -0.9732 0.2287
vn -0.2553 -0.9492 0.1839
vn -0.2089 -0.9662 0.1508
vn -0.2397 -0.9486 -0.2065
vn -0.1393 -0.9752 -0.1721
vn -0.1197 -0.9807 -0.1545
vn -0.0302 -0.9877 -0.1535
vn 0.1998 0.9796 -0.0194
vn 0.2448 0.9692 -0.0252
vn 0.1438 0.9739 0.1755
vn 0.1767 0.9606 0.2143
vn -0.0229 0.9732 0.2287
vn -0.0286 0.9596 0.2798
vn -0.2089 0.9662 0.1508
vn -0.2553 0.9492 0.1839
vn -0.1393 0.9752 -0.1721
vn -0.2397 0.9486 -0.2065
vn -0.0302 0.9877 -0.1535
vn -0.1197 0.9807 -0.1545
vn -0.4397 0.7147 -0.5440
vn -0.4079 0.7133 -0.5700
vn -0.6341 0.3821 -0.6723
vn -0.4079 -0.7133 -0.5700
vn -0.4397 -0.7147 -0.5440
vn -0.4071 -0.7103 -0.5743
vn -0.4330 -0.6412 -0.6335
vn -0.4344 -0.6370 -0.6368
vn -0.4344 0.6370 -0.6368
vn -0.4071 0.7103 -0.5743
vn -0.4330 0.6412 -0.6335
vn -0.3216 -0.9219 -0.2162
vn -0.3012 -0.9206 -0.2486
vn 0.6279 -0.7599 -0.1681
vn 0.6403 -0.7368 -0.2173
vn -0.0783 -0.9160 -0.3935
vn -0.0395 -0.9161 -0.3990
vn -0.3377 -0.9352 0.1063
vn -0.3390 -0.9353 0.1014
vn 0.2240 -0.9146 -0.3365
vn 0.2464 -0.9127 -0.3260
vn -0.3513 -0.9247 -0.1469
vn -0.3383 -0.9232 -0.1822
vn 0.5661 -0.7936 -0.2230
vn 0.6112 -0.7716 -0.1762
vn -0.1529 -0.9164 -0.3699
vn -0.1162 -0.9161 -0.3838
vn -0.5093 -0.8294 -0.2294
vn -0.3922 -0.9198 0.0097
vn 0.1560 -0.9179 -0.3648
vn 0.1938 -0.9166 -0.3496
vn -0.3659 -0.9277 -0.0742
vn -0.3605 -0.9262 -0.1107
vn 0.4155 -0.8628 -0.2880
vn 0.4922 -0.8286 -0.2669
vn -0.1877 -0.9169 -0.3522
vn 0.1162 -0.9180 -0.3791
vn -0.3675 -0.9293 -0.0376
vn 0.3551 -0.8856 -0.2994
vn -0.3216 0.9219 -0.2162
vn -0.3012 0.9206 -0.2486
vn 0.6279 0.7599 -0.1681
vn 0.6403 0.7368 -0.2173
vn -0.0783 0.9160 -0.3935
vn -0.0395 0.9161 -0.3990
vn -0.3377 0.9352 0.1063
vn -0.3390 0.9353 0.1014
vn 0.2240 0.9146 -0.3365
vn 0.2464 0.9127 -0.3260
vn -0.3513 0.9247 -0.1469
vn -0.3383 0.9232 -0.1822
vn 0.5661 0.7936 -0.2230
vn 0.6112 0.7716 -0.1762
vn -0.1529 0.9164 -0.3699
vn -0.1162 0.9161 -0.3838
vn -0.5093 0.8294 -0.2294
vn -0.3922 0.9198 0.0097
vn 0.1560 0.9179 -0.3648
vn 0.1938 0.9166 -0.3496
vn -0.3659 0.9277 -0.0742
vn -0.3605 0.9262 -0.1107
vn 0.4155 0.8628 -0.2880
vn 0.4922 0.8286 -0.2669
vn -0.1877 0.9169 -0.3522
vn 0.1162 0.9180 -0.3791
vn -0.3675 0.9293 -0.0376
vn 0.3551 0.8856 -0.2994
vn -0.6435 0.3571 -0.6770
vt 0.739764 0.093554
vt 0.762264 0.093554
vt 0.762346 0.510309
vt 0.739801 0.510309
vt 0.718509 0.093554
vt 0.718574 0.510309
vt 0.236708 0.093554
vt 0.256251 0.093554
vt 0.256251 0.510309
vt 0.236708 0.510309
vt 0.217165 0.093554
vt 0.217165 0.510309
vt 0.587837 0.093554
vt 0.606129 0.093554
vt 0.606053 0.510309
vt 0.587815 0.510309
vt 0.568775 0.093554
vt 0.568761 0.510309
vt 0.906104 0.880163
vt 0.906969 0.485442
vt 0.927589 0.485442
vt 0.927481 0.886054
vt 0.948209 0.485442
vt 0.948209 0.950847
vt 0.432137 0.093554
vt 0.451680 0.093554
vt 0.451680 0.510309
vt 0.432137 0.510309
vt 0.412594 0.093554
vt 0.412594 0.510309
vt 0.786195 0.093554
vt 0.810852 0.093554
vt 0.810856 0.510309
vt 0.786216 0.510309
vt 0.275794 0.093554
vt 0.295337 0.093554
vt 0.295337 0.510309
vt 0.275794 0.510309
vt 0.623270 0.093554
vt 0.640570 0.093554
vt 0.640664 0.510309
vt 0.623275 0.510309
vt 0.119242 0.101115
vt 0.138993 0.093554
vt 0.138993 0.510309
vt 0.119511 0.509749
vt 0.097892 0.160091
vt 0.099907 0.485442
vt 0.471223 0.093554
vt 0.490766 0.093554
vt 0.490766 0.510309
vt 0.471223 0.510309
vt 0.835627 0.093554
vt 0.860091 0.093554
vt 0.860008 0.510309
vt 0.835612 0.510309
vt 0.314880 0.093554
vt 0.334422 0.093554
vt 0.334422 0.510309
vt 0.314880 0.510309
vt 0.659327 0.093554
vt 0.678830 0.093554
vt 0.678823 0.510309
vt 0.659348 0.510309
vt 0.158536 0.093554
vt 0.178079 0.093554
vt 0.178079 0.510309
vt 0.158536 0.510309
vt 0.510309 0.093554
vt 0.529852 0.093554
vt 0.529852 0.510309
vt 0.510309 0.510309
vt 0.883884 0.093004
vt 0.907352 0.090257
vt 0.883722 0.508237
vt 0.353965 0.093554
vt 0.373508 0.093554
vt 0.373508 0.510309
vt 0.353965 0.510309
vt 0.908024 0.485442
vt 0.907880 0.090257
vt 0.929069 0.485442
vt 0.678904 0.011274
vt 0.698348 0.011274
vt 0.698421 0.093554
vt 0.717793 0.011274
vt 0.178079 0.011274
vt 0.197622 0.011274
vt 0.197622 0.093554
vt 0.217165 0.011274
vt 0.529852 0.011274
vt 0.549395 0.011274
vt 0.549376 0.093554
vt 0.568937 0.011274
vt 0.373508 0.011274
vt 0.393051 0.011274
vt 0.393051 0.093554
vt 0.412594 0.011274
vt 0.908024 0.011274
vt 0.950113 0.485442
vt 0.678823 0.880163
vt 0.698436 0.510309
vt 0.698436 0.880164
vt 0.859987 0.880164
vt 0.883576 0.880163
vt 0.883605 0.962663
vt 0.860033 0.962663
vt 0.906176 0.962663
vt 0.906969 0.992149
vt 0.883753 0.992149
vt 0.860536 0.992149
vt 0.810856 0.880164
vt 0.835609 0.880163
vt 0.835620 0.962663
vt 0.810852 0.962663
vt 0.835672 0.992149
vt 0.810807 0.992149
vt 0.762346 0.880164
vt 0.786216 0.880164
vt 0.786195 0.962663
vt 0.762264 0.962663
vt 0.786088 0.992149
vt 0.761369 0.992149
vt 0.718574 0.880164
vt 0.739800 0.880163
vt 0.739764 0.962663
vt 0.718509 0.962663
vt 0.739581 0.992149
vt 0.717793 0.992149
vt 0.529852 0.880164
vt 0.549372 0.510309
vt 0.549372 0.880164
vt 0.640664 0.880163
vt 0.659348 0.880163
vt 0.659327 0.962663
vt 0.640570 0.962663
vt 0.678830 0.962663
vt 0.678904 0.992149
vt 0.659217 0.992149
vt 0.639530 0.992149
vt 0.606053 0.880164
vt 0.623274 0.880163
vt 0.623270 0.962663
vt 0.606129 0.962663
vt 0.623246 0.992149
vt 0.606963 0.992149
vt 0.568761 0.880163
vt 0.587814 0.880163
vt 0.587837 0.962663
vt 0.568775 0.962663
vt 0.587950 0.992149
vt 0.568937 0.992149
vt 0.373508 0.880163
vt 0.393051 0.510309
vt 0.393051 0.880164
vt 0.490766 0.880164
vt 0.510309 0.880164
vt 0.510309 0.962663
vt 0.490766 0.962663
vt 0.529852 0.962663
vt 0.529852 0.992149
vt 0.510309 0.992149
vt 0.490766 0.992149
vt 0.451680 0.880164
vt 0.471223 0.880163
vt 0.471223 0.962663
vt 0.451680 0.962663
vt 0.471223 0.992149
vt 0.451680 0.992149
vt 0.412594 0.880164
vt 0.432137 0.880163
vt 0.432137 0.962663
vt 0.412594 0.962663
vt 0.432137 0.992149
vt 0.412594 0.992149
vt 0.178079 0.880164
vt 0.197622 0.510309
vt 0.197622 0.880164
vt 0.334422 0.880163
vt 0.353965 0.880163
vt 0.353965 0.962663
vt 0.334423 0.962663
vt 0.373508 0.962663
vt 0.373508 0.992149
vt 0.353965 0.992149
vt 0.334422 0.992149
vt 0.295337 0.880163
vt 0.314880 0.880163
vt 0.314880 0.962663
vt 0.295337 0.962663
vt 0.314880 0.992149
vt 0.295337 0.992149
vt 0.256251 0.880164
vt 0.275794 0.880163
vt 0.275794 0.962663
vt 0.256251 0.962663
vt 0.275794 0.992149
vt 0.256251 0.992149
vt 0.217165 0.880164
vt 0.236708 0.880164
vt 0.236708 0.962663
vt 0.217165 0.962663
vt 0.236708 0.992149
vt 0.217165 0.992149
vt 0.718574 0.510309
vt 0.739801 0.510309
vt 0.739764 0.093554
vt 0.138993 0.880164
vt 0.158536 0.880164
vt 0.158536 0.962663
vt 0.138993 0.962663
vt 0.178079 0.962663
vt 0.178079 0.992149
vt 0.158536 0.992149
vt 0.138993 0.992149
vt 0.099907 0.950848
vt 0.119450 0.886054
vt 0.119450 0.964135
vt 0.099907 0.971498
vt 0.119450 0.992149
vt 0.099907 0.992149
vt 0.044976 0.540958
vt 0.041397 0.564425
vt 0.029703 0.485442
vt 0.032564 0.466117
vt 0.053892 0.468440
vt 0.035425 0.446793
vt 0.762264 0.093554
vt 0.217165 0.093554
vt 0.217165 0.510309
vt 0.236708 0.093554
vt 0.256251 0.093554
vt 0.568775 0.093554
vt 0.568761 0.510309
vt 0.587837 0.093554
vt 0.606053 0.510309
vt 0.606129 0.093554
vt 0.927481 0.886054
vt 0.412594 0.093554
vt 0.412594 0.510309
vt 0.432137 0.093554
vt 0.906104 0.880164
vt 0.451680 0.510309
vt 0.451680 0.093554
vt 0.786216 0.510309
vt 0.786195 0.093554
vt 0.810856 0.510309
vt 0.810852 0.093554
vt 0.275794 0.093554
vt 0.295337 0.510309
vt 0.295337 0.093554
vt 0.623270 0.093554
vt 0.640664 0.510309
vt 0.640570 0.093554
vt 0.097892 0.160091
vt 0.119242 0.101115
vt 0.138993 0.510309
vt 0.138993 0.093554
vt 0.471223 0.510309
vt 0.471223 0.093554
vt 0.490766 0.510309
vt 0.490766 0.093554
vt 0.835627 0.093554
vt 0.860091 0.093554
vt 0.314880 0.093554
vt 0.334423 0.093554
vt 0.659326 0.093554
vt 0.678823 0.510309
vt 0.678830 0.093554
vt 0.158536 0.510309
vt 0.158536 0.093554
vt 0.178079 0.093554
vt 0.529852 0.093554
vt 0.883884 0.093004
vt 0.353965 0.510309
vt 0.353965 0.093554
vt 0.373508 0.510309
vt 0.373508 0.093554
vt 0.197622 0.093554
vt 0.698436 0.510309
vt 0.698436 0.880164
vt 0.718574 0.880164
vt 0.859987 0.880164
vt 0.860033 0.962663
vt 0.883576 0.880164
vt 0.906176 0.962663
vt 0.810856 0.880164
vt 0.835609 0.880164
vt 0.762346 0.880164
vt 0.786195 0.962663
vt 0.786216 0.880164
vt 0.739800 0.880164
vt 0.549372 0.510309
vt 0.549372 0.880164
vt 0.568761 0.880164
vt 0.678823 0.880164
vt 0.640664 0.880164
vt 0.640570 0.962663
vt 0.659327 0.962663
vt 0.659348 0.880164
vt 0.678830 0.962663
vt 0.606129 0.962663
vt 0.623270 0.962663
vt 0.568775 0.962663
vt 0.587837 0.962663
vt 0.587814 0.880164
vt 0.393051 0.510309
vt 0.393051 0.880164
vt 0.412594 0.880164
vt 0.529852 0.880163
vt 0.510309 0.962663
vt 0.529852 0.962663
vt 0.451680 0.880164
vt 0.451680 0.962663
vt 0.471223 0.962663
vt 0.412594 0.962663
vt 0.432137 0.962663
vt 0.432137 0.880164
vt 0.197622 0.510309
vt 0.373508 0.880163
vt 0.334422 0.880164
vt 0.334422 0.962663
vt 0.353965 0.962663
vt 0.373508 0.962663
vt 0.295337 0.880164
vt 0.295337 0.962663
vt 0.314880 0.962663
vt 0.314880 0.880164
vt 0.275794 0.962663
vt 0.275794 0.880164
vt 0.217165 0.962663
vt 0.236708 0.962663
vt 0.053892 0.468440
vt 0.099907 0.011274
vt 0.178079 0.880164
vt 0.138993 0.880164
vt 0.138993 0.962663
vt 0.158536 0.880164
vt 0.178079 0.962663
vt 0.099907 0.950848
vt 0.119450 0.886054
vt 0.044976 0.540958
vt 0.197622 0.992149
vt 0.197622 0.962663
vt 0.393051 0.992149
vt 0.393051 0.962663
vt 0.549395 0.992149
vt 0.549376 0.962663
vt 0.698348 0.992149
vt 0.698421 0.962663
vt 0.927589 0.992149
vt 0.927499 0.964135
vt 0.948209 0.992149
vt 0.948209 0.971498
vt 0.197622 0.962663
vt 0.393051 0.962663
vt 0.549376 0.962663
vt 0.698421 0.962663
vt 0.927499 0.964135
vt 0.099907 0.920961
vt 0.099907 0.920961
vt 0.099907 0.940285
vt 0.099907 0.959610
vt 0.334422 0.011274
vt 0.353965 0.011274
vt 0.860536 0.011274
vt 0.883753 0.011274
vt 0.906969 0.011274
vt 0.490766 0.011274
vt 0.510309 0.011274
vt 0.138993 0.011274
vt 0.158536 0.011274
vt 0.639530 0.011274
vt 0.659217 0.011274
vt 0.295337 0.011274
vt 0.314880 0.011274
vt 0.810807 0.011274
vt 0.835672 0.011274
vt 0.451680 0.011274
vt 0.471223 0.011274
vt 0.119450 0.011274
vt 0.606963 0.011274
vt 0.623246 0.011274
vt 0.256251 0.011274
vt 0.275794 0.011274
vt 0.761369 0.011274
vt 0.786088 0.011274
vt 0.432137 0.011274
vt 0.587950 0.011274
vt 0.236708 0.011274
vt 0.739581 0.011274
s 1
f 429/1/1 317/2/2 53/3/3 211/4/4
f 313/5/5 429/1/1 211/4/4 44/6/6
f 428/7/7 318/8/8 54/9/9 210/10/10
f 314/11/11 428/7/7 210/10/10 46/12/12
f 427/13/13 319/14/14 55/15/15 209/16/16
f 315/17/17 427/13/13 209/16/16 48/18/18
f 109/19/19 50/20/20 213/21/21 312/22/22
f 312/22/22 213/21/21 66/23/23 104/24/24
f 426/25/25 321/26/26 57/27/27 208/28/28
f 316/29/29 426/25/25 208/28/28 51/30/30
f 425/31/31 322/32/32 58/33/33 207/34/34
f 317/2/2 425/31/31 207/34/34 53/3/3
f 424/35/35 323/36/36 59/37/37 206/38/38
f 318/8/8 424/35/35 206/38/38 54/9/9
f 423/39/39 324/40/40 60/41/41 205/42/42
f 319/14/14 423/39/39 205/42/42 55/15/15
f 422/43/43 325/44/44 61/45/45 204/46/46
f 320/47/47 422/43/43 204/46/46 56/48/48
f 421/49/49 326/50/50 62/51/51 203/52/52
f 321/26/26 421/49/49 203/52/52 57/27/27
f 420/53/53 327/54/54 63/55/55 202/56/56
f 322/32/32 420/53/53 202/56/56 58/33/33
f 419/57/57 328/58/58 64/59/59 201/60/60
f 323/36/36 419/57/57 201/60/60 59/37/37
f 418/61/61 151/62/62 45/63/63 200/64/64
f 324/40/40 418/61/61 200/64/64 60/41/41
f 417/65/65 148/66/66 47/67/67 199/68/68
f 325/44/44 417/65/65 199/68/68 61/45/45
f 416/69/69 150/70/70 49/71/71 198/72/72
f 326/50/50 416/69/69 198/72/72 62/51/51
f 415/73/73 152/74/74 50/20/20 197/75/75
f 327/54/54 415/73/73 197/75/75 63/55/55
f 414/76/76 149/77/77 52/78/78 196/79/79
f 328/58/58 414/76/76 196/79/79 64/59/59
f 50/80/20 152/81/74 213/82/21
f 151/62/62 38/83/80 158/84/81 346/85/82
f 346/85/82 158/84/81 39/86/83 313/5/5
f 148/66/66 25/87/84 171/88/85 347/89/86
f 347/89/86 171/88/85 26/90/87 314/11/11
f 150/70/70 34/91/88 162/92/89 348/93/90
f 348/93/90 162/92/89 35/94/91 315/17/17
f 149/77/77 30/95/92 166/96/93 349/97/94
f 349/97/94 166/96/93 31/98/95 316/29/29
f 213/82/21 152/81/74 43/99/96 66/100/23
f 106/101/97 45/63/63 216/102/98 307/103/99
f 103/104/100 311/105/101 350/106/102 147/107/103
f 311/105/101 109/19/19 263/108/104 350/106/102
f 350/106/102 263/108/104 21/109/105 175/110/106
f 147/107/103 350/106/102 175/110/106 20/111/107
f 102/112/108 310/113/109 351/114/110 146/115/111
f 310/113/109 103/104/100 147/107/103 351/114/110
f 351/114/110 147/107/103 20/111/107 176/116/112
f 146/115/111 351/114/110 176/116/112 19/117/113
f 101/118/114 309/119/115 352/120/116 145/121/117
f 309/119/115 102/112/108 146/115/111 352/120/116
f 352/120/116 146/115/111 19/117/113 177/122/118
f 145/121/117 352/120/116 177/122/118 18/123/119
f 100/124/120 308/125/121 353/126/122 144/127/123
f 308/125/121 101/118/114 145/121/117 353/126/122
f 353/126/122 145/121/117 18/123/119 178/128/124
f 144/127/123 353/126/122 178/128/124 17/129/125
f 307/103/99 216/102/98 44/6/6 100/124/120
f 108/130/126 49/71/71 214/131/127 303/132/128
f 99/133/129 306/134/130 354/135/131 143/136/132
f 306/134/130 106/101/97 260/137/133 354/135/131
f 354/135/131 260/137/133 16/138/134 180/139/135
f 143/136/132 354/135/131 180/139/135 15/140/136
f 98/141/137 305/142/138 355/143/139 142/144/140
f 305/142/138 99/133/129 143/136/132 355/143/139
f 355/143/139 143/136/132 15/140/136 181/145/141
f 142/144/140 355/143/139 181/145/141 14/146/142
f 97/147/143 304/148/144 356/149/145 141/150/146
f 304/148/144 98/141/137 142/144/140 356/149/145
f 356/149/145 142/144/140 14/146/142 182/151/147
f 141/150/146 356/149/145 182/151/147 13/152/148
f 303/132/128 214/131/127 48/18/18 97/147/143
f 110/153/149 52/78/78 212/154/150 299/155/151
f 96/156/152 302/157/153 357/158/154 140/159/155
f 302/157/153 108/130/126 262/160/156 357/158/154
f 357/158/154 262/160/156 12/161/157 184/162/158
f 140/159/155 357/158/154 184/162/158 11/163/159
f 95/164/160 301/165/161 358/166/162 139/167/163
f 301/165/161 96/156/152 140/159/155 358/166/162
f 358/166/162 140/159/155 11/163/159 185/168/164
f 139/167/163 358/166/162 185/168/164 10/169/165
f 94/170/166 300/171/167 359/172/168 138/173/169
f 300/171/167 95/164/160 139/167/163 359/172/168
f 359/172/168 139/167/163 10/169/165 186/174/170
f 138/173/169 359/172/168 186/174/170 9/175/171
f 299/155/151 212/154/150 51/30/30 94/170/166
f 107/176/172 47/67/67 215/177/173 294/178/174
f 93/179/175 298/180/176 360/181/177 137/182/178
f 298/180/176 110/153/149 264/183/179 360/181/177
f 360/181/177 264/183/179 8/184/180 188/185/181
f 137/182/178 360/181/177 188/185/181 7/186/182
f 92/187/183 297/188/184 361/189/185 136/190/186
f 297/188/184 93/179/175 137/182/178 361/189/185
f 361/189/185 137/182/178 7/186/182 189/191/187
f 136/190/186 361/189/185 189/191/187 6/192/188
f 91/193/189 296/194/190 362/195/191 135/196/192
f 296/194/190 92/187/183 136/190/186 362/195/191
f 362/195/191 136/190/186 6/192/188 190/197/193
f 135/196/192 362/195/191 190/197/193 5/198/194
f 90/199/195 295/200/196 363/201/197 134/202/198
f 295/200/196 91/193/189 135/196/192 363/201/197
f 363/201/197 135/196/192 5/198/194 191/203/199
f 134/202/198 363/201/197 191/203/199 4/204/200
f 294/178/174 215/177/173 46/12/12 90/199/195
f 329/5/201 67/205/202 253/206/203 413/207/204
f 89/208/205 293/209/206 364/210/207 133/211/208
f 293/209/206 107/176/172 261/212/209 364/210/207
f 364/210/207 261/212/209 3/213/210 193/214/211
f 133/211/208 364/210/207 193/214/211 2/215/212
f 88/216/213 292/217/214 365/218/215 132/219/216
f 292/217/214 89/208/205 133/211/208 365/218/215
f 365/218/215 133/211/208 2/215/212 194/220/217
f 132/219/216 365/218/215 194/220/217 1/221/218
f 366/222/219 195/223/220 65/224/220 259/225/221
f 291/226/222 366/222/219 259/225/221 105/227/223
f 413/207/204 253/206/203 76/3/224 333/228/225
f 330/229/226 69/230/227 252/10/228 412/231/229
f 412/231/229 252/10/228 77/9/230 334/232/231
f 331/233/232 71/234/233 251/16/234 411/235/235
f 411/235/235 251/16/234 78/236/236 335/237/237
f 66/23/238 255/21/239 290/238/240 104/24/241
f 332/239/242 74/240/243 250/28/244 410/241/245
f 290/238/240 255/21/239 73/20/246 130/242/247
f 410/241/245 250/28/244 80/243/248 337/244/249
f 333/228/225 76/3/224 249/245/250 409/246/251
f 409/246/251 249/245/250 81/247/252 338/248/253
f 334/232/231 77/9/230 248/38/254 408/249/255
f 408/249/255 248/38/254 82/250/256 339/251/257
f 335/237/237 78/236/236 247/42/258 407/252/259
f 407/252/259 247/42/258 83/253/260 340/254/261
f 336/255/262 79/48/263 246/46/264 406/256/265
f 406/256/265 246/46/264 84/257/266 341/258/267
f 337/244/249 80/243/248 245/259/268 405/260/269
f 405/260/269 245/259/268 85/261/270 342/262/271
f 338/248/253 81/247/252 244/56/272 404/263/273
f 404/263/273 244/56/272 86/55/274 343/264/275
f 339/251/257 82/250/256 243/60/276 403/265/277
f 403/265/277 243/60/276 87/59/278 344/266/279
f 340/254/261 83/253/260 242/64/280 402/267/281
f 402/267/281 242/64/280 68/268/282 236/269/283
f 341/258/267 84/257/266 241/270/284 401/271/285
f 401/271/285 241/270/284 70/67/286 233/272/287
f 342/262/271 85/261/270 240/72/288 400/69/289
f 400/69/289 240/72/288 72/71/290 235/273/291
f 343/264/275 86/55/274 239/75/292 399/274/293
f 399/274/293 239/75/292 73/20/246 237/74/294
f 344/266/279 87/59/278 238/275/295 398/276/296
f 398/276/296 238/275/295 75/277/297 234/278/298
f 43/99/299 237/81/294 255/82/239 66/100/238
f 367/85/300 329/5/201 39/86/301 158/84/302
f 236/269/283 367/85/300 158/84/302 38/83/303
f 368/279/304 330/229/226 26/90/305 171/88/306
f 233/272/287 368/279/304 171/88/306 25/87/307
f 369/93/308 331/233/232 35/94/309 162/92/310
f 235/273/291 369/93/308 162/92/310 34/91/311
f 370/97/312 332/239/242 31/98/313 166/96/314
f 234/278/298 370/97/312 166/96/314 30/95/315
f 67/205/202 258/280/316 285/281/317 123/282/318
f 255/82/239 237/81/294 73/80/246
f 126/283/319 232/284/320 371/106/321 289/285/322
f 232/284/320 20/111/323 175/110/324 371/106/321
f 371/106/321 175/110/324 21/109/325 268/286/326
f 289/285/322 371/106/321 268/286/326 130/242/247
f 125/287/327 231/115/328 372/114/329 288/288/330
f 231/115/328 19/117/331 176/116/332 372/114/329
f 372/114/329 176/116/332 20/111/323 232/284/320
f 288/288/330 372/114/329 232/284/320 126/283/319
f 124/289/333 230/121/334 373/290/335 287/291/336
f 230/121/334 18/123/337 177/122/338 373/290/335
f 373/290/335 177/122/338 19/117/331 231/115/328
f 287/291/336 373/290/335 231/115/328 125/287/327
f 123/282/318 229/127/339 374/126/340 286/292/341
f 229/127/339 17/129/342 178/128/343 374/126/340
f 374/126/340 178/128/343 18/123/337 230/121/334
f 286/292/341 374/126/340 230/121/334 124/289/333
f 71/234/233 256/293/344 281/294/345 120/295/346
f 285/281/317 258/280/316 68/268/282 127/296/347
f 122/297/348 228/298/349 375/299/350 284/300/351
f 228/298/349 15/140/352 180/139/353 375/299/350
f 375/299/350 180/139/353 16/138/354 265/301/355
f 284/300/351 375/299/350 265/301/355 127/296/347
f 121/141/356 227/302/357 376/303/358 283/142/359
f 227/302/357 14/146/360 181/145/361 376/303/358
f 376/303/358 181/145/361 15/140/352 228/298/349
f 283/142/359 376/303/358 228/298/349 122/297/348
f 120/295/346 226/304/362 377/305/363 282/306/364
f 226/304/362 13/152/365 182/151/366 377/305/363
f 377/305/363 182/151/366 14/146/360 227/302/357
f 282/306/364 377/305/363 227/302/357 121/141/356
f 74/240/243 254/307/367 277/308/368 117/309/369
f 281/294/345 256/293/344 72/71/290 129/310/370
f 119/156/371 225/159/372 378/311/373 280/157/374
f 225/159/372 11/163/375 184/162/376 378/311/373
f 378/311/373 184/162/376 12/161/377 267/312/378
f 280/157/374 378/311/373 267/312/378 129/310/370
f 118/313/379 224/314/380 379/315/381 279/165/382
f 224/314/380 10/169/383 185/168/384 379/315/381
f 379/315/381 185/168/384 11/163/375 225/159/372
f 279/165/382 379/315/381 225/159/372 119/156/371
f 117/309/369 223/316/385 380/317/386 278/318/387
f 223/316/385 9/175/388 186/174/389 380/317/386
f 380/317/386 186/174/389 10/169/383 224/314/380
f 278/318/387 380/317/386 224/314/380 118/313/379
f 69/230/227 257/319/390 272/178/391 113/199/392
f 277/308/368 254/307/367 75/277/297 131/320/393
f 116/321/394 222/322/395 381/323/396 276/180/397
f 222/322/395 7/186/398 188/185/399 381/323/396
f 381/323/396 188/185/399 8/184/400 269/324/401
f 276/180/397 381/323/396 269/324/401 131/320/393
f 115/325/402 221/326/403 382/327/404 275/328/405
f 221/326/403 6/192/406 189/191/407 382/327/404
f 382/327/404 189/191/407 7/186/398 222/322/395
f 275/328/405 382/327/404 222/322/395 116/321/394
f 114/193/408 220/196/409 383/329/410 274/330/411
f 220/196/409 5/198/412 190/197/413 383/329/410
f 383/329/410 190/197/413 6/192/406 221/326/403
f 274/330/411 383/329/410 221/326/403 115/325/402
f 113/199/392 219/331/414 384/332/415 273/200/416
f 219/331/414 4/204/417 191/203/418 384/332/415
f 384/332/415 191/203/418 5/198/412 220/196/409
f 273/200/416 384/332/415 220/196/409 114/193/408
f 105/227/223 345/333/419 336/255/420 23/334/421
f 272/178/391 257/319/390 70/67/286 128/335/422
f 112/336/423 218/337/424 385/210/425 271/338/426
f 218/337/424 2/215/427 193/214/428 385/210/425
f 385/210/425 193/214/428 3/213/429 266/339/430
f 271/338/426 385/210/425 266/339/430 128/335/422
f 111/340/431 217/219/432 386/218/433 270/341/434
f 217/219/432 1/221/435 194/220/436 386/218/433
f 386/218/433 194/220/436 2/215/427 218/337/424
f 270/341/434 386/218/433 218/337/424 112/336/423
f 345/333/419 105/227/223 259/225/221 387/342/437
f 387/342/437 259/225/221 65/224/220 195/223/220
f 246/46/264 270/341/434 112/336/423 84/257/266
f 84/257/266 112/336/423 271/338/426 241/270/284
f 241/270/284 271/338/426 128/335/422 70/67/286
f 69/230/227 113/199/392 273/200/416 252/10/228
f 3/213/429 192/343/438 388/344/439 266/339/430
f 192/343/438 4/204/417 219/331/414 388/344/439
f 388/344/439 219/331/414 113/199/392 272/178/391
f 266/339/430 388/344/439 272/178/391 128/335/422
f 252/10/228 273/200/416 114/193/408 77/9/230
f 77/9/230 114/193/408 274/330/411 248/38/254
f 248/38/254 274/330/411 115/325/402 82/250/256
f 82/250/256 115/325/402 275/328/405 243/60/276
f 243/60/276 275/328/405 116/321/394 87/59/278
f 87/59/278 116/321/394 276/180/397 238/275/295
f 238/275/295 276/180/397 131/320/393 75/277/297
f 74/240/243 117/309/369 278/318/387 250/28/244
f 8/184/400 187/345/440 389/346/441 269/324/401
f 187/345/440 9/175/388 223/316/385 389/346/441
f 389/346/441 223/316/385 117/309/369 277/308/368
f 269/324/401 389/346/441 277/308/368 131/320/393
f 250/28/244 278/318/387 118/313/379 80/243/248
f 80/243/248 118/313/379 279/165/382 245/259/268
f 245/259/268 279/165/382 119/156/371 85/261/270
f 85/261/270 119/156/371 280/157/374 240/72/288
f 240/72/288 280/157/374 129/310/370 72/71/290
f 71/234/233 120/295/346 282/306/364 251/16/234
f 12/161/377 183/347/442 390/348/443 267/312/378
f 183/347/442 13/152/365 226/304/362 390/348/443
f 390/348/443 226/304/362 120/295/346 281/294/345
f 267/312/378 390/348/443 281/294/345 129/310/370
f 251/16/234 282/306/364 121/141/356 78/236/236
f 78/236/236 121/141/356 283/142/359 247/42/258
f 247/42/258 283/142/359 122/297/348 83/253/260
f 83/253/260 122/297/348 284/300/351 242/64/280
f 242/64/280 284/300/351 127/296/347 68/268/282
f 67/205/202 123/282/318 286/292/341 253/206/203
f 16/138/354 179/349/444 391/350/445 265/301/355
f 179/349/444 17/129/342 229/127/339 391/350/445
f 391/350/445 229/127/339 123/282/318 285/281/317
f 265/301/355 391/350/445 285/281/317 127/296/347
f 253/206/203 286/292/341 124/289/333 76/3/224
f 76/3/224 124/289/333 287/291/336 249/245/250
f 249/245/250 287/291/336 125/287/327 81/247/252
f 81/247/252 125/287/327 288/288/330 244/56/272
f 244/56/272 288/288/330 126/283/319 86/55/274
f 86/55/274 126/283/319 289/285/322 239/75/292
f 239/75/292 289/285/322 130/242/247 73/20/246
f 21/109/325 174/351/446 392/352/447 268/286/326
f 174/351/446 22/353/448 153/354/449 392/352/447
f 392/352/447 153/354/449 104/24/241 290/238/240
f 268/286/326 392/352/447 290/238/240 130/242/247
f 79/48/263 111/340/431 270/341/434 246/46/264
f 61/45/45 89/208/205 292/217/214 204/46/46
f 107/176/172 293/209/206 199/68/68 47/67/67
f 204/46/46 292/217/214 88/216/213 56/48/48
f 54/9/9 91/193/189 295/200/196 210/10/10
f 199/68/68 293/209/206 89/208/205 61/45/45
f 3/213/210 261/212/209 393/355/450 192/343/451
f 261/212/209 107/176/172 294/178/174 393/355/450
f 393/355/450 294/178/174 90/199/195 134/202/198
f 192/343/451 393/355/450 134/202/198 4/204/200
f 59/37/37 92/187/183 296/194/190 206/38/38
f 210/10/10 295/200/196 90/199/195 46/12/12
f 64/59/59 93/179/175 297/188/184 201/60/60
f 206/38/38 296/194/190 91/193/189 54/9/9
f 110/153/149 298/180/176 196/79/79 52/78/78
f 201/60/60 297/188/184 92/187/183 59/37/37
f 57/27/27 95/164/160 300/171/167 208/28/28
f 196/79/79 298/180/176 93/179/175 64/59/59
f 8/184/180 264/183/179 394/356/452 187/345/453
f 264/183/179 110/153/149 299/155/151 394/356/452
f 394/356/452 299/155/151 94/170/166 138/173/169
f 187/345/453 394/356/452 138/173/169 9/175/171
f 62/51/51 96/156/152 301/165/161 203/52/52
f 208/28/28 300/171/167 94/170/166 51/30/30
f 108/130/126 302/157/153 198/72/72 49/71/71
f 203/52/52 301/165/161 95/164/160 57/27/27
f 55/15/15 98/141/137 304/148/144 209/16/16
f 198/72/72 302/157/153 96/156/152 62/51/51
f 12/161/157 262/160/156 395/357/454 183/347/455
f 262/160/156 108/130/126 303/132/128 395/357/454
f 395/357/454 303/132/128 97/147/143 141/150/146
f 183/347/455 395/357/454 141/150/146 13/152/148
f 60/41/41 99/133/129 305/142/138 205/42/42
f 209/16/16 304/148/144 97/147/143 48/18/18
f 106/101/97 306/134/130 200/64/64 45/63/63
f 205/42/42 305/142/138 98/141/137 55/15/15
f 53/3/3 101/118/114 308/125/121 211/4/4
f 200/64/64 306/134/130 99/133/129 60/41/41
f 16/138/134 260/137/133 396/358/456 179/349/457
f 260/137/133 106/101/97 307/103/99 396/358/456
f 396/358/456 307/103/99 100/124/120 144/127/123
f 179/349/457 396/358/456 144/127/123 17/129/125
f 58/33/33 102/112/108 309/119/115 207/34/34
f 211/4/4 308/125/121 100/124/120 44/6/6
f 63/55/55 103/104/100 310/113/109 202/56/56
f 207/34/34 309/119/115 101/118/114 53/3/3
f 109/19/19 311/105/101 197/75/75 50/20/20
f 202/56/56 310/113/109 102/112/108 58/33/33
f 197/75/75 311/105/101 103/104/100 63/55/55
f 21/109/105 263/108/104 397/359/458 174/351/459
f 263/108/104 109/19/19 312/22/22 397/359/458
f 397/359/458 312/22/22 104/24/24 153/354/460
f 174/351/459 397/359/458 153/354/460 22/353/461
f 56/48/462 88/360/463 291/226/222 320/47/464
f 336/255/420 345/333/419 111/361/465 79/48/466
f 111/361/465 345/333/419 387/342/467 217/362/468
f 387/342/467 195/223/469 1/363/469 217/362/468
f 74/240/243 332/239/242 370/97/312 254/307/367
f 71/234/233 331/233/232 369/93/308 256/293/344
f 254/307/367 370/97/312 234/278/298 75/277/297
f 69/230/227 330/229/226 368/279/304 257/319/390
f 256/293/344 369/93/308 235/273/291 72/71/290
f 67/205/202 329/5/201 367/85/300 258/280/316
f 257/319/390 368/279/304 233/272/287 70/67/286
f 1/363/470 195/223/470 366/222/471 132/362/472
f 258/280/316 367/85/300 236/269/283 68/268/282
f 29/364/473 344/266/279 398/276/296 167/365/474
f 167/365/474 398/276/296 234/278/298 30/95/315
f 42/366/475 343/264/275 399/274/293 154/367/476
f 154/367/476 399/274/293 237/74/294 43/368/299
f 33/369/477 342/262/271 400/69/289 163/370/478
f 163/370/478 400/69/289 235/273/291 34/91/311
f 24/371/479 341/258/267 401/271/285 172/372/480
f 172/372/480 401/271/285 233/272/287 25/87/307
f 37/373/481 340/254/261 402/267/281 159/374/482
f 159/374/482 402/267/281 236/269/283 38/83/303
f 28/375/483 339/251/257 403/265/277 168/376/484
f 168/376/484 403/265/277 344/266/279 29/364/473
f 41/377/485 338/248/253 404/263/273 155/378/486
f 155/378/486 404/263/273 343/264/275 42/366/475
f 32/379/487 337/244/249 405/260/269 164/380/488
f 164/380/488 405/260/269 342/262/271 33/369/477
f 23/334/489 336/255/262 406/256/265 173/381/490
f 173/381/490 406/256/265 341/258/267 24/371/479
f 36/382/491 335/237/237 407/252/259 160/383/492
f 160/383/492 407/252/259 340/254/261 37/373/481
f 27/384/493 334/232/231 408/249/255 169/385/494
f 169/385/494 408/249/255 339/251/257 28/375/483
f 40/386/495 333/228/225 409/246/251 156/387/496
f 156/387/496 409/246/251 338/248/253 41/377/485
f 31/98/313 332/239/242 410/241/245 165/388/497
f 165/388/497 410/241/245 337/244/249 32/379/487
f 35/94/309 331/233/232 411/235/235 161/389/498
f 161/389/498 411/235/235 335/237/237 36/382/491
f 26/90/305 330/229/226 412/231/229 170/390/499
f 170/390/499 412/231/229 334/232/231 27/384/493
f 39/86/301 329/5/201 413/207/204 157/391/500
f 157/391/500 413/207/204 333/228/225 40/386/495
f 52/78/78 149/77/77 349/97/94 212/154/150
f 132/362/472 366/222/471 291/226/222 88/360/463
f 349/97/94 316/29/29 51/30/30 212/154/150
f 49/71/71 150/70/70 348/93/90 214/131/127
f 348/93/90 315/17/17 48/18/18 214/131/127
f 47/67/67 148/66/66 347/89/86 215/177/173
f 347/89/86 314/11/11 46/12/12 215/177/173
f 45/63/63 151/62/62 346/85/82 216/102/98
f 346/85/82 313/5/5 44/6/6 216/102/98
f 29/364/501 167/365/502 414/76/76 328/58/58
f 167/365/502 30/95/92 149/77/77 414/76/76
f 42/366/503 154/367/504 415/73/73 327/54/54
f 154/367/504 43/368/96 152/74/74 415/73/73
f 33/369/505 163/370/506 416/69/69 326/50/50
f 163/370/506 34/91/88 150/70/70 416/69/69
f 24/371/507 172/372/508 417/65/65 325/44/44
f 172/372/508 25/87/84 148/66/66 417/65/65
f 37/373/509 159/374/510 418/61/61 324/40/40
f 159/374/510 38/83/80 151/62/62 418/61/61
f 28/375/511 168/376/512 419/57/57 323/36/36
f 168/376/512 29/364/501 328/58/58 419/57/57
f 41/377/513 155/378/514 420/53/53 322/32/32
f 155/378/514 42/366/503 327/54/54 420/53/53
f 32/379/515 164/380/516 421/49/49 321/26/26
f 164/380/516 33/369/505 326/50/50 421/49/49
f 23/334/517 173/381/518 422/43/43 320/47/47
f 173/381/518 24/371/507 325/44/44 422/43/43
f 36/382/519 160/383/520 423/39/39 319/14/14
f 160/383/520 37/373/509 324/40/40 423/39/39
f 27/384/521 169/385/522 424/35/35 318/8/8
f 169/385/522 28/375/511 323/36/36 424/35/35
f 40/386/523 156/387/524 425/31/31 317/2/2
f 156/387/524 41/377/513 322/32/32 425/31/31
f 31/98/95 165/388/525 426/25/25 316/29/29
f 165/388/525 32/379/515 321/26/26 426/25/25
f 35/94/91 161/389/526 427/13/13 315/17/17
f 161/389/526 36/382/519 319/14/14 427/13/13
f 26/90/87 170/390/527 428/7/7 314/11/11
f 170/390/527 27/384/521 318/8/8 428/7/7
f 39/86/83 157/391/528 429/1/1 313/5/5
f 157/391/528 40/386/523 317/2/2 429/1/1
f 320/47/464 291/226/222 105/227/223 23/334/529
