# Blender 4.2.0
# www.blender.org
mtllib Wave_2.mtl
o Cylinder
v -0.000000 0.000000 -1.000000
v 0.195090 0.000000 -0.980785
v 0.382683 0.000000 -0.923880
v 0.555570 0.000000 -0.831470
v 0.707107 0.000000 -0.707107
v 0.831470 0.000000 -0.555570
v 0.923880 0.000000 -0.382683
v 0.980785 0.000000 -0.195090
v 1.000000 0.000000 0.000000
v 0.980785 0.000000 0.195090
v 0.923880 0.000000 0.382683
v 0.831470 0.000000 0.555570
v 0.707107 0.000000 0.707107
v 0.555570 0.000000 0.831470
v 0.382683 0.000000 0.923880
v 0.195090 0.000000 0.980785
v -0.000000 0.000000 1.000000
v -0.195090 0.000000 0.980785
v -0.382683 0.000000 0.923880
v -0.555570 0.000000 0.831470
v -0.707107 0.000000 0.707107
v -0.831470 0.000000 0.555570
v -0.923880 0.000000 0.382683
v -0.980785 0.000000 0.195090
v -1.000000 0.000000 0.000000
v -0.980785 0.000000 -0.195090
v -0.923880 0.000000 -0.382683
v -0.831470 0.000000 -0.555570
v -0.707107 0.000000 -0.707107
v -0.555570 0.000000 -0.831470
v -0.382683 0.000000 -0.923880
v -0.195090 0.000000 -0.980785
v -0.000000 0.000000 -0.686960
v 0.134019 0.000000 -0.673760
v 0.262888 0.000000 -0.634668
v 0.381655 0.000000 -0.571186
v 0.485754 0.000000 -0.485754
v 0.571186 0.000000 -0.381655
v 0.634668 0.000000 -0.262888
v 0.673760 0.000000 -0.134019
v 0.686960 0.000000 0.000000
v 0.673760 0.000000 0.134019
v 0.634668 0.000000 0.262888
v 0.571186 0.000000 0.381655
v 0.485754 0.000000 0.485754
v 0.381655 0.000000 0.571186
v 0.262888 0.000000 0.634668
v 0.134019 0.000000 0.673760
v -0.000000 0.000000 0.686960
v -0.134019 0.000000 0.673760
v -0.262888 0.000000 0.634668
v -0.381655 0.000000 0.571186
v -0.485754 0.000000 0.485754
v -0.571186 0.000000 0.381655
v -0.634668 0.000000 0.262888
v -0.673760 0.000000 0.134019
v -0.686960 0.000000 0.000000
v -0.673760 0.000000 -0.134019
v -0.634668 0.000000 -0.262888
v -0.571186 0.000000 -0.381655
v -0.485754 0.000000 -0.485754
v -0.381655 0.000000 -0.571186
v -0.262888 0.000000 -0.634668
v -0.134019 0.000000 -0.673760
vn -0.0000 1.0000 -0.0000
vt 0.281764 0.447970
vt 0.313088 0.447970
vt 0.313088 0.497781
vt 0.281764 0.497781
vt 0.595002 0.447970
vt 0.626326 0.447970
vt 0.626326 0.497781
vt 0.595002 0.497781
vt -0.000150 0.447970
vt 0.031174 0.447970
vt 0.031174 0.497781
vt -0.000150 0.497781
vt 0.720297 0.447970
vt 0.751621 0.447970
vt 0.751621 0.497781
vt 0.720297 0.497781
vt 0.407059 0.447970
vt 0.438383 0.447970
vt 0.438383 0.497781
vt 0.407059 0.497781
vt 0.125145 0.447970
vt 0.156469 0.447970
vt 0.156469 0.497781
vt 0.125145 0.497781
vt 0.845592 0.447970
vt 0.876916 0.447970
vt 0.876916 0.497781
vt 0.845592 0.497781
vt 0.563678 0.447970
vt 0.563678 0.497781
vt 0.250440 0.447970
vt 0.250440 0.497781
vt 0.970887 0.447970
vt 1.002211 0.447970
vt 1.002211 0.497781
vt 0.970887 0.497781
vt 0.688973 0.447970
vt 0.688973 0.497781
vt 0.375735 0.447970
vt 0.375735 0.497781
vt 0.093821 0.447970
vt 0.093821 0.497781
vt 0.814268 0.447970
vt 0.814268 0.497781
vt 0.532354 0.447970
vt 0.532354 0.497781
vt 0.219116 0.447970
vt 0.219116 0.497781
vt 0.939564 0.447970
vt 0.939564 0.497781
vt 0.657650 0.447970
vt 0.657650 0.497781
vt 0.344412 0.447970
vt 0.344412 0.497781
vt 0.062497 0.447970
vt 0.062497 0.497781
vt 0.782945 0.447970
vt 0.782945 0.497781
vt 0.501031 0.447970
vt 0.501031 0.497781
vt 0.187793 0.447970
vt 0.187793 0.497781
vt 0.908240 0.447970
vt 0.908240 0.497781
vt 0.469707 0.447970
vt 0.469707 0.497781
s 0
usemtl Material.001
f 7/1/1 6/2/1 38/3/1 39/4/1
f 29/5/1 28/6/1 60/7/1 61/8/1
f 16/9/1 15/10/1 47/11/1 48/12/1
f 25/13/1 24/14/1 56/15/1 57/16/1
f 3/17/1 2/18/1 34/19/1 35/20/1
f 12/21/1 11/22/1 43/23/1 44/24/1
f 21/25/1 20/26/1 52/27/1 53/28/1
f 30/29/1 29/5/1 61/8/1 62/30/1
f 8/31/1 7/1/1 39/4/1 40/32/1
f 17/33/1 16/34/1 48/35/1 49/36/1
f 26/37/1 25/13/1 57/16/1 58/38/1
f 4/39/1 3/17/1 35/20/1 36/40/1
f 13/41/1 12/21/1 44/24/1 45/42/1
f 22/43/1 21/25/1 53/28/1 54/44/1
f 31/45/1 30/29/1 62/30/1 63/46/1
f 9/47/1 8/31/1 40/32/1 41/48/1
f 18/49/1 17/33/1 49/36/1 50/50/1
f 27/51/1 26/37/1 58/38/1 59/52/1
f 5/53/1 4/39/1 36/40/1 37/54/1
f 14/55/1 13/41/1 45/42/1 46/56/1
f 23/57/1 22/43/1 54/44/1 55/58/1
f 32/59/1 31/45/1 63/46/1 64/60/1
f 10/61/1 9/47/1 41/48/1 42/62/1
f 19/63/1 18/49/1 50/50/1 51/64/1
f 28/6/1 27/51/1 59/52/1 60/7/1
f 6/2/1 5/53/1 37/54/1 38/3/1
f 15/10/1 14/55/1 46/56/1 47/11/1
f 24/14/1 23/57/1 55/58/1 56/15/1
f 2/18/1 1/65/1 33/66/1 34/19/1
f 1/65/1 32/59/1 64/60/1 33/66/1
f 11/22/1 10/61/1 42/62/1 43/23/1
f 20/26/1 19/63/1 51/64/1 52/27/1
