# Blender 4.2.0
# www.blender.org
mtllib Mortar_Sol_4.mtl
o Cylinder
v -0.000000 0.000000 -0.993595
v 0.193841 0.000000 -0.974504
v 0.380232 0.000000 -0.917962
v 0.552012 0.000000 -0.826144
v 0.702578 0.000000 -0.702578
v 0.826144 0.000000 -0.552012
v 0.917962 0.000000 -0.380232
v 0.974504 0.000000 -0.193841
v 0.993595 0.000000 0.000000
v 0.974504 0.000000 0.193841
v 0.917962 0.000000 0.380232
v 0.826144 0.000000 0.552012
v 0.702578 0.000000 0.702578
v 0.552012 0.000000 0.826144
v 0.380232 0.000000 0.917962
v 0.193841 0.000000 0.974504
v -0.000000 0.000000 0.993595
v -0.193841 0.000000 0.974504
v -0.380232 0.000000 0.917962
v -0.552012 0.000000 0.826144
v -0.702578 0.000000 0.702578
v -0.826144 0.000000 0.552012
v -0.917962 0.000000 0.380232
v -0.974504 0.000000 0.193841
v -0.993595 0.000000 0.000000
v -0.974504 0.000000 -0.193841
v -0.917962 0.000000 -0.380232
v -0.826144 0.000000 -0.552012
v -0.702578 0.000000 -0.702578
v -0.552012 0.000000 -0.826144
v -0.380232 0.000000 -0.917962
v -0.193841 0.000000 -0.974504
v -0.000000 0.000000 -0.021102
v 0.004117 0.000000 -0.020696
v 0.008075 0.000000 -0.019495
v 0.011723 0.000000 -0.017545
v 0.014921 0.000000 -0.014921
v 0.017545 0.000000 -0.011723
v 0.019495 0.000000 -0.008075
v 0.020696 0.000000 -0.004117
v 0.021102 0.000000 0.000000
v 0.020696 0.000000 0.004117
v 0.019495 0.000000 0.008075
v 0.017545 0.000000 0.011723
v 0.014921 0.000000 0.014921
v 0.011723 0.000000 0.017545
v 0.008075 0.000000 0.019495
v 0.004117 0.000000 0.020696
v -0.000000 0.000000 0.021102
v -0.004117 0.000000 0.020696
v -0.008075 0.000000 0.019495
v -0.011723 0.000000 0.017545
v -0.014921 0.000000 0.014921
v -0.017545 0.000000 0.011723
v -0.019495 0.000000 0.008075
v -0.020696 0.000000 0.004117
v -0.021102 0.000000 0.000000
v -0.020696 0.000000 -0.004117
v -0.019495 0.000000 -0.008075
v -0.017545 0.000000 -0.011723
v -0.014921 0.000000 -0.014921
v -0.011723 0.000000 -0.017545
v -0.008075 0.000000 -0.019495
v -0.004117 0.000000 -0.020696
v 0.119781 0.000000 -0.179265
v 0.227839 0.000000 -0.340985
v 0.335897 0.000000 -0.502705
v 0.443954 0.000000 -0.664424
v 0.305801 0.000000 -0.738269
v 0.231370 0.000000 -0.558576
v 0.156938 0.000000 -0.378882
v 0.082507 0.000000 -0.199189
v 0.152452 0.000000 0.152452
v 0.289984 0.000000 0.289984
v 0.427515 0.000000 0.427515
v 0.565046 0.000000 0.565046
v 0.664424 0.000000 0.443954
v 0.502705 0.000000 0.335897
v 0.340985 0.000000 0.227839
v 0.179265 0.000000 0.119781
v -0.179265 0.000000 0.119781
v -0.340985 0.000000 0.227839
v -0.502705 0.000000 0.335897
v -0.664424 0.000000 0.443954
v -0.565046 0.000000 0.565046
v -0.427515 0.000000 0.427515
v -0.289984 0.000000 0.289984
v -0.152452 0.000000 0.152452
v -0.082507 0.000000 -0.199189
v -0.156938 0.000000 -0.378882
v -0.231370 0.000000 -0.558576
v -0.305801 0.000000 -0.738269
v -0.443954 0.000000 -0.664424
v -0.335897 0.000000 -0.502705
v -0.227839 0.000000 -0.340985
v -0.119781 0.000000 -0.179265
v 0.215600 0.000000 0.000000
v 0.410099 0.000000 0.000000
v 0.604598 0.000000 0.000000
v 0.799096 0.000000 0.000000
v 0.783742 0.000000 -0.155896
v 0.592981 0.000000 -0.117951
v 0.402219 0.000000 -0.080006
v 0.211458 0.000000 -0.042062
v -0.042062 0.000000 0.211458
v -0.080006 0.000000 0.402219
v -0.117951 0.000000 0.592981
v -0.155896 0.000000 0.783742
v -0.000000 0.000000 0.799097
v -0.000000 0.000000 0.604598
v -0.000000 0.000000 0.410099
v -0.000000 0.000000 0.215600
v -0.199189 0.000000 -0.082507
v -0.378882 0.000000 -0.156938
v -0.558576 0.000000 -0.231370
v -0.738269 0.000000 -0.305801
v -0.783742 0.000000 -0.155896
v -0.592981 0.000000 -0.117951
v -0.402219 0.000000 -0.080006
v -0.211458 0.000000 -0.042062
v 0.152452 0.000000 -0.152452
v 0.289984 0.000000 -0.289984
v 0.427515 0.000000 -0.427515
v 0.565046 0.000000 -0.565046
v 0.119781 0.000000 0.179265
v 0.227839 0.000000 0.340985
v 0.335897 0.000000 0.502705
v 0.443954 0.000000 0.664424
v -0.199189 0.000000 0.082507
v -0.378882 0.000000 0.156938
v -0.558576 0.000000 0.231370
v -0.738269 0.000000 0.305801
v -0.042062 0.000000 -0.211458
v -0.080006 0.000000 -0.402219
v -0.117951 0.000000 -0.592981
v -0.155896 0.000000 -0.783742
v 0.211458 0.000000 0.042062
v 0.402219 0.000000 0.080006
v 0.592981 0.000000 0.117951
v 0.783742 0.000000 0.155896
v -0.082507 0.000000 0.199189
v -0.156938 0.000000 0.378882
v -0.231370 0.000000 0.558576
v -0.305801 0.000000 0.738269
v -0.179265 0.000000 -0.119781
v -0.340985 0.000000 -0.227839
v -0.502705 0.000000 -0.335897
v -0.664424 0.000000 -0.443954
v 0.179265 0.000000 -0.119781
v 0.340985 0.000000 -0.227839
v 0.502705 0.000000 -0.335897
v 0.664424 0.000000 -0.443954
v 0.082507 0.000000 0.199189
v 0.156938 0.000000 0.378882
v 0.231370 0.000000 0.558576
v 0.305801 0.000000 0.738269
v -0.211458 0.000000 0.042062
v -0.402219 0.000000 0.080006
v -0.592981 0.000000 0.117951
v -0.783742 0.000000 0.155896
v 0.042062 0.000000 -0.211458
v 0.080006 0.000000 -0.402219
v 0.117951 0.000000 -0.592981
v 0.155896 0.000000 -0.783742
v -0.000000 0.000000 -0.799096
v -0.000000 0.000000 -0.604598
v -0.000000 0.000000 -0.410099
v -0.000000 0.000000 -0.215600
v 0.199189 0.000000 0.082507
v 0.378882 0.000000 0.156938
v 0.558576 0.000000 0.231370
v 0.738269 0.000000 0.305801
v -0.119781 0.000000 0.179265
v -0.227839 0.000000 0.340985
v -0.335897 0.000000 0.502705
v -0.443954 0.000000 0.664424
v -0.152452 0.000000 -0.152452
v -0.289984 0.000000 -0.289984
v -0.427515 0.000000 -0.427515
v -0.565047 0.000000 -0.565046
v 0.199189 0.000000 -0.082507
v 0.378882 0.000000 -0.156938
v 0.558576 0.000000 -0.231370
v 0.738269 0.000000 -0.305801
v 0.042062 0.000000 0.211458
v 0.080006 0.000000 0.402219
v 0.117951 0.000000 0.592981
v 0.155896 0.000000 0.783742
v -0.215600 0.000000 0.000000
v -0.410099 0.000000 0.000000
v -0.604598 0.000000 0.000000
v -0.799097 0.000000 0.000000
v 0.097389 0.000000 -0.988807
v 0.288424 0.000000 -0.950808
v 0.468376 0.000000 -0.876269
v 0.630328 0.000000 -0.768056
v 0.768056 0.000000 -0.630328
v 0.876269 0.000000 -0.468376
v 0.950808 0.000000 -0.288424
v 0.988807 0.000000 -0.097389
v 0.988807 0.000000 0.097389
v 0.950808 0.000000 0.288424
v 0.876269 0.000000 0.468376
v 0.768056 0.000000 0.630328
v 0.630328 0.000000 0.768056
v 0.468376 0.000000 0.876269
v 0.288424 0.000000 0.950808
v 0.097389 0.000000 0.988807
v -0.097389 0.000000 0.988807
v -0.288424 0.000000 0.950808
v -0.468376 0.000000 0.876269
v -0.630328 0.000000 0.768056
v -0.768056 0.000000 0.630328
v -0.876269 0.000000 0.468376
v -0.950808 0.000000 0.288424
v -0.988807 0.000000 0.097389
v -0.988807 0.000000 -0.097389
v -0.950808 0.000000 -0.288424
v -0.876269 0.000000 -0.468376
v -0.768056 0.000000 -0.630328
v -0.630328 0.000000 -0.768056
v -0.468376 0.000000 -0.876269
v -0.288424 0.000000 -0.950808
v -0.097389 0.000000 -0.988807
v 0.002068 0.000000 -0.021000
v 0.006125 0.000000 -0.020193
v 0.009947 0.000000 -0.018610
v 0.013387 0.000000 -0.016312
v 0.016312 0.000000 -0.013387
v 0.018610 0.000000 -0.009947
v 0.020193 0.000000 -0.006125
v 0.021000 0.000000 -0.002068
v 0.021000 0.000000 0.002068
v 0.020193 0.000000 0.006125
v 0.018610 0.000000 0.009947
v 0.016312 0.000000 0.013387
v 0.013387 0.000000 0.016312
v 0.009947 0.000000 0.018610
v 0.006125 0.000000 0.020193
v 0.002068 0.000000 0.021000
v -0.002068 0.000000 0.021000
v -0.006125 0.000000 0.020193
v -0.009947 0.000000 0.018610
v -0.013387 0.000000 0.016312
v -0.016312 0.000000 0.013387
v -0.018610 0.000000 0.009947
v -0.020193 0.000000 0.006125
v -0.021000 0.000000 0.002068
v -0.021000 0.000000 -0.002068
v -0.020193 0.000000 -0.006125
v -0.018610 0.000000 -0.009947
v -0.016312 0.000000 -0.013387
v -0.013387 0.000000 -0.016312
v -0.009947 0.000000 -0.018610
v -0.006125 0.000000 -0.020193
v -0.002068 0.000000 -0.021000
v 0.497983 0.000000 -0.745284
v 0.045291 0.000000 -0.109342
v 0.633812 0.000000 0.633812
v 0.098405 0.000000 0.065752
v -0.745284 0.000000 0.497983
v -0.083687 0.000000 0.083687
v -0.343017 0.000000 -0.828116
v -0.065752 0.000000 -0.098405
v 0.896346 0.000000 0.000000
v 0.116077 0.000000 -0.023089
v -0.174868 0.000000 0.879123
v -0.000000 0.000000 0.118351
v -0.828116 0.000000 -0.343017
v -0.116077 0.000000 -0.023089
v 0.633812 0.000000 -0.633812
v 0.497983 0.000000 0.745284
v -0.828116 0.000000 0.343017
v -0.174868 0.000000 -0.879123
v 0.879123 0.000000 0.174868
v -0.343017 0.000000 0.828116
v -0.745284 0.000000 -0.497983
v 0.745284 0.000000 -0.497983
v 0.343017 0.000000 0.828116
v -0.879123 0.000000 0.174868
v 0.174868 0.000000 -0.879123
v -0.000000 0.000000 -0.118351
v 0.828116 0.000000 0.343017
v -0.497983 0.000000 0.745284
v -0.633812 0.000000 -0.633812
v 0.828116 0.000000 -0.343017
v 0.174868 0.000000 0.879123
v -0.896346 0.000000 0.000000
v 0.065752 0.000000 -0.098405
v 0.173810 0.000000 -0.260125
v 0.281868 0.000000 -0.421845
v 0.389925 0.000000 -0.583565
v 0.343017 0.000000 -0.828116
v 0.268585 0.000000 -0.648422
v 0.194154 0.000000 -0.468729
v 0.119722 0.000000 -0.289035
v 0.083687 0.000000 0.083687
v 0.221218 0.000000 0.221218
v 0.358749 0.000000 0.358749
v 0.496281 0.000000 0.496281
v 0.745284 0.000000 0.497983
v 0.583565 0.000000 0.389925
v 0.421845 0.000000 0.281868
v 0.260125 0.000000 0.173810
v -0.098405 0.000000 0.065752
v -0.260125 0.000000 0.173810
v -0.421845 0.000000 0.281868
v -0.583565 0.000000 0.389925
v -0.633812 0.000000 0.633812
v -0.496281 0.000000 0.496281
v -0.358749 0.000000 0.358749
v -0.221218 0.000000 0.221218
v -0.045291 0.000000 -0.109342
v -0.119722 0.000000 -0.289035
v -0.194154 0.000000 -0.468729
v -0.268585 0.000000 -0.648422
v -0.497983 0.000000 -0.745284
v -0.389925 0.000000 -0.583565
v -0.281868 0.000000 -0.421845
v -0.173810 0.000000 -0.260125
v 0.118351 0.000000 0.000000
v 0.312850 0.000000 0.000000
v 0.507348 0.000000 0.000000
v 0.701847 0.000000 0.000000
v 0.879123 0.000000 -0.174868
v 0.688361 0.000000 -0.136924
v 0.497600 0.000000 -0.098979
v 0.306838 0.000000 -0.061034
v -0.023089 0.000000 0.116077
v -0.061034 0.000000 0.306838
v -0.098979 0.000000 0.497600
v -0.136924 0.000000 0.688361
v -0.000000 0.000000 0.896346
v -0.000000 0.000000 0.701847
v -0.000000 0.000000 0.507348
v -0.000000 0.000000 0.312850
v -0.109342 0.000000 -0.045291
v -0.289035 0.000000 -0.119722
v -0.468729 0.000000 -0.194154
v -0.648422 0.000000 -0.268585
v -0.879123 0.000000 -0.174868
v -0.688361 0.000000 -0.136924
v -0.497600 0.000000 -0.098979
v -0.306838 0.000000 -0.061034
v 0.083687 0.000000 -0.083687
v 0.221218 0.000000 -0.221218
v 0.358749 0.000000 -0.358750
v 0.496281 0.000000 -0.496281
v 0.065752 0.000000 0.098405
v 0.173810 0.000000 0.260125
v 0.281868 0.000000 0.421845
v 0.389925 0.000000 0.583565
v -0.109342 0.000000 0.045291
v -0.289035 0.000000 0.119722
v -0.468729 0.000000 0.194154
v -0.648422 0.000000 0.268585
v -0.023089 0.000000 -0.116077
v -0.061034 0.000000 -0.306838
v -0.098979 0.000000 -0.497600
v -0.136924 0.000000 -0.688361
v 0.116077 0.000000 0.023089
v 0.306838 0.000000 0.061034
v 0.497600 0.000000 0.098979
v 0.688361 0.000000 0.136924
v -0.045291 0.000000 0.109342
v -0.119722 0.000000 0.289035
v -0.194154 0.000000 0.468729
v -0.268585 0.000000 0.648422
v -0.098405 0.000000 -0.065752
v -0.260125 0.000000 -0.173810
v -0.421845 0.000000 -0.281868
v -0.583565 0.000000 -0.389925
v 0.098405 0.000000 -0.065752
v 0.260125 0.000000 -0.173810
v 0.421845 0.000000 -0.281868
v 0.583565 0.000000 -0.389925
v 0.045291 0.000000 0.109342
v 0.119722 0.000000 0.289035
v 0.194154 0.000000 0.468729
v 0.268585 0.000000 0.648422
v -0.116077 0.000000 0.023089
v -0.306838 0.000000 0.061034
v -0.497600 0.000000 0.098979
v -0.688361 0.000000 0.136924
v 0.023089 0.000000 -0.116077
v 0.061034 0.000000 -0.306838
v 0.098979 0.000000 -0.497600
v 0.136924 0.000000 -0.688361
v -0.000000 0.000000 -0.896346
v -0.000000 0.000000 -0.701847
v -0.000000 0.000000 -0.507348
v -0.000000 0.000000 -0.312850
v 0.109342 0.000000 0.045291
v 0.289035 0.000000 0.119722
v 0.468729 0.000000 0.194154
v 0.648422 0.000000 0.268585
v -0.065752 0.000000 0.098405
v -0.173810 0.000000 0.260125
v -0.281868 0.000000 0.421845
v -0.389925 0.000000 0.583565
v -0.083687 0.000000 -0.083687
v -0.221218 0.000000 -0.221218
v -0.358750 0.000000 -0.358749
v -0.496281 0.000000 -0.496281
v 0.109342 0.000000 -0.045291
v 0.289035 0.000000 -0.119722
v 0.468729 0.000000 -0.194154
v 0.648422 0.000000 -0.268585
v 0.023089 0.000000 0.116077
v 0.061034 0.000000 0.306838
v 0.098979 0.000000 0.497600
v 0.136924 0.000000 0.688361
v -0.118351 0.000000 0.000000
v -0.312850 0.000000 0.000000
v -0.507348 0.000000 0.000000
v -0.701847 0.000000 0.000000
v -0.214561 0.000000 -0.021132
v -0.408123 0.000000 -0.040197
v -0.601684 0.000000 -0.059261
v -0.795245 0.000000 -0.078325
v 0.021132 0.000000 0.214561
v 0.040197 0.000000 0.408123
v 0.059261 0.000000 0.601684
v 0.078325 0.000000 0.795245
v 0.206316 0.000000 -0.062585
v 0.392439 0.000000 -0.119045
v 0.578562 0.000000 -0.175505
v 0.764685 0.000000 -0.231965
v -0.136775 0.000000 -0.166661
v -0.260163 0.000000 -0.317010
v -0.383551 0.000000 -0.467359
v -0.506939 0.000000 -0.617707
v -0.136775 0.000000 0.166661
v -0.260163 0.000000 0.317010
v -0.383551 0.000000 0.467359
v -0.506939 0.000000 0.617707
v 0.190142 0.000000 0.101633
v 0.361674 0.000000 0.193319
v 0.533206 0.000000 0.285004
v 0.704737 0.000000 0.376690
v 0.062585 0.000000 -0.206316
v 0.119045 0.000000 -0.392439
v 0.175505 0.000000 -0.578562
v 0.231965 0.000000 -0.764685
v -0.214561 0.000000 0.021132
v -0.408123 0.000000 0.040197
v -0.601684 0.000000 0.059261
v -0.795245 0.000000 0.078325
v 0.062585 0.000000 0.206316
v 0.119045 0.000000 0.392439
v 0.175505 0.000000 0.578562
v 0.231965 0.000000 0.764685
v 0.190142 0.000000 -0.101633
v 0.361674 0.000000 -0.193319
v 0.533206 0.000000 -0.285004
v 0.704737 0.000000 -0.376690
v -0.166661 0.000000 -0.136775
v -0.317010 0.000000 -0.260163
v -0.467359 0.000000 -0.383551
v -0.617707 0.000000 -0.506939
v -0.101633 0.000000 0.190142
v -0.193319 0.000000 0.361674
v -0.285004 0.000000 0.533206
v -0.376690 0.000000 0.704737
v 0.206316 0.000000 0.062585
v 0.392439 0.000000 0.119045
v 0.578562 0.000000 0.175505
v 0.764685 0.000000 0.231965
v -0.021132 0.000000 -0.214561
v -0.040197 0.000000 -0.408123
v -0.059261 0.000000 -0.601684
v -0.078325 0.000000 -0.795245
v 0.078325 0.000000 -0.795245
v 0.059261 0.000000 -0.601684
v 0.040197 0.000000 -0.408123
v 0.021132 0.000000 -0.214561
v -0.206316 0.000000 0.062585
v -0.392439 0.000000 0.119045
v -0.578562 0.000000 0.175505
v -0.764685 0.000000 0.231965
v 0.101633 0.000000 0.190142
v 0.193319 0.000000 0.361674
v 0.285004 0.000000 0.533206
v 0.376690 0.000000 0.704737
v 0.166661 0.000000 -0.136775
v 0.317010 0.000000 -0.260163
v 0.467359 0.000000 -0.383551
v 0.617707 0.000000 -0.506939
v -0.190142 0.000000 -0.101633
v -0.361674 0.000000 -0.193319
v -0.533206 0.000000 -0.285004
v -0.704737 0.000000 -0.376690
v -0.062585 0.000000 0.206316
v -0.119045 0.000000 0.392439
v -0.175505 0.000000 0.578562
v -0.231965 0.000000 0.764685
v 0.214561 0.000000 0.021132
v 0.408123 0.000000 0.040197
v 0.601684 0.000000 0.059261
v 0.795245 0.000000 0.078325
v -0.062585 0.000000 -0.206316
v -0.119045 0.000000 -0.392439
v -0.175505 0.000000 -0.578562
v -0.231965 0.000000 -0.764685
v -0.190142 0.000000 0.101633
v -0.361674 0.000000 0.193319
v -0.533206 0.000000 0.285004
v -0.704737 0.000000 0.376690
v 0.136775 0.000000 0.166661
v 0.260163 0.000000 0.317010
v 0.383551 0.000000 0.467359
v 0.506939 0.000000 0.617707
v 0.136775 0.000000 -0.166661
v 0.260163 0.000000 -0.317010
v 0.383551 0.000000 -0.467359
v 0.506939 0.000000 -0.617707
v -0.764685 0.000000 -0.231965
v -0.578562 0.000000 -0.175505
v -0.392439 0.000000 -0.119045
v -0.206316 0.000000 -0.062585
v -0.078325 0.000000 0.795245
v -0.059261 0.000000 0.601684
v -0.040197 0.000000 0.408123
v -0.021132 0.000000 0.214561
v 0.795246 0.000000 -0.078325
v 0.601684 0.000000 -0.059261
v 0.408123 0.000000 -0.040197
v 0.214561 0.000000 -0.021132
v -0.376690 0.000000 -0.704737
v -0.285004 0.000000 -0.533206
v -0.193319 0.000000 -0.361674
v -0.101633 0.000000 -0.190142
v -0.617707 0.000000 0.506939
v -0.467359 0.000000 0.383551
v -0.317010 0.000000 0.260163
v -0.166661 0.000000 0.136775
v 0.376690 0.000000 -0.704737
v 0.285004 0.000000 -0.533206
v 0.193319 0.000000 -0.361674
v 0.101633 0.000000 -0.190142
v 0.617707 0.000000 0.506939
v 0.467359 0.000000 0.383551
v 0.317010 0.000000 0.260163
v 0.166661 0.000000 0.136775
v 0.091486 0.000000 0.075081
v 0.055790 0.000000 -0.104376
v -0.091486 0.000000 0.075081
v -0.055790 0.000000 -0.104376
v 0.117781 0.000000 -0.011600
v -0.011600 0.000000 0.117781
v -0.113254 0.000000 -0.034355
v 0.568634 0.000000 -0.692882
v 0.568634 0.000000 0.692882
v -0.790503 0.000000 0.422533
v -0.260194 0.000000 -0.857746
v 0.892026 0.000000 0.087857
v -0.260194 0.000000 0.857746
v -0.790503 0.000000 -0.422533
v 0.692882 0.000000 -0.568634
v 0.422533 0.000000 0.790503
v -0.857746 0.000000 0.260194
v 0.011600 0.000000 -0.117781
v -0.087857 0.000000 -0.892026
v 0.857746 0.000000 0.260194
v -0.422533 0.000000 0.790503
v -0.692882 0.000000 -0.568634
v 0.790503 0.000000 -0.422533
v 0.260194 0.000000 0.857746
v -0.892026 0.000000 0.087857
v 0.260194 0.000000 -0.857746
v 0.790503 0.000000 0.422533
v -0.568634 0.000000 0.692882
v -0.568634 0.000000 -0.692882
v 0.857746 0.000000 -0.260194
v 0.087857 0.000000 0.892026
v -0.892026 0.000000 -0.087857
v -0.117781 0.000000 -0.011600
v -0.311342 0.000000 -0.030665
v -0.504903 0.000000 -0.049729
v -0.698465 0.000000 -0.068793
v 0.011600 0.000000 0.117781
v 0.030664 0.000000 0.311342
v 0.049729 0.000000 0.504903
v 0.068793 0.000000 0.698465
v 0.113254 0.000000 -0.034355
v 0.299377 0.000000 -0.090815
v 0.485500 0.000000 -0.147275
v 0.671623 0.000000 -0.203735
v -0.075081 0.000000 -0.091486
v -0.198469 0.000000 -0.241835
v -0.321857 0.000000 -0.392184
v -0.445245 0.000000 -0.542533
v -0.075081 0.000000 0.091486
v -0.198469 0.000000 0.241835
v -0.321857 0.000000 0.392184
v -0.445245 0.000000 0.542533
v 0.104376 0.000000 0.055790
v 0.275908 0.000000 0.147476
v 0.447440 0.000000 0.239161
v 0.618971 0.000000 0.330847
v 0.034355 0.000000 -0.113254
v 0.090815 0.000000 -0.299377
v 0.147275 0.000000 -0.485500
v 0.203735 0.000000 -0.671623
v -0.117781 0.000000 0.011600
v -0.311342 0.000000 0.030665
v -0.504903 0.000000 0.049729
v -0.698465 0.000000 0.068793
v 0.034355 0.000000 0.113254
v 0.090815 0.000000 0.299377
v 0.147275 0.000000 0.485500
v 0.203735 0.000000 0.671623
v 0.104376 0.000000 -0.055790
v 0.275908 0.000000 -0.147476
v 0.447440 0.000000 -0.239161
v 0.618971 0.000000 -0.330847
v -0.091486 0.000000 -0.075081
v -0.241835 0.000000 -0.198469
v -0.392184 0.000000 -0.321857
v -0.542533 0.000000 -0.445245
v -0.055790 0.000000 0.104376
v -0.147476 0.000000 0.275908
v -0.239161 0.000000 0.447440
v -0.330847 0.000000 0.618971
v 0.113254 0.000000 0.034355
v 0.299377 0.000000 0.090815
v 0.485500 0.000000 0.147275
v 0.671623 0.000000 0.203735
v -0.011600 0.000000 -0.117781
v -0.030665 0.000000 -0.311342
v -0.049729 0.000000 -0.504903
v -0.068793 0.000000 -0.698465
v 0.087857 0.000000 -0.892026
v 0.068793 0.000000 -0.698465
v 0.049729 0.000000 -0.504903
v 0.030664 0.000000 -0.311342
v -0.113254 0.000000 0.034355
v -0.299377 0.000000 0.090815
v -0.485500 0.000000 0.147275
v -0.671623 0.000000 0.203735
v 0.055790 0.000000 0.104376
v 0.147476 0.000000 0.275908
v 0.239161 0.000000 0.447440
v 0.330847 0.000000 0.618971
v 0.091486 0.000000 -0.075081
v 0.241835 0.000000 -0.198469
v 0.392184 0.000000 -0.321857
v 0.542533 0.000000 -0.445245
v -0.104376 0.000000 -0.055790
v -0.275908 0.000000 -0.147476
v -0.447440 0.000000 -0.239161
v -0.618971 0.000000 -0.330847
v -0.034355 0.000000 0.113254
v -0.090815 0.000000 0.299377
v -0.147275 0.000000 0.485500
v -0.203735 0.000000 0.671623
v 0.117781 0.000000 0.011600
v 0.311342 0.000000 0.030665
v 0.504903 0.000000 0.049729
v 0.698465 0.000000 0.068793
v -0.034355 0.000000 -0.113254
v -0.090815 0.000000 -0.299377
v -0.147275 0.000000 -0.485500
v -0.203735 0.000000 -0.671623
v -0.104376 0.000000 0.055790
v -0.275908 0.000000 0.147476
v -0.447440 0.000000 0.239161
v -0.618971 0.000000 0.330847
v 0.075081 0.000000 0.091486
v 0.198469 0.000000 0.241835
v 0.321857 0.000000 0.392184
v 0.445245 0.000000 0.542533
v 0.075081 0.000000 -0.091486
v 0.198469 0.000000 -0.241835
v 0.321857 0.000000 -0.392184
v 0.445245 0.000000 -0.542533
v -0.857746 0.000000 -0.260194
v -0.671623 0.000000 -0.203735
v -0.485500 0.000000 -0.147275
v -0.299377 0.000000 -0.090815
v -0.087857 0.000000 0.892026
v -0.068793 0.000000 0.698465
v -0.049729 0.000000 0.504903
v -0.030665 0.000000 0.311342
v 0.892026 0.000000 -0.087857
v 0.698465 0.000000 -0.068793
v 0.504903 0.000000 -0.049729
v 0.311342 0.000000 -0.030665
v -0.422533 0.000000 -0.790503
v -0.330847 0.000000 -0.618971
v -0.239161 0.000000 -0.447440
v -0.147476 0.000000 -0.275908
v -0.692882 0.000000 0.568634
v -0.542533 0.000000 0.445245
v -0.392184 0.000000 0.321857
v -0.241835 0.000000 0.198469
v 0.422533 0.000000 -0.790503
v 0.330847 0.000000 -0.618971
v 0.239161 0.000000 -0.447440
v 0.147476 0.000000 -0.275908
v 0.692882 0.000000 0.568633
v 0.542533 0.000000 0.445245
v 0.392184 0.000000 0.321857
v 0.241835 0.000000 0.198469
vn -0.0000 1.0000 -0.0000
vt 0.650202 0.777472
vt 0.650202 0.872242
vt 0.635182 0.872242
vt 0.635182 0.777473
vt 0.650202 0.967011
vt 0.635182 0.967011
vt 0.620161 0.967011
vt 0.620161 0.872242
vt 0.620161 0.777473
vt 0.920565 0.777472
vt 0.920565 0.872242
vt 0.905545 0.872242
vt 0.905545 0.777473
vt 0.920565 0.967011
vt 0.905545 0.967011
vt 0.890524 0.967011
vt 0.890524 0.872242
vt 0.890525 0.777473
vt 0.379839 0.777472
vt 0.379839 0.872242
vt 0.364819 0.872242
vt 0.364819 0.777473
vt 0.379839 0.967011
vt 0.364819 0.967011
vt 0.349798 0.967011
vt 0.349798 0.872242
vt 0.349798 0.777473
vt 0.109476 0.777472
vt 0.109476 0.872242
vt 0.094455 0.872242
vt 0.094455 0.777473
vt 0.109476 0.967011
vt 0.094455 0.967011
vt 0.079435 0.967011
vt 0.079435 0.872242
vt 0.079435 0.777473
vt 0.770363 0.777472
vt 0.770363 0.872242
vt 0.755343 0.872242
vt 0.755343 0.777473
vt 0.770363 0.967011
vt 0.755343 0.967011
vt 0.740323 0.967011
vt 0.740323 0.872242
vt 0.740323 0.777473
vt 0.500000 0.777472
vt 0.500000 0.872242
vt 0.484980 0.872242
vt 0.484980 0.777473
vt 0.500000 0.967011
vt 0.484980 0.967011
vt 0.469960 0.967011
vt 0.469960 0.872242
vt 0.469960 0.777473
vt 0.229637 0.777472
vt 0.229637 0.872242
vt 0.214617 0.872242
vt 0.214617 0.777473
vt 0.229637 0.967011
vt 0.214617 0.967011
vt 0.199597 0.967011
vt 0.199597 0.872242
vt 0.199597 0.777473
vt 0.860484 0.208856
vt 0.860484 0.114086
vt 0.875504 0.114086
vt 0.875504 0.208856
vt 0.860484 0.019317
vt 0.875504 0.019317
vt 0.890524 0.019317
vt 0.890524 0.114086
vt 0.890525 0.208856
vt 0.590121 0.208856
vt 0.590121 0.114086
vt 0.605141 0.114086
vt 0.605141 0.208856
vt 0.590121 0.019317
vt 0.605141 0.019317
vt 0.620161 0.019317
vt 0.620161 0.114086
vt 0.620161 0.208856
vt 0.319758 0.208856
vt 0.319758 0.114086
vt 0.334778 0.114086
vt 0.334778 0.208856
vt 0.319758 0.019317
vt 0.334778 0.019317
vt 0.349798 0.019317
vt 0.349798 0.114086
vt 0.349798 0.208856
vt 0.049395 0.208856
vt 0.049395 0.114086
vt 0.064415 0.114086
vt 0.064415 0.208856
vt 0.049395 0.019317
vt 0.064415 0.019317
vt 0.079435 0.019317
vt 0.079435 0.114086
vt 0.079435 0.208856
vt 0.710282 0.208856
vt 0.710282 0.114086
vt 0.725302 0.114086
vt 0.725303 0.208856
vt 0.710282 0.019317
vt 0.725303 0.019317
vt 0.740323 0.019317
vt 0.740323 0.114086
vt 0.740323 0.208856
vt 0.439919 0.208856
vt 0.439919 0.114086
vt 0.454940 0.114086
vt 0.454940 0.208856
vt 0.439919 0.019317
vt 0.454940 0.019317
vt 0.469960 0.019317
vt 0.469960 0.114086
vt 0.469960 0.208856
vt 0.169556 0.208856
vt 0.169556 0.114086
vt 0.184576 0.114086
vt 0.184576 0.208856
vt 0.169556 0.019317
vt 0.184576 0.019317
vt 0.199597 0.019317
vt 0.199597 0.114086
vt 0.199597 0.208856
vt 0.830444 0.208856
vt 0.830444 0.114086
vt 0.845464 0.114086
vt 0.845464 0.208856
vt 0.830444 0.019317
vt 0.845464 0.019317
vt 0.560081 0.208856
vt 0.560081 0.114086
vt 0.575101 0.114086
vt 0.575101 0.208856
vt 0.560081 0.019317
vt 0.575101 0.019317
vt 0.289718 0.208856
vt 0.289718 0.114086
vt 0.304738 0.114086
vt 0.304738 0.208856
vt 0.289718 0.019317
vt 0.304738 0.019317
vt 0.980645 0.777472
vt 0.980646 0.872242
vt 0.965625 0.872242
vt 0.965625 0.777473
vt 0.980646 0.967011
vt 0.965625 0.967011
vt 0.950605 0.967011
vt 0.950605 0.872242
vt 0.950605 0.777472
vt 0.019355 0.208856
vt 0.019355 0.114086
vt 0.034375 0.114086
vt 0.034375 0.208856
vt 0.019355 0.019317
vt 0.034375 0.019317
vt 0.680242 0.208856
vt 0.680242 0.114086
vt 0.695262 0.114086
vt 0.695262 0.208856
vt 0.680242 0.019317
vt 0.695262 0.019317
vt 0.409879 0.208856
vt 0.409879 0.114086
vt 0.424899 0.114086
vt 0.424899 0.208856
vt 0.409879 0.019317
vt 0.424899 0.019317
vt 0.139516 0.208856
vt 0.139516 0.114086
vt 0.154536 0.114086
vt 0.154536 0.208856
vt 0.139516 0.019317
vt 0.154536 0.019317
vt 0.800403 0.208856
vt 0.800403 0.114086
vt 0.815424 0.114086
vt 0.815424 0.208856
vt 0.800403 0.019317
vt 0.815424 0.019317
vt 0.530040 0.208856
vt 0.530040 0.114086
vt 0.545061 0.114086
vt 0.545061 0.208856
vt 0.530040 0.019317
vt 0.545061 0.019317
vt 0.259677 0.208856
vt 0.259677 0.114086
vt 0.274697 0.114086
vt 0.274697 0.208856
vt 0.259677 0.019317
vt 0.274698 0.019317
vt 0.920565 0.208856
vt 0.920565 0.114086
vt 0.935585 0.114086
vt 0.935585 0.208856
vt 0.920565 0.019317
vt 0.935585 0.019317
vt 0.950605 0.019317
vt 0.950605 0.114086
vt 0.950605 0.208856
vt 0.650202 0.208856
vt 0.650202 0.114086
vt 0.665222 0.114086
vt 0.665222 0.208856
vt 0.650202 0.019317
vt 0.665222 0.019317
vt 0.379839 0.208856
vt 0.379839 0.114086
vt 0.394859 0.114086
vt 0.394859 0.208856
vt 0.379839 0.019317
vt 0.394859 0.019317
vt 0.109476 0.208856
vt 0.109476 0.114086
vt 0.124496 0.114086
vt 0.124496 0.208856
vt 0.109476 0.019317
vt 0.124496 0.019317
vt 0.770363 0.208856
vt 0.770363 0.114086
vt 0.785383 0.114086
vt 0.785383 0.208856
vt 0.770363 0.019317
vt 0.785383 0.019317
vt 0.500000 0.208856
vt 0.500000 0.114086
vt 0.515020 0.114086
vt 0.515020 0.208856
vt 0.500000 0.019317
vt 0.515020 0.019317
vt 0.229637 0.208856
vt 0.229637 0.114086
vt 0.244657 0.114086
vt 0.244657 0.208856
vt 0.229637 0.019317
vt 0.244657 0.019317
vt 0.244657 0.872242
vt 0.244657 0.967011
vt 0.244657 0.777473
vt 0.259677 0.777473
vt 0.259677 0.872242
vt 0.259677 0.967011
vt 0.229637 0.682703
vt 0.244657 0.682703
vt 0.229637 0.587934
vt 0.244657 0.587934
vt 0.259677 0.587934
vt 0.259677 0.682703
vt 0.229637 0.493164
vt 0.244657 0.493164
vt 0.229637 0.398395
vt 0.244657 0.398395
vt 0.259677 0.398395
vt 0.259677 0.493164
vt 0.229637 0.303625
vt 0.244657 0.303625
vt 0.259677 0.303625
vt 0.515020 0.872242
vt 0.515020 0.967011
vt 0.515020 0.777473
vt 0.530040 0.777473
vt 0.530040 0.872242
vt 0.530040 0.967011
vt 0.500000 0.682703
vt 0.515020 0.682703
vt 0.500000 0.587934
vt 0.515020 0.587934
vt 0.530040 0.587934
vt 0.530040 0.682703
vt 0.500000 0.493164
vt 0.515020 0.493164
vt 0.500000 0.398395
vt 0.515020 0.398395
vt 0.530040 0.398395
vt 0.530040 0.493164
vt 0.500000 0.303625
vt 0.515020 0.303625
vt 0.530040 0.303625
vt 0.785383 0.872242
vt 0.785383 0.967011
vt 0.785383 0.777473
vt 0.800403 0.777473
vt 0.800403 0.872242
vt 0.800403 0.967011
vt 0.770363 0.682703
vt 0.785383 0.682703
vt 0.770363 0.587934
vt 0.785383 0.587934
vt 0.800403 0.587934
vt 0.800403 0.682703
vt 0.770363 0.493164
vt 0.785383 0.493164
vt 0.770363 0.398395
vt 0.785383 0.398395
vt 0.800403 0.398395
vt 0.800403 0.493164
vt 0.770363 0.303625
vt 0.785383 0.303625
vt 0.800403 0.303625
vt 0.124496 0.872242
vt 0.124496 0.967011
vt 0.124496 0.777473
vt 0.139516 0.777473
vt 0.139516 0.872242
vt 0.139516 0.967011
vt 0.109476 0.682703
vt 0.124496 0.682703
vt 0.109476 0.587934
vt 0.124496 0.587934
vt 0.139516 0.587934
vt 0.139516 0.682703
vt 0.109476 0.493164
vt 0.124496 0.493164
vt 0.109476 0.398395
vt 0.124496 0.398395
vt 0.139516 0.398395
vt 0.139516 0.493164
vt 0.109476 0.303625
vt 0.124496 0.303625
vt 0.139516 0.303625
vt 0.394859 0.872242
vt 0.394859 0.967011
vt 0.394859 0.777473
vt 0.409879 0.777473
vt 0.409879 0.872242
vt 0.409879 0.967011
vt 0.379839 0.682703
vt 0.394859 0.682703
vt 0.379839 0.587934
vt 0.394859 0.587934
vt 0.409879 0.587934
vt 0.409879 0.682703
vt 0.379839 0.493164
vt 0.394859 0.493164
vt 0.379839 0.398395
vt 0.394859 0.398395
vt 0.409879 0.398395
vt 0.409879 0.493164
vt 0.379839 0.303625
vt 0.394859 0.303625
vt 0.409879 0.303625
vt 0.665222 0.872242
vt 0.665222 0.967011
vt 0.665222 0.777473
vt 0.680242 0.777473
vt 0.680242 0.872242
vt 0.680242 0.967011
vt 0.650202 0.682703
vt 0.665222 0.682703
vt 0.650202 0.587934
vt 0.665222 0.587934
vt 0.680242 0.587934
vt 0.680242 0.682703
vt 0.650202 0.493164
vt 0.665222 0.493164
vt 0.650202 0.398395
vt 0.665222 0.398395
vt 0.680242 0.398395
vt 0.680242 0.493164
vt 0.650202 0.303625
vt 0.665222 0.303625
vt 0.680242 0.303625
vt 0.935585 0.872242
vt 0.935585 0.967011
vt 0.935585 0.777473
vt 0.920565 0.682703
vt 0.935585 0.682703
vt 0.920565 0.587934
vt 0.935585 0.587934
vt 0.950605 0.587934
vt 0.950605 0.682703
vt 0.920565 0.493164
vt 0.935585 0.493164
vt 0.920565 0.398395
vt 0.935585 0.398395
vt 0.950605 0.398395
vt 0.950605 0.493164
vt 0.920565 0.303625
vt 0.935585 0.303625
vt 0.950605 0.303625
vt 0.274697 0.872242
vt 0.274698 0.967011
vt 0.274697 0.777473
vt 0.289718 0.777473
vt 0.289718 0.872242
vt 0.289718 0.967011
vt 0.274698 0.682703
vt 0.274698 0.587934
vt 0.289718 0.587934
vt 0.289718 0.682703
vt 0.274698 0.493164
vt 0.274698 0.398395
vt 0.289718 0.398395
vt 0.289718 0.493164
vt 0.274698 0.303625
vt 0.289718 0.303625
vt 0.545061 0.872242
vt 0.545061 0.967011
vt 0.545061 0.777473
vt 0.560081 0.777473
vt 0.560081 0.872242
vt 0.560081 0.967011
vt 0.545061 0.682703
vt 0.545061 0.587934
vt 0.560081 0.587934
vt 0.560081 0.682703
vt 0.545061 0.493164
vt 0.545061 0.398395
vt 0.560081 0.398395
vt 0.560081 0.493164
vt 0.545061 0.303625
vt 0.560081 0.303625
vt 0.815424 0.872242
vt 0.815424 0.967011
vt 0.815424 0.777473
vt 0.830444 0.777473
vt 0.830444 0.872242
vt 0.830444 0.967011
vt 0.815424 0.682703
vt 0.815424 0.587934
vt 0.830444 0.587934
vt 0.830444 0.682703
vt 0.815424 0.493164
vt 0.815424 0.398395
vt 0.830444 0.398395
vt 0.830444 0.493164
vt 0.815424 0.303625
vt 0.830444 0.303625
vt 0.154536 0.872242
vt 0.154536 0.967011
vt 0.154536 0.777473
vt 0.169556 0.777473
vt 0.169556 0.872242
vt 0.169556 0.967011
vt 0.154536 0.682703
vt 0.154536 0.587934
vt 0.169556 0.587934
vt 0.169556 0.682703
vt 0.154536 0.493164
vt 0.154536 0.398395
vt 0.169556 0.398395
vt 0.169556 0.493164
vt 0.154536 0.303625
vt 0.169556 0.303625
vt 0.424899 0.872242
vt 0.424899 0.967011
vt 0.424899 0.777473
vt 0.439919 0.777473
vt 0.439919 0.872242
vt 0.439919 0.967011
vt 0.424899 0.682703
vt 0.424899 0.587934
vt 0.439919 0.587934
vt 0.439919 0.682703
vt 0.424899 0.493164
vt 0.424899 0.398395
vt 0.439919 0.398395
vt 0.439919 0.493164
vt 0.424899 0.303625
vt 0.439919 0.303625
vt 0.695262 0.872242
vt 0.695262 0.967011
vt 0.695262 0.777473
vt 0.710282 0.777473
vt 0.710282 0.872242
vt 0.710282 0.967011
vt 0.695262 0.682703
vt 0.695262 0.587934
vt 0.710282 0.587934
vt 0.710282 0.682703
vt 0.695262 0.493164
vt 0.695262 0.398395
vt 0.710282 0.398395
vt 0.710282 0.493164
vt 0.695262 0.303625
vt 0.710282 0.303625
vt 0.019355 0.967011
vt 0.019355 0.872242
vt 0.034375 0.872242
vt 0.034375 0.967011
vt 0.019355 0.777472
vt 0.034375 0.777473
vt 0.049395 0.777473
vt 0.049395 0.872242
vt 0.049395 0.967011
vt 0.019355 0.682703
vt 0.034375 0.682703
vt 0.019355 0.587934
vt 0.034375 0.587934
vt 0.049395 0.587934
vt 0.049395 0.682703
vt 0.019355 0.493164
vt 0.034375 0.493164
vt 0.019355 0.398395
vt 0.034375 0.398395
vt 0.049395 0.398395
vt 0.049395 0.493164
vt 0.019355 0.303625
vt 0.034375 0.303625
vt 0.049395 0.303625
vt 0.980646 0.019317
vt 0.980646 0.114086
vt 0.965625 0.114086
vt 0.965625 0.019317
vt 0.980645 0.208856
vt 0.965625 0.208856
vt 0.980646 0.303625
vt 0.965625 0.303625
vt 0.980645 0.398395
vt 0.965625 0.398395
vt 0.980646 0.493164
vt 0.965625 0.493164
vt 0.980645 0.587934
vt 0.965625 0.587934
vt 0.980646 0.682703
vt 0.965625 0.682703
vt 0.304738 0.872242
vt 0.304738 0.967011
vt 0.304738 0.777473
vt 0.319758 0.777473
vt 0.319758 0.872242
vt 0.319758 0.967011
vt 0.304738 0.682703
vt 0.304738 0.587934
vt 0.319758 0.587934
vt 0.319758 0.682703
vt 0.304738 0.493164
vt 0.304738 0.398395
vt 0.319758 0.398395
vt 0.319758 0.493164
vt 0.304738 0.303625
vt 0.319758 0.303625
vt 0.575101 0.872242
vt 0.575101 0.967011
vt 0.575101 0.777473
vt 0.590121 0.777473
vt 0.590121 0.872242
vt 0.590121 0.967011
vt 0.575101 0.682703
vt 0.575101 0.587934
vt 0.590121 0.587934
vt 0.590121 0.682703
vt 0.575101 0.493164
vt 0.575101 0.398395
vt 0.590121 0.398395
vt 0.590121 0.493164
vt 0.575101 0.303625
vt 0.590121 0.303625
vt 0.845464 0.872242
vt 0.845464 0.967011
vt 0.845464 0.777473
vt 0.860484 0.777473
vt 0.860484 0.872242
vt 0.860484 0.967011
vt 0.845464 0.682703
vt 0.845464 0.587934
vt 0.860484 0.587934
vt 0.860484 0.682703
vt 0.845464 0.493164
vt 0.845464 0.398395
vt 0.860484 0.398395
vt 0.860484 0.493164
vt 0.845464 0.303625
vt 0.860484 0.303625
vt 0.184576 0.872242
vt 0.184576 0.967011
vt 0.184576 0.777473
vt 0.184576 0.682703
vt 0.184576 0.587934
vt 0.199597 0.587934
vt 0.199597 0.682703
vt 0.184576 0.493164
vt 0.184576 0.398395
vt 0.199597 0.398395
vt 0.199597 0.493164
vt 0.184576 0.303625
vt 0.199597 0.303625
vt 0.454940 0.872242
vt 0.454940 0.967011
vt 0.454940 0.777473
vt 0.454940 0.682703
vt 0.454940 0.587934
vt 0.469960 0.587934
vt 0.469960 0.682703
vt 0.454940 0.493164
vt 0.454940 0.398395
vt 0.469960 0.398395
vt 0.469960 0.493164
vt 0.454940 0.303625
vt 0.469960 0.303625
vt 0.725303 0.872242
vt 0.725303 0.967011
vt 0.725303 0.777473
vt 0.725303 0.682703
vt 0.725303 0.587934
vt 0.740323 0.587934
vt 0.740323 0.682703
vt 0.725303 0.493164
vt 0.725303 0.398395
vt 0.740323 0.398395
vt 0.740323 0.493164
vt 0.725303 0.303625
vt 0.740323 0.303625
vt 0.064415 0.872242
vt 0.064415 0.967011
vt 0.064415 0.777473
vt 0.064415 0.682703
vt 0.064415 0.587934
vt 0.079435 0.587934
vt 0.079435 0.682703
vt 0.064415 0.493164
vt 0.064415 0.398395
vt 0.079435 0.398395
vt 0.079435 0.493164
vt 0.064415 0.303625
vt 0.079435 0.303625
vt 0.334778 0.872242
vt 0.334778 0.967011
vt 0.334778 0.777473
vt 0.334778 0.682703
vt 0.334778 0.587934
vt 0.349798 0.587934
vt 0.349798 0.682703
vt 0.334778 0.493164
vt 0.334778 0.398395
vt 0.349798 0.398395
vt 0.349798 0.493164
vt 0.334778 0.303625
vt 0.349798 0.303625
vt 0.605141 0.872242
vt 0.605141 0.967011
vt 0.605141 0.777473
vt 0.605141 0.682703
vt 0.605141 0.587934
vt 0.620161 0.587934
vt 0.620161 0.682703
vt 0.605141 0.493164
vt 0.605141 0.398395
vt 0.620161 0.398395
vt 0.620161 0.493164
vt 0.605141 0.303625
vt 0.620161 0.303625
vt 0.875504 0.872242
vt 0.875504 0.967011
vt 0.875504 0.777473
vt 0.875504 0.682703
vt 0.875504 0.587934
vt 0.890524 0.587934
vt 0.890524 0.682703
vt 0.875504 0.493164
vt 0.875504 0.398395
vt 0.890524 0.398395
vt 0.890524 0.493164
vt 0.875504 0.303625
vt 0.890524 0.303625
vt 0.214617 0.114086
vt 0.214617 0.019317
vt 0.214617 0.208856
vt 0.214617 0.303625
vt 0.214617 0.398395
vt 0.214617 0.493164
vt 0.214617 0.587934
vt 0.214617 0.682703
vt 0.484980 0.114086
vt 0.484980 0.019317
vt 0.484980 0.208856
vt 0.484980 0.303625
vt 0.484980 0.398395
vt 0.484980 0.493164
vt 0.484980 0.587934
vt 0.484980 0.682703
vt 0.755343 0.114086
vt 0.755343 0.019317
vt 0.755343 0.208856
vt 0.755343 0.303625
vt 0.755343 0.398395
vt 0.755343 0.493164
vt 0.755343 0.587934
vt 0.755343 0.682703
vt 0.094455 0.114086
vt 0.094455 0.019317
vt 0.094455 0.208856
vt 0.094455 0.303625
vt 0.094455 0.398395
vt 0.094455 0.493164
vt 0.094455 0.587934
vt 0.094455 0.682703
vt 0.364819 0.114086
vt 0.364819 0.019317
vt 0.364819 0.208856
vt 0.364819 0.303625
vt 0.364819 0.398395
vt 0.364819 0.493164
vt 0.364819 0.587934
vt 0.364819 0.682703
vt 0.905545 0.114086
vt 0.905545 0.019317
vt 0.905545 0.208856
vt 0.905545 0.303625
vt 0.905545 0.398395
vt 0.905545 0.493164
vt 0.905545 0.587934
vt 0.905545 0.682703
vt 0.635182 0.114086
vt 0.635182 0.019317
vt 0.635182 0.208856
vt 0.635182 0.303625
vt 0.635182 0.398395
vt 0.635182 0.493164
vt 0.635182 0.587934
vt 0.635182 0.682703
s 0
usemtl Material
f 80/1/1 260/2/1 545/3/1 544/4/1
f 260/2/1 44/5/1 236/6/1 545/3/1
f 545/3/1 236/6/1 45/7/1 297/8/1
f 544/4/1 545/3/1 297/8/1 73/9/1
f 72/10/1 258/11/1 546/12/1 540/13/1
f 258/11/1 35/14/1 227/15/1 546/12/1
f 546/12/1 227/15/1 36/16/1 289/17/1
f 540/13/1 546/12/1 289/17/1 65/18/1
f 88/19/1 262/20/1 547/21/1 536/22/1
f 262/20/1 53/23/1 245/24/1 547/21/1
f 547/21/1 245/24/1 54/25/1 305/26/1
f 536/22/1 547/21/1 305/26/1 81/27/1
f 96/28/1 264/29/1 548/30/1 532/31/1
f 264/29/1 62/32/1 254/33/1 548/30/1
f 548/30/1 254/33/1 63/34/1 313/35/1
f 532/31/1 548/30/1 313/35/1 89/36/1
f 104/37/1 266/38/1 549/39/1 528/40/1
f 266/38/1 40/41/1 232/42/1 549/39/1
f 549/39/1 232/42/1 41/43/1 321/44/1
f 528/40/1 549/39/1 321/44/1 97/45/1
f 112/46/1 268/47/1 550/48/1 524/49/1
f 268/47/1 49/50/1 241/51/1 550/48/1
f 550/48/1 241/51/1 50/52/1 329/53/1
f 524/49/1 550/48/1 329/53/1 105/54/1
f 120/55/1 270/56/1 551/57/1 520/58/1
f 270/56/1 58/59/1 250/60/1 551/57/1
f 551/57/1 250/60/1 59/61/1 337/62/1
f 520/58/1 551/57/1 337/62/1 113/63/1
f 124/64/1 271/65/1 552/66/1 516/67/1
f 271/65/1 5/68/1 196/69/1 552/66/1
f 552/66/1 196/69/1 4/70/1 257/71/1
f 516/67/1 552/66/1 257/71/1 68/72/1
f 128/73/1 272/74/1 553/75/1 512/76/1
f 272/74/1 14/77/1 205/78/1 553/75/1
f 553/75/1 205/78/1 13/79/1 259/80/1
f 512/76/1 553/75/1 259/80/1 76/81/1
f 132/82/1 273/83/1 554/84/1 508/85/1
f 273/83/1 23/86/1 214/87/1 554/84/1
f 554/84/1 214/87/1 22/88/1 261/89/1
f 508/85/1 554/84/1 261/89/1 84/90/1
f 136/91/1 274/92/1 555/93/1 504/94/1
f 274/92/1 32/95/1 223/96/1 555/93/1
f 555/93/1 223/96/1 31/97/1 263/98/1
f 504/94/1 555/93/1 263/98/1 92/99/1
f 140/100/1 275/101/1 556/102/1 500/103/1
f 275/101/1 10/104/1 201/105/1 556/102/1
f 556/102/1 201/105/1 9/106/1 265/107/1
f 500/103/1 556/102/1 265/107/1 100/108/1
f 144/109/1 276/110/1 557/111/1 496/112/1
f 276/110/1 19/113/1 210/114/1 557/111/1
f 557/111/1 210/114/1 18/115/1 267/116/1
f 496/112/1 557/111/1 267/116/1 108/117/1
f 148/118/1 277/119/1 558/120/1 492/121/1
f 277/119/1 28/122/1 219/123/1 558/120/1
f 558/120/1 219/123/1 27/124/1 269/125/1
f 492/121/1 558/120/1 269/125/1 116/126/1
f 152/127/1 278/128/1 559/129/1 488/130/1
f 278/128/1 6/131/1 197/132/1 559/129/1
f 559/129/1 197/132/1 5/68/1 271/65/1
f 488/130/1 559/129/1 271/65/1 124/64/1
f 156/133/1 279/134/1 560/135/1 484/136/1
f 279/134/1 15/137/1 206/138/1 560/135/1
f 560/135/1 206/138/1 14/77/1 272/74/1
f 484/136/1 560/135/1 272/74/1 128/73/1
f 160/139/1 280/140/1 561/141/1 480/142/1
f 280/140/1 24/143/1 215/144/1 561/141/1
f 561/141/1 215/144/1 23/86/1 273/83/1
f 480/142/1 561/141/1 273/83/1 132/82/1
f 168/145/1 282/146/1 562/147/1 476/148/1
f 282/146/1 33/149/1 225/150/1 562/147/1
f 562/147/1 225/150/1 34/151/1 385/152/1
f 476/148/1 562/147/1 385/152/1 161/153/1
f 165/154/1 389/155/1 563/156/1 472/157/1
f 389/155/1 1/158/1 224/159/1 563/156/1
f 563/156/1 224/159/1 32/95/1 274/92/1
f 472/157/1 563/156/1 274/92/1 136/91/1
f 172/160/1 283/161/1 564/162/1 468/163/1
f 283/161/1 11/164/1 202/165/1 564/162/1
f 564/162/1 202/165/1 10/104/1 275/101/1
f 468/163/1 564/162/1 275/101/1 140/100/1
f 176/166/1 284/167/1 565/168/1 464/169/1
f 284/167/1 20/170/1 211/171/1 565/168/1
f 565/168/1 211/171/1 19/113/1 276/110/1
f 464/169/1 565/168/1 276/110/1 144/109/1
f 180/172/1 285/173/1 566/174/1 460/175/1
f 285/173/1 29/176/1 220/177/1 566/174/1
f 566/174/1 220/177/1 28/122/1 277/119/1
f 460/175/1 566/174/1 277/119/1 148/118/1
f 184/178/1 286/179/1 567/180/1 456/181/1
f 286/179/1 7/182/1 198/183/1 567/180/1
f 567/180/1 198/183/1 6/131/1 278/128/1
f 456/181/1 567/180/1 278/128/1 152/127/1
f 188/184/1 287/185/1 568/186/1 452/187/1
f 287/185/1 16/188/1 207/189/1 568/186/1
f 568/186/1 207/189/1 15/137/1 279/134/1
f 452/187/1 568/186/1 279/134/1 156/133/1
f 192/190/1 288/191/1 569/192/1 448/193/1
f 288/191/1 25/194/1 216/195/1 569/192/1
f 569/192/1 216/195/1 24/143/1 280/140/1
f 448/193/1 569/192/1 280/140/1 160/139/1
f 69/196/1 293/197/1 570/198/1 444/199/1
f 293/197/1 3/200/1 194/201/1 570/198/1
f 570/198/1 194/201/1 2/202/1 281/203/1
f 444/199/1 570/198/1 281/203/1 164/204/1
f 77/205/1 301/206/1 571/207/1 440/208/1
f 301/206/1 12/209/1 203/210/1 571/207/1
f 571/207/1 203/210/1 11/164/1 283/161/1
f 440/208/1 571/207/1 283/161/1 172/160/1
f 85/211/1 309/212/1 572/213/1 436/214/1
f 309/212/1 21/215/1 212/216/1 572/213/1
f 572/213/1 212/216/1 20/170/1 284/167/1
f 436/214/1 572/213/1 284/167/1 176/166/1
f 93/217/1 317/218/1 573/219/1 432/220/1
f 317/218/1 30/221/1 221/222/1 573/219/1
f 573/219/1 221/222/1 29/176/1 285/173/1
f 432/220/1 573/219/1 285/173/1 180/172/1
f 101/223/1 325/224/1 574/225/1 428/226/1
f 325/224/1 8/227/1 199/228/1 574/225/1
f 574/225/1 199/228/1 7/182/1 286/179/1
f 428/226/1 574/225/1 286/179/1 184/178/1
f 109/229/1 333/230/1 575/231/1 424/232/1
f 333/230/1 17/233/1 208/234/1 575/231/1
f 575/231/1 208/234/1 16/188/1 287/185/1
f 424/232/1 575/231/1 287/185/1 188/184/1
f 117/235/1 341/236/1 576/237/1 420/238/1
f 341/236/1 26/239/1 217/240/1 576/237/1
f 576/237/1 217/240/1 25/194/1 288/191/1
f 420/238/1 576/237/1 288/191/1 192/190/1
f 58/59/1 270/56/1 577/241/1 249/242/1
f 270/56/1 120/55/1 417/243/1 577/241/1
f 577/241/1 417/243/1 189/244/1 413/245/1
f 249/242/1 577/241/1 413/245/1 57/246/1
f 120/55/1 344/247/1 578/248/1 417/243/1
f 344/247/1 119/249/1 418/250/1 578/248/1
f 578/248/1 418/250/1 190/251/1 414/252/1
f 417/243/1 578/248/1 414/252/1 189/244/1
f 119/249/1 343/253/1 579/254/1 418/250/1
f 343/253/1 118/255/1 419/256/1 579/254/1
f 579/254/1 419/256/1 191/257/1 415/258/1
f 418/250/1 579/254/1 415/258/1 190/251/1
f 118/255/1 342/259/1 580/260/1 419/256/1
f 342/259/1 117/235/1 420/238/1 580/260/1
f 580/260/1 420/238/1 192/190/1 416/261/1
f 419/256/1 580/260/1 416/261/1 191/257/1
f 49/50/1 268/47/1 581/262/1 240/263/1
f 268/47/1 112/46/1 421/264/1 581/262/1
f 581/262/1 421/264/1 185/265/1 409/266/1
f 240/263/1 581/262/1 409/266/1 48/267/1
f 112/46/1 336/268/1 582/269/1 421/264/1
f 336/268/1 111/270/1 422/271/1 582/269/1
f 582/269/1 422/271/1 186/272/1 410/273/1
f 421/264/1 582/269/1 410/273/1 185/265/1
f 111/270/1 335/274/1 583/275/1 422/271/1
f 335/274/1 110/276/1 423/277/1 583/275/1
f 583/275/1 423/277/1 187/278/1 411/279/1
f 422/271/1 583/275/1 411/279/1 186/272/1
f 110/276/1 334/280/1 584/281/1 423/277/1
f 334/280/1 109/229/1 424/232/1 584/281/1
f 584/281/1 424/232/1 188/184/1 412/282/1
f 423/277/1 584/281/1 412/282/1 187/278/1
f 40/41/1 266/38/1 585/283/1 231/284/1
f 266/38/1 104/37/1 425/285/1 585/283/1
f 585/283/1 425/285/1 181/286/1 405/287/1
f 231/284/1 585/283/1 405/287/1 39/288/1
f 104/37/1 328/289/1 586/290/1 425/285/1
f 328/289/1 103/291/1 426/292/1 586/290/1
f 586/290/1 426/292/1 182/293/1 406/294/1
f 425/285/1 586/290/1 406/294/1 181/286/1
f 103/291/1 327/295/1 587/296/1 426/292/1
f 327/295/1 102/297/1 427/298/1 587/296/1
f 587/296/1 427/298/1 183/299/1 407/300/1
f 426/292/1 587/296/1 407/300/1 182/293/1
f 102/297/1 326/301/1 588/302/1 427/298/1
f 326/301/1 101/223/1 428/226/1 588/302/1
f 588/302/1 428/226/1 184/178/1 408/303/1
f 427/298/1 588/302/1 408/303/1 183/299/1
f 62/32/1 264/29/1 589/304/1 253/305/1
f 264/29/1 96/28/1 429/306/1 589/304/1
f 589/304/1 429/306/1 177/307/1 401/308/1
f 253/305/1 589/304/1 401/308/1 61/309/1
f 96/28/1 320/310/1 590/311/1 429/306/1
f 320/310/1 95/312/1 430/313/1 590/311/1
f 590/311/1 430/313/1 178/314/1 402/315/1
f 429/306/1 590/311/1 402/315/1 177/307/1
f 95/312/1 319/316/1 591/317/1 430/313/1
f 319/316/1 94/318/1 431/319/1 591/317/1
f 591/317/1 431/319/1 179/320/1 403/321/1
f 430/313/1 591/317/1 403/321/1 178/314/1
f 94/318/1 318/322/1 592/323/1 431/319/1
f 318/322/1 93/217/1 432/220/1 592/323/1
f 592/323/1 432/220/1 180/172/1 404/324/1
f 431/319/1 592/323/1 404/324/1 179/320/1
f 53/23/1 262/20/1 593/325/1 244/326/1
f 262/20/1 88/19/1 433/327/1 593/325/1
f 593/325/1 433/327/1 173/328/1 397/329/1
f 244/326/1 593/325/1 397/329/1 52/330/1
f 88/19/1 312/331/1 594/332/1 433/327/1
f 312/331/1 87/333/1 434/334/1 594/332/1
f 594/332/1 434/334/1 174/335/1 398/336/1
f 433/327/1 594/332/1 398/336/1 173/328/1
f 87/333/1 311/337/1 595/338/1 434/334/1
f 311/337/1 86/339/1 435/340/1 595/338/1
f 595/338/1 435/340/1 175/341/1 399/342/1
f 434/334/1 595/338/1 399/342/1 174/335/1
f 86/339/1 310/343/1 596/344/1 435/340/1
f 310/343/1 85/211/1 436/214/1 596/344/1
f 596/344/1 436/214/1 176/166/1 400/345/1
f 435/340/1 596/344/1 400/345/1 175/341/1
f 44/5/1 260/2/1 597/346/1 235/347/1
f 260/2/1 80/1/1 437/348/1 597/346/1
f 597/346/1 437/348/1 169/349/1 393/350/1
f 235/347/1 597/346/1 393/350/1 43/351/1
f 80/1/1 304/352/1 598/353/1 437/348/1
f 304/352/1 79/354/1 438/355/1 598/353/1
f 598/353/1 438/355/1 170/356/1 394/357/1
f 437/348/1 598/353/1 394/357/1 169/349/1
f 79/354/1 303/358/1 599/359/1 438/355/1
f 303/358/1 78/360/1 439/361/1 599/359/1
f 599/359/1 439/361/1 171/362/1 395/363/1
f 438/355/1 599/359/1 395/363/1 170/356/1
f 78/360/1 302/364/1 600/365/1 439/361/1
f 302/364/1 77/205/1 440/208/1 600/365/1
f 600/365/1 440/208/1 172/160/1 396/366/1
f 439/361/1 600/365/1 396/366/1 171/362/1
f 35/14/1 258/11/1 601/367/1 226/368/1
f 258/11/1 72/10/1 441/369/1 601/367/1
f 601/367/1 441/369/1 161/153/1 385/152/1
f 226/368/1 601/367/1 385/152/1 34/151/1
f 72/10/1 296/370/1 602/371/1 441/369/1
f 296/370/1 71/372/1 442/373/1 602/371/1
f 602/371/1 442/373/1 162/374/1 386/375/1
f 441/369/1 602/371/1 386/375/1 161/153/1
f 71/372/1 295/376/1 603/377/1 442/373/1
f 295/376/1 70/378/1 443/379/1 603/377/1
f 603/377/1 443/379/1 163/380/1 387/381/1
f 442/373/1 603/377/1 387/381/1 162/374/1
f 70/378/1 294/382/1 604/383/1 443/379/1
f 294/382/1 69/196/1 444/199/1 604/383/1
f 604/383/1 444/199/1 164/204/1 388/384/1
f 443/379/1 604/383/1 388/384/1 163/380/1
f 57/246/1 413/245/1 605/385/1 248/386/1
f 413/245/1 189/244/1 445/387/1 605/385/1
f 605/385/1 445/387/1 157/388/1 381/389/1
f 248/386/1 605/385/1 381/389/1 56/390/1
f 189/244/1 414/252/1 606/391/1 445/387/1
f 414/252/1 190/251/1 446/392/1 606/391/1
f 606/391/1 446/392/1 158/393/1 382/394/1
f 445/387/1 606/391/1 382/394/1 157/388/1
f 190/251/1 415/258/1 607/395/1 446/392/1
f 415/258/1 191/257/1 447/396/1 607/395/1
f 607/395/1 447/396/1 159/397/1 383/398/1
f 446/392/1 607/395/1 383/398/1 158/393/1
f 191/257/1 416/261/1 608/399/1 447/396/1
f 416/261/1 192/190/1 448/193/1 608/399/1
f 608/399/1 448/193/1 160/139/1 384/400/1
f 447/396/1 608/399/1 384/400/1 159/397/1
f 48/267/1 409/266/1 609/401/1 239/402/1
f 409/266/1 185/265/1 449/403/1 609/401/1
f 609/401/1 449/403/1 153/404/1 377/405/1
f 239/402/1 609/401/1 377/405/1 47/406/1
f 185/265/1 410/273/1 610/407/1 449/403/1
f 410/273/1 186/272/1 450/408/1 610/407/1
f 610/407/1 450/408/1 154/409/1 378/410/1
f 449/403/1 610/407/1 378/410/1 153/404/1
f 186/272/1 411/279/1 611/411/1 450/408/1
f 411/279/1 187/278/1 451/412/1 611/411/1
f 611/411/1 451/412/1 155/413/1 379/414/1
f 450/408/1 611/411/1 379/414/1 154/409/1
f 187/278/1 412/282/1 612/415/1 451/412/1
f 412/282/1 188/184/1 452/187/1 612/415/1
f 612/415/1 452/187/1 156/133/1 380/416/1
f 451/412/1 612/415/1 380/416/1 155/413/1
f 39/288/1 405/287/1 613/417/1 230/418/1
f 405/287/1 181/286/1 453/419/1 613/417/1
f 613/417/1 453/419/1 149/420/1 373/421/1
f 230/418/1 613/417/1 373/421/1 38/422/1
f 181/286/1 406/294/1 614/423/1 453/419/1
f 406/294/1 182/293/1 454/424/1 614/423/1
f 614/423/1 454/424/1 150/425/1 374/426/1
f 453/419/1 614/423/1 374/426/1 149/420/1
f 182/293/1 407/300/1 615/427/1 454/424/1
f 407/300/1 183/299/1 455/428/1 615/427/1
f 615/427/1 455/428/1 151/429/1 375/430/1
f 454/424/1 615/427/1 375/430/1 150/425/1
f 183/299/1 408/303/1 616/431/1 455/428/1
f 408/303/1 184/178/1 456/181/1 616/431/1
f 616/431/1 456/181/1 152/127/1 376/432/1
f 455/428/1 616/431/1 376/432/1 151/429/1
f 61/309/1 401/308/1 617/433/1 252/434/1
f 401/308/1 177/307/1 457/435/1 617/433/1
f 617/433/1 457/435/1 145/436/1 369/437/1
f 252/434/1 617/433/1 369/437/1 60/438/1
f 177/307/1 402/315/1 618/439/1 457/435/1
f 402/315/1 178/314/1 458/440/1 618/439/1
f 618/439/1 458/440/1 146/441/1 370/442/1
f 457/435/1 618/439/1 370/442/1 145/436/1
f 178/314/1 403/321/1 619/443/1 458/440/1
f 403/321/1 179/320/1 459/444/1 619/443/1
f 619/443/1 459/444/1 147/445/1 371/446/1
f 458/440/1 619/443/1 371/446/1 146/441/1
f 179/320/1 404/324/1 620/447/1 459/444/1
f 404/324/1 180/172/1 460/175/1 620/447/1
f 620/447/1 460/175/1 148/118/1 372/448/1
f 459/444/1 620/447/1 372/448/1 147/445/1
f 52/330/1 397/329/1 621/449/1 243/450/1
f 397/329/1 173/328/1 461/451/1 621/449/1
f 621/449/1 461/451/1 141/452/1 365/453/1
f 243/450/1 621/449/1 365/453/1 51/454/1
f 173/328/1 398/336/1 622/455/1 461/451/1
f 398/336/1 174/335/1 462/456/1 622/455/1
f 622/455/1 462/456/1 142/457/1 366/458/1
f 461/451/1 622/455/1 366/458/1 141/452/1
f 174/335/1 399/342/1 623/459/1 462/456/1
f 399/342/1 175/341/1 463/460/1 623/459/1
f 623/459/1 463/460/1 143/461/1 367/462/1
f 462/456/1 623/459/1 367/462/1 142/457/1
f 175/341/1 400/345/1 624/463/1 463/460/1
f 400/345/1 176/166/1 464/169/1 624/463/1
f 624/463/1 464/169/1 144/109/1 368/464/1
f 463/460/1 624/463/1 368/464/1 143/461/1
f 43/351/1 393/350/1 625/465/1 234/466/1
f 393/350/1 169/349/1 465/467/1 625/465/1
f 625/465/1 465/467/1 137/468/1 361/469/1
f 234/466/1 625/465/1 361/469/1 42/470/1
f 169/349/1 394/357/1 626/471/1 465/467/1
f 394/357/1 170/356/1 466/472/1 626/471/1
f 626/471/1 466/472/1 138/473/1 362/474/1
f 465/467/1 626/471/1 362/474/1 137/468/1
f 170/356/1 395/363/1 627/475/1 466/472/1
f 395/363/1 171/362/1 467/476/1 627/475/1
f 627/475/1 467/476/1 139/477/1 363/478/1
f 466/472/1 627/475/1 363/478/1 138/473/1
f 171/362/1 396/366/1 628/479/1 467/476/1
f 396/366/1 172/160/1 468/163/1 628/479/1
f 628/479/1 468/163/1 140/100/1 364/480/1
f 467/476/1 628/479/1 364/480/1 139/477/1
f 33/481/1 282/482/1 629/483/1 256/484/1
f 282/482/1 168/485/1 469/486/1 629/483/1
f 629/483/1 469/486/1 133/487/1 357/488/1
f 256/484/1 629/483/1 357/488/1 64/489/1
f 168/485/1 392/490/1 630/491/1 469/486/1
f 392/490/1 167/492/1 470/493/1 630/491/1
f 630/491/1 470/493/1 134/494/1 358/495/1
f 469/486/1 630/491/1 358/495/1 133/487/1
f 167/492/1 391/496/1 631/497/1 470/493/1
f 391/496/1 166/498/1 471/499/1 631/497/1
f 631/497/1 471/499/1 135/500/1 359/501/1
f 470/493/1 631/497/1 359/501/1 134/494/1
f 166/498/1 390/502/1 632/503/1 471/499/1
f 390/502/1 165/154/1 472/157/1 632/503/1
f 632/503/1 472/157/1 136/91/1 360/504/1
f 471/499/1 632/503/1 360/504/1 135/500/1
f 1/505/1 389/506/1 633/507/1 193/508/1
f 389/506/1 165/509/1 473/510/1 633/507/1
f 633/507/1 473/510/1 164/204/1 281/203/1
f 193/508/1 633/507/1 281/203/1 2/202/1
f 165/509/1 390/511/1 634/512/1 473/510/1
f 390/511/1 166/513/1 474/514/1 634/512/1
f 634/512/1 474/514/1 163/380/1 388/384/1
f 473/510/1 634/512/1 388/384/1 164/204/1
f 166/513/1 391/515/1 635/516/1 474/514/1
f 391/515/1 167/517/1 475/518/1 635/516/1
f 635/516/1 475/518/1 162/374/1 387/381/1
f 474/514/1 635/516/1 387/381/1 163/380/1
f 167/517/1 392/519/1 636/520/1 475/518/1
f 392/519/1 168/145/1 476/148/1 636/520/1
f 636/520/1 476/148/1 161/153/1 386/375/1
f 475/518/1 636/520/1 386/375/1 162/374/1
f 56/390/1 381/389/1 637/521/1 247/522/1
f 381/389/1 157/388/1 477/523/1 637/521/1
f 637/521/1 477/523/1 129/524/1 353/525/1
f 247/522/1 637/521/1 353/525/1 55/526/1
f 157/388/1 382/394/1 638/527/1 477/523/1
f 382/394/1 158/393/1 478/528/1 638/527/1
f 638/527/1 478/528/1 130/529/1 354/530/1
f 477/523/1 638/527/1 354/530/1 129/524/1
f 158/393/1 383/398/1 639/531/1 478/528/1
f 383/398/1 159/397/1 479/532/1 639/531/1
f 639/531/1 479/532/1 131/533/1 355/534/1
f 478/528/1 639/531/1 355/534/1 130/529/1
f 159/397/1 384/400/1 640/535/1 479/532/1
f 384/400/1 160/139/1 480/142/1 640/535/1
f 640/535/1 480/142/1 132/82/1 356/536/1
f 479/532/1 640/535/1 356/536/1 131/533/1
f 47/406/1 377/405/1 641/537/1 238/538/1
f 377/405/1 153/404/1 481/539/1 641/537/1
f 641/537/1 481/539/1 125/540/1 349/541/1
f 238/538/1 641/537/1 349/541/1 46/542/1
f 153/404/1 378/410/1 642/543/1 481/539/1
f 378/410/1 154/409/1 482/544/1 642/543/1
f 642/543/1 482/544/1 126/545/1 350/546/1
f 481/539/1 642/543/1 350/546/1 125/540/1
f 154/409/1 379/414/1 643/547/1 482/544/1
f 379/414/1 155/413/1 483/548/1 643/547/1
f 643/547/1 483/548/1 127/549/1 351/550/1
f 482/544/1 643/547/1 351/550/1 126/545/1
f 155/413/1 380/416/1 644/551/1 483/548/1
f 380/416/1 156/133/1 484/136/1 644/551/1
f 644/551/1 484/136/1 128/73/1 352/552/1
f 483/548/1 644/551/1 352/552/1 127/549/1
f 38/422/1 373/421/1 645/553/1 229/554/1
f 373/421/1 149/420/1 485/555/1 645/553/1
f 645/553/1 485/555/1 121/556/1 345/557/1
f 229/554/1 645/553/1 345/557/1 37/558/1
f 149/420/1 374/426/1 646/559/1 485/555/1
f 374/426/1 150/425/1 486/560/1 646/559/1
f 646/559/1 486/560/1 122/561/1 346/562/1
f 485/555/1 646/559/1 346/562/1 121/556/1
f 150/425/1 375/430/1 647/563/1 486/560/1
f 375/430/1 151/429/1 487/564/1 647/563/1
f 647/563/1 487/564/1 123/565/1 347/566/1
f 486/560/1 647/563/1 347/566/1 122/561/1
f 151/429/1 376/432/1 648/567/1 487/564/1
f 376/432/1 152/127/1 488/130/1 648/567/1
f 648/567/1 488/130/1 124/64/1 348/568/1
f 487/564/1 648/567/1 348/568/1 123/565/1
f 60/438/1 369/437/1 649/569/1 251/570/1
f 369/437/1 145/436/1 489/571/1 649/569/1
f 649/569/1 489/571/1 113/63/1 337/62/1
f 251/570/1 649/569/1 337/62/1 59/61/1
f 145/436/1 370/442/1 650/572/1 489/571/1
f 370/442/1 146/441/1 490/573/1 650/572/1
f 650/572/1 490/573/1 114/574/1 338/575/1
f 489/571/1 650/572/1 338/575/1 113/63/1
f 146/441/1 371/446/1 651/576/1 490/573/1
f 371/446/1 147/445/1 491/577/1 651/576/1
f 651/576/1 491/577/1 115/578/1 339/579/1
f 490/573/1 651/576/1 339/579/1 114/574/1
f 147/445/1 372/448/1 652/580/1 491/577/1
f 372/448/1 148/118/1 492/121/1 652/580/1
f 652/580/1 492/121/1 116/126/1 340/581/1
f 491/577/1 652/580/1 340/581/1 115/578/1
f 51/454/1 365/453/1 653/582/1 242/583/1
f 365/453/1 141/452/1 493/584/1 653/582/1
f 653/582/1 493/584/1 105/54/1 329/53/1
f 242/583/1 653/582/1 329/53/1 50/52/1
f 141/452/1 366/458/1 654/585/1 493/584/1
f 366/458/1 142/457/1 494/586/1 654/585/1
f 654/585/1 494/586/1 106/587/1 330/588/1
f 493/584/1 654/585/1 330/588/1 105/54/1
f 142/457/1 367/462/1 655/589/1 494/586/1
f 367/462/1 143/461/1 495/590/1 655/589/1
f 655/589/1 495/590/1 107/591/1 331/592/1
f 494/586/1 655/589/1 331/592/1 106/587/1
f 143/461/1 368/464/1 656/593/1 495/590/1
f 368/464/1 144/109/1 496/112/1 656/593/1
f 656/593/1 496/112/1 108/117/1 332/594/1
f 495/590/1 656/593/1 332/594/1 107/591/1
f 42/470/1 361/469/1 657/595/1 233/596/1
f 361/469/1 137/468/1 497/597/1 657/595/1
f 657/595/1 497/597/1 97/45/1 321/44/1
f 233/596/1 657/595/1 321/44/1 41/43/1
f 137/468/1 362/474/1 658/598/1 497/597/1
f 362/474/1 138/473/1 498/599/1 658/598/1
f 658/598/1 498/599/1 98/600/1 322/601/1
f 497/597/1 658/598/1 322/601/1 97/45/1
f 138/473/1 363/478/1 659/602/1 498/599/1
f 363/478/1 139/477/1 499/603/1 659/602/1
f 659/602/1 499/603/1 99/604/1 323/605/1
f 498/599/1 659/602/1 323/605/1 98/600/1
f 139/477/1 364/480/1 660/606/1 499/603/1
f 364/480/1 140/100/1 500/103/1 660/606/1
f 660/606/1 500/103/1 100/108/1 324/607/1
f 499/603/1 660/606/1 324/607/1 99/604/1
f 64/489/1 357/488/1 661/608/1 255/609/1
f 357/488/1 133/487/1 501/610/1 661/608/1
f 661/608/1 501/610/1 89/36/1 313/35/1
f 255/609/1 661/608/1 313/35/1 63/34/1
f 133/487/1 358/495/1 662/611/1 501/610/1
f 358/495/1 134/494/1 502/612/1 662/611/1
f 662/611/1 502/612/1 90/613/1 314/614/1
f 501/610/1 662/611/1 314/614/1 89/36/1
f 134/494/1 359/501/1 663/615/1 502/612/1
f 359/501/1 135/500/1 503/616/1 663/615/1
f 663/615/1 503/616/1 91/617/1 315/618/1
f 502/612/1 663/615/1 315/618/1 90/613/1
f 135/500/1 360/504/1 664/619/1 503/616/1
f 360/504/1 136/91/1 504/94/1 664/619/1
f 664/619/1 504/94/1 92/99/1 316/620/1
f 503/616/1 664/619/1 316/620/1 91/617/1
f 55/526/1 353/525/1 665/621/1 246/622/1
f 353/525/1 129/524/1 505/623/1 665/621/1
f 665/621/1 505/623/1 81/27/1 305/26/1
f 246/622/1 665/621/1 305/26/1 54/25/1
f 129/524/1 354/530/1 666/624/1 505/623/1
f 354/530/1 130/529/1 506/625/1 666/624/1
f 666/624/1 506/625/1 82/626/1 306/627/1
f 505/623/1 666/624/1 306/627/1 81/27/1
f 130/529/1 355/534/1 667/628/1 506/625/1
f 355/534/1 131/533/1 507/629/1 667/628/1
f 667/628/1 507/629/1 83/630/1 307/631/1
f 506/625/1 667/628/1 307/631/1 82/626/1
f 131/533/1 356/536/1 668/632/1 507/629/1
f 356/536/1 132/82/1 508/85/1 668/632/1
f 668/632/1 508/85/1 84/90/1 308/633/1
f 507/629/1 668/632/1 308/633/1 83/630/1
f 46/542/1 349/541/1 669/634/1 237/635/1
f 349/541/1 125/540/1 509/636/1 669/634/1
f 669/634/1 509/636/1 73/9/1 297/8/1
f 237/635/1 669/634/1 297/8/1 45/7/1
f 125/540/1 350/546/1 670/637/1 509/636/1
f 350/546/1 126/545/1 510/638/1 670/637/1
f 670/637/1 510/638/1 74/639/1 298/640/1
f 509/636/1 670/637/1 298/640/1 73/9/1
f 126/545/1 351/550/1 671/641/1 510/638/1
f 351/550/1 127/549/1 511/642/1 671/641/1
f 671/641/1 511/642/1 75/643/1 299/644/1
f 510/638/1 671/641/1 299/644/1 74/639/1
f 127/549/1 352/552/1 672/645/1 511/642/1
f 352/552/1 128/73/1 512/76/1 672/645/1
f 672/645/1 512/76/1 76/81/1 300/646/1
f 511/642/1 672/645/1 300/646/1 75/643/1
f 37/558/1 345/557/1 673/647/1 228/648/1
f 345/557/1 121/556/1 513/649/1 673/647/1
f 673/647/1 513/649/1 65/18/1 289/17/1
f 228/648/1 673/647/1 289/17/1 36/16/1
f 121/556/1 346/562/1 674/650/1 513/649/1
f 346/562/1 122/561/1 514/651/1 674/650/1
f 674/650/1 514/651/1 66/652/1 290/653/1
f 513/649/1 674/650/1 290/653/1 65/18/1
f 122/561/1 347/566/1 675/654/1 514/651/1
f 347/566/1 123/565/1 515/655/1 675/654/1
f 675/654/1 515/655/1 67/656/1 291/657/1
f 514/651/1 675/654/1 291/657/1 66/652/1
f 123/565/1 348/568/1 676/658/1 515/655/1
f 348/568/1 124/64/1 516/67/1 676/658/1
f 676/658/1 516/67/1 68/72/1 292/659/1
f 515/655/1 676/658/1 292/659/1 67/656/1
f 26/239/1 341/236/1 677/660/1 218/661/1
f 341/236/1 117/235/1 517/662/1 677/660/1
f 677/660/1 517/662/1 116/126/1 269/125/1
f 218/661/1 677/660/1 269/125/1 27/124/1
f 117/235/1 342/259/1 678/663/1 517/662/1
f 342/259/1 118/255/1 518/664/1 678/663/1
f 678/663/1 518/664/1 115/578/1 340/581/1
f 517/662/1 678/663/1 340/581/1 116/126/1
f 118/255/1 343/253/1 679/665/1 518/664/1
f 343/253/1 119/249/1 519/666/1 679/665/1
f 679/665/1 519/666/1 114/574/1 339/579/1
f 518/664/1 679/665/1 339/579/1 115/578/1
f 119/249/1 344/247/1 680/667/1 519/666/1
f 344/247/1 120/55/1 520/58/1 680/667/1
f 680/667/1 520/58/1 113/63/1 338/575/1
f 519/666/1 680/667/1 338/575/1 114/574/1
f 17/233/1 333/230/1 681/668/1 209/669/1
f 333/230/1 109/229/1 521/670/1 681/668/1
f 681/668/1 521/670/1 108/117/1 267/116/1
f 209/669/1 681/668/1 267/116/1 18/115/1
f 109/229/1 334/280/1 682/671/1 521/670/1
f 334/280/1 110/276/1 522/672/1 682/671/1
f 682/671/1 522/672/1 107/591/1 332/594/1
f 521/670/1 682/671/1 332/594/1 108/117/1
f 110/276/1 335/274/1 683/673/1 522/672/1
f 335/274/1 111/270/1 523/674/1 683/673/1
f 683/673/1 523/674/1 106/587/1 331/592/1
f 522/672/1 683/673/1 331/592/1 107/591/1
f 111/270/1 336/268/1 684/675/1 523/674/1
f 336/268/1 112/46/1 524/49/1 684/675/1
f 684/675/1 524/49/1 105/54/1 330/588/1
f 523/674/1 684/675/1 330/588/1 106/587/1
f 8/227/1 325/224/1 685/676/1 200/677/1
f 325/224/1 101/223/1 525/678/1 685/676/1
f 685/676/1 525/678/1 100/108/1 265/107/1
f 200/677/1 685/676/1 265/107/1 9/106/1
f 101/223/1 326/301/1 686/679/1 525/678/1
f 326/301/1 102/297/1 526/680/1 686/679/1
f 686/679/1 526/680/1 99/604/1 324/607/1
f 525/678/1 686/679/1 324/607/1 100/108/1
f 102/297/1 327/295/1 687/681/1 526/680/1
f 327/295/1 103/291/1 527/682/1 687/681/1
f 687/681/1 527/682/1 98/600/1 323/605/1
f 526/680/1 687/681/1 323/605/1 99/604/1
f 103/291/1 328/289/1 688/683/1 527/682/1
f 328/289/1 104/37/1 528/40/1 688/683/1
f 688/683/1 528/40/1 97/45/1 322/601/1
f 527/682/1 688/683/1 322/601/1 98/600/1
f 30/221/1 317/218/1 689/684/1 222/685/1
f 317/218/1 93/217/1 529/686/1 689/684/1
f 689/684/1 529/686/1 92/99/1 263/98/1
f 222/685/1 689/684/1 263/98/1 31/97/1
f 93/217/1 318/322/1 690/687/1 529/686/1
f 318/322/1 94/318/1 530/688/1 690/687/1
f 690/687/1 530/688/1 91/617/1 316/620/1
f 529/686/1 690/687/1 316/620/1 92/99/1
f 94/318/1 319/316/1 691/689/1 530/688/1
f 319/316/1 95/312/1 531/690/1 691/689/1
f 691/689/1 531/690/1 90/613/1 315/618/1
f 530/688/1 691/689/1 315/618/1 91/617/1
f 95/312/1 320/310/1 692/691/1 531/690/1
f 320/310/1 96/28/1 532/31/1 692/691/1
f 692/691/1 532/31/1 89/36/1 314/614/1
f 531/690/1 692/691/1 314/614/1 90/613/1
f 21/215/1 309/212/1 693/692/1 213/693/1
f 309/212/1 85/211/1 533/694/1 693/692/1
f 693/692/1 533/694/1 84/90/1 261/89/1
f 213/693/1 693/692/1 261/89/1 22/88/1
f 85/211/1 310/343/1 694/695/1 533/694/1
f 310/343/1 86/339/1 534/696/1 694/695/1
f 694/695/1 534/696/1 83/630/1 308/633/1
f 533/694/1 694/695/1 308/633/1 84/90/1
f 86/339/1 311/337/1 695/697/1 534/696/1
f 311/337/1 87/333/1 535/698/1 695/697/1
f 695/697/1 535/698/1 82/626/1 307/631/1
f 534/696/1 695/697/1 307/631/1 83/630/1
f 87/333/1 312/331/1 696/699/1 535/698/1
f 312/331/1 88/19/1 536/22/1 696/699/1
f 696/699/1 536/22/1 81/27/1 306/627/1
f 535/698/1 696/699/1 306/627/1 82/626/1
f 3/200/1 293/197/1 697/700/1 195/701/1
f 293/197/1 69/196/1 537/702/1 697/700/1
f 697/700/1 537/702/1 68/72/1 257/71/1
f 195/701/1 697/700/1 257/71/1 4/70/1
f 69/196/1 294/382/1 698/703/1 537/702/1
f 294/382/1 70/378/1 538/704/1 698/703/1
f 698/703/1 538/704/1 67/656/1 292/659/1
f 537/702/1 698/703/1 292/659/1 68/72/1
f 70/378/1 295/376/1 699/705/1 538/704/1
f 295/376/1 71/372/1 539/706/1 699/705/1
f 699/705/1 539/706/1 66/652/1 291/657/1
f 538/704/1 699/705/1 291/657/1 67/656/1
f 71/372/1 296/370/1 700/707/1 539/706/1
f 296/370/1 72/10/1 540/13/1 700/707/1
f 700/707/1 540/13/1 65/18/1 290/653/1
f 539/706/1 700/707/1 290/653/1 66/652/1
f 12/209/1 301/206/1 701/708/1 204/709/1
f 301/206/1 77/205/1 541/710/1 701/708/1
f 701/708/1 541/710/1 76/81/1 259/80/1
f 204/709/1 701/708/1 259/80/1 13/79/1
f 77/205/1 302/364/1 702/711/1 541/710/1
f 302/364/1 78/360/1 542/712/1 702/711/1
f 702/711/1 542/712/1 75/643/1 300/646/1
f 541/710/1 702/711/1 300/646/1 76/81/1
f 78/360/1 303/358/1 703/713/1 542/712/1
f 303/358/1 79/354/1 543/714/1 703/713/1
f 703/713/1 543/714/1 74/639/1 299/644/1
f 542/712/1 703/713/1 299/644/1 75/643/1
f 79/354/1 304/352/1 704/715/1 543/714/1
f 304/352/1 80/1/1 544/4/1 704/715/1
f 704/715/1 544/4/1 73/9/1 298/640/1
f 543/714/1 704/715/1 298/640/1 74/639/1
