# Blender 4.2.0
# www.blender.org
mtllib Arche_Start.mtl
o Arche_Start
v -0.691826 -2.092060 -2.841066
v -0.664660 -0.620845 -2.868228
v -0.691824 -2.092060 -4.031761
v -0.664663 -0.620851 -4.004599
v 0.498869 -2.092060 -4.031759
v 0.448717 -0.655197 -3.988151
v -0.603740 -0.615210 -2.929152
v -0.603740 -0.615210 -3.943674
v 0.410752 -0.615210 -3.943642
v -0.601602 3.497198 -0.160029
v -0.563163 4.412506 -0.160014
v 0.369079 4.411890 -0.159216
v 0.287494 2.533818 -2.561872
v -0.600160 2.083580 -2.140140
v -0.575371 2.556965 -2.604487
v -0.691826 -0.984241 -2.841066
v -0.690826 -0.984352 -4.030736
v 0.498908 -0.984868 -4.031714
v -0.754445 -2.075948 -4.134714
v -0.801033 -2.071178 -2.731856
v -0.771372 -1.036069 -4.094833
v 0.598471 -2.082150 -4.130243
v 0.565212 -1.042246 -4.125999
v -0.798746 -0.993977 -2.734145
v -0.691824 -2.092060 2.520967
v -0.673953 -0.635283 2.561224
v -0.691824 -2.092060 3.711664
v -0.664663 -0.620849 3.684501
v 0.498869 -2.092060 3.711661
v 0.448219 -0.639429 3.691225
v -0.603740 -0.615210 2.609053
v -0.603740 -0.615210 3.623576
v 0.410752 -0.615210 3.623545
v 0.381707 2.557608 2.285206
v -0.600160 2.083580 1.820042
v -0.574707 2.557593 2.285187
v -0.689269 -0.986203 2.521898
v -0.691826 -0.984241 3.711662
v 0.498866 -0.984241 3.711662
v -0.801033 -2.071181 3.820873
v -0.798783 -2.076237 2.413280
v -0.798746 -0.993977 3.818584
v 0.608082 -2.071179 3.820873
v 0.605792 -0.993977 3.818584
v -0.741079 -1.060285 2.427167
v 0.498866 -2.092060 -2.919240
v 0.420394 -2.092060 -2.841066
v 0.421129 -0.617087 -2.849431
v 0.490416 -0.617087 -2.918321
v 0.414808 -0.604378 -3.003297
v 0.336448 -0.605754 -2.922357
v 0.410594 3.593572 -0.160048
v 0.348820 3.431220 -0.160046
v 0.400572 2.139639 -2.196036
v 0.336153 2.086117 -2.144625
v 0.498137 -0.974311 -2.917329
v 0.422180 -0.974299 -2.841759
v 0.561178 -2.078028 -2.709954
v 0.630000 -2.077963 -2.778744
v 0.529009 -1.009897 -2.726584
v 0.588772 -1.025036 -2.799856
v 0.420394 -2.092060 2.520969
v 0.498866 -2.092060 2.599142
v 0.469624 -0.638867 2.617988
v 0.397107 -0.654371 2.563440
v 0.335324 -0.606646 2.610201
v 0.408467 -0.606180 2.684082
v 0.316516 2.096523 1.834792
v 0.394636 2.149283 1.887498
v 0.422061 -0.974942 2.522875
v 0.497925 -0.974407 2.597263
v 0.630000 -2.077963 2.458646
v 0.560341 -2.079050 2.391510
v 0.598293 -1.012727 2.483563
v 0.540976 -1.008583 2.421611
v -0.582602 -0.228015 3.446033
v 0.389648 -0.228015 3.446033
v -0.583402 -0.275753 2.530486
v 0.354913 -0.259636 2.612414
v 0.312206 -0.273457 2.526530
v 0.389952 1.007071 2.946788
v -0.586298 0.762668 2.225406
v 0.306035 0.763248 2.239812
v -0.582966 1.007049 2.946734
v 0.381637 0.796649 2.304286
v 0.339499 3.078534 -1.925167
v -0.589577 2.484665 -1.600542
v -0.583425 3.101836 -1.944974
v 0.302125 2.493205 -1.602969
v 0.360096 2.567964 -1.654675
v 0.325587 3.396942 -1.483987
v -0.589577 2.734089 -1.252436
v 0.358028 2.812619 -1.281545
v -0.583222 3.439952 -1.507121
v 0.327530 2.725708 -1.245335
vn -0.9973 0.0732 -0.0004
vn 0.0082 0.1003 -0.9949
vn 0.9959 0.0509 -0.0744
vn -0.0081 0.9918 0.1272
vn -0.0040 -0.9895 0.1443
vn 0.0179 0.9162 -0.4004
vn -0.0189 -0.8223 -0.5687
vn -0.0085 0.0486 0.9988
vn -0.0921 0.9957 -0.0000
vn 0.9961 0.0853 -0.0206
vn -0.9996 0.0253 -0.0147
vn 0.9966 0.0424 -0.0703
vn 0.0268 0.8018 -0.5970
vn 0.0257 0.3956 -0.9181
vn 0.9990 0.0356 0.0269
vn -0.9999 0.0103 -0.0135
vn 0.0006 -0.2791 0.9603
vn -0.3154 0.9488 -0.0192
vn -0.0000 -1.0000 -0.0000
vn 0.9992 0.0354 -0.0208
vn -0.0050 0.8237 -0.5669
vn 0.1445 -0.9895 0.0040
vn -0.0109 0.0087 0.9999
vn -0.0098 0.0210 -0.9997
vn -0.9996 -0.0064 -0.0266
vn 0.4300 0.9023 -0.0318
vn 0.0018 0.9798 0.2000
vn -0.0022 -0.9917 -0.1285
vn -0.2105 -0.9776 -0.0020
vn -0.9982 0.0593 0.0025
vn -0.0024 0.0670 0.9978
vn 0.0052 0.8126 -0.5829
vn 0.9933 0.1153 0.0098
vn -0.0022 -0.9927 -0.1210
vn 0.0078 0.9737 0.2275
vn -0.0351 -0.8285 0.5589
vn 0.0019 0.1182 -0.9930
vn -0.1930 0.9812 -0.0058
vn 1.0000 -0.0000 0.0044
vn -0.9990 0.0374 0.0254
vn 0.5687 0.8224 -0.0147
vn -0.0000 0.7967 0.6044
vn -0.0000 0.3924 0.9198
vn 0.2257 0.9742 -0.0043
vn -0.9998 0.0058 0.0208
vn 0.0176 -0.2919 -0.9563
vn -0.4687 0.8827 -0.0343
vn 0.9999 0.0158 0.0052
vn -0.0000 0.9959 0.0907
vn -0.0107 0.0213 -0.9997
vn -0.0000 0.0021 1.0000
vn -0.9993 0.0288 -0.0221
vn 0.4996 0.8662 0.0089
vn -0.0239 0.8726 -0.4878
vn -0.0000 -0.9822 0.1878
vn -0.1674 -0.9859 0.0018
vn 0.2569 0.9567 0.1369
vn 0.0711 0.9943 0.0792
vn 0.7061 -0.1965 0.6803
vn 0.8021 -0.4449 0.3984
vn 0.7051 0.0173 0.7089
vn 0.7429 0.0376 0.6684
vn 0.0518 -0.9973 0.0515
vn 0.1761 0.9735 -0.1462
vn 0.2366 0.8944 -0.3796
vn 0.8106 -0.0420 -0.5840
vn 0.8301 -0.4641 -0.3091
vn 0.6434 0.1228 -0.7557
vn 0.7129 0.0351 -0.7004
vn 0.0532 -0.9975 -0.0468
vn 0.1034 -0.9946 0.0004
vn 0.7997 -0.1714 -0.5754
vn -0.0001 -0.2345 -0.9721
vn -0.9984 0.0566 -0.0010
vn -0.0000 0.4168 0.9090
vn 0.9953 0.0938 -0.0220
vn 0.6670 -0.2233 -0.7108
vn 0.0061 -0.2742 -0.9616
vn -1.0000 -0.0005 0.0026
vn -0.0000 0.3748 0.9271
vn 0.9995 -0.0209 -0.0257
vn 0.9012 -0.3755 0.2164
vn 0.0071 -0.8009 0.5988
vn 0.0424 0.7641 -0.6437
vn 0.9926 0.0884 -0.0828
vn -0.9997 0.0189 -0.0128
vn 0.9303 -0.3178 0.1829
vn -0.0014 -0.8258 0.5640
vn 0.0430 0.8008 -0.5974
vn 0.9990 0.0438 -0.0107
vn -1.0000 0.0072 -0.0051
vt 0.562531 0.000000
vt 0.625000 0.000000
vt 0.625000 0.250000
vt 0.562531 0.250000
vt 0.625000 0.500000
vt 0.562531 0.500000
vt 0.625000 0.731677
vt 0.625000 0.722082
vt 0.625000 1.000000
vt 0.625000 0.765990
vt 0.625000 0.768496
vt 0.125000 0.750000
vt 0.358523 0.750000
vt 0.361841 0.750000
vt 0.625000 0.768263
vt 0.625000 0.768320
vt 0.562531 0.766086
vt 0.562531 1.000000
vt 0.625000 0.734115
vt 0.562531 0.734004
vt 0.625000 0.250000
vt 0.625000 0.000000
vt 0.625000 0.723942
vt 0.625000 0.726194
vt 0.125000 0.500000
vt 0.375000 0.500000
vt 0.375000 0.733587
vt 0.358523 0.750000
vt 0.562531 0.736960
vt 0.375000 0.736894
vt 0.375000 0.763159
vt 0.562531 0.763098
vt 0.375000 1.000000
vt 0.375000 0.250000
vt 0.375000 0.000000
vt 0.625000 0.734115
vt 0.625000 0.731677
vt 0.562531 0.734004
vt 0.625000 0.768294
vt 0.625000 0.726813
vt 0.562531 0.736960
vt 0.625000 0.768406
vt 0.375000 0.733587
vt 0.375000 0.736894
vt 0.375000 0.763159
vt 0.625000 0.768304
vt 0.625000 0.723218
vt 0.625000 0.730520
vt 0.625000 0.768474
vt 0.625000 0.500000
s 0
f 16/1/1 2/2/1 4/3/1 17/4/1
f 17/4/2 4/3/2 6/5/2 18/6/2
f 50/7/3 9/5/3 13/5/3 54/8/3
f 2/9/4 48/10/4 51/11/4 7/9/4
f 1/12/5 47/13/5 58/14/5 20/12/5
f 6/5/6 4/3/6 8/3/6 9/5/6
f 35/9/7 10/9/7 53/15/7 68/16/7
f 57/17/8 48/10/8 2/9/8 16/18/8
f 4/3/9 2/2/9 7/2/9 8/3/9
f 18/6/10 6/5/10 49/19/10 56/20/10
f 94/21/11 92/22/11 10/2/11 11/3/11
f 93/23/12 91/5/12 12/5/12 52/24/12
f 91/5/13 94/21/13 11/3/13 12/5/13
f 9/5/14 8/3/14 15/3/14 13/5/14
f 69/8/15 52/24/15 12/5/15 34/5/15
f 8/3/16 7/2/16 14/2/16 15/3/16
f 7/9/17 51/11/17 55/16/17 14/9/17
f 16/1/18 17/4/18 21/4/18 24/1/18
f 3/25/19 5/26/19 46/27/19 47/28/19 1/12/19
f 22/26/20 23/6/20 61/29/20 59/30/20
f 17/4/21 18/6/21 23/6/21 21/4/21
f 63/27/22 72/30/22 43/26/22 29/26/22
f 58/31/23 60/32/23 24/18/23 20/33/23
f 19/34/24 21/4/24 23/6/24 22/26/24
f 20/35/25 24/1/25 21/4/25 19/34/25
f 49/36/26 6/5/26 9/5/26 50/37/26
f 57/17/27 16/18/27 24/18/27 60/32/27
f 5/26/28 3/25/28 19/25/28 22/26/28
f 3/25/29 1/12/29 20/12/29 19/25/29
f 37/1/30 38/4/30 28/3/30 26/2/30
f 38/4/31 39/6/31 30/5/31 28/3/31
f 26/9/32 31/9/32 66/11/32 65/10/32
f 39/6/33 71/38/33 64/36/33 30/5/33
f 25/12/34 41/12/34 73/14/34 62/28/34
f 30/5/35 33/5/35 32/3/35 28/3/35
f 92/9/36 95/39/36 53/15/36 10/9/36
f 70/17/37 37/18/37 26/9/37 65/10/37
f 28/3/38 32/3/38 31/2/38 26/2/38
f 85/40/39 69/8/39 34/5/39 81/5/39
f 36/3/40 11/3/40 10/2/40 35/2/40
f 18/6/41 56/38/41 61/41/41 23/6/41
f 34/5/42 12/5/42 11/3/42 36/3/42
f 81/5/43 34/5/43 36/3/43 84/21/43
f 39/6/44 44/6/44 74/29/44 71/20/44
f 84/21/45 36/3/45 35/2/45 82/2/45
f 82/9/46 35/9/46 68/16/46 83/42/46
f 37/1/47 45/1/47 42/4/47 38/4/47
f 27/25/19 25/12/19 62/13/19 63/43/19 29/26/19
f 43/26/48 72/44/48 74/41/48 44/6/48
f 38/4/49 42/4/49 44/6/49 39/6/49
f 73/45/50 41/33/50 45/18/50 75/32/50
f 40/34/51 43/26/51 44/6/51 42/4/51
f 41/35/52 40/34/52 42/4/52 45/1/52
f 64/19/53 67/7/53 33/5/53 30/5/53
f 70/17/54 75/32/54 45/18/54 37/18/54
f 29/26/55 43/26/55 40/25/55 27/25/55
f 27/25/56 40/25/56 41/12/56 25/12/56
f 61/41/57 56/38/57 57/17/57 60/32/57
f 51/11/58 48/10/58 49/36/58 50/37/58
f 55/16/59 51/11/59 50/7/59 54/8/59
f 89/46/60 55/16/60 54/8/60 90/47/60
f 48/10/61 57/17/61 56/20/61 49/19/61
f 60/32/62 58/31/62 59/30/62 61/29/62
f 58/14/63 47/13/63 46/43/63 59/44/63
f 75/32/64 70/17/64 71/20/64 74/29/64
f 67/7/65 64/19/65 65/10/65 66/11/65
f 79/48/66 67/37/66 66/11/66 80/49/66
f 52/24/67 69/8/67 68/16/67 53/15/67
f 64/36/68 71/38/68 70/17/68 65/10/68
f 74/41/69 72/44/69 73/45/69 75/32/69
f 72/30/70 63/27/70 62/28/70 73/14/70
f 46/43/71 5/26/71 22/26/71 59/44/71
f 85/40/72 79/48/72 80/49/72 83/42/72
f 31/9/73 78/9/73 80/49/73 66/11/73
f 32/3/74 76/3/74 78/2/74 31/2/74
f 33/5/75 77/50/75 76/3/75 32/3/75
f 67/37/76 79/48/76 77/50/76 33/5/76
f 69/8/77 85/40/77 83/42/77 68/16/77
f 78/9/78 82/9/78 83/42/78 80/49/78
f 76/3/79 84/21/79 82/2/79 78/2/79
f 77/50/80 81/5/80 84/21/80 76/3/80
f 79/48/81 85/40/81 81/5/81 77/50/81
f 95/39/82 89/46/82 90/47/82 93/23/82
f 14/9/83 55/16/83 89/46/83 87/9/83
f 13/5/84 15/3/84 88/3/84 86/5/84
f 54/8/85 13/5/85 86/5/85 90/47/85
f 15/3/86 14/2/86 87/2/86 88/3/86
f 53/15/87 95/39/87 93/23/87 52/24/87
f 87/9/88 89/46/88 95/39/88 92/9/88
f 86/5/89 88/3/89 94/21/89 91/5/89
f 90/47/90 86/5/90 91/5/90 93/23/90
f 88/3/91 87/2/91 92/22/91 94/21/91
