# Blender 4.2.0
# www.blender.org
mtllib Platform_P_U.mtl
o Platform_P_U
v 16.379108 0.947545 -0.000000
v 16.009792 -4.432743 -0.380589
v 24.379108 0.947545 -0.000000
v 23.630060 -4.432743 -0.380589
v -9.461105 0.947543 -16.241207
v -9.461105 0.947541 -24.000000
v -8.603876 -4.432746 -23.241394
v -8.603876 -4.432745 -15.850883
v 23.630060 -4.432745 -16.700163
v 14.779238 -4.432746 -23.241394
v 15.087233 0.947541 -24.000000
v 24.379108 0.947543 -17.132809
v 16.009792 -4.432745 -12.146564
v 12.285819 -4.432745 -15.850883
v 12.469563 0.947543 -16.241207
v 16.379108 0.947543 -12.352295
v -6.953297 0.947548 16.241207
v -6.953297 0.947549 24.000000
v -6.215104 -4.432739 22.480217
v -6.215104 -4.432740 15.089706
v 23.630060 -4.432740 15.938986
v 14.779238 -4.432739 22.480217
v 15.087233 0.947549 24.000000
v 24.379108 0.947548 17.132809
v 16.009792 -4.432741 11.385386
v 12.285819 -4.432740 15.089706
v 12.469563 0.947548 16.241207
v 16.379108 0.947547 12.352295
v 24.106953 0.947545 -0.000000
v -9.461105 0.947542 -23.736050
v -8.603876 -4.432746 -22.989971
v 14.998180 0.947542 -23.736050
v 24.106953 0.947543 -16.970179
v -6.953297 0.947549 23.736050
v -6.215104 -4.432739 22.228794
v 14.998180 0.947549 23.736050
v 24.106953 0.947548 16.970179
v -8.603876 -4.432745 -16.176579
v 12.584922 0.947543 -16.583134
v -6.215104 -4.432740 15.415403
v 12.584922 0.947548 16.583134
v 16.731665 0.947545 -0.000000
v -9.461105 0.947543 -16.583134
v 16.731665 0.947543 -12.562970
v -6.953297 0.947548 16.583134
v 16.731665 0.947547 12.562970
v 24.379108 0.947546 2.332022
v 16.379108 0.947546 1.681325
v 23.630060 -4.432742 1.840740
v 16.009792 -4.432743 1.220930
v 24.106953 0.947546 2.309886
v 16.731665 0.947546 1.710001
v 24.379108 0.947545 -2.586913
v 16.379108 0.947545 -1.865095
v 23.630060 -4.432743 -2.844711
v 16.009792 -4.432743 -2.157154
v 24.106953 0.947545 -2.562358
v 16.731665 0.947545 -1.896905
v 1.120267 -4.432746 -23.241394
v 0.747610 0.947541 -24.000000
v 0.134969 -4.432745 -15.850883
v -0.286787 0.947543 -16.241207
v 0.712421 0.947542 -23.736050
v -0.241201 0.947543 -16.583134
v 0.751203 -4.432739 22.480217
v 0.360155 0.947549 24.000000
v -0.193347 -4.432740 15.089706
v -0.631464 0.947548 16.241207
v 0.326422 0.947549 23.736050
v -0.587765 0.947548 16.583134
v 11.164541 0.947541 -24.000000
v 8.979985 0.947543 -16.241207
v 11.090223 0.947542 -23.736050
v 9.076258 0.947543 -16.583134
v 11.042743 -4.432746 -23.241394
v 8.961880 -4.432745 -15.850883
v 21.136795 0.947540 -32.185558
v 30.428671 0.947541 -25.318367
v 29.392471 -4.432746 -24.497181
v 20.541649 -4.432748 -31.038410
v 20.802790 0.947542 -19.775898
v 14.576485 -4.432745 -13.572307
v 14.874376 0.947543 -13.849085
v 20.601109 0.947542 -19.574272
v 15.135639 0.947543 -14.110277
v 26.852352 0.947541 -27.961456
v 25.985909 -4.432747 -27.014812
v 13.482101 -4.432745 -14.660914
v 23.384869 -4.432747 -28.937119
v 18.072136 0.947542 -21.793997
v 13.725457 0.947543 -14.991940
v 17.924263 0.947542 -21.562595
v 13.917013 0.947543 -15.291704
v 24.121698 0.947541 -29.979555
v 13.075802 -4.432745 -15.065068
v 22.419214 -4.432747 -29.650791
v 17.058361 0.947542 -22.543232
v 13.298912 0.947543 -15.416234
v 16.930466 0.947542 -22.300774
v 13.464590 0.947543 -15.730317
v 23.107924 0.947540 -30.728790
v 24.156164 0.947543 -17.297577
v 16.285305 0.947543 -12.445603
v 23.888401 0.947543 -17.132515
v 16.632170 0.947543 -12.659428
v 30.205727 0.947541 -25.483135
v 15.920442 -4.432745 -12.235443
v 29.180109 -4.432746 -24.654129
v 20.842604 0.947540 -31.787493
v 20.261421 -4.432747 -30.659241
v 29.112244 -4.432746 -24.118011
v 30.134480 0.947541 -24.920301
v 26.558161 0.947541 -27.563391
v 23.827507 0.947541 -29.581490
v 22.813732 0.947540 -30.330725
v 29.911535 0.947541 -25.085070
v 12.361134 -4.432745 -15.775964
v 20.720650 -4.432748 -30.906116
v 15.275154 0.947542 -23.861116
v 12.548630 0.947543 -16.162556
v 15.182400 0.947542 -23.599215
v 12.668787 0.947543 -16.501829
v 21.324717 0.947540 -32.046673
v 21.030525 0.947540 -31.648609
v 17.696810 -4.432747 -27.189110
v 27.442070 0.947542 -21.277246
v 18.150192 0.947541 -28.144438
v 26.547634 -4.432746 -20.647879
v 23.865749 0.947542 -23.920336
v 21.135096 0.947541 -25.938437
v 20.121321 0.947541 -26.687670
v 27.219124 0.947542 -21.442015
v 18.338114 0.947541 -28.005556
v -7.053759 -4.432746 -23.241394
v -7.210824 -4.432745 -15.850883
v -7.833742 0.947541 -24.000000
v -7.999589 0.947543 -16.241207
v -7.704000 0.947542 -23.736050
v 17.528627 0.947545 -0.000000
v -9.461105 0.947543 -17.356068
v 17.528627 0.947543 -13.039207
v -6.953297 0.947548 17.356068
v 17.528627 0.947548 13.039207
v -8.603876 -4.432745 -16.912825
v 12.845695 0.947543 -17.356068
v -6.215104 -4.432740 16.151646
v 12.845695 0.947548 17.356068
v 17.528627 0.947546 1.774824
v 17.528627 0.947545 -1.968813
v -0.138154 0.947543 -17.356068
v -0.488979 0.947548 17.356068
v 9.293884 0.947543 -17.356068
v 15.726231 0.947543 -14.700708
v 14.350031 0.947543 -15.969328
v 13.839108 0.947543 -16.440311
v 17.416267 0.947543 -13.142783
v 12.940405 0.947543 -17.268763
v -7.974941 0.947543 -17.356068
v -7.702547 0.947541 -24.000000
v -7.880733 0.947543 -16.241207
v -7.573257 0.947542 -23.736050
v -6.928790 -4.432746 -23.241394
v -7.098517 -4.432745 -15.850883
v -7.855129 0.947543 -17.356068
v -6.991275 -4.432746 -23.241394
v -7.154672 -4.432745 -15.850883
v -7.768144 0.947541 -24.000000
v -7.940161 0.947543 -16.241207
v -7.638629 0.947542 -23.736050
v -7.915035 0.947543 -17.356068
v 17.723549 0.947545 -0.000000
v -9.461105 0.947543 -17.545111
v 17.723549 0.947543 -13.155685
v -6.953297 0.947548 17.545111
v 17.723549 0.947548 13.155685
v 17.723549 0.947545 -1.986400
v -0.464818 0.947548 17.545111
v 15.870677 0.947543 -14.845116
v 14.455938 0.947543 -16.135061
v 13.930707 0.947543 -16.613962
v 17.608042 0.947543 -13.261002
v 13.006837 0.947543 -17.456339
v -8.603876 -4.432745 -17.092896
v 12.909475 0.947543 -17.545111
v -6.215104 -4.432740 16.331715
v 12.909475 0.947548 17.545111
v 17.723549 0.947546 1.790678
v -0.112951 0.947543 -17.545111
v 9.347111 0.947543 -17.545111
v -7.835573 0.947543 -17.545111
v -7.715437 0.947543 -17.545111
v -7.775505 0.947543 -17.545111
v -5.209913 -4.432739 22.480217
v -5.209913 -4.432740 15.089706
v -5.898015 0.947549 23.736050
v -5.898015 0.947549 24.000000
v -5.898015 0.947548 16.241207
v -5.898015 0.947548 17.545111
v 18.498671 0.947549 24.000000
v 18.028748 -4.432739 22.480217
v 13.653047 -4.432740 13.729694
v 13.904922 0.947548 14.813424
v 18.342394 0.947549 23.736050
v 14.107365 0.947548 15.107162
v 14.564997 0.947548 15.771167
v 14.676924 0.947548 15.933568
v -5.922176 0.947548 17.356068
v -6.020962 0.947548 16.583134
v -7.958176 0.947543 -16.583134
v -8.018082 0.947543 -16.583134
v -8.077988 0.947543 -16.583134
v 16.349146 0.511053 -1.888789
v 16.349146 0.511051 -12.335605
v -7.935598 0.511051 -16.209541
v -9.391560 0.511051 -16.209541
v -9.391560 0.511050 -23.675522
v -9.391560 0.511050 -23.938456
v 20.795454 0.511048 -31.695959
v 21.088512 0.511048 -32.092491
v 16.255705 0.511051 -12.428554
v -7.770463 0.511050 -23.938456
v 24.318340 0.511053 -2.607828
v 24.318340 0.511053 -0.030877
v 16.349146 0.511056 12.273851
v 16.349146 0.511054 1.643974
v -6.893409 0.511056 16.147789
v -5.842191 0.511056 16.147789
v -6.893409 0.511057 23.876703
v -6.893409 0.511057 23.613770
v 15.062245 0.511057 23.876703
v 18.460546 0.511057 23.876703
v 13.884487 0.511056 14.725503
v -5.842191 0.511057 23.876703
v 24.318340 0.511054 2.292165
v -6.893409 0.511056 17.446671
v -9.391560 0.511051 -17.508423
v -9.391560 0.511051 -16.550150
v -6.893409 0.511056 16.488398
v 24.318340 0.511056 17.035955
v 16.349146 0.511053 -0.030877
v 24.318340 0.511051 -17.097710
v 0.777843 0.511050 -23.938456
v 11.154660 0.511050 -23.938456
v 8.978517 0.511051 -16.209541
v -0.252571 0.511051 -16.209541
v 0.391880 0.511057 23.876703
v -0.595920 0.511056 16.147789
v 12.454656 0.511056 16.147789
v 12.454656 0.511051 -16.209541
v 15.062245 0.511050 -23.938456
v 21.275709 0.511048 -31.954142
v 30.051548 0.511049 -24.855213
v 30.344606 0.511049 -25.251745
v 30.122520 0.511049 -25.415880
v 26.782059 0.511049 -27.884657
v 13.705714 0.511051 -14.965085
v 14.850209 0.511051 -13.826631
v 13.280811 0.511051 -15.387745
v 24.061920 0.511049 -29.894983
v 12.533419 0.511051 -16.131193
v 23.052050 0.511049 -30.641335
v 27.369507 0.511050 -21.226187
v 18.113411 0.511049 -28.066935
v -7.705118 0.511050 -23.938456
v -7.876436 0.511051 -16.209541
v -9.391560 0.511051 -17.320108
v -6.893409 0.511056 17.258356
v -7.817273 0.511051 -16.209541
v -7.639773 0.511050 -23.938456
vn -0.9977 0.0685 -0.0000
vn -0.0000 0.0724 0.9974
vn -0.9875 -0.1573 -0.0000
vn -0.8036 -0.0377 -0.5939
vn -0.7032 0.0753 0.7070
vn -0.0000 -0.1396 -0.9902
vn 0.9904 -0.1379 -0.0000
vn -0.0000 1.0000 -0.0000
vn -0.0000 0.2093 -0.9779
vn -0.9907 -0.1359 -0.0000
vn -0.0000 -0.2718 0.9623
vn -0.6946 0.1732 -0.6983
vn 0.5783 -0.2308 -0.7825
vn 0.8026 -0.0640 0.5931
vn 0.7369 -0.2426 0.6310
vt 0.181717 0.321966
vt 0.176944 0.322238
vt 0.176621 0.207797
vt 0.181396 0.207966
vt 0.441847 0.169389
vt 0.442532 0.164611
vt 0.458480 0.164566
vt 0.457735 0.169344
vt 0.463075 0.083426
vt 0.458250 0.082779
vt 0.458242 0.079899
vt 0.463067 0.080557
vt 0.277545 0.763302
vt 0.271049 0.761791
vt 0.271049 0.754429
vt 0.277545 0.755969
vt 0.181090 0.210084
vt 0.220135 0.247551
vt 0.219163 0.248523
vt 0.180073 0.211101
vt 0.439779 0.075141
vt 0.457469 0.075091
vt 0.440483 0.079949
vt 0.084813 0.314392
vt 0.089623 0.314607
vt 0.089702 0.342836
vt 0.084892 0.342513
vt 0.092593 0.314867
vt 0.092672 0.342828
vt 0.181826 0.360517
vt 0.182153 0.476514
vt 0.177381 0.477383
vt 0.177053 0.360938
vt 0.419974 0.514267
vt 0.431445 0.514235
vt 0.432113 0.519104
vt 0.420597 0.519136
vt 0.437147 0.599542
vt 0.437155 0.602412
vt 0.432351 0.603771
vt 0.432343 0.600890
vt 0.155039 0.609501
vt 0.192123 0.609397
vt 0.195369 0.665448
vt 0.159909 0.665548
vt 0.207488 0.500361
vt 0.180517 0.473684
vt 0.216043 0.431778
vt 0.241833 0.457287
vt 0.420240 0.608754
vt 0.420835 0.603803
vt 0.431711 0.608722
vt 0.084963 0.367863
vt 0.089774 0.368284
vt 0.092743 0.368034
vt 0.162385 0.362172
vt 0.162330 0.342632
vt 0.154609 0.604553
vt 0.090229 0.529796
vt 0.093194 0.528013
vt 0.156307 0.601668
vt 0.436957 0.532245
vt 0.432153 0.533332
vt 0.162269 0.320955
vt 0.463265 0.150724
vt 0.458440 0.150337
vt 0.463304 0.164898
vt 0.458470 0.160835
vt 0.463294 0.161181
vt 0.436918 0.518071
vt 0.436928 0.521788
vt 0.432123 0.522835
vt 0.197282 0.514636
vt 0.164858 0.484915
vt 0.173540 0.479693
vt 0.202256 0.507376
vt 0.165279 0.199203
vt 0.173851 0.204454
vt 0.172768 0.205509
vt 0.164056 0.200337
vt 0.162734 0.486192
vt 0.085417 0.528753
vt 0.181775 0.342240
vt 0.177001 0.342590
vt 0.161926 0.199072
vt 0.092150 0.157643
vt 0.084367 0.156273
vt 0.089175 0.155876
vt 0.253784 0.152977
vt 0.356710 0.152687
vt 0.357859 0.161118
vt 0.256183 0.161404
vt 0.233167 0.080533
vt 0.346840 0.080213
vt 0.347232 0.083092
vt 0.233986 0.083411
vt 0.233261 0.075722
vt 0.346497 0.075404
vt 0.257273 0.169908
vt 0.257244 0.165133
vt 0.358367 0.164848
vt 0.358007 0.169625
vt 0.216093 0.531878
vt 0.218914 0.523435
vt 0.362660 0.523031
vt 0.361606 0.531468
vt 0.191836 0.604448
vt 0.192800 0.601565
vt 0.352904 0.601114
vt 0.352544 0.603995
vt 0.352212 0.608946
vt 0.220312 0.514829
vt 0.362725 0.514428
vt 0.363126 0.519298
vt 0.220163 0.519701
vt 0.219341 0.170015
vt 0.219164 0.165240
vt 0.190620 0.075842
vt 0.190361 0.080654
vt 0.191341 0.083531
vt 0.215026 0.153086
vt 0.217895 0.161512
vt 0.267342 0.747758
vt 0.264717 0.672195
vt 0.268027 0.672195
vt 0.270804 0.747758
vt 0.092715 0.763302
vt 0.019041 0.780421
vt 0.019041 0.773410
vt 0.092715 0.755969
vt 0.103743 0.747758
vt 0.108281 0.672195
vt 0.167349 0.672195
vt 0.165516 0.747758
vt 0.198652 0.168265
vt 0.203398 0.175646
vt 0.190137 0.188575
vt 0.183674 0.182151
vt 0.157856 0.104818
vt 0.159477 0.107339
vt 0.130327 0.129118
vt 0.128120 0.126924
vt 0.208838 0.182326
vt 0.246669 0.221008
vt 0.234760 0.232921
vt 0.196384 0.194785
vt 0.213462 0.177701
vt 0.251090 0.216585
vt 0.204213 0.163109
vt 0.208322 0.170846
vt 0.215449 0.672195
vt 0.215818 0.747758
vt 0.168896 0.096611
vt 0.170299 0.099253
vt 0.213995 0.154041
vt 0.216982 0.162402
vt 0.221595 0.169565
vt 0.258867 0.208806
vt 0.233306 0.672195
vt 0.234493 0.747758
vt 0.099636 0.747758
vt 0.104354 0.672195
vt 0.165354 0.829159
vt 0.103342 0.829159
vt 0.103342 0.761791
vt 0.165354 0.761791
vt 0.267574 0.829159
vt 0.234598 0.829159
vt 0.234598 0.761791
vt 0.267574 0.761791
vt 0.215851 0.829159
vt 0.215851 0.761791
vt 0.092715 0.830412
vt 0.019041 0.844593
vt 0.277545 0.830412
vt 0.271049 0.829159
vt 0.222452 0.168708
vt 0.259687 0.207986
vt 0.271049 0.905800
vt 0.267574 0.905800
vt 0.277545 0.906757
vt 0.092715 0.906757
vt 0.019041 0.917596
vt 0.215851 0.905800
vt 0.165354 0.905800
vt 0.234598 0.905800
vt 0.103342 0.905800
vt 0.439066 0.075143
vt 0.439768 0.079951
vt 0.441201 0.169390
vt 0.441883 0.164613
vt 0.440046 0.150389
vt 0.440702 0.150387
vt 0.442228 0.152446
vt 0.441575 0.152448
vt 0.214324 0.151025
vt 0.213264 0.151996
vt 0.182093 0.180579
vt 0.163183 0.197919
vt 0.203208 0.161217
vt 0.197492 0.166459
vt 0.253198 0.150915
vt 0.215402 0.533943
vt 0.361348 0.533532
vt 0.356430 0.150625
vt 0.173096 0.321902
vt 0.164397 0.321141
vt 0.164512 0.361993
vt 0.173206 0.361261
vt 0.196066 0.516411
vt 0.458446 0.152400
vt 0.463270 0.152779
vt 0.173154 0.342601
vt 0.164457 0.342626
vt 0.436952 0.530190
vt 0.432147 0.531270
vt 0.439391 0.150391
vt 0.440921 0.152450
vt 0.441235 0.164615
vt 0.440556 0.169392
vt 0.438353 0.075145
vt 0.439052 0.079953
vt 0.437649 0.082837
vt 0.438362 0.082835
vt 0.094530 0.155865
vt 0.189335 0.085030
vt 0.439076 0.082833
vt 0.420637 0.533365
vt 0.420827 0.600923
vt 0.223135 0.515838
vt 0.256795 0.472086
vt 0.086266 0.532719
vt 0.150399 0.607188
vt 0.102707 0.637028
vt 0.041383 0.565820
vt 0.420895 0.531301
vt 0.421949 0.522864
vt 0.204456 0.504164
vt 0.177642 0.206776
vt 0.192996 0.191418
vt 0.205498 0.178911
vt 0.210140 0.174268
vt 0.218304 0.166101
vt 0.442069 0.160881
vt 0.442723 0.160879
vt 0.443377 0.160877
vt 0.188315 0.082175
vt 0.267574 0.754429
vt 0.234598 0.754429
vt 0.215851 0.754429
vt 0.165354 0.754429
vt 0.103342 0.754429
vt 0.099219 0.761791
vt 0.099219 0.754429
vt 0.099219 0.829159
vt 0.099219 0.905800
vt 0.091603 0.154072
vt 0.358176 0.459270
vt 0.412919 0.459116
vt 0.348448 0.665017
vt 0.413498 0.664833
vt 0.491372 0.517959
vt 0.491377 0.519925
vt 0.517912 0.157070
vt 0.517906 0.155105
vt 0.430441 0.020685
vt 0.431123 0.020683
vt 0.432865 0.223505
vt 0.433477 0.223503
vt 0.342607 0.020932
vt 0.353930 0.223727
vt 0.491349 0.509925
vt 0.517935 0.165104
vt 0.434090 0.223501
vt 0.431805 0.020681
vt 0.351120 0.917596
vt 0.351120 0.844593
vt 0.351120 0.780421
vt 0.193555 0.021352
vt 0.234329 0.021237
vt 0.221335 0.224100
vt 0.257607 0.223998
vt 0.221999 0.459654
vt 0.235839 0.338271
vt 0.235785 0.318885
vt 0.029911 0.160765
vt 0.030337 0.311961
vt 0.235889 0.355748
vt 0.030914 0.516936
vt 0.030481 0.363090
vt 0.491339 0.506371
vt 0.517945 0.168658
vt 0.517725 0.090754
vt 0.491558 0.584276
vt 0.030412 0.338850
vt 0.424467 0.664802
vt 0.491566 0.587019
vt 0.423888 0.459085
vt 0.236201 0.466666
vt 0.448720 0.020633
vt 0.351120 0.773410
vt 0.517717 0.088010
vt 0.449292 0.223458
vt 0.235478 0.209877
s 0
usemtl Platform_P
f 212/1/1 54/2/1 16/3/1 213/4/1
f 214/5/2 137/6/2 5/7/2 215/8/2
f 216/9/3 30/10/3 6/11/3 217/12/3
f 218/13/4 109/14/4 77/15/4 219/16/4
f 220/17/5 107/18/5 13/19/5 213/20/5
f 221/21/6 217/22/6 6/11/6 136/23/6
f 222/24/7 53/25/7 3/26/7 223/27/7
f 57/28/8 29/29/8 3/26/8 53/25/8
f 225/30/1 224/31/1 28/32/1 48/33/1
f 227/34/9 226/35/9 17/36/9 197/37/9
f 229/38/10 228/39/10 18/40/10 34/41/10
f 231/42/11 230/43/11 22/44/11 200/45/11
f 232/46/12 224/47/12 25/48/12 201/49/12
f 233/50/11 196/51/11 18/40/11 228/52/11
f 234/53/7 223/27/7 3/26/7 47/54/7
f 51/55/8 47/54/8 3/26/8 29/29/8
f 187/56/8 51/55/8 29/29/8 171/57/8
f 199/58/8 24/59/8 37/60/8 203/61/8
f 235/62/10 229/38/10 34/41/10 174/63/10
f 176/64/8 171/57/8 29/29/8 57/28/8
f 236/65/3 172/66/3 30/10/3 216/9/3
f 215/67/3 5/7/3 43/68/3 237/69/3
f 226/70/10 238/71/10 45/72/10 17/36/10
f 205/73/8 143/74/8 46/75/8 204/76/8
f 156/77/8 105/78/8 44/79/8 141/80/8
f 175/81/8 37/60/8 51/55/8 187/56/8
f 239/82/7 234/53/7 47/54/7 24/59/7
f 240/83/1 225/30/1 48/33/1 1/84/1
f 173/85/8 176/64/8 57/28/8 33/86/8
f 241/87/7 12/88/7 53/25/7 222/24/7
f 240/83/1 1/84/1 54/2/1 212/1/1
f 152/89/8 150/90/8 64/91/8 74/92/8
f 71/93/8 60/94/8 63/95/8 73/96/8
f 243/97/6 242/98/6 60/94/6 71/93/6
f 244/99/2 72/100/2 62/101/2 245/102/2
f 147/103/8 41/104/8 70/105/8 151/106/8
f 23/107/8 36/108/8 69/109/8 66/110/8
f 230/43/11 23/107/11 66/110/11 246/111/11
f 248/112/9 247/113/9 68/114/9 27/115/9
f 249/116/2 15/117/2 72/100/2 244/99/2
f 250/118/6 243/97/6 71/93/6 11/119/6
f 11/119/8 71/93/8 73/96/8 32/120/8
f 145/121/8 152/89/8 74/92/8 39/122/8
f 251/123/13 118/124/13 80/125/13 219/126/13
f 252/127/14 111/128/14 79/129/14 253/130/14
f 254/131/13 108/132/13 87/133/13 255/134/13
f 154/135/8 93/136/8 85/137/8 153/138/8
f 90/139/8 92/140/8 84/141/8 81/142/8
f 256/143/5 88/144/5 82/145/5 257/146/5
f 258/147/5 95/148/5 88/144/5 256/143/5
f 155/149/8 100/150/8 93/136/8 154/135/8
f 255/134/13 87/133/13 89/151/13 259/152/13
f 97/153/8 99/154/8 92/140/8 90/139/8
f 157/155/8 122/156/8 100/150/8 155/149/8
f 260/157/5 117/158/5 95/148/5 258/147/5
f 259/152/13 89/151/13 96/159/13 261/160/13
f 253/161/13 79/162/13 108/132/13 254/131/13
f 153/138/8 85/137/8 105/78/8 156/77/8
f 257/146/5 82/145/5 107/18/5 220/17/5
f 129/163/8 132/164/8 116/165/8 113/166/8
f 133/167/8 131/168/8 115/169/8 124/170/8
f 131/168/8 130/171/8 114/172/8 115/169/8
f 130/171/8 129/163/8 113/166/8 114/172/8
f 262/173/14 128/174/14 111/128/14 252/127/14
f 263/175/4 127/176/4 109/14/4 218/13/4
f 249/177/5 14/178/5 117/158/5 260/157/5
f 145/121/8 39/122/8 122/156/8 157/155/8
f 261/160/13 96/159/13 118/124/13 251/123/13
f 11/179/8 119/180/8 133/167/8 127/176/8
f 250/181/4 11/179/4 127/176/4 263/175/4
f 241/182/14 9/183/14 128/174/14 262/173/14
f 90/184/8 81/185/8 129/163/8 130/171/8
f 97/186/8 90/184/8 130/171/8 131/168/8
f 119/180/8 97/186/8 131/168/8 133/167/8
f 81/185/8 102/187/8 132/164/8 129/163/8
f 264/188/6 221/21/6 136/23/6 167/189/6
f 265/190/2 168/191/2 137/6/2 214/5/2
f 192/192/8 190/193/8 158/194/8 170/195/8
f 184/196/8 145/121/8 157/155/8 182/197/8
f 178/198/8 153/138/8 156/77/8 181/199/8
f 182/197/8 157/155/8 155/149/8 180/200/8
f 180/200/8 155/149/8 154/135/8 179/201/8
f 179/201/8 154/135/8 153/138/8 178/198/8
f 184/196/8 189/202/8 152/89/8 145/121/8
f 186/203/8 147/103/8 151/106/8 177/204/8
f 189/202/8 188/205/8 150/90/8 152/89/8
f 44/79/8 58/206/8 149/207/8 141/80/8
f 46/75/8 143/74/8 148/208/8 52/209/8
f 181/199/8 156/77/8 141/80/8 173/85/8
f 206/210/8 175/81/8 143/74/8 205/73/8
f 237/69/3 43/68/3 140/211/3 266/212/3
f 58/206/8 42/213/8 139/214/8 149/207/8
f 238/71/10 267/215/10 142/216/10 45/72/10
f 52/209/8 148/208/8 139/214/8 42/213/8
f 188/205/8 191/217/8 164/218/8 150/90/8
f 245/102/2 62/101/2 160/219/2 268/220/2
f 242/98/6 269/221/6 159/222/6 60/94/6
f 191/217/8 192/192/8 170/195/8 164/218/8
f 268/220/2 160/219/2 168/191/2 265/190/2
f 269/221/6 264/188/6 167/189/6 159/222/6
f 161/223/8 169/224/8 192/192/8 191/217/8
f 63/95/8 161/223/8 191/217/8 188/205/8
f 203/61/8 37/60/8 175/81/8 206/210/8
f 104/225/8 181/199/8 173/85/8 33/86/8
f 73/96/8 63/95/8 188/205/8 189/202/8
f 36/108/8 186/203/8 177/204/8 69/109/8
f 32/120/8 73/96/8 189/202/8 184/196/8
f 92/140/8 179/201/8 178/198/8 84/141/8
f 99/154/8 180/200/8 179/201/8 92/140/8
f 121/226/8 182/197/8 180/200/8 99/154/8
f 84/141/8 178/198/8 181/199/8 104/225/8
f 32/120/8 184/196/8 182/197/8 121/226/8
f 169/224/8 138/227/8 190/193/8 192/192/8
f 141/80/8 149/207/8 176/64/8 173/85/8
f 143/74/8 175/81/8 187/56/8 148/208/8
f 266/212/3 140/211/3 172/66/3 236/65/3
f 149/207/8 139/214/8 171/57/8 176/64/8
f 267/215/10 235/62/10 174/63/10 142/216/10
f 148/208/8 187/56/8 171/57/8 139/214/8
f 69/109/8 177/204/8 198/228/8 195/229/8
f 246/111/11 66/110/11 196/51/11 233/50/11
f 247/113/9 227/34/9 197/37/9 68/114/9
f 36/108/8 203/61/8 206/210/8 186/203/8
f 186/203/8 206/210/8 205/73/8 147/103/8
f 147/103/8 205/73/8 204/76/8 41/104/8
f 23/107/8 199/58/8 203/61/8 36/108/8
f 248/230/12 232/46/12 201/49/12 26/231/12
f 239/232/15 231/233/15 200/234/15 21/235/15
f 198/228/8 177/204/8 151/106/8 207/236/8
f 207/236/8 151/106/8 70/105/8 208/237/8
f 197/37/8 208/237/8 70/105/8 68/114/8
f 68/114/8 70/105/8 41/104/8 27/115/8
f 196/51/8 66/110/8 69/109/8 195/229/8
f 196/51/8 195/229/8 34/41/8 18/40/8
f 195/229/8 198/228/8 174/63/8 34/41/8
f 198/228/8 207/236/8 142/216/8 174/63/8
f 207/236/8 208/237/8 45/72/8 142/216/8
f 208/237/8 197/37/8 17/36/8 45/72/8
f 204/76/8 202/238/8 27/115/8 41/104/8
f 202/238/8 204/76/8 46/75/8 28/32/8
f 48/33/8 28/32/8 46/75/8 52/209/8
f 37/60/8 24/59/8 47/54/8 51/55/8
f 72/100/8 74/92/8 64/91/8 62/101/8
f 48/33/8 52/209/8 42/213/8 1/84/8
f 1/84/8 42/213/8 58/206/8 54/2/8
f 54/2/8 58/206/8 44/79/8 16/3/8
f 16/3/8 44/79/8 105/78/8 103/239/8
f 103/239/8 105/78/8 85/137/8 83/240/8
f 83/240/8 85/137/8 93/136/8 91/241/8
f 91/241/8 93/136/8 100/150/8 98/242/8
f 98/242/8 100/150/8 122/156/8 120/243/8
f 120/243/8 122/156/8 39/122/8 15/117/8
f 15/117/8 39/122/8 74/92/8 72/100/8
f 150/90/8 164/218/8 209/244/8 64/91/8
f 62/101/8 64/91/8 209/244/8 160/219/8
f 60/94/8 159/222/8 161/223/8 63/95/8
f 167/189/8 136/23/8 138/227/8 169/224/8
f 159/222/8 167/189/8 169/224/8 161/223/8
f 209/244/8 164/218/8 170/195/8 210/245/8
f 160/219/8 209/244/8 210/245/8 168/191/8
f 210/245/8 170/195/8 158/194/8 211/246/8
f 168/191/8 210/245/8 211/246/8 137/6/8
f 6/11/8 30/10/8 138/227/8 136/23/8
f 30/10/8 172/66/8 190/193/8 138/227/8
f 172/66/8 140/211/8 158/194/8 190/193/8
f 140/211/8 43/68/8 211/246/8 158/194/8
f 43/68/8 5/7/8 137/6/8 211/246/8
f 32/120/8 121/226/8 119/247/8 11/119/8
f 99/154/8 97/153/8 119/247/8 121/226/8
f 124/170/8 109/14/8 127/176/8 133/167/8
f 109/14/8 124/170/8 123/248/8 77/15/8
f 115/169/8 101/249/8 123/248/8 124/170/8
f 94/250/8 114/172/8 113/166/8 86/251/8
f 101/249/8 115/169/8 114/172/8 94/250/8
f 86/251/8 113/166/8 116/165/8 106/252/8
f 112/253/8 78/254/8 106/252/8 116/165/8
f 132/164/8 126/255/8 112/253/8 116/165/8
f 126/255/8 132/164/8 102/187/8 12/256/8
f 84/141/8 104/225/8 102/257/8 81/142/8
f 104/225/8 33/86/8 12/88/8 102/257/8
f 53/25/8 12/88/8 33/86/8 57/28/8
f 24/59/15 199/58/15 231/233/15 239/232/15
f 27/115/12 202/238/12 232/46/12 248/230/12
f 67/258/9 194/259/9 227/34/9 247/113/9
f 65/260/11 246/111/11 233/50/11 193/261/11
f 146/262/10 185/263/10 235/62/10 267/215/10
f 144/264/3 266/212/3 236/65/3 183/265/3
f 162/266/6 165/267/6 264/188/6 269/221/6
f 163/268/2 268/220/2 265/190/2 166/269/2
f 59/270/6 162/266/6 269/221/6 242/98/6
f 61/271/2 245/102/2 268/220/2 163/268/2
f 40/272/10 146/262/10 267/215/10 238/71/10
f 38/273/3 237/69/3 266/212/3 144/264/3
f 166/269/2 265/190/2 214/5/2 135/274/2
f 165/267/6 134/275/6 221/21/6 264/188/6
f 12/256/14 241/182/14 262/173/14 126/255/14
f 10/276/4 250/181/4 263/175/4 125/277/4
f 101/249/13 261/160/13 251/123/13 123/248/13
f 15/117/5 249/177/5 260/157/5 120/243/5
f 125/277/4 263/175/4 218/13/4 110/278/4
f 126/255/14 262/173/14 252/127/14 112/253/14
f 83/240/5 257/146/5 220/17/5 103/239/5
f 78/254/13 253/161/13 254/131/13 106/252/13
f 94/250/13 259/152/13 261/160/13 101/249/13
f 120/243/5 260/157/5 258/147/5 98/242/5
f 86/251/13 255/134/13 259/152/13 94/250/13
f 98/242/5 258/147/5 256/143/5 91/241/5
f 91/241/5 256/143/5 257/146/5 83/240/5
f 106/252/13 254/131/13 255/134/13 86/251/13
f 112/253/14 252/127/14 253/130/14 78/254/14
f 123/248/13 251/123/13 219/126/13 77/15/13
f 10/279/6 75/280/6 243/97/6 250/118/6
f 14/281/2 249/116/2 244/99/2 76/282/2
f 26/283/9 67/258/9 247/113/9 248/112/9
f 22/44/11 230/43/11 246/111/11 65/260/11
f 76/282/2 244/99/2 245/102/2 61/271/2
f 75/280/6 59/270/6 242/98/6 243/97/6
f 2/284/1 240/83/1 212/1/1 56/285/1
f 9/286/7 241/87/7 222/24/7 55/287/7
f 2/284/1 50/288/1 225/30/1 240/83/1
f 21/289/7 49/290/7 234/53/7 239/82/7
f 20/291/10 40/272/10 238/71/10 226/70/10
f 8/292/3 215/67/3 237/69/3 38/273/3
f 183/265/3 236/65/3 216/9/3 31/293/3
f 185/263/10 35/294/10 229/38/10 235/62/10
f 49/290/7 4/295/7 223/27/7 234/53/7
f 193/261/11 233/50/11 228/52/11 19/296/11
f 202/238/12 28/32/12 224/47/12 232/46/12
f 199/58/11 23/107/11 230/43/11 231/42/11
f 35/294/10 19/297/10 228/39/10 229/38/10
f 194/259/9 20/298/9 226/35/9 227/34/9
f 50/288/1 25/299/1 224/31/1 225/30/1
f 55/287/7 222/24/7 223/27/7 4/295/7
f 134/275/6 7/300/6 217/22/6 221/21/6
f 103/239/5 220/17/5 213/20/5 16/3/5
f 110/278/4 218/13/4 219/16/4 80/301/4
f 31/293/3 216/9/3 217/12/3 7/302/3
f 135/274/2 214/5/2 215/8/2 8/303/2
f 56/285/1 212/1/1 213/4/1 13/304/1
