# Blender 4.2.0
# www.blender.org
mtllib Platform_L_7.mtl
o Platform_L_7
v -3.000008 -0.499999 4.000004
v -3.000008 0.500001 4.000004
v -3.000008 -0.500001 -3.999996
v -3.000008 0.499999 -3.999996
v 2.999992 -0.499999 4.000004
v 2.999992 0.500001 4.000004
v 2.999992 -0.500001 -3.999996
v 2.999992 0.499999 -3.999996
vn -1.0000 -0.0000 -0.0000
vn -0.0000 -0.0000 -1.0000
vn 1.0000 -0.0000 -0.0000
vn -0.0000 -0.0000 1.0000
vn -0.0000 1.0000 -0.0000
vt 0.799946 0.899928
vt 0.699964 0.899928
vt 0.699964 0.100071
vt 0.799946 0.100071
vt 0.699964 0.000089
vt 0.100072 0.100071
vt 0.100072 0.000089
vt 0.000089 0.100071
vt 0.100072 0.899928
vt 0.000089 0.899928
vt 0.100072 0.999910
vt 0.699964 0.999910
s 1
usemtl Platform_L_5_9
f 1/1/1 2/2/1 4/3/1 3/4/1
f 3/5/2 4/3/2 8/6/2 7/7/2
f 7/8/3 8/6/3 6/9/3 5/10/3
f 5/11/4 6/9/4 2/2/4 1/12/4
f 8/6/5 4/3/5 2/2/5 6/9/5
