# Blender 4.2.0
# www.blender.org
mtllib Platform_R_1.mtl.mtl
o Platform_R_1
v -4.833586 -0.499999 4.000000
v -4.833586 0.500001 4.000000
v -4.833586 -0.500001 -4.000000
v -4.833586 0.499999 -4.000000
v 3.166414 -0.499999 4.000000
v 3.166414 0.500001 4.000000
v 6.500761 -0.500001 -4.000000
v 6.500761 0.499999 -4.000000
vn -1.0000 -0.0000 -0.0000
vn -0.0000 -0.0000 -1.0000
vn 0.9230 -0.0000 0.3847
vn -0.0000 -0.0000 1.0000
vn -0.0000 1.0000 -0.0000
vt 0.287760 0.616665
vt 0.287760 0.644829
vt 0.062443 0.644829
vt 0.062443 0.616665
vt 0.034279 0.644829
vt 0.062443 0.964056
vt 0.034279 0.964056
vt 0.073279 0.990053
vt 0.287760 0.870146
vt 0.298595 0.896142
vt 0.315924 0.870146
vt 0.315924 0.644829
s 1
usemtl Platform_R_1_6
f 1/1/1 2/2/1 4/3/1 3/4/1
f 3/5/2 4/3/2 8/6/2 7/7/2
f 7/8/3 8/6/3 6/9/3 5/10/3
f 5/11/4 6/9/4 2/2/4 1/12/4
f 8/6/5 4/3/5 2/2/5 6/9/5
