# Blender 4.2.0
# www.blender.org
mtllib Platform_Start.mtl
o Platform_Start
v -2.663506 0.133236 -3.248229
v -2.727242 0.133237 -3.339132
v -2.663506 0.463165 -3.248229
v -2.659630 0.619514 -3.335778
v -2.727242 0.463166 -3.339132
v -2.698769 0.133237 -3.929572
v -2.629597 0.133237 -4.013876
v -2.633476 0.619514 -3.926326
v -2.629597 0.463165 -4.013875
v -2.698769 0.463165 -3.929572
v -1.348988 0.135738 -3.195795
v -1.429852 0.135483 -3.125412
v -1.411362 0.621809 -3.210801
v -1.431026 0.465410 -3.125492
v -1.350075 0.465664 -3.195855
v -1.253010 0.135930 -3.871128
v -1.208839 0.136096 -3.770068
v -1.274960 0.622154 -3.785975
v -1.209927 0.466023 -3.770128
v -1.254185 0.465857 -3.871208
v -1.309753 0.135882 -3.095768
v -1.348988 0.135738 -3.195795
v -1.310753 0.465809 -3.095806
v -1.289909 0.622213 -3.180827
v -1.350075 0.465664 -3.195855
v -1.208839 0.136096 -3.770068
v -1.123360 0.136361 -3.839154
v -1.146145 0.622583 -3.754205
v -1.124359 0.466289 -3.839192
v -1.209930 0.466023 -3.770128
v -0.227226 0.130775 -2.778545
v -0.331787 0.131646 -2.748132
v -0.275223 0.617603 -2.817366
v -0.328609 0.461558 -2.747187
v -0.224384 0.460691 -2.777853
v 0.121941 0.129048 -3.365782
v 0.136551 0.128617 -3.244477
v 0.074738 0.615599 -3.293763
v 0.139393 0.458534 -3.243785
v 0.125114 0.458961 -3.364837
v -0.230270 0.130602 -2.668733
v -0.227226 0.130776 -2.778545
v -0.227726 0.460521 -2.668281
v -0.170967 0.616530 -2.735842
v -0.224384 0.460692 -2.777854
v 0.136551 0.128620 -3.244477
v 0.255569 0.127671 -3.261454
v 0.203762 0.614269 -3.193011
v 0.258114 0.457589 -3.261001
v 0.139393 0.458535 -3.243786
v 0.729073 0.136451 -1.772835
v 0.630512 0.136207 -1.769207
v 0.704815 0.622381 -1.816750
v 0.629459 0.466125 -1.771684
v 0.728310 0.466373 -1.774800
v 1.293858 0.135437 -2.153054
v 1.247372 0.135956 -2.057081
v 1.216457 0.621788 -2.112813
v 1.246609 0.465878 -2.059046
v 1.292805 0.465356 -2.155531
v 0.677734 0.136793 -1.681990
v 0.729073 0.136451 -1.772835
v 0.677113 0.466717 -1.683693
v 0.754166 0.622997 -1.725698
v 0.728310 0.466373 -1.774800
v 1.247372 0.135956 -2.057081
v 1.354172 0.136206 -2.042264
v 1.275906 0.622544 -2.003579
v 1.353550 0.466130 -2.043968
v 1.246609 0.465878 -2.059046
v 1.259766 0.137678 -0.573713
v 1.157177 0.137887 -0.600244
v 1.240028 0.624111 -0.629699
v 1.157608 0.467815 -0.599640
v 1.260242 0.467606 -0.572984
v 1.876163 0.137428 -0.865618
v 1.816303 0.137311 -0.772950
v 1.794586 0.623757 -0.834383
v 1.816780 0.467239 -0.772222
v 1.876595 0.467356 -0.865014
v 1.196690 0.137562 -0.488450
v 1.259766 0.137679 -0.573712
v 1.197216 0.467488 -0.487588
v 1.280281 0.623780 -0.515836
v 1.260242 0.467607 -0.572983
v 1.816303 0.137312 -0.772950
v 1.920956 0.137061 -0.739059
v 1.838913 0.623395 -0.709132
v 1.921482 0.466989 -0.738197
v 1.816784 0.467239 -0.772222
v 1.223785 0.134660 0.619037
v 1.161449 0.134872 0.530097
v 1.247108 0.620746 0.557192
v 1.163139 0.464795 0.529736
v 1.225487 0.464584 0.618647
v 1.888760 0.131408 0.771706
v 1.783379 0.132001 0.809509
v 1.808086 0.618075 0.743547
v 1.785080 0.461925 0.809119
v 1.890450 0.461333 0.771346
v 1.120216 0.135239 0.651507
v 1.223785 0.134662 0.619037
v 1.121925 0.465163 0.651089
v 1.205486 0.621117 0.679738
v 1.225487 0.464586 0.618648
v 1.783379 0.132002 0.809509
v 1.843895 0.131807 0.903779
v 1.763664 0.618471 0.874317
v 1.845604 0.461732 0.903361
v 1.785080 0.461926 0.809119
v 0.731594 0.135708 1.776171
v 0.679241 0.136585 1.695500
v 0.754791 0.622435 1.744351
v 0.679359 0.466502 1.698318
v 0.731468 0.465621 1.779383
v 1.338448 0.133010 2.086394
v 1.226753 0.132756 2.099033
v 1.263241 0.619679 2.045850
v 1.226624 0.462669 2.102245
v 1.338566 0.462928 2.089212
v 0.634785 0.135712 1.764506
v 0.731594 0.135708 1.776171
v 0.634525 0.465624 1.767916
v 0.705605 0.621492 1.820619
v 0.731468 0.465621 1.779383
v 1.226753 0.132756 2.099033
v 1.257477 0.131582 2.211275
v 1.185890 0.618305 2.165214
v 1.257217 0.461492 2.214686
v 1.226624 0.462669 2.102245
v -0.227673 0.137239 2.742967
v -0.241737 0.137743 2.642078
v -0.184586 0.623526 2.712039
v -0.240498 0.467667 2.643434
v -0.226742 0.467163 2.744571
v 0.242096 0.133485 3.236428
v 0.138325 0.133953 3.207151
v 0.188599 0.620242 3.170464
v 0.139252 0.463877 3.208755
v 0.243336 0.463409 3.237783
v -0.320850 0.137673 2.704495
v -0.227673 0.137239 2.742967
v -0.320286 0.467595 2.706379
v -0.266956 0.623453 2.777018
v -0.226742 0.467163 2.744571
v 0.138325 0.133953 3.207151
v 0.143166 0.133393 3.314443
v 0.090942 0.620153 3.247474
v 0.143730 0.463316 3.316327
v 0.139252 0.463877 3.208755
v -1.424351 0.137270 3.144457
v -1.378803 0.137720 3.046446
v -1.359982 0.623318 3.135811
v -1.377289 0.467638 3.048696
v -1.422909 0.467188 3.146721
v -1.233734 0.131922 3.798966
v -1.315186 0.132806 3.725399
v -1.248089 0.618846 3.716234
v -1.313744 0.462725 3.727663
v -1.232220 0.461840 3.801216
v -1.501644 0.138112 3.069627
v -1.424351 0.137270 3.144457
v -1.500313 0.468029 3.071912
v -1.483887 0.623713 3.159192
v -1.422909 0.467188 3.146721
v -1.315186 0.132806 3.725399
v -1.363491 0.132335 3.823448
v -1.377327 0.619258 3.740618
v -1.362160 0.462253 3.825732
v -1.313744 0.462725 3.727663
v -2.782467 0.135768 3.286931
v -2.717293 0.136278 3.197519
v -2.713356 0.621824 3.289032
v -2.716312 0.466194 3.200176
v -2.781399 0.465684 3.289585
v -2.695522 0.130043 3.963583
v -2.766891 0.130963 3.877833
v -2.696564 0.617016 3.879901
v -2.765823 0.460880 3.880487
v -2.694538 0.459960 3.966239
v -4.134720 -3.592820 4.328475
v -4.134720 -3.592820 -4.302775
v -1.804008 -3.592820 4.208015
v -2.365337 -3.592820 4.279608
v -2.365337 -3.592820 -4.253908
v -1.804008 -3.592820 -4.182316
v -0.275562 -3.592820 -3.831994
v 0.236565 -3.592820 -3.577692
v 1.320591 -3.592820 -2.694612
v 1.684620 -3.592820 -2.218186
v 2.099327 -3.592820 -1.307185
v 2.289524 -3.592820 -0.722568
v 2.289524 -3.592820 0.748267
v 2.099327 -3.592820 1.332885
v 1.684620 -3.592820 2.243886
v 1.320591 -3.592820 2.720312
v 0.236565 -3.592820 3.603392
v -0.275562 -3.592820 3.857694
v 2.381557 -3.592820 -0.264753
v 2.381557 -3.592820 0.290453
v -4.134720 0.126074 4.328475
v -4.134720 0.193035 4.251714
v -4.134720 0.193035 -4.226015
v -4.134720 0.126074 -4.302775
v -1.803917 0.126074 4.207995
v -1.803917 0.193035 4.129647
v -2.365337 0.193035 4.202456
v -2.365337 0.126074 4.279608
v -2.365337 0.126074 -4.253908
v -2.365337 0.193035 -4.176757
v -1.803917 0.193035 -4.103948
v -1.803917 0.126074 -4.182295
v 0.237125 0.126074 3.602933
v 0.237137 0.193035 3.519266
v -0.275654 0.193035 3.777294
v -0.275654 0.126074 3.857714
v 1.685127 0.126073 2.242778
v 1.685135 0.193035 2.147519
v 1.320019 0.193035 2.632435
v 1.320030 0.126073 2.720771
v 2.289688 0.126073 0.747438
v 2.289692 0.193035 0.630278
v 2.098812 0.193035 1.227923
v 2.098820 0.126073 1.333992
v 2.098820 0.126073 -1.308293
v 2.098812 0.193035 -1.202224
v 2.289692 0.193035 -0.604578
v 2.289688 0.126073 -0.721738
v 1.320030 0.126073 -2.695071
v 1.320019 0.193035 -2.606735
v 1.685135 0.193035 -2.121819
v 1.685127 0.126073 -2.217078
v -0.275654 0.126074 -3.832014
v -0.275654 0.193035 -3.751594
v 0.237137 0.193035 -3.493566
v 0.237125 0.126074 -3.577233
v 2.381557 0.193035 0.164752
v 2.381557 0.126073 0.290453
v 2.381557 0.126073 -0.264753
v 2.381557 0.193035 -0.139053
vn -0.0991 -0.0001 0.9951
vn 0.9715 0.0032 0.2371
vn -0.0019 1.0000 -0.0000
vn -0.9988 -0.0000 -0.0482
vn 0.1032 0.0001 -0.9947
vn -0.7748 0.3234 0.5432
vn -0.7328 0.3185 -0.6013
vn 0.6225 0.3130 0.7173
vn 0.8669 0.3225 -0.3801
vn -0.8188 -0.0000 0.5741
vn -0.9192 0.3916 -0.0425
vn -0.7731 -0.0000 -0.6343
vn 0.0890 0.4871 -0.8688
vn 0.9162 0.0031 -0.4008
vn 0.8975 0.3844 0.2162
vn 0.6563 0.0024 0.7545
vn -0.0877 0.4869 0.8690
vn -0.3347 -0.0002 0.9423
vn 0.7882 -0.0081 0.6154
vn 0.0049 1.0000 0.0008
vn -0.9715 -0.0032 -0.2371
vn 0.3551 0.0001 -0.9348
vn -0.8859 0.3071 0.3477
vn -0.5961 0.3178 -0.7373
vn 0.2702 0.3165 0.9093
vn 0.9309 0.3487 -0.1086
vn -0.9308 -0.0029 0.3655
vn -0.8989 0.3778 -0.2221
vn -0.6283 -0.0021 -0.7780
vn 0.3128 0.4807 -0.8192
vn 0.9929 -0.0088 -0.1184
vn 0.7236 0.4219 0.5462
vn 0.2807 -0.0049 0.9598
vn -0.2927 0.4803 0.8268
vn -0.7227 0.0038 0.6912
vn 0.4809 0.0063 0.8768
vn -0.0014 1.0000 -0.0054
vn -0.7882 0.0081 -0.6154
vn 0.7300 -0.0037 -0.6835
vn -0.9432 0.3309 -0.0282
vn -0.1313 0.3559 -0.9252
vn 0.0297 0.2637 0.9641
vn 0.8589 0.3074 0.4096
vn -0.9995 0.0082 -0.0291
vn -0.7026 0.4336 -0.5642
vn -0.1423 0.0029 -0.9898
vn 0.6388 0.4794 -0.6017
vn 0.9010 0.0054 0.4339
vn 0.4633 0.3318 0.8217
vn 0.0341 0.0068 0.9994
vn -0.6340 0.4854 0.6020
vn -0.9142 0.0004 0.4052
vn 0.3370 -0.0026 0.9415
vn 0.0002 1.0000 -0.0011
vn -0.4809 -0.0063 -0.8768
vn 0.9141 -0.0004 -0.4055
vn -0.8351 0.2853 -0.4703
vn 0.1321 0.3088 -0.9419
vn -0.2390 0.3034 0.9224
vn 0.7969 0.3172 0.5141
vn -0.8712 -0.0046 -0.4909
vn -0.4446 0.3530 -0.8232
vn 0.1385 -0.0052 -0.9903
vn 0.7978 0.4877 -0.3545
vn 0.8402 -0.0023 0.5422
vn 0.3171 0.3739 0.8716
vn -0.2509 -0.0016 0.9680
vn -0.7979 0.4885 0.3532
vn -0.9994 0.0034 -0.0340
vn -0.3222 0.0028 0.9467
vn 0.0028 1.0000 0.0034
vn -0.3370 0.0026 -0.9415
vn 0.9998 -0.0034 0.0209
vn -0.7664 0.3052 -0.5652
vn 0.2933 0.3221 -0.9001
vn -0.7749 0.3215 0.5442
vn 0.3206 0.3262 0.8893
vn -0.8043 0.0027 -0.5943
vn -0.3072 0.3777 -0.8735
vn 0.3086 0.0018 -0.9512
vn 0.8846 0.4658 0.0202
vn 0.3376 -0.0007 0.9413
vn -0.2910 0.3958 0.8710
vn -0.8188 0.0049 0.5740
vn -0.8815 0.4715 -0.0271
vn -0.9211 0.0040 -0.3892
vn -0.5462 -0.0084 0.8376
vn 0.0047 1.0000 0.0009
vn 0.3222 -0.0028 -0.9467
vn 0.9195 -0.0040 0.3931
vn -0.2819 0.3174 -0.9054
vn 0.7969 0.3219 -0.5111
vn -0.8156 0.2390 0.5269
vn 0.1091 0.3134 0.9433
vn -0.2990 0.0004 -0.9542
vn 0.3015 0.3907 -0.8697
vn 0.8415 -0.0050 -0.5403
vn 0.8052 0.4833 0.3436
vn 0.1141 -0.0091 0.9934
vn -0.4975 0.3289 0.8027
vn -0.8400 -0.0050 0.5425
vn -0.8024 0.4905 -0.3400
vn -0.7074 0.0062 -0.7068
vn -0.7853 -0.0008 0.6192
vn 0.0049 1.0000 0.0028
vn 0.5462 0.0084 -0.8376
vn 0.7104 -0.0061 0.7038
vn 0.1131 0.2716 -0.9557
vn 0.9095 0.3367 -0.2439
vn -0.9501 0.2833 0.1306
vn -0.2546 0.3051 0.9177
vn 0.1185 0.0100 -0.9929
vn 0.5265 0.3688 -0.7660
vn 0.9647 0.0032 -0.2632
vn 0.6233 0.4803 0.6171
vn -0.2701 -0.0034 0.9628
vn -0.7307 0.3470 0.5879
vn -0.9906 0.0026 0.1364
vn -0.6158 0.4907 -0.6164
vn -0.3078 0.0069 -0.9514
vn -0.9828 0.0030 0.1847
vn 0.0017 1.0000 0.0066
vn 0.7853 0.0008 -0.6192
vn 0.3322 -0.0070 0.9432
vn 0.3642 0.2782 -0.8888
vn 0.9520 0.3037 -0.0380
vn -0.8599 0.3187 -0.3987
vn -0.6332 0.3179 0.7057
vn 0.3798 0.0040 -0.9251
vn 0.7442 0.3415 -0.5740
vn 0.9991 -0.0020 -0.0433
vn 0.2918 0.4717 0.8321
vn -0.6701 -0.0021 0.7423
vn -0.9059 0.3856 0.1754
vn -0.9067 0.0069 -0.4216
vn -0.2715 0.4831 -0.8324
vn -0.1048 0.0078 -0.9945
vn -0.9996 0.0030 0.0264
vn -0.0008 1.0000 0.0080
vn 0.9828 -0.0030 -0.1847
vn 0.1048 -0.0078 0.9945
vn 0.6620 0.3122 -0.6814
vn 0.8516 0.3110 0.4219
vn -0.7638 0.3309 -0.5541
vn -0.7257 0.3242 0.6068
vn 0.6953 0.0020 -0.7187
vn 0.9115 0.3762 -0.1663
vn 0.8969 -0.0068 0.4423
vn 0.0912 0.4810 0.8720
vn -0.7688 -0.0028 0.6395
vn -0.9150 0.4024 0.0283
vn -0.8083 0.0072 -0.5887
vn -0.0920 0.4947 -0.8642
vn 0.5416 -0.0000 0.8407
vn 0.4907 0.3874 0.7805
vn 0.3023 0.4012 0.8647
vn 0.3365 -0.0000 0.9417
vn 0.0276 -0.0000 -0.9996
vn 0.0252 0.4116 -0.9110
vn 0.0699 0.4101 -0.9094
vn 0.0772 -0.0000 -0.9970
vn 0.3365 -0.0000 -0.9417
vn 0.3023 0.4012 -0.8647
vn 0.4907 0.3874 -0.7805
vn 0.5416 -0.0000 -0.8407
vn 0.7181 -0.0000 0.6960
vn 0.6583 0.3614 0.6603
vn 0.8578 -0.0000 0.5140
vn 0.8025 0.3179 0.5049
vn 0.9320 -0.0000 -0.3624
vn 0.8942 0.2636 -0.3619
vn 0.9393 0.2212 -0.2624
vn 0.9673 -0.0000 -0.2537
vn 0.7181 -0.0000 -0.6960
vn 0.6583 0.3614 -0.6603
vn 0.8025 0.3179 -0.5049
vn 0.8578 -0.0000 -0.5140
vn 0.9814 0.1424 -0.1290
vn 0.9951 -0.0000 -0.0990
vn 0.9673 -0.0000 0.2537
vn 0.9393 0.2212 0.2624
vn 0.8942 0.2636 0.3619
vn 0.9320 -0.0000 0.3624
vn 0.0646 0.9334 0.3529
vn 0.0646 0.9334 -0.3529
vn 0.0286 0.9331 -0.3586
vn 0.0286 0.9331 0.3586
vn 0.0099 0.9345 -0.3558
vn 0.0099 0.9345 0.3558
vn 0.9951 -0.0000 0.0990
vn 0.9814 0.1424 0.1290
vn 0.0699 0.4101 0.9094
vn 0.0772 -0.0000 0.9970
vn 0.1752 -0.0000 0.9845
vn 0.1585 0.4107 0.8979
vn 0.1752 -0.0000 -0.9845
vn 0.1585 0.4107 -0.8979
vn 0.2260 0.9180 0.3258
vn 0.2260 0.9180 -0.3258
vn 0.1351 0.9258 -0.3530
vn 0.1351 0.9258 0.3530
vn 0.4393 0.8688 0.2283
vn 0.4393 0.8688 -0.2283
vn 0.3285 0.8997 -0.2876
vn 0.3285 0.8997 0.2876
vn 0.5671 0.8141 0.1251
vn 0.5671 0.8141 -0.1251
vn 0.4983 0.8495 -0.1737
vn 0.4983 0.8495 0.1737
vn 0.7086 0.7053 0.0218
vn 0.7086 0.7053 -0.0218
vn 0.0252 0.4116 0.9110
vn 0.0276 -0.0000 0.9996
vt 0.983266 0.597065
vt 0.964082 0.597065
vt 0.964082 0.488984
vt 0.983266 0.488984
vt 0.891794 0.628200
vt 0.891794 0.609616
vt 0.951198 0.609616
vt 0.951198 0.628200
vt 0.891794 0.598637
vt 0.891794 0.489934
vt 0.951198 0.489934
vt 0.951198 0.598637
vt 0.951198 0.460824
vt 0.951198 0.480966
vt 0.891794 0.480966
vt 0.891794 0.460824
vt 0.859725 0.489934
vt 0.878910 0.489934
vt 0.878910 0.598637
vt 0.859725 0.598637
vt 0.958688 0.480966
vt 0.880834 0.480966
vt 0.962158 0.605465
vt 0.884304 0.609026
vt 0.980445 0.474407
vt 0.859725 0.479760
vt 0.859725 0.614617
vt 0.981132 0.609264
vt 0.835129 0.156611
vt 0.815945 0.156611
vt 0.815945 0.048529
vt 0.835129 0.048529
vt 0.743657 0.187746
vt 0.743657 0.169161
vt 0.803061 0.169161
vt 0.803061 0.187746
vt 0.743657 0.158183
vt 0.743657 0.049480
vt 0.803061 0.049480
vt 0.803061 0.158183
vt 0.803061 0.020369
vt 0.803061 0.040511
vt 0.743657 0.040511
vt 0.743657 0.020369
vt 0.711589 0.049480
vt 0.730773 0.049480
vt 0.730773 0.158183
vt 0.711589 0.158183
vt 0.810551 0.040511
vt 0.732697 0.040511
vt 0.814021 0.165010
vt 0.736167 0.168571
vt 0.832309 0.033953
vt 0.711589 0.039305
vt 0.711589 0.174162
vt 0.832995 0.168810
vt 0.988497 0.787535
vt 0.969312 0.787535
vt 0.969312 0.679454
vt 0.988497 0.679454
vt 0.897024 0.818670
vt 0.897024 0.800086
vt 0.956428 0.800086
vt 0.956428 0.818670
vt 0.897024 0.789107
vt 0.897024 0.680404
vt 0.956428 0.680404
vt 0.956428 0.789107
vt 0.956428 0.651294
vt 0.956428 0.671436
vt 0.897024 0.671436
vt 0.897024 0.651294
vt 0.864956 0.680404
vt 0.884140 0.680404
vt 0.884140 0.789107
vt 0.864956 0.789107
vt 0.963919 0.671436
vt 0.886064 0.671436
vt 0.967388 0.795935
vt 0.889534 0.799496
vt 0.985676 0.664877
vt 0.864956 0.670230
vt 0.864956 0.805086
vt 0.986362 0.799734
vt 0.973225 0.171399
vt 0.954041 0.171399
vt 0.954041 0.063317
vt 0.973225 0.063317
vt 0.881752 0.202534
vt 0.881752 0.183949
vt 0.941157 0.183949
vt 0.941157 0.202534
vt 0.881752 0.172971
vt 0.881752 0.064268
vt 0.941157 0.064268
vt 0.941157 0.172971
vt 0.941157 0.035157
vt 0.941157 0.055299
vt 0.881752 0.055299
vt 0.881752 0.035157
vt 0.849684 0.064268
vt 0.868868 0.064268
vt 0.868868 0.172971
vt 0.849684 0.172971
vt 0.948647 0.055299
vt 0.870792 0.055299
vt 0.952117 0.179798
vt 0.874262 0.183359
vt 0.970404 0.048741
vt 0.849684 0.054093
vt 0.849684 0.188950
vt 0.971090 0.183598
vt 0.827378 0.579731
vt 0.808193 0.579731
vt 0.808193 0.471649
vt 0.827378 0.471649
vt 0.735905 0.610866
vt 0.735905 0.592282
vt 0.795309 0.592282
vt 0.795309 0.610866
vt 0.735905 0.581303
vt 0.735905 0.472600
vt 0.795309 0.472600
vt 0.795309 0.581303
vt 0.795309 0.443489
vt 0.795309 0.463631
vt 0.735905 0.463631
vt 0.735905 0.443489
vt 0.703837 0.472600
vt 0.723021 0.472600
vt 0.723021 0.581303
vt 0.703837 0.581303
vt 0.802799 0.463631
vt 0.724945 0.463631
vt 0.806269 0.588131
vt 0.728415 0.591692
vt 0.824557 0.457073
vt 0.703837 0.462425
vt 0.703837 0.597282
vt 0.825243 0.591930
vt 0.881706 0.377649
vt 0.862521 0.377649
vt 0.862521 0.269568
vt 0.881706 0.269568
vt 0.790233 0.408784
vt 0.790233 0.390200
vt 0.849637 0.390200
vt 0.849637 0.408784
vt 0.790233 0.379221
vt 0.790233 0.270518
vt 0.849637 0.270518
vt 0.849637 0.379221
vt 0.849637 0.241408
vt 0.849637 0.261550
vt 0.790233 0.261550
vt 0.790233 0.241408
vt 0.758165 0.270518
vt 0.777349 0.270518
vt 0.777349 0.379221
vt 0.758165 0.379221
vt 0.857127 0.261550
vt 0.779273 0.261550
vt 0.860597 0.386049
vt 0.782743 0.389610
vt 0.878885 0.254991
vt 0.758165 0.260344
vt 0.758165 0.395200
vt 0.879571 0.389848
vt 0.848816 0.778659
vt 0.829632 0.778659
vt 0.829632 0.670578
vt 0.848816 0.670578
vt 0.757344 0.809794
vt 0.757344 0.791210
vt 0.816748 0.791210
vt 0.816748 0.809794
vt 0.757344 0.780231
vt 0.757344 0.671528
vt 0.816748 0.671528
vt 0.816748 0.780231
vt 0.816748 0.642418
vt 0.816748 0.662560
vt 0.757344 0.662560
vt 0.757344 0.642418
vt 0.725275 0.671528
vt 0.744460 0.671528
vt 0.744460 0.780231
vt 0.725275 0.780231
vt 0.824238 0.662560
vt 0.746384 0.662560
vt 0.827708 0.787059
vt 0.749854 0.790620
vt 0.845995 0.656001
vt 0.725275 0.661354
vt 0.725275 0.796211
vt 0.846682 0.790858
vt 0.700626 0.778279
vt 0.681442 0.778279
vt 0.681442 0.670197
vt 0.700626 0.670197
vt 0.609154 0.809414
vt 0.609154 0.790830
vt 0.668558 0.790830
vt 0.668558 0.809414
vt 0.609154 0.779851
vt 0.609154 0.671148
vt 0.668558 0.671148
vt 0.668558 0.779851
vt 0.668558 0.642037
vt 0.668558 0.662179
vt 0.609154 0.662179
vt 0.609154 0.642037
vt 0.577086 0.671148
vt 0.596270 0.671148
vt 0.596270 0.779851
vt 0.577086 0.779851
vt 0.676048 0.662179
vt 0.598194 0.662179
vt 0.679518 0.786679
vt 0.601664 0.790240
vt 0.697805 0.655621
vt 0.577086 0.660973
vt 0.577086 0.795830
vt 0.698492 0.790478
vt 0.980726 0.964396
vt 0.961541 0.964396
vt 0.961541 0.856314
vt 0.980726 0.856314
vt 0.889253 0.995531
vt 0.889253 0.976947
vt 0.948657 0.976947
vt 0.948657 0.995531
vt 0.889253 0.965968
vt 0.889253 0.857265
vt 0.948657 0.857265
vt 0.948657 0.965968
vt 0.948657 0.828154
vt 0.948657 0.848296
vt 0.889253 0.848296
vt 0.889253 0.828154
vt 0.857185 0.857265
vt 0.876369 0.857265
vt 0.876369 0.965968
vt 0.857185 0.965968
vt 0.956147 0.848296
vt 0.878293 0.848296
vt 0.959617 0.972796
vt 0.881763 0.976357
vt 0.977905 0.841738
vt 0.857185 0.847090
vt 0.857185 0.981947
vt 0.978591 0.976595
vt 0.042422 0.734179
vt 0.239142 0.734137
vt 0.239142 0.764425
vt 0.042422 0.764425
vt 0.042427 0.036358
vt 0.239147 0.036362
vt 0.239145 0.129994
vt 0.042425 0.129989
vt 0.042422 0.242870
vt 0.239142 0.242869
vt 0.239142 0.273158
vt 0.042422 0.273116
vt 0.042420 0.660218
vt 0.239140 0.660253
vt 0.042420 0.628502
vt 0.239140 0.628436
vt 0.042420 0.431741
vt 0.239140 0.431677
vt 0.239140 0.464306
vt 0.042420 0.464261
vt 0.042420 0.347077
vt 0.239140 0.347042
vt 0.239140 0.378858
vt 0.042420 0.378793
vt 0.239140 0.488963
vt 0.042420 0.488963
vt 0.042420 0.543034
vt 0.239140 0.542989
vt 0.239140 0.575617
vt 0.042420 0.575554
vt 0.437346 0.037064
vt 0.436794 0.597716
vt 0.398428 0.602897
vt 0.398905 0.031838
vt 0.277500 0.607421
vt 0.277500 0.027263
vt 0.042420 0.518332
vt 0.239140 0.518332
vt 0.239145 0.877301
vt 0.042425 0.877305
vt 0.042424 0.847372
vt 0.239144 0.847363
vt 0.042424 0.159923
vt 0.239144 0.159932
vt 0.577381 0.080678
vt 0.576376 0.554296
vt 0.541300 0.572252
vt 0.542293 0.062641
vt 0.676098 0.175919
vt 0.675097 0.459259
vt 0.650319 0.492571
vt 0.651435 0.142544
vt 0.716333 0.278102
vt 0.716181 0.357029
vt 0.703272 0.397335
vt 0.703815 0.237802
vt 0.722050 0.308798
vt 0.722115 0.326495
vt 0.437156 0.604798
vt 0.398614 0.609891
vt 0.399095 0.024823
vt 0.437714 0.029960
vt 0.542979 0.055428
vt 0.578497 0.073309
vt 0.653030 0.135052
vt 0.678235 0.168254
vt 0.706324 0.229717
vt 0.719257 0.269499
vt 0.719032 0.365705
vt 0.705729 0.405468
vt 0.677202 0.466944
vt 0.651899 0.500060
vt 0.577482 0.561655
vt 0.541979 0.579446
vt 0.277617 0.020268
vt 0.277614 0.614388
vt 0.725918 0.334334
vt 0.725712 0.300654
vt 0.239147 0.970932
vt 0.042427 0.970937
s 0
usemtl 00_UV_Grid
f 12/1/1 14/2/1 3/3/1 1/4/1
f 17/5/2 19/6/2 15/7/2 11/8/2
f 18/9/3 8/10/3 4/11/3 13/12/3
f 2/13/4 5/14/4 10/15/4 6/16/4
f 7/17/5 9/18/5 20/19/5 16/20/5
f 3/3/6 4/11/6 5/21/6
f 8/10/7 9/18/7 10/22/7
f 13/12/8 14/2/8 15/23/8
f 18/9/9 19/24/9 20/19/9
f 1/4/10 3/3/10 5/21/10 2/25/10
f 4/11/11 8/10/11 10/15/11 5/14/11
f 9/18/12 7/17/12 6/26/12 10/22/12
f 8/10/13 18/9/13 20/19/13 9/18/13
f 19/24/14 17/27/14 16/20/14 20/19/14
f 18/9/15 13/12/15 15/7/15 19/6/15
f 14/2/16 12/1/16 11/28/16 15/23/16
f 13/12/17 4/11/17 3/3/17 14/2/17
f 32/29/18 34/30/18 23/31/18 21/32/18
f 37/33/19 39/34/19 35/35/19 31/36/19
f 38/37/20 28/38/20 24/39/20 33/40/20
f 22/41/21 25/42/21 30/43/21 26/44/21
f 27/45/22 29/46/22 40/47/22 36/48/22
f 23/31/23 24/39/23 25/49/23
f 28/38/24 29/46/24 30/50/24
f 33/40/25 34/30/25 35/51/25
f 38/37/26 39/52/26 40/47/26
f 21/32/27 23/31/27 25/49/27 22/53/27
f 24/39/28 28/38/28 30/43/28 25/42/28
f 29/46/29 27/45/29 26/54/29 30/50/29
f 28/38/30 38/37/30 40/47/30 29/46/30
f 39/52/31 37/55/31 36/48/31 40/47/31
f 38/37/32 33/40/32 35/35/32 39/34/32
f 34/30/33 32/29/33 31/56/33 35/51/33
f 33/40/34 24/39/34 23/31/34 34/30/34
f 52/57/35 54/58/35 43/59/35 41/60/35
f 57/61/36 59/62/36 55/63/36 51/64/36
f 58/65/37 48/66/37 44/67/37 53/68/37
f 42/69/38 45/70/38 50/71/38 46/72/38
f 47/73/39 49/74/39 60/75/39 56/76/39
f 43/59/40 44/67/40 45/77/40
f 48/66/41 49/74/41 50/78/41
f 53/68/42 54/58/42 55/79/42
f 58/65/43 59/80/43 60/75/43
f 41/60/44 43/59/44 45/77/44 42/81/44
f 44/67/45 48/66/45 50/71/45 45/70/45
f 49/74/46 47/73/46 46/82/46 50/78/46
f 48/66/47 58/65/47 60/75/47 49/74/47
f 59/80/48 57/83/48 56/76/48 60/75/48
f 58/65/49 53/68/49 55/63/49 59/62/49
f 54/58/50 52/57/50 51/84/50 55/79/50
f 53/68/51 44/67/51 43/59/51 54/58/51
f 72/85/52 74/86/52 63/87/52 61/88/52
f 77/89/53 79/90/53 75/91/53 71/92/53
f 78/93/54 68/94/54 64/95/54 73/96/54
f 62/97/55 65/98/55 70/99/55 66/100/55
f 67/101/56 69/102/56 80/103/56 76/104/56
f 63/87/57 64/95/57 65/105/57
f 68/94/58 69/102/58 70/106/58
f 73/96/59 74/86/59 75/107/59
f 78/93/60 79/108/60 80/103/60
f 61/88/61 63/87/61 65/105/61 62/109/61
f 64/95/62 68/94/62 70/99/62 65/98/62
f 69/102/63 67/101/63 66/110/63 70/106/63
f 68/94/64 78/93/64 80/103/64 69/102/64
f 79/108/65 77/111/65 76/104/65 80/103/65
f 78/93/66 73/96/66 75/91/66 79/90/66
f 74/86/67 72/85/67 71/112/67 75/107/67
f 73/96/68 64/95/68 63/87/68 74/86/68
f 92/113/69 94/114/69 83/115/69 81/116/69
f 97/117/70 99/118/70 95/119/70 91/120/70
f 98/121/71 88/122/71 84/123/71 93/124/71
f 82/125/72 85/126/72 90/127/72 86/128/72
f 87/129/73 89/130/73 100/131/73 96/132/73
f 83/115/74 84/123/74 85/133/74
f 88/122/75 89/130/75 90/134/75
f 93/124/76 94/114/76 95/135/76
f 98/121/77 99/136/77 100/131/77
f 81/116/78 83/115/78 85/133/78 82/137/78
f 84/123/79 88/122/79 90/127/79 85/126/79
f 89/130/80 87/129/80 86/138/80 90/134/80
f 88/122/81 98/121/81 100/131/81 89/130/81
f 99/136/82 97/139/82 96/132/82 100/131/82
f 98/121/83 93/124/83 95/119/83 99/118/83
f 94/114/84 92/113/84 91/140/84 95/135/84
f 93/124/85 84/123/85 83/115/85 94/114/85
f 112/141/86 114/142/86 103/143/86 101/144/86
f 117/145/87 119/146/87 115/147/87 111/148/87
f 118/149/88 108/150/88 104/151/88 113/152/88
f 102/153/89 105/154/89 110/155/89 106/156/89
f 107/157/90 109/158/90 120/159/90 116/160/90
f 103/143/91 104/151/91 105/161/91
f 108/150/92 109/158/92 110/162/92
f 113/152/93 114/142/93 115/163/93
f 118/149/94 119/164/94 120/159/94
f 101/144/95 103/143/95 105/161/95 102/165/95
f 104/151/96 108/150/96 110/155/96 105/154/96
f 109/158/97 107/157/97 106/166/97 110/162/97
f 108/150/98 118/149/98 120/159/98 109/158/98
f 119/164/99 117/167/99 116/160/99 120/159/99
f 118/149/100 113/152/100 115/147/100 119/146/100
f 114/142/101 112/141/101 111/168/101 115/163/101
f 113/152/102 104/151/102 103/143/102 114/142/102
f 132/169/103 134/170/103 123/171/103 121/172/103
f 137/173/104 139/174/104 135/175/104 131/176/104
f 138/177/105 128/178/105 124/179/105 133/180/105
f 122/181/106 125/182/106 130/183/106 126/184/106
f 127/185/107 129/186/107 140/187/107 136/188/107
f 123/171/108 124/179/108 125/189/108
f 128/178/109 129/186/109 130/190/109
f 133/180/110 134/170/110 135/191/110
f 138/177/111 139/192/111 140/187/111
f 121/172/112 123/171/112 125/189/112 122/193/112
f 124/179/113 128/178/113 130/183/113 125/182/113
f 129/186/114 127/185/114 126/194/114 130/190/114
f 128/178/115 138/177/115 140/187/115 129/186/115
f 139/192/116 137/195/116 136/188/116 140/187/116
f 138/177/117 133/180/117 135/175/117 139/174/117
f 134/170/118 132/169/118 131/196/118 135/191/118
f 133/180/119 124/179/119 123/171/119 134/170/119
f 152/197/120 154/198/120 143/199/120 141/200/120
f 157/201/121 159/202/121 155/203/121 151/204/121
f 158/205/122 148/206/122 144/207/122 153/208/122
f 142/209/123 145/210/123 150/211/123 146/212/123
f 147/213/124 149/214/124 160/215/124 156/216/124
f 143/199/125 144/207/125 145/217/125
f 148/206/126 149/214/126 150/218/126
f 153/208/127 154/198/127 155/219/127
f 158/205/128 159/220/128 160/215/128
f 141/200/129 143/199/129 145/217/129 142/221/129
f 144/207/130 148/206/130 150/211/130 145/210/130
f 149/214/131 147/213/131 146/222/131 150/218/131
f 148/206/132 158/205/132 160/215/132 149/214/132
f 159/220/133 157/223/133 156/216/133 160/215/133
f 158/205/134 153/208/134 155/203/134 159/202/134
f 154/198/135 152/197/135 151/224/135 155/219/135
f 153/208/136 144/207/136 143/199/136 154/198/136
f 172/225/137 174/226/137 163/227/137 161/228/137
f 177/229/138 179/230/138 175/231/138 171/232/138
f 178/233/139 168/234/139 164/235/139 173/236/139
f 162/237/140 165/238/140 170/239/140 166/240/140
f 167/241/141 169/242/141 180/243/141 176/244/141
f 163/227/142 164/235/142 165/245/142
f 168/234/143 169/242/143 170/246/143
f 173/236/144 174/226/144 175/247/144
f 178/233/145 179/248/145 180/243/145
f 161/228/146 163/227/146 165/245/146 162/249/146
f 164/235/147 168/234/147 170/239/147 165/238/147
f 169/242/148 167/241/148 166/250/148 170/246/148
f 168/234/149 178/233/149 180/243/149 169/242/149
f 179/248/150 177/251/150 176/244/150 180/243/150
f 178/233/151 173/236/151 175/231/151 179/230/151
f 174/226/152 172/225/152 171/252/152 175/247/152
f 173/236/153 164/235/153 163/227/153 174/226/153
s 1
f 197/253/154 213/254/155 216/255/156 198/256/157
f 182/257/158 204/258/159 209/259/160 185/260/161
f 187/261/162 233/262/163 236/263/164 188/264/165
f 213/254/155 197/253/154 196/265/166 220/266/167
f 195/267/168 217/268/169 220/266/167 196/265/166
f 191/269/170 225/270/171 228/271/172 192/272/173
f 189/273/174 229/274/175 232/275/176 190/276/177
f 239/277/178 199/278/179 192/272/173 228/271/172
f 193/279/180 221/280/181 224/281/182 194/282/183
f 217/268/169 195/267/168 194/282/183 224/281/182
f 206/283/184 211/284/185 210/285/186 207/286/187
f 203/287/188 202/288/189 207/286/187 210/285/186
f 221/280/181 193/279/180 200/289/190 238/290/191
f 208/291/192 184/292/193 183/293/194 205/294/195
f 186/295/196 212/296/197 233/262/163 187/261/162
f 198/256/157 216/255/156 205/294/195 183/293/194
f 214/297/198 235/298/199 234/299/200 215/300/201
f 218/301/202 231/302/203 230/303/204 219/304/205
f 222/305/206 227/306/207 226/307/208 223/308/209
f 225/270/171 191/269/170 190/276/177 232/275/176
f 229/274/175 189/273/174 188/264/165 236/263/164
f 199/278/179 239/277/178 238/290/191 200/289/190
f 215/300/201 234/299/200 211/284/185 206/283/184
f 219/304/205 230/303/204 235/298/199 214/297/198
f 223/308/209 226/307/208 231/302/203 218/301/202
f 227/306/207 222/305/206 237/309/210 240/310/211
f 212/296/197 186/295/196 185/260/161 209/259/160
f 210/285/186 211/284/185 212/311/197 209/312/160
f 206/283/184 207/286/187 208/313/192 205/314/195
f 214/297/198 215/300/201 216/315/156 213/316/155
f 218/301/202 219/304/205 220/317/167 217/318/169
f 222/305/206 223/308/209 224/319/182 221/320/181
f 226/307/208 227/306/207 228/321/172 225/322/171
f 230/303/204 231/302/203 232/323/176 229/324/175
f 234/299/200 235/298/199 236/325/164 233/326/163
f 215/300/201 206/283/184 205/314/195 216/315/156
f 207/286/187 202/288/189 201/327/212 208/313/192
f 209/312/160 204/328/159 203/287/188 210/285/186
f 233/326/163 212/311/197 211/284/185 234/299/200
f 235/298/199 230/303/204 229/324/175 236/325/164
f 231/302/203 226/307/208 225/322/171 232/323/176
f 227/306/207 240/310/211 239/329/178 228/321/172
f 237/309/210 222/305/206 221/320/181 238/330/191
f 223/308/209 218/301/202 217/318/169 224/319/182
f 219/304/205 214/297/198 213/316/155 220/317/167
f 184/292/193 208/291/192 201/331/212 181/332/213
f 238/330/191 239/329/178 240/310/211 237/309/210
