# Blender 4.2.0
# www.blender.org
mtllib Platform_R_5.mtl
o Platform_R_5
v -3.300789 -0.571429 -3.704987
v -3.300789 0.428571 -3.704987
v 4.699211 -0.571428 4.295013
v 4.699211 0.428572 4.295013
v 4.699211 -0.571429 -3.704987
v 4.699211 0.428571 -3.704987
v -0.986347 -0.571428 4.295013
v -3.300789 -0.571428 1.980572
v -3.300789 0.428572 1.980572
v -0.986347 0.428572 4.295013
v -1.390469 0.428571 -3.704987
v -1.226574 -0.571429 -3.704987
v 4.699211 0.428571 -3.170280
v 4.699211 -0.571429 -3.170280
v -3.300789 0.428571 -3.324974
v -3.300789 -0.571429 -3.324974
v -1.363457 0.428571 -3.170280
v 4.699211 0.428572 3.944279
v -3.300789 0.428572 1.731308
v -3.300789 -0.571428 1.731308
v 4.699211 -0.571428 3.944279
v -1.004066 0.428572 3.944279
v -0.545227 0.428572 4.295013
v -0.545227 -0.571428 4.295013
v -0.917995 0.428571 -3.704987
v -0.766815 -0.571429 -3.704987
v -0.893078 0.428571 -3.170280
v -0.561569 0.428572 3.944279
vn -0.0000 -0.0000 1.0000
vn -0.0000 -0.0000 -1.0000
vn 1.0000 -0.0000 -0.0000
vn -0.0000 1.0000 -0.0000
vn -1.0000 -0.0000 -0.0000
vn -0.7071 -0.0000 0.7071
vt 0.723736 0.766977
vt 0.687661 0.766977
vt 0.687661 0.751063
vt 0.723736 0.751063
vt 0.362984 0.667570
vt 0.399060 0.667570
vt 0.399060 0.736485
vt 0.362984 0.742397
vt 0.675008 0.992246
vt 0.675008 0.956171
vt 0.687661 0.956171
vt 0.687661 0.992246
vt 0.675008 0.766387
vt 0.675008 0.750424
vt 0.412769 0.631495
vt 0.412768 0.667570
vt 0.399060 0.631495
vt 0.713170 0.725554
vt 0.604167 0.667569
vt 0.629676 0.642060
vt 0.418349 0.737459
vt 0.362984 0.758983
vt 0.399060 0.753529
vt 0.399060 0.956171
vt 0.362985 0.956171
vt 0.595175 0.667569
vt 0.595175 0.631494
vt 0.418349 0.754428
vt 0.399060 0.992246
vt 0.418349 0.956171
vt 0.418349 0.992246
vt 0.604167 0.631494
vt 0.723736 0.956171
s 1
usemtl Platform_R_1_6
f 24/1/1 23/2/1 10/3/1 7/4/1
f 1/5/2 2/6/2 11/7/2 12/8/2
f 21/9/3 18/10/3 4/11/3 3/12/3
f 28/13/4 22/14/4 10/3/4 23/2/4
f 16/15/5 15/16/5 2/6/5 1/17/5
f 7/18/6 10/3/6 9/19/6 8/20/6
f 17/21/4 11/7/4 2/6/4 15/16/4
f 26/22/2 25/23/2 6/24/2 5/25/2
f 22/14/4 17/21/4 15/16/4 19/26/4
f 20/27/5 19/26/5 15/16/5 16/15/5
f 25/23/4 11/7/4 17/21/4 27/28/4
f 5/29/3 6/24/3 13/30/3 14/31/3
f 8/32/5 9/19/5 19/26/5 20/27/5
f 10/3/4 22/14/4 19/26/4 9/19/4
f 27/28/4 17/21/4 22/14/4 28/13/4
f 14/31/3 13/30/3 18/10/3 21/9/3
f 13/30/4 27/28/4 28/13/4 18/10/4
f 6/24/4 25/23/4 27/28/4 13/30/4
f 12/8/2 11/7/2 25/23/2 26/22/2
f 18/10/4 28/13/4 23/2/4 4/11/4
f 3/33/1 4/11/1 23/2/1 24/1/1
