# Blender 4.2.0
# www.blender.org
mtllib Platform_L_8.mtl
o Platform_L_8
v 11.582619 -0.971457 -0.330563
v 11.579918 1.026818 -0.247559
v -11.087311 -1.153333 3.309368
v -11.090012 0.844942 3.392372
v 8.479637 1.231512 -5.276430
v -9.723351 1.085474 -2.353722
v 8.482338 -0.766763 -5.359436
v -9.720650 -0.912801 -2.436726
v 7.602066 -1.057437 1.609638
v 4.893074 -1.102870 2.615143
v 7.599434 0.940840 1.692604
v 4.890274 0.895404 2.698174
v 2.014168 -1.138233 3.372688
v -0.839134 -1.161124 3.830818
v 2.011551 0.860043 3.455666
v -0.841934 0.837151 3.913830
v -3.810654 -1.172698 4.012634
v -6.698616 -1.172168 3.905785
v -3.813271 0.825578 4.095631
v -6.701416 0.826108 3.988777
v 5.540619 1.168030 -3.843899
v 2.831459 1.122594 -2.838329
v 1.073326 1.100998 -2.375702
v -1.780159 1.078105 -1.917538
v -3.594856 1.071037 -1.806507
v -6.483002 1.071567 -1.913361
v 2.834251 -0.875679 -2.921356
v 5.543243 -0.830247 -3.926865
v -1.777367 -0.920169 -2.000549
v 1.075935 -0.897277 -2.458683
v -6.480209 -0.926708 -1.996353
v -3.592247 -0.927238 -1.889503
vn -0.0014 0.9991 0.0415
vn 0.4385 -0.0367 0.8980
vn 0.3939 -0.0376 0.9184
vn 0.1101 -0.0411 0.9931
vn 0.0121 -0.0415 0.9991
vn -0.0859 -0.0415 0.9954
vn -0.1347 -0.0413 0.9900
vn -0.3939 0.0376 -0.9184
vn -0.4385 0.0367 -0.8980
vn -0.9729 0.0083 -0.2311
vn 0.1347 0.0413 -0.9900
vn 0.0859 0.0415 -0.9954
vn -0.2070 0.0403 -0.9775
vn -0.3019 0.0392 -0.9525
vn 0.8514 0.0229 -0.5240
vn -0.0121 0.0415 -0.9991
vn -0.1101 0.0411 -0.9931
vn 0.3019 -0.0392 0.9525
vn 0.2070 -0.0403 0.9775
vt 0.312393 0.767352
vt 0.288152 0.926907
vt 0.072301 0.867907
vt 0.091394 0.744943
vt 0.362808 0.937459
vt 0.312393 0.767352
vt 0.384718 0.775331
vt 0.328537 0.348620
vt 0.330648 0.455421
vt 0.109115 0.446680
vt 0.105326 0.373793
vt 0.302538 0.076172
vt 0.321342 0.242119
vt 0.094702 0.258567
vt 0.077590 0.130165
vt 0.328879 0.558755
vt 0.323140 0.663803
vt 0.103644 0.633318
vt 0.108368 0.561917
vt 0.404205 0.455870
vt 0.330648 0.455422
vt 0.328537 0.348620
vt 0.403020 0.345968
vt 0.396998 0.236973
vt 0.321342 0.242119
vt 0.380389 0.067996
vt 0.091394 0.744943
vt 0.000064 0.857138
vt 0.017039 0.736600
vt 0.059323 0.054058
vt 0.284270 0.000064
vt 0.094702 0.258567
vt 0.016427 0.266939
vt 0.000064 0.140173
vt 0.108368 0.561917
vt 0.027613 0.628388
vt 0.031417 0.559893
vt 0.268190 0.999937
vt 0.052339 0.940937
vt 0.105326 0.373793
vt 0.109115 0.446680
vt 0.031146 0.449246
vt 0.027002 0.379175
vt 0.395080 0.669665
vt 0.401602 0.561986
vt 0.328879 0.558755
s 1
usemtl Platform_L_5_9
f 11/1/1 2/2/1 5/3/1 21/4/1
f 1/5/2 2/2/2 11/6/3 9/7/3
f 19/8/1 16/9/1 24/10/1 25/11/1
f 4/12/1 20/13/1 26/14/1 6/15/1
f 15/16/1 12/17/1 22/18/1 23/19/1
f 14/20/4 16/21/4 19/22/5 17/23/5
f 18/24/6 20/25/6 4/12/7 3/26/7
f 21/27/8 5/3/9 7/28/9 28/29/8
f 4/12/10 6/15/10 8/30/10 3/31/10
f 6/15/11 26/32/12 31/33/12 8/34/11
f 23/35/13 22/18/14 27/36/14 30/37/13
f 5/3/15 2/2/15 1/38/15 7/39/15
f 25/40/16 24/41/17 29/42/17 32/43/16
f 12/17/18 10/44/18 9/7/3 11/6/3
f 16/21/4 14/20/4 13/45/19 15/46/19
f 20/25/6 18/24/6 17/23/5 19/22/5
f 22/18/1 12/17/1 11/1/1 21/4/1
f 24/10/1 16/9/1 15/16/1 23/19/1
f 26/14/1 20/13/1 19/8/1 25/11/1
f 23/35/13 30/37/13 29/42/17 24/41/17
f 31/33/12 26/32/12 25/40/16 32/43/16
f 27/36/14 22/18/14 21/27/8 28/29/8
f 10/44/18 12/17/18 15/46/19 13/45/19
