# Blender 4.2.0
# www.blender.org
mtllib Platform_R_3.mtl
o Platform_R_3
v -6.500000 -0.499999 4.000000
v -6.500000 0.500001 4.000000
v -6.500000 -0.500001 -4.000000
v -6.500000 0.499999 -4.000000
v 6.500000 -0.499999 4.000000
v 6.500000 0.500001 4.000000
v 6.500000 -0.500001 -4.000000
v 6.500000 0.499999 -4.000000
vn -1.0000 -0.0000 -0.0000
vn -0.0000 -0.0000 -1.0000
vn 1.0000 -0.0000 -0.0000
vn -0.0000 -0.0000 1.0000
vn -0.0000 1.0000 -0.0000
vt 0.254989 0.116901
vt 0.254989 0.141636
vt 0.057109 0.141636
vt 0.057109 0.116901
vt 0.032374 0.141636
vt 0.057109 0.463192
vt 0.032374 0.463192
vt 0.057109 0.487927
vt 0.254989 0.463192
vt 0.254989 0.487927
vt 0.279724 0.463192
vt 0.279724 0.141636
s 1
usemtl Platform_R_1_6
f 1/1/1 2/2/1 4/3/1 3/4/1
f 3/5/2 4/3/2 8/6/2 7/7/2
f 7/8/3 8/6/3 6/9/3 5/10/3
f 5/11/4 6/9/4 2/2/4 1/12/4
f 8/6/5 4/3/5 2/2/5 6/9/5
