# Blender 4.2.0
# www.blender.org
mtllib Platform_L_5.mtl
o Platform_L_5
v -14.999985 -0.500000 1.050697
v -14.999985 0.500000 1.050697
v -14.999985 -0.500001 -6.949303
v -14.999985 0.499999 -6.949303
v 15.000015 -0.500001 -6.949303
v 15.000015 0.499999 -6.949303
v 0.000015 -0.500001 -6.949303
v 0.000015 0.499999 -6.949303
v 0.000015 -0.500000 1.050697
v 0.000015 0.500000 1.050697
v 15.000015 0.500001 9.373222
v 15.000015 -0.499999 9.373222
v 0.000015 -0.499999 9.373222
v 0.000015 0.500001 9.373222
vn -1.0000 -0.0000 -0.0000
vn -0.0000 -0.0000 1.0000
vn -0.0000 1.0000 -0.0000
vn -0.0000 -0.0000 -1.0000
vn 1.0000 -0.0000 -0.0000
vt 0.485040 0.653214
vt 0.513038 0.653214
vt 0.513038 0.877192
vt 0.485040 0.877192
vt 0.485040 0.233253
vt 0.513038 0.233253
vt 0.999756 0.420205
vt 0.999756 0.840166
vt 0.775777 0.840166
vt 0.775777 0.420205
vt 0.541901 0.840166
vt 0.513904 0.840166
vt 0.513904 0.420205
vt 0.541902 0.420205
vt 0.485041 0.000244
vt 0.513038 0.000244
vt 0.456177 0.420205
vt 0.456176 0.000244
vt 0.484174 0.000244
vt 0.484174 0.420205
vt 0.542768 0.420205
vt 0.542768 0.000244
vt 0.999756 0.000244
vt 0.513904 0.000244
vt 0.541901 0.000244
vt 0.456176 0.877193
vt 0.484174 0.877193
s 0
usemtl Platform_L_5_9
f 1/1/1 2/2/1 4/3/1 3/4/1
f 9/5/2 10/6/2 2/2/2 1/1/2
f 8/7/3 4/8/3 2/9/3 10/10/3
f 3/11/4 4/12/4 8/13/4 7/14/4
f 10/6/1 9/5/1 13/15/1 14/16/1
f 11/17/2 14/18/2 13/19/2 12/20/2
f 10/10/3 14/21/3 11/22/3 6/23/3 8/7/3
f 6/24/4 5/25/4 7/14/4 8/13/4
f 6/26/5 11/17/5 12/20/5 5/27/5
