# Blender 4.2.0
# www.blender.org
mtllib Platform_R_6.mtl.mtl
o Platform_R_6
v -0.066246 -0.499999 5.903786
v -0.066246 0.500001 5.903786
v -7.692169 -0.500000 2.331955
v -7.692169 0.500000 2.331955
v 6.790741 -0.500000 -1.375069
v 6.790741 0.500000 -1.375069
v 0.967659 -0.500001 -6.860657
v 0.967659 0.499999 -6.860657
vn -0.4242 -0.0000 0.9056
vn -0.7279 -0.0000 -0.6857
vn 0.6857 -0.0000 -0.7279
vn 0.7279 -0.0000 0.6857
vn -0.0000 1.0000 -0.0000
vt 0.945099 0.082572
vt 0.937330 0.106211
vt 0.738270 0.040790
vt 0.746039 0.017151
vt 0.713387 0.040790
vt 0.738270 0.355036
vt 0.713387 0.355036
vt 0.738270 0.379919
vt 0.937330 0.355036
vt 0.937330 0.379919
vt 0.962213 0.355036
vt 0.962213 0.106211
s 1
usemtl Platform_R_1_6
f 1/1/1 2/2/1 4/3/1 3/4/1
f 3/5/2 4/3/2 8/6/2 7/7/2
f 7/8/3 8/6/3 6/9/3 5/10/3
f 5/11/4 6/9/4 2/2/4 1/12/4
f 8/6/5 4/3/5 2/2/5 6/9/5
