# Blender 4.2.0
# www.blender.org
mtllib Platform_End_L.mtl
o Platform_End_L
v -2.095551 -0.620688 9.578304
v -2.095551 0.379312 9.578304
v -2.095551 -0.620692 -14.421698
v -2.095551 0.379308 -14.421698
v 7.904449 -0.620688 9.578304
v 7.904449 0.379312 9.578304
v 7.904449 -0.620692 -14.421698
v 7.904449 0.379308 -14.421698
v 7.904449 -0.620691 -3.827553
v 7.904449 0.379309 -3.827553
v -7.671173 -0.620691 -3.827553
v -7.671173 -0.620688 9.578304
v -7.671173 0.379312 9.578304
v -7.671173 0.379309 -3.827553
v -4.655956 -0.620691 -3.827553
v -2.095551 -0.620692 -9.972524
v -2.095551 0.379308 -9.972524
v -4.655956 0.379309 -3.827553
v -2.095551 0.379310 2.518890
v 0.611042 0.379309 -3.827553
v 0.611042 0.379312 9.578304
v 0.611042 0.379308 -14.421698
v 0.611042 -0.620688 9.578304
v 0.611042 -0.620692 -14.421698
v -7.671173 -0.620690 2.518890
v -7.671173 0.379310 2.518890
v 7.503838 0.379308 -14.421698
v 7.503838 -0.620688 9.578304
v 7.503838 0.379309 -3.827553
v 7.503838 0.379312 9.578304
v 7.503838 -0.620692 -14.421698
v 7.904449 0.379310 0.731012
v 7.904449 -0.620690 0.731012
v -7.671173 -0.620689 4.919394
v -2.095551 0.379311 4.919394
v 0.611042 0.379310 0.731012
v -7.671173 0.379311 4.919394
v 7.503838 0.379310 0.731012
v 7.904449 -0.620691 -6.178144
v 7.904449 0.379309 -6.178144
v -2.095551 -0.620692 -10.959690
v -2.095551 0.379308 -10.959690
v 0.611042 0.379309 -6.178144
v 7.503838 0.379309 -6.178144
v 7.904449 0.379311 8.920429
v -7.671173 -0.620689 9.231873
v 0.611042 0.379311 8.920429
v 7.503838 0.379311 8.920429
v 7.904449 -0.620689 8.920429
v -2.095551 0.379311 9.231873
v -7.671173 0.379311 9.231873
v -7.177719 0.379312 9.578304
v -7.177719 -0.620688 9.578304
v -7.404320 -0.620691 -3.827553
v -7.404320 0.379309 -3.827553
v -7.177719 0.379310 2.518890
v -7.177719 0.379311 4.919394
v -7.177719 0.379311 9.231873
vn -0.0000 -0.0000 -1.0000
vn 1.0000 -0.0000 -0.0000
vn -0.0000 -0.0000 1.0000
vn -1.0000 -0.0000 -0.0000
vn -0.0000 1.0000 -0.0000
vn -0.9231 -0.0000 -0.3846
vt 0.712959 0.787814
vt 0.706461 0.802673
vt 0.702580 0.800961
vt 0.708994 0.786417
vt 0.826608 0.990205
vt 0.825231 0.975925
vt 0.863986 0.972025
vt 0.865259 0.986480
vt 0.984686 0.624090
vt 0.970342 0.623219
vt 0.970961 0.613807
vt 0.985257 0.614689
vt 0.966304 0.599119
vt 0.965238 0.613403
vt 0.866665 0.605576
vt 0.868003 0.591322
vt 0.804963 0.929360
vt 0.818597 0.926836
vt 0.811291 0.977701
vt 0.746445 0.658665
vt 0.740447 0.693904
vt 0.733133 0.692360
vt 0.739335 0.657514
vt 0.978429 0.842078
vt 0.963710 0.842651
vt 0.962893 0.807912
vt 0.977509 0.807803
vt 0.758042 0.577937
vt 0.756133 0.592063
vt 0.749153 0.591086
vt 0.751082 0.576988
vt 0.725024 0.655078
vt 0.718515 0.689230
vt 0.957779 0.842883
vt 0.852704 0.846195
vt 0.849554 0.809379
vt 0.956992 0.807938
vt 0.816396 0.911730
vt 0.757375 0.809508
vt 0.815784 0.705637
vt 0.802006 0.916583
vt 0.745497 0.822940
vt 0.964650 0.964636
vt 0.965633 0.979260
vt 0.854901 0.737138
vt 0.820005 0.669453
vt 0.970535 0.964271
vt 0.971487 0.978876
vt 0.828057 0.601457
vt 0.829720 0.587285
vt 0.694291 0.782582
vt 0.972018 0.599542
vt 0.957997 0.741144
vt 0.963820 0.741346
vt 0.865785 0.614991
vt 0.827473 0.606389
vt 0.734268 0.593895
vt 0.748447 0.595987
vt 0.978298 0.741824
vt 0.985257 0.963443
vt 0.734994 0.588990
vt 0.964572 0.622853
vt 0.755464 0.596980
s 0
usemtl Platform_Dalle
f 55/1/1 54/2/1 11/3/1 14/4/1
f 3/5/1 4/6/1 22/7/1 24/8/1
f 49/9/2 45/10/2 6/11/2 5/12/2
f 28/13/3 30/14/3 21/15/3 23/16/3
f 41/17/4 42/18/4 4/6/4 3/19/4
f 57/20/5 56/21/5 26/22/5 37/23/5
f 39/24/2 40/25/2 10/26/2 9/27/2
f 53/28/3 52/29/3 13/30/3 12/31/3
f 34/32/4 37/23/4 26/22/4 25/33/4
f 44/34/5 43/35/5 20/36/5 29/37/5
f 17/38/5 18/39/5 19/40/5 20/36/5
f 17/38/6 16/41/6 15/42/6 18/39/6
f 24/8/1 22/7/1 27/43/1 31/44/1
f 36/45/5 20/36/5 19/40/5 35/46/5
f 31/44/1 27/43/1 8/47/1 7/48/1
f 23/16/3 21/15/3 2/49/3 1/50/3
f 43/35/5 22/7/5 4/6/5 42/18/5
f 25/33/4 26/22/4 14/4/4 11/51/4
f 56/21/5 19/40/5 18/39/5 55/1/5
f 40/25/5 44/34/5 29/37/5 10/26/5
f 5/52/3 6/11/3 30/14/3 28/13/3
f 10/26/5 29/37/5 38/53/5 32/54/5
f 47/55/5 36/45/5 35/46/5 50/56/5
f 29/37/5 20/36/5 36/45/5 38/53/5
f 46/57/4 51/58/4 37/23/4 34/32/4
f 9/27/2 10/26/2 32/54/2 33/59/2
f 20/36/5 43/35/5 42/18/5 17/38/5
f 27/43/5 22/7/5 43/35/5 44/34/5
f 7/60/2 8/47/2 40/25/2 39/24/2
f 16/41/4 17/38/4 42/18/4 41/17/4
f 12/61/4 13/30/4 51/58/4 46/57/4
f 38/53/5 36/45/5 47/55/5 48/62/5
f 33/59/2 32/54/2 45/10/2 49/9/2
f 50/56/5 35/46/5 57/20/5 58/63/5
f 26/22/5 56/21/5 55/1/5 14/4/5
f 1/50/3 2/49/3 52/29/3 53/28/3
f 35/46/5 19/40/5 56/21/5 57/20/5
f 18/39/1 15/42/1 54/2/1 55/1/1
f 27/43/5 44/34/5 40/25/5 8/47/5
f 57/20/5 37/23/5 51/58/5 58/63/5
f 52/29/5 58/63/5 51/58/5 13/30/5
f 58/63/5 52/29/5 2/49/5 50/56/5
f 50/56/5 2/49/5 21/15/5 47/55/5
f 30/14/5 48/62/5 47/55/5 21/15/5
f 45/10/5 48/62/5 30/14/5 6/11/5
f 38/53/5 48/62/5 45/10/5 32/54/5
