# Blender 4.2.0
# www.blender.org
mtllib Platform_R_4.mtl.mtl
o Platform_R_4
v -18.427694 -0.714284 9.586098
v -18.427694 0.285716 9.586098
v -18.427694 -0.714285 1.586098
v -18.427694 0.285715 1.586098
v 6.572304 -0.714284 9.586098
v 6.572304 0.285716 9.586098
v 6.572304 -0.714285 1.586098
v 6.572304 0.285715 1.586098
v -5.927696 -0.714285 1.586098
v -5.927696 0.285715 1.586098
v -5.927696 -0.714284 9.586098
v -5.927696 0.285716 9.586098
v -5.927696 0.285714 -6.158566
v 6.572304 0.285714 -6.158566
v 6.572304 -0.714286 -6.158566
v -5.927696 -0.714286 -6.158566
v 6.572304 0.285715 1.276016
v -5.927696 0.285715 1.276016
v -5.927696 -0.714285 1.276016
v 6.572304 -0.714285 1.276016
v -5.646126 0.285715 1.586098
v -5.646126 -0.714284 9.586098
v -5.646126 0.285716 9.586098
v -5.646126 0.285714 -6.158566
v -5.646126 -0.714286 -6.158566
v -5.646126 0.285715 1.276016
v 6.572304 0.285714 -5.968414
v -5.927696 -0.714286 -5.968414
v -5.927696 0.285714 -5.968414
v 6.572304 -0.714286 -5.968414
v -5.646126 0.285714 -5.968414
v 6.251108 0.285715 1.586098
v 6.251108 -0.714284 9.586098
v 6.251108 0.285714 -6.158566
v 6.251108 0.285716 9.586098
v 6.251108 -0.714286 -6.158566
v 6.251108 0.285715 1.276016
v 6.251108 0.285714 -5.968414
v -5.461514 0.285714 -5.820248
v -5.461514 0.285714 -5.968414
v 0.302492 0.285716 9.586098
v 0.302492 -0.714286 -6.158566
v 0.302492 0.285715 1.276016
v 0.302492 0.285714 -5.968414
v 0.302492 0.285715 1.586098
v 0.302492 -0.714284 9.586098
v 0.302492 0.285714 -6.158566
v -5.461514 0.285715 1.107464
v -5.461514 0.285715 1.276016
v 6.251108 0.285715 1.107464
v -5.646126 0.285715 1.107464
v 4.105261 0.285715 1.586098
v 4.105261 -0.714284 9.586098
v 4.105261 0.285714 -6.158566
v 0.302492 0.285715 1.107464
v 2.203875 0.285715 1.107464
v 4.105261 0.285716 9.586098
v 4.105261 -0.714286 -6.158566
v 4.105261 0.285715 1.276016
v 4.105261 0.285714 -5.968414
v 4.105261 0.285715 1.107464
v 2.203875 0.285714 -5.820248
v 2.203875 0.285716 9.586098
v 2.203875 -0.714286 -6.158566
v 2.203875 0.285715 1.276016
v 2.203875 0.285714 -5.968414
v 0.302492 0.285714 -5.820248
v -5.646126 0.285714 -5.820248
v 2.203875 0.285715 1.586098
v 2.203875 -0.714284 9.586098
v 2.203875 0.285714 -6.158566
v 4.105261 0.285714 -5.820248
v 6.251108 0.285714 -5.820248
v 6.040243 0.285714 -5.968414
v 6.040243 0.285715 1.276016
v 6.040243 0.285715 1.107464
v 6.040243 0.285714 -5.820248
vn -1.0000 -0.0000 -0.0000
vn 1.0000 -0.0000 -0.0000
vn -0.0000 -0.0000 1.0000
vn -0.0000 1.0000 -0.0000
vn -0.0000 -0.0000 -1.0000
vt 0.319599 0.617467
vt 0.319599 0.596153
vt 0.490109 0.596153
vt 0.490109 0.617467
vt 0.490109 0.041997
vt 0.490109 0.063311
vt 0.319599 0.063311
vt 0.319599 0.041997
vt 0.298286 0.329732
vt 0.319599 0.329732
vt 0.298286 0.596153
vt 0.490109 0.329732
vt 0.490109 0.323731
vt 0.319599 0.323731
vt 0.298286 0.323731
vt 0.511423 0.596153
vt 0.511423 0.329732
vt 0.657567 0.074684
vt 0.639058 0.074684
vt 0.639058 0.068738
vt 0.657567 0.068738
vt 0.635538 0.318611
vt 0.635538 0.300102
vt 0.639058 0.300102
vt 0.639058 0.318611
vt 0.635538 0.068738
vt 0.635538 0.050229
vt 0.639058 0.050229
vt 0.495711 0.068739
vt 0.495711 0.050229
vt 0.501451 0.050229
vt 0.501451 0.068738
vt 0.495711 0.318611
vt 0.495711 0.300102
vt 0.501451 0.300102
vt 0.501451 0.318611
vt 0.657567 0.300102
vt 0.639058 0.294890
vt 0.657567 0.294890
vt 0.298286 0.196944
vt 0.319599 0.196944
vt 0.490109 0.196944
vt 0.632796 0.078586
vt 0.632796 0.074684
vt 0.635538 0.074684
vt 0.635538 0.078586
vt 0.490109 0.070157
vt 0.319599 0.070157
vt 0.298286 0.063311
vt 0.298286 0.070157
vt 0.657567 0.114401
vt 0.639058 0.114401
vt 0.639058 0.184787
vt 0.657567 0.184787
vt 0.632796 0.291473
vt 0.632796 0.184787
vt 0.635538 0.184787
vt 0.635538 0.291473
vt 0.490109 0.156418
vt 0.319599 0.156418
vt 0.298286 0.156418
vt 0.319599 0.115893
vt 0.298286 0.115893
vt 0.490109 0.115893
vt 0.632796 0.294890
vt 0.635538 0.294890
vt 0.501451 0.294890
vt 0.501451 0.291473
vt 0.504570 0.291473
vt 0.504570 0.294890
vt 0.657567 0.149594
vt 0.639058 0.149594
vt 0.632796 0.149594
vt 0.632796 0.114401
vt 0.635538 0.114401
vt 0.635538 0.149594
vt 0.501451 0.078586
vt 0.501451 0.074683
vt 0.504570 0.074684
vt 0.504570 0.078586
vt 0.501451 0.184787
vt 0.504570 0.184787
vt 0.501451 0.149594
vt 0.501451 0.114401
vt 0.504570 0.114401
vt 0.504570 0.149594
vt 0.495711 0.074684
vt 0.495711 0.294890
vt 0.495711 0.114401
vt 0.495711 0.149594
vt 0.495711 0.184787
s 0
usemtl Platform_R_1_6
f 1/1/1 2/2/1 4/3/1 3/4/1
f 7/5/2 8/6/2 6/7/2 5/8/2
f 11/9/3 12/10/3 2/2/3 1/11/3
f 10/12/4 4/3/4 2/2/4 12/10/4
f 21/13/4 10/12/4 12/10/4 23/14/4
f 22/15/3 23/14/3 12/10/3 11/9/3
f 3/16/5 4/3/5 10/12/5 9/17/5
f 36/18/5 34/19/5 14/20/5 15/21/5
f 28/22/1 29/23/1 13/24/1 16/25/1
f 27/26/2 30/27/2 15/28/2 14/20/2
f 8/29/2 7/30/2 20/31/2 17/32/2
f 9/33/1 10/34/1 18/35/1 19/36/1
f 16/37/5 13/24/5 24/38/5 25/39/5
f 46/40/3 41/41/3 23/14/3 22/15/3
f 45/42/4 21/13/4 23/14/4 41/41/4
f 17/32/2 20/31/2 30/27/2 27/26/2
f 19/36/1 18/35/1 29/23/1 28/22/1
f 77/43/4 73/44/4 38/45/4 74/46/4
f 8/6/4 32/47/4 35/48/4 6/7/4
f 5/49/3 6/7/3 35/48/3 33/50/3
f 58/51/5 54/52/5 34/19/5 36/18/5
f 25/39/5 24/38/5 47/53/5 42/54/5
f 39/55/4 67/56/4 44/57/4 40/58/4
f 69/59/4 45/42/4 41/41/4 63/60/4
f 70/61/3 63/60/3 41/41/3 46/40/3
f 33/50/3 35/48/3 57/62/3 53/63/3
f 32/47/4 52/64/4 57/62/4 35/48/4
f 68/65/4 39/55/4 40/58/4 31/66/4
f 26/67/4 49/68/4 48/69/4 51/70/4
f 51/70/4 48/69/4 39/55/4 68/65/4
f 64/71/5 71/72/5 54/52/5 58/51/5
f 62/73/4 72/74/4 60/75/4 66/76/4
f 75/77/4 37/78/4 50/79/4 76/80/4
f 49/68/4 43/81/4 55/82/4 48/69/4
f 65/83/4 59/84/4 61/85/4 56/86/4
f 43/81/4 65/83/4 56/86/4 55/82/4
f 67/56/4 62/73/4 66/76/4 44/57/4
f 42/54/5 47/53/5 71/72/5 64/71/5
f 76/80/4 50/79/4 73/44/4 77/43/4
f 48/69/4 55/82/4 67/56/4 39/55/4
f 53/63/3 57/62/3 63/60/3 70/61/3
f 52/64/4 69/59/4 63/60/4 57/62/4
f 56/86/4 61/85/4 72/74/4 62/73/4
f 55/82/4 56/86/4 62/73/4 67/56/4
f 29/23/4 18/35/4 51/70/4 68/65/4
f 13/24/4 29/23/4 68/65/4 31/66/4
f 13/24/4 31/66/4 40/58/4 24/38/4
f 24/38/4 40/58/4 44/57/4 47/53/4
f 71/72/4 47/53/4 44/57/4 66/76/4
f 71/72/4 66/76/4 60/75/4 54/52/4
f 61/85/4 76/80/4 77/43/4 72/74/4
f 59/84/4 75/77/4 76/80/4 61/85/4
f 72/74/4 77/43/4 74/46/4 60/75/4
f 34/19/4 54/52/4 60/75/4 74/46/4
f 14/20/4 34/19/4 74/46/4 38/45/4
f 14/20/4 38/45/4 73/44/4 27/26/4
f 27/26/4 73/44/4 50/79/4 17/32/4
f 17/32/4 50/79/4 37/78/4 8/29/4
f 8/29/4 37/78/4 75/77/4 32/87/4
f 18/35/4 10/34/4 26/67/4 51/70/4
f 10/34/4 21/88/4 49/68/4 26/67/4
f 75/77/4 59/84/4 52/89/4 32/87/4
f 59/84/4 65/83/4 69/90/4 52/89/4
f 65/83/4 43/81/4 45/91/4 69/90/4
f 43/81/4 49/68/4 21/88/4 45/91/4
