# Blender 4.2.0
# www.blender.org
mtllib Platform_L_9.mtl
o Platform_L_9
v 2.105202 -1.050025 3.572685
v 2.048653 0.948249 3.633503
v -3.572624 -1.164192 2.044380
v -3.629181 0.834083 2.105198
v 3.013245 1.152944 -2.194954
v -1.545815 1.061273 -3.422112
v 3.069794 -0.845331 -2.255772
v -1.489265 -0.937002 -3.482933
vn -0.2591 -0.0367 0.9652
vn -0.0283 0.9991 0.0304
vn 0.2591 0.0367 -0.9652
vn 0.9862 0.0229 0.1640
vn -0.9354 -0.0157 -0.3532
vt 0.201458 0.999900
vt 0.201457 0.797569
vt 0.796416 0.797569
vt 0.796415 0.999900
vt 0.260073 0.202432
vt 0.737799 0.202432
vt 0.260074 0.000100
vt 0.737799 0.000101
vt 0.000101 0.777738
vt 0.058716 0.182599
vt 0.939156 0.182598
vt 0.997772 0.777737
s 1
usemtl Platform_L_5_9
f 1/1/1 2/2/1 4/3/1 3/4/1
f 4/3/2 2/2/2 5/5/2 6/6/2
f 6/6/3 5/5/3 7/7/3 8/8/3
f 5/5/4 2/2/4 1/9/4 7/10/4
f 4/3/5 6/6/5 8/11/5 3/12/5
