# Blender 4.2.0
# www.blender.org
mtllib Platform_L_3.mtl
o Platform_L_3
v -2.994083 -0.695652 -0.179127
v -2.994083 0.304348 -0.179127
v -2.994083 -0.695654 -8.179127
v -2.994083 0.304346 -8.179127
v 3.005917 -0.695652 -0.179127
v 3.005917 0.304348 -0.179127
v 3.005917 -0.695654 -8.179127
v 3.005917 0.304346 -8.179127
v -2.994083 -0.695652 3.389130
v -2.994083 0.304348 3.389130
v 3.005917 0.304348 3.389130
v 3.005917 -0.695652 3.389130
v -2.994083 -0.695652 0.067177
v -2.994083 0.304348 0.067177
v 3.005917 -0.695652 0.067177
v 3.005917 0.304348 0.067177
v 2.856725 -0.695654 -8.179127
v 2.856725 0.304346 -8.179127
v 2.856725 0.304348 -0.179127
v 2.856725 -0.695652 3.389130
v 2.856725 0.304348 3.389130
v 2.856725 0.304348 0.067177
v -2.842856 -0.695654 -8.179127
v -2.842856 0.304348 -0.179127
v -2.842856 0.304348 3.389130
v -2.842856 0.304346 -8.179127
v -2.842856 -0.695652 3.389130
v -2.842856 0.304348 0.067177
v -2.994083 -0.695652 3.176674
v 3.005917 -0.695652 3.176674
v -2.994083 0.304348 3.176674
v 3.005917 0.304348 3.176674
v 2.856725 0.304348 3.176674
v -2.842856 0.304348 3.176674
v -2.684374 0.304348 0.067177
v -2.684374 0.304348 3.176674
v 2.623603 0.304348 0.067177
v 2.623603 0.304348 3.176674
v -2.842856 0.304348 2.974533
v 2.856725 0.304348 2.974533
v -2.684374 0.304348 2.974533
v 2.623603 0.304348 2.974533
v 2.856725 0.304348 0.386417
v -2.842856 0.304348 0.386417
v -2.684374 0.304348 0.386417
v 2.623603 0.304348 0.386417
vn -1.0000 -0.0000 -0.0000
vn -0.0000 -0.0000 -1.0000
vn 1.0000 -0.0000 -0.0000
vn -0.0000 1.0000 -0.0000
vn -0.0000 -0.0000 1.0000
vt 0.604417 0.343646
vt 0.566262 0.343646
vt 0.566262 0.038400
vt 0.604417 0.038400
vt 0.343019 0.000244
vt 0.343019 0.038400
vt 0.337327 0.038400
vt 0.337327 0.000244
vt 0.299171 0.038400
vt 0.337327 0.343646
vt 0.299171 0.343646
vt 0.566262 0.471690
vt 0.604417 0.471690
vt 0.604417 0.479796
vt 0.566262 0.479796
vt 0.560491 0.038400
vt 0.560491 0.343646
vt 0.560491 0.517952
vt 0.560491 0.479796
vt 0.566262 0.517952
vt 0.299171 0.471690
vt 0.337327 0.471690
vt 0.337327 0.479796
vt 0.299171 0.479796
vt 0.337327 0.353044
vt 0.299171 0.353044
vt 0.604417 0.353044
vt 0.566262 0.353044
vt 0.337327 0.517952
vt 0.343019 0.479796
vt 0.343019 0.517952
vt 0.343019 0.343646
vt 0.560491 0.000244
vt 0.566262 0.000244
vt 0.554444 0.463977
vt 0.560491 0.463977
vt 0.560491 0.471690
vt 0.554444 0.471690
vt 0.351914 0.463977
vt 0.351914 0.471690
vt 0.343019 0.463977
vt 0.343019 0.471690
vt 0.343019 0.365225
vt 0.351914 0.365225
vt 0.554444 0.365225
vt 0.560491 0.365225
vt 0.554444 0.353044
vt 0.560491 0.353044
vt 0.351914 0.353044
vt 0.343019 0.353044
s 0
usemtl Platform_L_1_4
f 1/1/1 2/2/1 4/3/1 3/4/1
f 17/5/2 18/6/2 8/7/2 7/8/2
f 7/9/3 8/7/3 6/10/3 5/11/3
f 31/12/1 29/13/1 9/14/1 10/15/1
f 26/16/4 4/3/4 2/2/4 24/17/4
f 27/18/5 25/19/5 10/15/5 9/20/5
f 30/21/3 32/22/3 11/23/3 12/24/3
f 5/11/3 6/10/3 16/25/3 15/26/3
f 2/2/1 1/1/1 13/27/1 14/28/1
f 12/29/5 11/23/5 21/30/5 20/31/5
f 8/7/4 18/6/4 19/32/4 6/10/4
f 23/33/2 26/16/2 18/6/2 17/5/2
f 3/34/2 4/3/2 26/16/2 23/33/2
f 20/31/5 21/30/5 25/19/5 27/18/5
f 18/6/4 26/16/4 24/17/4 19/32/4
f 41/35/4 39/36/4 34/37/4 36/38/4
f 15/26/3 16/25/3 32/22/3 30/21/3
f 14/28/1 13/27/1 29/13/1 31/12/1
f 42/39/4 41/35/4 36/38/4 38/40/4
f 40/41/4 42/39/4 38/40/4 33/42/4
f 43/43/4 46/44/4 42/39/4 40/41/4
f 46/44/4 45/45/4 41/35/4 42/39/4
f 45/45/4 44/46/4 39/36/4 41/35/4
f 35/47/4 28/48/4 44/46/4 45/45/4
f 37/49/4 35/47/4 45/45/4 46/44/4
f 22/50/4 37/49/4 46/44/4 43/43/4
f 31/12/4 39/36/4 44/46/4 14/28/4
f 10/15/4 34/37/4 39/36/4 31/12/4
f 25/19/4 36/38/4 34/37/4 10/15/4
f 21/30/4 38/40/4 36/38/4 25/19/4
f 11/23/4 33/42/4 38/40/4 21/30/4
f 32/22/4 40/41/4 33/42/4 11/23/4
f 16/25/4 43/43/4 40/41/4 32/22/4
f 6/10/4 22/50/4 43/43/4 16/25/4
f 37/49/4 22/50/4 6/10/4 19/32/4
f 19/32/4 24/17/4 35/47/4 37/49/4
f 24/17/4 2/2/4 28/48/4 35/47/4
f 14/28/4 44/46/4 28/48/4 2/2/4
