# Blender 4.2.0
# www.blender.org
mtllib Platform_End_M.mtl
o Platform_End_M
v -2.528980 -1.232978 0.867129
v -2.528980 -1.232978 -2.636003
v -2.528980 -1.232978 0.770010
v -2.528980 -1.232978 -2.346044
v -2.528980 -1.232978 0.626407
v -2.528980 -1.232977 0.380503
v -2.528980 -1.232978 0.236900
v -2.528980 -1.232978 -0.009004
v -2.528980 -1.232978 -0.152606
v -2.528980 -1.232978 -0.398510
v -2.528980 -1.232978 -0.542113
v -2.528980 -1.232978 -0.788017
v -2.528980 -1.232978 -0.931620
v -2.528980 -1.232978 -1.177524
v -2.528980 -1.232978 -1.321126
v -2.528980 -1.232978 -1.567030
v -2.528980 -1.232978 -1.710633
v -2.528980 -1.232978 -1.956537
v -2.528980 -1.232978 -2.100140
v 0.119759 -1.232978 0.867129
v 0.119759 0.767023 0.867129
v 0.119759 0.567406 0.626407
v 0.119759 0.567406 0.380503
v 0.119759 0.367789 0.236900
v 0.119759 0.367789 -0.009004
v 0.119759 0.168172 -0.152606
v 0.119759 0.168172 -0.398510
v 0.119759 -0.031446 -0.542113
v 0.119759 -0.031446 -0.788017
v 0.119759 -0.231063 -0.931620
v 0.119759 -0.231063 -1.177524
v 0.119759 -0.430680 -1.321126
v 0.119759 -0.430680 -1.567030
v 0.119759 -0.630297 -1.710633
v 0.119759 -0.630297 -1.956537
v 0.119759 -0.829914 -2.100140
v 0.119759 -0.829914 -2.636003
v -2.339439 -1.232978 0.867129
v -2.339439 0.567406 0.626407
v -2.339439 0.567406 0.380503
v -2.339439 0.367789 0.236900
v -2.339439 0.367789 -0.009004
v -2.339439 0.168172 -0.152606
v -2.339439 0.168172 -0.398510
v -2.339439 -0.031446 -0.542113
v -2.339439 -0.031446 -0.788017
v -2.339439 -0.231063 -0.931620
v -2.339439 -0.231063 -1.177524
v -2.339439 -0.430680 -1.321126
v -2.339439 -0.430680 -1.567030
v -2.339439 -0.630297 -1.710633
v -2.339439 -0.630297 -1.956537
v -2.339439 -0.829914 -2.100140
v -2.339439 -0.804587 -2.636003
v -2.339439 0.808611 0.867129
v -2.339439 -0.232978 -2.636004
v -2.528980 -0.232978 -2.636004
v -2.339439 1.767023 0.867129
v -2.528980 1.767023 0.867129
v -2.528980 1.567406 0.626407
v -2.528980 1.767023 0.770009
v -2.339439 1.567406 0.626407
v -2.528980 1.567406 0.380503
v -2.339439 1.567406 0.380503
v -2.528980 1.367789 0.236900
v -2.339439 1.367789 0.236900
v -2.528980 1.367789 -0.009004
v -2.339439 1.367789 -0.009004
v -2.528980 1.168172 -0.152607
v -2.339439 1.168172 -0.152607
v -2.528980 1.168172 -0.398511
v -2.339439 1.168172 -0.398511
v -2.528980 0.968555 -0.542114
v -2.339439 0.968555 -0.542114
v -2.528980 0.968554 -0.788018
v -2.339439 0.968554 -0.788018
v -2.528980 0.768937 -0.931621
v -2.339439 0.768937 -0.931621
v -2.528980 0.768937 -1.177525
v -2.339439 0.768937 -1.177525
v -2.528980 0.569320 -1.321127
v -2.339439 0.569320 -1.321127
v -2.528980 0.569320 -1.567031
v -2.339439 0.569320 -1.567031
v -2.528980 0.369703 -1.710633
v -2.339439 0.369703 -1.710633
v -2.528980 0.369703 -1.956537
v -2.339439 0.369703 -1.956537
v -2.528980 0.170086 -2.100140
v -2.339439 0.170086 -2.100140
v -2.528980 0.170086 -2.346044
v -2.339439 0.170086 -2.346044
v -2.339439 1.767023 0.770009
v -2.528980 -0.804587 -2.636003
v 0.119759 -0.829914 -4.931298
v -2.339439 -0.804587 -4.931298
v -2.339439 -1.232978 -4.931298
v 0.119759 -1.232978 -4.931298
v -2.528980 -1.232978 -4.931298
v -2.528980 -0.804587 -4.931298
v -2.528980 -0.232978 -4.931298
v -2.339439 -0.232978 -4.931298
v -2.528980 0.352547 -0.152606
v -2.528980 0.056684 -0.788017
v -2.528980 0.171054 -0.542113
v -2.528980 -0.010440 -0.931620
v -2.528980 0.419548 -0.009004
v -2.528980 -0.488070 -1.956537
v -2.528980 -0.191928 -1.321126
v -2.528980 0.715471 0.626407
v -2.528980 -0.669435 -2.346044
v -2.528980 0.782319 0.770009
v -2.528980 0.601010 0.380503
v -2.528980 -0.306437 -1.567030
v -2.528980 -0.124839 -1.177524
v -2.528980 -0.555022 -2.100140
v -2.528980 0.237796 -0.398510
v -2.528980 0.533966 0.236900
v -2.528980 -0.373662 -1.710633
v -2.528980 0.827680 0.867129
v 2.768497 -1.232978 0.867129
v 2.768497 -1.232978 -2.636003
v 2.768497 -1.232978 0.770010
v 2.768497 -1.232978 -2.346044
v 2.768497 -1.232978 0.626407
v 2.768497 -1.232977 0.380503
v 2.768497 -1.232978 0.236900
v 2.768497 -1.232978 -0.009004
v 2.768497 -1.232978 -0.152606
v 2.768497 -1.232978 -0.398510
v 2.768497 -1.232978 -0.542113
v 2.768497 -1.232978 -0.788017
v 2.768497 -1.232978 -0.931620
v 2.768497 -1.232978 -1.177524
v 2.768497 -1.232978 -1.321126
v 2.768497 -1.232978 -1.567030
v 2.768497 -1.232978 -1.710633
v 2.768497 -1.232978 -1.956537
v 2.768497 -1.232978 -2.100140
v 2.578957 -1.232978 0.867129
v 2.578957 0.567406 0.626407
v 2.578957 0.567406 0.380503
v 2.578957 0.367789 0.236900
v 2.578957 0.367789 -0.009004
v 2.578957 0.168172 -0.152606
v 2.578957 0.168172 -0.398510
v 2.578957 -0.031446 -0.542113
v 2.578957 -0.031446 -0.788017
v 2.578957 -0.231063 -0.931620
v 2.578957 -0.231063 -1.177524
v 2.578957 -0.430680 -1.321126
v 2.578957 -0.430680 -1.567030
v 2.578957 -0.630297 -1.710633
v 2.578957 -0.630297 -1.956537
v 2.578957 -0.829914 -2.100140
v 2.578957 -0.804587 -2.636003
v 2.578957 0.808611 0.867129
v 2.578957 -0.232978 -2.636004
v 2.768497 -0.232978 -2.636004
v 2.578957 1.767023 0.867129
v 2.768497 1.767023 0.867129
v 2.768497 1.567406 0.626407
v 2.768497 1.767023 0.770009
v 2.578957 1.567406 0.626407
v 2.768497 1.567406 0.380503
v 2.578957 1.567406 0.380503
v 2.768497 1.367789 0.236900
v 2.578957 1.367789 0.236900
v 2.768497 1.367789 -0.009004
v 2.578957 1.367789 -0.009004
v 2.768497 1.168172 -0.152607
v 2.578957 1.168172 -0.152607
v 2.768497 1.168172 -0.398511
v 2.578957 1.168172 -0.398511
v 2.768497 0.968555 -0.542114
v 2.578957 0.968555 -0.542114
v 2.768497 0.968554 -0.788018
v 2.578957 0.968554 -0.788018
v 2.768497 0.768937 -0.931621
v 2.578957 0.768937 -0.931621
v 2.768497 0.768937 -1.177525
v 2.578957 0.768937 -1.177525
v 2.768497 0.569320 -1.321127
v 2.578957 0.569320 -1.321127
v 2.768497 0.569320 -1.567031
v 2.578957 0.569320 -1.567031
v 2.768497 0.369703 -1.710633
v 2.578957 0.369703 -1.710633
v 2.768497 0.369703 -1.956537
v 2.578957 0.369703 -1.956537
v 2.768497 0.170086 -2.100140
v 2.578957 0.170086 -2.100140
v 2.768497 0.170086 -2.346044
v 2.578957 0.170086 -2.346044
v 2.578957 1.767023 0.770009
v 2.768497 -0.804587 -2.636003
v 2.578957 -0.804587 -4.931298
v 2.578957 -1.232978 -4.931298
v 2.768497 -1.232978 -4.931298
v 2.768497 -0.804587 -4.931298
v 2.768497 -0.232978 -4.931298
v 2.578957 -0.232978 -4.931298
v 2.768497 0.352547 -0.152606
v 2.768497 0.056684 -0.788017
v 2.768497 0.171054 -0.542113
v 2.768497 -0.010440 -0.931620
v 2.768497 0.419548 -0.009004
v 2.768497 -0.488070 -1.956537
v 2.768497 -0.191928 -1.321126
v 2.768497 0.715471 0.626407
v 2.768497 -0.669435 -2.346044
v 2.768497 0.782319 0.770009
v 2.768497 0.601010 0.380503
v 2.768497 -0.306437 -1.567030
v 2.768497 -0.124839 -1.177524
v 2.768497 -0.555022 -2.100140
v 2.768497 0.237796 -0.398510
v 2.768497 0.533966 0.236900
v 2.768497 -0.373662 -1.710633
v 2.768497 0.827680 0.867129
v -2.508644 -1.419734 4.128699
v -2.508644 -0.919734 4.128699
v 2.781578 -1.419734 4.128699
v 2.781578 -0.919734 4.128699
v -2.508644 -1.419735 0.838566
v -2.508644 -0.919735 0.838566
v 2.781578 -1.419735 0.838566
v 2.781578 -0.919735 0.838566
v 2.781578 0.762082 0.838565
v 2.781578 0.766996 4.128699
v -2.508644 0.766996 4.128699
v -2.508644 0.766995 0.838566
v -5.457478 0.766996 4.128699
v 0.136467 -0.919735 0.838566
v 0.136467 -1.419735 0.838566
v 0.136467 0.766996 4.128699
v 0.136467 0.766995 0.838566
v 2.601353 -0.919735 0.838566
v 2.601353 0.760393 0.838565
v -5.457478 -0.919734 4.128699
v 2.601353 -1.419735 0.838566
v 2.601353 0.766996 4.128699
v -5.457478 -1.419734 4.128699
v -2.332256 -1.419735 0.838566
v -2.332256 0.766996 4.128699
v -2.332256 -0.919735 0.838566
v -2.332256 0.766995 0.838566
v 2.781578 1.766995 0.838565
v 2.781578 1.766996 4.128698
v 2.601353 1.766995 0.838565
v 2.601353 1.766996 4.128698
v -2.332256 1.766996 4.128698
v -2.508644 1.766996 4.128698
v -2.508644 1.766995 0.838565
v -2.332256 1.766995 0.838565
v -2.508644 -1.419734 7.890721
v -2.508644 -0.919734 7.890721
v 2.781578 -0.919734 7.890721
v 2.781578 -1.419734 7.890721
v 2.601353 -1.419734 7.890721
v -2.332256 -0.919734 7.890721
v -2.332256 0.766996 7.890721
v -2.508644 0.766996 7.890721
v 2.781578 0.766996 7.890721
v -2.332256 -1.419734 7.890721
v 0.136467 -1.419734 7.890721
v 2.601353 -0.919734 7.890721
v 0.136467 -0.919734 7.890721
v 2.601353 0.766996 7.890721
v 0.136467 0.766996 7.890721
v -5.457478 -1.419734 7.890721
v -5.457478 0.766996 7.890721
v -5.457478 -0.919734 7.890721
vn 1.0000 -0.0000 -0.0000
vn 0.0019 1.0000 -0.0087
vn -0.0178 0.9998 0.0007
vn 0.0280 0.9996 0.0007
vn -0.0005 1.0000 -0.0085
vn -0.0000 0.5840 -0.8118
vn -0.0000 1.0000 -0.0000
vn 0.0160 0.6684 -0.7436
vn 0.0151 0.6746 -0.7380
vn 0.0160 0.6677 -0.7442
vn 0.0151 0.6740 -0.7386
vn -1.0000 -0.0000 -0.0000
vn -0.0202 0.0249 0.9995
vn -0.0196 0.0241 0.9995
vn -0.0202 0.0248 0.9995
vn -0.0000 -0.0000 1.0000
vn -0.0561 0.3240 -0.9444
vn -0.0407 0.2545 -0.9662
vn 0.2254 0.2235 -0.9483
vn -0.1893 0.1893 -0.9635
vn -0.0000 -0.0000 -1.0000
vn -0.0216 0.9998 0.0056
vn 0.0334 0.9992 0.0230
vn 0.0333 0.9992 -0.0231
vn 0.0047 0.9995 -0.0319
vn -0.0019 1.0000 -0.0087
vn 0.0005 1.0000 -0.0085
vn -0.0280 0.9996 0.0007
vn 0.0178 0.9998 0.0007
vn -0.0160 0.6685 -0.7436
vn -0.0151 0.6740 -0.7386
vn -0.0160 0.6677 -0.7442
vn -0.0151 0.6746 -0.7380
vn 0.0202 0.0249 0.9995
vn 0.0196 0.0241 0.9995
vn 0.0202 0.0248 0.9995
vn 0.0561 0.3239 -0.9444
vn 0.1893 0.1892 -0.9635
vn -0.2254 0.2234 -0.9483
vn 0.0407 0.2544 -0.9662
vn 0.0216 0.9998 0.0056
vn -0.0047 0.9995 -0.0319
vn -0.0333 0.9992 -0.0231
vn -0.0334 0.9992 0.0230
vn -0.7069 -0.0000 0.7074
vn -0.7069 -0.7074 -0.0000
vn -0.0000 0.7074 -0.7069
vn 0.7074 -0.0000 -0.7069
vt 0.240555 0.065124
vt 0.224617 0.098389
vt 0.214638 0.103846
vt 0.233231 0.065038
vt 0.303797 0.350676
vt 0.303642 0.257319
vt 0.323985 0.257319
vt 0.324155 0.350649
vt 0.294469 0.350693
vt 0.294298 0.257319
vt 0.285141 0.350710
vt 0.284951 0.257318
vt 0.275812 0.350730
vt 0.275600 0.257318
vt 0.266484 0.350753
vt 0.266244 0.257318
vt 0.257156 0.350778
vt 0.256884 0.257318
vt 0.247828 0.350807
vt 0.247518 0.257318
vt 0.238501 0.350840
vt 0.238146 0.257318
vt 0.229173 0.350878
vt 0.228766 0.257318
vt 0.219845 0.350921
vt 0.219379 0.257318
vt 0.210517 0.350971
vt 0.209982 0.257318
vt 0.201189 0.351028
vt 0.200575 0.257318
vt 0.191861 0.351093
vt 0.191155 0.257319
vt 0.182534 0.351168
vt 0.181721 0.257319
vt 0.173206 0.351255
vt 0.172271 0.257319
vt 0.160348 0.351402
vt 0.160242 0.257316
vt 0.494923 0.918632
vt 0.494923 0.891735
vt 0.602930 0.891735
vt 0.602930 0.918632
vt 0.494923 0.882816
vt 0.602930 0.882816
vt 0.240183 0.407515
vt 0.231361 0.402941
vt 0.249964 0.367064
vt 0.258786 0.371639
vt 0.244385 0.409593
vt 0.250790 0.409707
vt 0.265796 0.443365
vt 0.257211 0.438360
vt 0.249049 0.403025
vt 0.267652 0.367149
vt 0.168407 0.408328
vt 0.181333 0.408545
vt 0.195149 0.439532
vt 0.177813 0.429427
vt 0.209654 0.409006
vt 0.216061 0.409124
vt 0.230472 0.441449
vt 0.221887 0.436444
vt 0.257871 0.407600
vt 0.276474 0.371723
vt 0.285515 0.410281
vt 0.296474 0.410458
vt 0.310196 0.441235
vt 0.301120 0.445281
vt 0.320239 0.410852
vt 0.324570 0.410928
vt 0.340028 0.445599
vt 0.336443 0.447198
vt 0.266737 0.403109
vt 0.285339 0.367233
vt 0.261748 0.409882
vt 0.274872 0.439318
vt 0.275559 0.407684
vt 0.294161 0.371807
vt 0.227021 0.409304
vt 0.239549 0.437402
vt 0.284424 0.403194
vt 0.303027 0.367317
vt 0.302878 0.410569
vt 0.318781 0.446239
vt 0.293246 0.407768
vt 0.311849 0.371892
vt 0.192293 0.408721
vt 0.204225 0.435486
vt 0.082889 0.350708
vt 0.083729 0.257313
vt 0.585375 0.781453
vt 0.596122 0.781453
vt 0.596122 0.786959
vt 0.585375 0.786959
vt 0.596122 0.530219
vt 0.596122 0.558372
vt 0.585375 0.558372
vt 0.585375 0.530219
vt 0.585375 0.767510
vt 0.596122 0.767510
vt 0.585375 0.753568
vt 0.596122 0.753568
vt 0.585375 0.739625
vt 0.596122 0.739625
vt 0.585375 0.725683
vt 0.596122 0.725683
vt 0.585375 0.711740
vt 0.596122 0.711740
vt 0.585375 0.697797
vt 0.596122 0.697797
vt 0.585375 0.683855
vt 0.596122 0.683855
vt 0.585375 0.669912
vt 0.596122 0.669912
vt 0.585375 0.655970
vt 0.596122 0.655970
vt 0.585375 0.642027
vt 0.596122 0.642027
vt 0.585375 0.628085
vt 0.596122 0.628085
vt 0.585375 0.614142
vt 0.596122 0.614142
vt 0.585375 0.600200
vt 0.596122 0.600200
vt 0.585375 0.586257
vt 0.596122 0.586257
vt 0.585375 0.572314
vt 0.596122 0.572314
vt 0.324057 0.403677
vt 0.338402 0.367485
vt 0.341886 0.369292
vt 0.596122 0.840219
vt 0.585375 0.841301
vt 0.279112 0.410171
vt 0.292534 0.440276
vt 0.222496 0.407431
vt 0.241099 0.371555
vt 0.198695 0.408830
vt 0.212810 0.440490
vt 0.313838 0.410747
vt 0.327858 0.442193
vt 0.168367 0.396386
vt 0.179000 0.375878
vt 0.196901 0.366812
vt 0.213674 0.402857
vt 0.232276 0.366980
vt 0.233426 0.409417
vt 0.248134 0.442407
vt 0.204808 0.407347
vt 0.223411 0.371470
vt 0.268147 0.409982
vt 0.283458 0.444323
vt 0.195986 0.402773
vt 0.214589 0.366896
vt 0.310934 0.407852
vt 0.329537 0.371976
vt 0.187121 0.407263
vt 0.205723 0.371386
vt 0.302112 0.403278
vt 0.320714 0.367401
vt 0.082341 0.411374
vt 0.082390 0.405925
vt 0.138201 0.406423
vt 0.135620 0.411850
vt 0.082075 0.440939
vt 0.082124 0.435489
vt 0.124178 0.435863
vt 0.121584 0.441290
vt 0.082657 0.376364
vt 0.082741 0.367033
vt 0.156670 0.367695
vt 0.152244 0.376987
vt 0.081811 0.470506
vt 0.081859 0.465056
vt 0.110132 0.465306
vt 0.107543 0.470734
vt 0.082474 0.396594
vt 0.142638 0.397131
vt 0.082208 0.426156
vt 0.128602 0.426570
vt 0.082790 0.361584
vt 0.159255 0.362269
vt 0.081942 0.455722
vt 0.114556 0.456012
vt 0.082523 0.391144
vt 0.145228 0.391704
vt 0.082824 0.357899
vt 0.161008 0.358599
vt 0.081727 0.479840
vt 0.103118 0.480029
vt 0.082607 0.381813
vt 0.149652 0.382413
vt 0.081991 0.450271
vt 0.117156 0.450584
vt 0.184166 0.950465
vt 0.184085 0.934418
vt 0.270062 0.933981
vt 0.270143 0.950028
vt 0.082257 0.420706
vt 0.131197 0.421143
vt 0.081630 0.490846
vt 0.097891 0.490990
vt 0.277243 0.949992
vt 0.277162 0.933945
vt 0.369616 0.934396
vt 0.369616 0.949553
vt 0.629827 0.882816
vt 0.629827 0.891735
vt 0.494923 0.855919
vt 0.602930 0.855919
vt 0.277447 0.847804
vt 0.369745 0.848110
vt 0.303801 0.163960
vt 0.324160 0.163988
vt 0.294473 0.163943
vt 0.285145 0.163924
vt 0.275817 0.163904
vt 0.266489 0.163881
vt 0.257160 0.163855
vt 0.247832 0.163825
vt 0.238504 0.163792
vt 0.229175 0.163753
vt 0.219847 0.163710
vt 0.210518 0.163659
vt 0.201190 0.163602
vt 0.191861 0.163536
vt 0.182533 0.163460
vt 0.173204 0.163373
vt 0.160346 0.163227
vt 0.240560 0.924013
vt 0.118425 0.924013
vt 0.118425 0.893597
vt 0.240560 0.893597
vt 0.118425 0.883511
vt 0.240560 0.883511
vt 0.276149 0.144491
vt 0.253959 0.103909
vt 0.263939 0.098452
vt 0.286128 0.139035
vt 0.260430 0.065338
vt 0.244853 0.097847
vt 0.234874 0.103304
vt 0.253098 0.065268
vt 0.265891 0.139577
vt 0.243702 0.098994
vt 0.315820 0.101136
vt 0.332599 0.066118
vt 0.347394 0.066275
vt 0.335971 0.090118
vt 0.300183 0.065756
vt 0.285327 0.096763
vt 0.275347 0.102220
vt 0.292849 0.065690
vt 0.255912 0.145033
vt 0.233722 0.104451
vt 0.213352 0.064835
vt 0.194401 0.104388
vt 0.184144 0.099474
vt 0.200808 0.064693
vt 0.173607 0.064398
vt 0.153928 0.105472
vt 0.149877 0.103531
vt 0.168650 0.064349
vt 0.245655 0.140119
vt 0.223465 0.099536
vt 0.235676 0.145575
vt 0.213486 0.104993
vt 0.265090 0.097305
vt 0.280304 0.065552
vt 0.225418 0.140661
vt 0.203229 0.100078
vt 0.174164 0.104930
vt 0.193478 0.064619
vt 0.215439 0.146117
vt 0.193249 0.105535
vt 0.305563 0.096221
vt 0.320055 0.065976
vt 0.082897 0.163925
vt 0.143580 0.594298
vt 0.143580 0.588777
vt 0.154355 0.588777
vt 0.154355 0.594298
vt 0.154355 0.846191
vt 0.143580 0.846191
vt 0.143580 0.817964
vt 0.154355 0.817964
vt 0.154355 0.608278
vt 0.143580 0.608278
vt 0.154355 0.622257
vt 0.143580 0.622257
vt 0.154355 0.636236
vt 0.143580 0.636236
vt 0.154355 0.650215
vt 0.143580 0.650215
vt 0.154355 0.664194
vt 0.143580 0.664194
vt 0.154355 0.678173
vt 0.143580 0.678173
vt 0.154355 0.692152
vt 0.143580 0.692152
vt 0.154355 0.706131
vt 0.143580 0.706131
vt 0.154355 0.720111
vt 0.143580 0.720111
vt 0.154355 0.734090
vt 0.143580 0.734090
vt 0.154355 0.748069
vt 0.143580 0.748069
vt 0.154355 0.762048
vt 0.143580 0.762048
vt 0.154355 0.776027
vt 0.143580 0.776027
vt 0.154355 0.790006
vt 0.143580 0.790006
vt 0.154355 0.803985
vt 0.143580 0.803985
vt 0.180081 0.142212
vt 0.158814 0.103317
vt 0.162756 0.101162
vt 0.154355 0.535378
vt 0.143580 0.534294
vt 0.220681 0.064910
vt 0.204380 0.098931
vt 0.274196 0.103367
vt 0.296385 0.143949
vt 0.312727 0.065898
vt 0.295584 0.101678
vt 0.180933 0.064479
vt 0.163907 0.100016
vt 0.358043 0.129947
vt 0.324648 0.096826
vt 0.345359 0.106749
vt 0.284175 0.097910
vt 0.306365 0.138493
vt 0.272973 0.065481
vt 0.255111 0.102762
vt 0.294432 0.102825
vt 0.316622 0.143407
vt 0.304412 0.097368
vt 0.326601 0.137951
vt 0.173013 0.106077
vt 0.195202 0.146659
vt 0.314669 0.102283
vt 0.336858 0.142865
vt 0.182992 0.100620
vt 0.205182 0.141203
vt 0.082348 0.103270
vt 0.135615 0.102790
vt 0.138196 0.108216
vt 0.082397 0.108718
vt 0.082081 0.073715
vt 0.121578 0.073358
vt 0.124172 0.078783
vt 0.082130 0.079163
vt 0.082665 0.138273
vt 0.152241 0.137646
vt 0.156667 0.146936
vt 0.082749 0.147602
vt 0.081814 0.044160
vt 0.107535 0.043928
vt 0.110124 0.049353
vt 0.081863 0.049608
vt 0.142633 0.117506
vt 0.082482 0.118048
vt 0.128597 0.088074
vt 0.082214 0.088493
vt 0.159251 0.152361
vt 0.082799 0.153050
vt 0.114549 0.058643
vt 0.081947 0.058938
vt 0.145224 0.122931
vt 0.082531 0.123496
vt 0.082832 0.156735
vt 0.161005 0.156030
vt 0.081730 0.034831
vt 0.103110 0.034637
vt 0.082615 0.132825
vt 0.149649 0.132221
vt 0.081997 0.064386
vt 0.117149 0.064068
vt 0.555056 0.950465
vt 0.469084 0.950028
vt 0.469165 0.933982
vt 0.555138 0.934419
vt 0.082264 0.093941
vt 0.131192 0.093499
vt 0.081630 0.023830
vt 0.097883 0.023683
vt 0.461984 0.949992
vt 0.462066 0.933946
vt 0.088009 0.883511
vt 0.088009 0.893597
vt 0.118425 0.853095
vt 0.240560 0.853095
vt 0.461853 0.847998
vt 0.067091 0.895286
vt 0.056635 0.895286
vt 0.056635 0.826487
vt 0.067091 0.826487
vt 0.021365 0.826487
vt 0.021365 0.747821
vt 0.056635 0.747821
vt 0.056636 0.366412
vt 0.056636 0.435211
vt 0.021365 0.435211
vt 0.021365 0.366412
vt 0.383778 0.837897
vt 0.383778 0.561418
vt 0.467812 0.561418
vt 0.467811 0.837897
vt 0.067091 0.435211
vt 0.067091 0.366412
vt 0.067091 0.747821
vt 0.566666 0.561418
vt 0.566666 0.837897
vt 0.482633 0.837897
vt 0.482634 0.561418
vt 0.021468 0.895286
vt 0.056635 0.899054
vt 0.056635 0.950596
vt 0.021365 0.950596
vt 0.021503 0.899054
vt 0.535747 0.339406
vt 0.500032 0.339406
vt 0.500032 0.284981
vt 0.535747 0.284981
vt 0.571406 0.387003
vt 0.535747 0.387003
vt 0.571406 0.339406
vt 0.497481 0.339406
vt 0.497481 0.284981
vt 0.056635 1.002219
vt 0.021365 1.002219
vt 0.500032 0.387003
vt 0.067091 0.496872
vt 0.056635 0.496872
vt 0.251323 0.562006
vt 0.266468 0.561976
vt 0.267022 0.838454
vt 0.251878 0.838484
vt 0.167845 0.838653
vt 0.166877 0.562175
vt 0.267191 0.922486
vt 0.252046 0.922517
vt 0.351055 0.561806
vt 0.351055 0.838285
vt 0.482633 0.921930
vt 0.467811 0.921930
vt 0.467812 0.477385
vt 0.482634 0.477386
vt 0.067091 0.640888
vt 0.056635 0.640888
vt 0.056635 0.637200
vt 0.067091 0.637200
vt 0.056635 0.744053
vt 0.021365 0.744053
vt 0.056635 0.692511
vt 0.021365 0.692511
vt 0.021365 0.640888
vt 0.067091 0.744053
vt 0.067091 0.692511
vt 0.021365 0.637200
vt 0.574013 0.339406
vt 0.571406 0.284981
vt 0.574013 0.284981
vt 0.067091 0.575538
vt 0.056635 0.575538
vt 0.021365 0.496872
vt 0.021365 0.575538
vt 0.454821 0.339406
vt 0.454821 0.284981
vt 0.021365 1.005907
vt 0.056635 1.005907
vt 0.067091 1.002219
vt 0.067091 1.005907
vt 0.067091 0.950596
vt 0.067091 0.899054
vt 0.251153 0.477560
vt 0.266298 0.477388
s 0
usemtl Platform_Dalle
f 205/1/1 175/2/1 173/3/1 217/4/1
f 53/5/2 36/6/3 37/7/4 54/8/5
f 52/9/6 35/10/6 36/6/6 53/5/6
f 51/11/7 34/12/7 35/10/7 52/9/7
f 50/13/6 33/14/6 34/12/6 51/11/6
f 49/15/7 32/16/7 33/14/7 50/13/7
f 48/17/6 31/18/6 32/16/6 49/15/6
f 47/19/7 30/20/7 31/18/7 48/17/7
f 46/21/6 29/22/6 30/20/6 47/19/6
f 45/23/7 28/24/7 29/22/7 46/21/7
f 44/25/6 27/26/6 28/24/6 45/23/6
f 43/27/7 26/28/7 27/26/7 44/25/7
f 42/29/6 25/30/6 26/28/6 43/27/6
f 41/31/7 24/32/7 25/30/7 42/29/7
f 40/33/6 23/34/6 24/32/6 41/31/6
f 39/35/7 22/36/7 23/34/7 40/33/7
f 55/37/8 21/38/9 22/36/10 39/35/11
f 94/39/12 57/40/12 101/41/12 100/42/12
f 57/40/7 56/43/7 102/44/7 101/41/7
f 47/45/1 48/46/1 80/47/1 78/48/1
f 106/49/12 104/50/12 75/51/12 77/52/12
f 46/53/1 47/45/1 78/48/1 76/54/1
f 94/55/12 111/56/12 91/57/12 57/58/12
f 119/59/12 114/60/12 83/61/12 85/62/12
f 45/63/1 46/53/1 76/54/1 74/64/1
f 107/65/12 118/66/12 65/67/12 67/68/12
f 112/69/12 120/70/12 59/71/12 61/72/12
f 44/73/1 45/63/1 74/64/1 72/74/1
f 104/50/12 105/75/12 73/76/12 75/51/12
f 43/77/1 44/73/1 72/74/1 70/78/1
f 114/60/12 109/79/12 81/80/12 83/61/12
f 42/81/1 43/77/1 70/78/1 68/82/1
f 118/66/12 113/83/12 63/84/12 65/67/12
f 41/85/1 42/81/1 68/82/1 66/86/1
f 111/56/12 116/87/12 89/88/12 91/57/12
f 21/38/13 55/37/14 38/89/15 20/90/14
f 93/91/7 61/92/7 59/93/7 58/94/7
f 57/95/6 91/96/6 92/97/6 56/98/6
f 61/92/6 93/91/6 62/99/6 60/100/6
f 60/100/7 62/99/7 64/101/7 63/102/7
f 63/102/6 64/101/6 66/103/6 65/104/6
f 65/104/7 66/103/7 68/105/7 67/106/7
f 67/106/6 68/105/6 70/107/6 69/108/6
f 69/108/7 70/107/7 72/109/7 71/110/7
f 71/110/6 72/109/6 74/111/6 73/112/6
f 73/112/7 74/111/7 76/113/7 75/114/7
f 75/114/6 76/113/6 78/115/6 77/116/6
f 77/116/7 78/115/7 80/117/7 79/118/7
f 79/118/6 80/117/6 82/119/6 81/120/6
f 81/120/7 82/119/7 84/121/7 83/122/7
f 83/122/6 84/121/6 86/123/6 85/124/6
f 85/124/7 86/123/7 88/125/7 87/126/7
f 87/126/6 88/125/6 90/127/6 89/128/6
f 89/128/7 90/127/7 92/97/7 91/96/7
f 55/129/1 93/130/1 58/131/1
f 120/132/16 55/133/16 58/94/16 59/93/16
f 103/134/12 107/65/12 67/68/12 69/135/12
f 48/46/1 49/136/1 82/137/1 80/47/1
f 108/138/12 119/59/12 85/62/12 87/139/12
f 110/140/12 112/69/12 61/72/12 60/141/12
f 54/142/1 56/143/1 92/144/1
f 49/136/1 50/145/1 84/146/1 82/137/1
f 115/147/12 106/49/12 77/52/12 79/148/12
f 50/145/1 51/149/1 86/150/1 84/146/1
f 117/151/12 103/134/12 69/135/12 71/152/12
f 51/149/1 52/153/1 88/154/1 86/150/1
f 116/87/12 108/138/12 87/139/12 89/88/12
f 55/129/1 39/155/1 62/156/1 93/130/1
f 52/153/1 53/157/1 90/158/1 88/154/1
f 113/83/12 110/140/12 60/141/12 63/84/12
f 39/155/1 40/159/1 64/160/1 62/156/1
f 109/79/12 115/147/12 79/148/12 81/80/12
f 53/157/1 54/142/1 92/144/1 90/158/1
f 40/159/1 41/85/1 66/86/1 64/160/1
f 11/161/12 10/162/12 117/163/12 105/164/12
f 15/165/12 14/166/12 115/167/12 109/168/12
f 6/169/12 5/170/12 110/171/12 113/172/12
f 19/173/12 18/174/12 108/175/12 116/176/12
f 10/162/12 9/177/12 103/178/12 117/163/12
f 14/166/12 13/179/12 106/180/12 115/167/12
f 5/170/12 3/181/12 112/182/12 110/171/12
f 18/174/12 17/183/12 119/184/12 108/175/12
f 9/177/12 8/185/12 107/186/12 103/178/12
f 1/187/16 38/89/16 55/37/16 120/188/16
f 4/189/12 19/173/12 116/176/12 111/190/12
f 7/191/12 6/169/12 113/172/12 118/192/12
f 16/193/12 15/165/12 109/168/12 114/194/12
f 2/195/12 94/196/12 100/197/12 99/198/12
f 12/199/12 11/161/12 105/164/12 104/200/12
f 3/181/12 1/187/12 120/188/12 112/182/12
f 8/185/12 7/191/12 118/192/12 107/186/12
f 17/183/12 16/193/12 114/194/12 119/184/12
f 2/201/12 4/189/12 111/190/12 94/202/12
f 13/179/12 12/199/12 104/200/12 106/180/12
f 97/203/17 96/204/18 95/205/19 98/206/20
f 96/207/21 100/208/21 101/41/21 102/44/21
f 97/203/21 99/198/21 100/197/21 96/204/21
f 56/43/1 54/209/1 96/210/1 102/44/1
f 54/211/22 37/212/23 95/205/24 96/204/25
f 155/213/26 156/214/27 37/7/28 36/6/29
f 154/215/6 155/213/6 36/6/6 35/10/6
f 153/216/7 154/215/7 35/10/7 34/12/7
f 152/217/6 153/216/6 34/12/6 33/14/6
f 151/218/7 152/217/7 33/14/7 32/16/7
f 150/219/6 151/218/6 32/16/6 31/18/6
f 149/220/7 150/219/7 31/18/7 30/20/7
f 148/221/6 149/220/6 30/20/6 29/22/6
f 147/222/7 148/221/7 29/22/7 28/24/7
f 146/223/6 147/222/6 28/24/6 27/26/6
f 145/224/7 146/223/7 27/26/7 26/28/7
f 144/225/6 145/224/6 26/28/6 25/30/6
f 143/226/7 144/225/7 25/30/7 24/32/7
f 142/227/6 143/226/6 24/32/6 23/34/6
f 141/228/7 142/227/7 23/34/7 22/36/7
f 157/229/30 141/228/31 22/36/32 21/38/33
f 196/230/1 200/231/1 201/232/1 159/233/1
f 159/233/7 201/232/7 202/234/7 158/235/7
f 149/236/12 180/237/12 182/238/12 150/239/12
f 206/240/1 179/241/1 177/242/1 204/243/1
f 148/244/12 178/245/12 180/237/12 149/236/12
f 193/246/1 211/247/1 196/248/1 159/249/1
f 219/250/1 187/251/1 185/252/1 214/253/1
f 147/254/12 176/255/12 178/245/12 148/244/12
f 207/256/1 169/257/1 167/258/1 218/259/1
f 212/260/1 163/261/1 161/262/1 220/263/1
f 146/264/12 174/265/12 176/255/12 147/254/12
f 204/243/1 177/242/1 175/2/1 205/1/1
f 145/266/12 172/267/12 174/265/12 146/264/12
f 214/253/1 185/252/1 183/268/1 209/269/1
f 144/270/12 170/271/12 172/267/12 145/266/12
f 218/259/1 167/258/1 165/272/1 213/273/1
f 143/274/12 168/275/12 170/271/12 144/270/12
f 211/247/1 193/246/1 191/276/1 216/277/1
f 21/38/34 20/90/35 140/278/36 157/229/35
f 195/279/7 160/280/7 161/281/7 163/282/7
f 159/283/6 158/284/6 194/285/6 193/286/6
f 163/282/6 162/287/6 164/288/6 195/279/6
f 162/287/7 165/289/7 166/290/7 164/288/7
f 165/289/6 167/291/6 168/292/6 166/290/6
f 167/291/7 169/293/7 170/294/7 168/292/7
f 169/293/6 171/295/6 172/296/6 170/294/6
f 171/295/7 173/297/7 174/298/7 172/296/7
f 173/297/6 175/299/6 176/300/6 174/298/6
f 175/299/7 177/301/7 178/302/7 176/300/7
f 177/301/6 179/303/6 180/304/6 178/302/6
f 179/303/7 181/305/7 182/306/7 180/304/7
f 181/305/6 183/307/6 184/308/6 182/306/6
f 183/307/7 185/309/7 186/310/7 184/308/7
f 185/309/6 187/311/6 188/312/6 186/310/6
f 187/311/7 189/313/7 190/314/7 188/312/7
f 189/313/6 191/315/6 192/316/6 190/314/6
f 191/315/7 193/286/7 194/285/7 192/316/7
f 157/317/12 160/318/12 195/319/12
f 220/320/16 161/281/16 160/280/16 157/321/16
f 203/322/1 171/323/1 169/257/1 207/256/1
f 150/239/12 182/238/12 184/324/12 151/325/12
f 208/326/1 189/327/1 187/251/1 219/250/1
f 210/328/1 162/329/1 163/261/1 212/260/1
f 156/330/12 194/331/12 158/332/12
f 151/325/12 184/324/12 186/333/12 152/334/12
f 215/335/1 181/336/1 179/241/1 206/240/1
f 152/334/12 186/333/12 188/337/12 153/338/12
f 217/4/1 173/3/1 171/323/1 203/322/1
f 153/338/12 188/337/12 190/339/12 154/340/12
f 216/277/1 191/276/1 189/327/1 208/326/1
f 157/317/12 195/319/12 164/341/12 141/342/12
f 154/340/12 190/339/12 192/343/12 155/344/12
f 213/273/1 165/272/1 162/329/1 210/328/1
f 141/342/12 164/341/12 166/345/12 142/346/12
f 209/269/1 183/268/1 181/336/1 215/335/1
f 155/344/12 192/343/12 194/331/12 156/330/12
f 142/346/12 166/345/12 168/275/12 143/274/12
f 131/347/1 205/348/1 217/349/1 130/350/1
f 135/351/1 209/352/1 215/353/1 134/354/1
f 126/355/1 213/356/1 210/357/1 125/358/1
f 139/359/1 216/360/1 208/361/1 138/362/1
f 130/350/1 217/349/1 203/363/1 129/364/1
f 134/354/1 215/353/1 206/365/1 133/366/1
f 125/358/1 210/357/1 212/367/1 123/368/1
f 138/362/1 208/361/1 219/369/1 137/370/1
f 129/364/1 203/363/1 207/371/1 128/372/1
f 121/373/16 220/374/16 157/229/16 140/278/16
f 124/375/1 211/376/1 216/360/1 139/359/1
f 127/377/1 218/378/1 213/356/1 126/355/1
f 136/379/1 214/380/1 209/352/1 135/351/1
f 122/381/1 199/382/1 200/383/1 196/384/1
f 132/385/1 204/386/1 205/348/1 131/347/1
f 123/368/1 212/367/1 220/374/1 121/373/1
f 128/372/1 207/371/1 218/378/1 127/377/1
f 137/370/1 219/369/1 214/380/1 136/379/1
f 122/387/1 196/388/1 211/376/1 124/375/1
f 133/366/1 206/365/1 204/386/1 132/385/1
f 198/389/37 98/206/38 95/205/39 197/390/40
f 197/391/21 202/234/21 201/232/21 200/392/21
f 198/389/21 197/390/21 200/383/21 199/382/21
f 158/235/12 202/234/12 197/393/12 156/394/12
f 156/395/41 197/390/42 95/205/43 37/212/44
f 105/75/12 117/151/12 71/152/12 73/76/12
f 227/396/1 228/397/1 224/398/1 223/399/1
f 224/398/1 230/400/1 264/401/1 258/402/1
f 226/403/45 222/404/12 231/405/12 232/406/12
f 245/407/1 247/408/1 255/409/1 252/410/1
f 221/411/12 222/404/12 226/403/46 225/412/12
f 223/399/1 224/398/1 258/402/1 259/413/1
f 232/414/12 231/415/12 253/416/12 254/417/12
f 224/398/1 228/397/1 229/418/1 230/400/1
f 238/419/21 234/420/21 237/421/21 239/422/21
f 236/423/7 245/424/7 262/425/7 270/426/7
f 239/427/7 237/428/7 236/423/7 242/429/7
f 245/424/7 231/430/7 263/431/7 262/425/7
f 234/420/21 246/432/21 247/433/21 237/421/21
f 237/428/7 247/434/7 245/424/7 236/423/7
f 222/404/21 221/411/21 243/435/21 240/436/21
f 248/437/7 250/438/7 251/439/7 249/440/7
f 230/441/1 229/442/1 248/437/1 249/440/1
f 242/443/16 230/444/16 249/440/16 251/439/16
f 239/445/12 242/446/12 251/439/12 250/438/12
f 255/409/7 254/417/7 253/416/7 252/410/7
f 231/447/16 245/448/16 252/410/16 253/416/16
f 247/449/21 232/450/21 254/417/21 255/409/21
f 265/451/16 261/452/16 257/453/16 256/454/16
f 267/455/16 258/402/16 264/401/16 269/456/16
f 261/452/16 268/457/16 270/458/16 262/459/16
f 260/460/16 267/455/16 268/457/16 266/461/16
f 259/413/16 258/402/16 267/455/16 260/460/16
f 268/457/16 267/455/16 269/456/16 270/458/16
f 257/453/16 261/452/16 262/459/16 263/462/16
f 266/461/16 268/457/16 261/452/16 265/451/16
f 230/463/7 242/429/7 269/464/7 264/465/7
f 242/429/7 236/423/7 270/426/7 269/464/7
f 240/436/12 243/435/12 271/466/12 273/467/12
f 233/468/12 240/436/12 273/467/12 272/469/12
f 231/405/21 222/404/21 240/436/21 233/468/21
f 256/454/16 257/453/16 273/467/16 271/466/16
f 263/431/7 231/430/7 233/470/7 272/471/7
f 257/453/16 263/462/16 272/469/16 273/467/16
f 232/472/21 247/433/21 246/432/21 226/473/47
f 226/473/48 246/432/21 244/474/21 225/475/21
f 244/474/21 246/432/1 234/420/21 235/476/21
f 234/420/21 238/419/21 241/477/21 235/476/21
f 227/396/21 241/477/21 238/419/21 228/397/21
f 229/478/21 239/479/21 250/438/21 248/437/21
f 238/419/21 239/422/21 229/418/21 228/397/21
