# Blender 4.2.0
# www.blender.org
mtllib Platform_L_2.mtl
o Platform_L_2
v 5.947229 -0.500000 2.999996
v 5.947229 0.500000 2.999996
v -5.947229 -0.500000 2.999996
v -5.947229 0.500000 2.999996
v 5.947229 -0.500000 -3.000004
v 5.947229 0.500000 -3.000004
v -5.947229 -0.500000 -3.000004
v -5.947229 0.500000 -3.000004
vn -0.0000 -0.0000 1.0000
vn -1.0000 -0.0000 -0.0000
vn -0.0000 -0.0000 -1.0000
vn 1.0000 -0.0000 -0.0000
vn -0.0000 1.0000 -0.0000
vt 0.298325 0.480693
vt 0.261065 0.480693
vt 0.261065 0.037504
vt 0.298325 0.037504
vt 0.261065 0.000244
vt 0.037504 0.037504
vt 0.037504 0.000244
vt 0.000244 0.037504
vt 0.037504 0.480693
vt 0.000244 0.480693
vt 0.037504 0.517953
vt 0.261065 0.517953
s 1
usemtl Platform_L_1_4
f 1/1/1 2/2/1 4/3/1 3/4/1
f 3/5/2 4/3/2 8/6/2 7/7/2
f 7/8/3 8/6/3 6/9/3 5/10/3
f 5/11/4 6/9/4 2/2/4 1/12/4
f 8/6/5 4/3/5 2/2/5 6/9/5
