# Blender 4.2.0
# www.blender.org
mtllib Platform_L_4.mtl
o Platform_L_4
v -4.507542 -6.200486 4.000000
v -4.507542 -5.200486 4.000000
v -4.507542 -6.200487 -4.000000
v -4.507542 -5.200487 -4.000000
v 4.507542 -6.200486 4.000000
v 4.507542 -5.200486 4.000000
v 4.507542 -6.200487 -4.000000
v 4.507542 -5.200487 -4.000000
vn -1.0000 -0.0000 -0.0000
vn -0.0000 -0.0000 -1.0000
vn 1.0000 -0.0000 -0.0000
vn -0.0000 -0.0000 1.0000
vn -0.0000 1.0000 -0.0000
vt 0.517933 0.941782
vt 0.470935 0.941782
vt 0.470935 0.565797
vt 0.517933 0.565797
vt 0.470935 0.518799
vt 0.047242 0.565797
vt 0.047242 0.518799
vt 0.000244 0.565797
vt 0.047242 0.941782
vt 0.000244 0.941782
vt 0.047242 0.988781
vt 0.470935 0.988781
s 1
usemtl Platform_L_1_4
f 1/1/1 2/2/1 4/3/1 3/4/1
f 3/5/2 4/3/2 8/6/2 7/7/2
f 7/8/3 8/6/3 6/9/3 5/10/3
f 5/11/4 6/9/4 2/2/4 1/12/4
f 8/6/5 4/3/5 2/2/5 6/9/5
