# Blender 4.2.0
# www.blender.org
mtllib Platform_Arene.mtl
o Arene
v -58.304401 -0.964827 0.004627
v -58.804836 -1.000000 5.824130
v -60.540417 -0.995221 11.403363
v -63.307793 -0.954883 16.536524
v -66.990601 -0.994117 21.097597
v -71.529655 -1.010906 24.830818
v -76.681412 -1.000294 27.505350
v -82.265846 -0.992495 29.259163
v -88.086464 -0.996856 29.826479
v -93.908829 -0.999997 29.279879
v -99.491592 -0.967447 27.543566
v -104.254662 -0.482451 25.166773
v -109.194328 1.000000 21.109617
v -112.906990 1.000000 16.585720
v -115.665756 1.000000 11.424444
v -117.364594 1.000000 5.824131
v -117.938225 1.000000 0.000000
v -58.860699 -0.980178 -5.817719
v -60.494583 -0.997692 -11.427166
v -63.264984 -0.998710 -16.590183
v -66.975090 -1.000000 -21.109613
v -71.499153 -0.999018 -24.822399
v -76.691071 -0.910665 -27.576160
v -82.260574 -1.000000 -29.279877
v -88.084702 -0.999996 -29.853504
v -93.908829 -0.999992 -29.279879
v -99.509148 -1.000000 -27.581041
v -104.364441 -0.442913 -25.146204
v -109.194328 1.000000 -21.109615
v -112.906990 1.000000 -16.585720
v -115.665749 1.000000 -11.424443
v -117.364594 1.000000 -5.824131
v -88.338356 0.950054 27.966486
v -94.378250 0.957826 25.384495
v -100.122009 1.000000 21.768589
v -105.347061 1.000000 17.262367
v -109.853294 1.000000 12.037313
v -113.467506 1.000000 6.294216
v -116.050812 1.000000 0.253783
v -82.528481 1.000000 25.236101
v -88.600044 1.000000 21.725451
v -94.587173 1.000000 17.315300
v -100.259827 1.000000 12.175134
v -105.399994 1.000000 6.502485
v -109.810135 0.950000 0.515345
v -113.320793 0.950000 -5.556201
v -76.792778 1.000000 21.397018
v -82.558647 1.000000 16.990477
v -88.496025 1.049995 11.890151
v -94.376747 1.000000 6.292063
v -99.974854 0.950000 0.411330
v -105.075172 1.000000 -5.526051
v -109.481712 1.000000 -11.291912
v -71.420021 1.000000 16.664675
v -76.605873 1.000000 11.478829
v -82.232834 1.000000 5.851857
v -88.084686 1.000000 0.000001
v -93.936546 1.000000 -5.851853
v -99.563522 1.000000 -11.478824
v -104.749374 0.950000 -16.664671
v -66.687668 1.000000 11.291915
v -71.094223 0.950000 5.526055
v -76.194542 0.950000 -0.411326
v -81.792625 1.000000 -6.292060
v -87.673363 1.000000 -11.890152
v -93.610741 0.950000 -16.990471
v -99.376617 1.000000 -21.397017
v -62.892784 0.607552 5.590304
v -66.358131 1.047273 -0.514754
v -70.769394 1.000000 -6.502481
v -75.906967 0.951368 -12.173476
v -81.604378 0.690129 -17.286554
v -87.569344 0.950000 -21.725445
v -93.640900 1.000000 -25.236095
v -60.007401 0.405525 -0.383732
v -62.716236 0.918621 -6.293658
v -66.316101 1.050000 -12.037312
v -70.822319 0.950000 -17.262369
v -76.048210 1.048535 -21.768465
v -81.790474 1.000000 -25.382803
v -87.830917 0.950000 -27.966122
v -59.851551 0.398854 0.021385
v -66.065788 1.009447 -0.010565
v -75.852684 0.950000 -0.013363
v -60.134907 0.332419 -0.034945
v -66.769112 0.950000 0.007601
v -76.597397 0.950000 0.006533
v -100.342216 0.950000 -0.016320
v -110.117455 0.950000 -0.016153
v -116.113380 0.950000 -0.009095
v -99.579849 1.000000 0.001615
v -109.406715 0.950000 0.000616
v -115.928993 1.000000 -0.005471
v -59.531963 -0.999152 -8.661250
v -61.430168 0.944680 -3.284786
v -58.240185 0.366191 -0.006655
v -58.473469 0.955108 -0.002078
v -58.915821 0.855075 4.753885
v -58.800320 0.382141 5.806490
v -60.709492 0.953185 10.672753
v -60.529167 0.390094 11.415377
v -63.594547 0.556205 15.818113
v -63.511066 0.118910 16.239199
v -67.583427 0.477417 20.597595
v -67.220833 0.149471 20.924889
v -72.048477 1.047939 24.526558
v -71.543221 0.437894 24.777582
v -77.406586 1.049284 27.378866
v -76.662987 0.405629 27.577000
v -83.329765 0.966139 29.153984
v -82.262276 0.375586 29.278019
v -87.903526 0.883792 29.572412
v -88.080894 0.385634 29.844555
v -92.820816 0.833647 29.076365
v -93.929131 0.390338 29.389109
v -98.727844 0.970610 27.336672
v -99.489006 0.393475 27.563559
v -104.543724 0.436168 25.003450
v -104.081635 1.048090 24.482382
v -105.219833 1.049215 24.554453
v -58.946140 0.341769 -5.804111
v -59.018253 0.685956 -4.778586
v -61.154903 0.039675 -10.578631
v -60.988728 -0.187468 -11.261577
v -63.555008 1.003251 -16.064505
v -63.366867 0.302866 -16.547241
v -66.966705 0.386852 -21.114784
v -67.396011 0.907139 -20.689522
v -71.525627 0.316067 -24.767662
v -72.023712 1.000243 -24.526777
v -76.674309 0.371995 -27.519341
v -77.369431 0.976234 -27.368340
v -82.241409 0.395966 -29.385973
v -83.288391 0.964349 -29.115543
v -87.981285 0.950122 -29.600725
v -88.082344 0.390441 -29.856644
v -93.908821 0.391172 -29.279877
v -92.761230 1.049901 -29.139921
v -99.509148 0.391161 -27.581041
v -98.697441 1.049576 -27.350407
v -104.062775 1.049734 -24.487719
v -104.767883 0.388313 -24.930550
v -105.220299 1.049354 -24.554831
v -59.889538 -0.069546 -8.426312
v -59.828678 0.340622 -7.570830
vn -0.2517 0.9678 -0.0052
vn -0.3557 0.9345 -0.0087
vn 0.0506 0.9987 -0.0060
vn -0.1337 0.9903 0.0371
vn -0.0127 0.9999 -0.0105
vn -0.1107 0.9922 -0.0568
vn -0.0397 0.9988 0.0289
vn 0.0020 0.9998 -0.0203
vn 0.0427 0.9983 0.0409
vn 0.0232 0.9996 0.0136
vn 0.0598 0.9978 0.0298
vn 0.0312 0.9994 0.0148
vn 0.0338 0.9994 -0.0042
vn 0.0101 0.9999 -0.0031
vn -0.0060 1.0000 -0.0051
vn -0.0045 1.0000 0.0024
vn -0.0093 0.9999 0.0111
vn -0.0083 0.9996 0.0263
vn -0.0143 0.9989 0.0451
vn -0.0017 0.9994 0.0350
vn -0.1960 -0.0467 0.9795
vn -0.1961 -0.0467 0.9795
vn -0.3779 -0.0236 0.9256
vn -0.3761 -0.0242 0.9263
vn 0.0009 0.9999 0.0158
vn 0.0068 0.9999 0.0104
vn 0.0029 1.0000 0.0005
vn -0.0827 0.9456 0.3145
vn 0.0055 -0.0301 0.9995
vn 0.0059 -0.0300 0.9995
vn 0.9999 -0.0082 -0.0081
vn 0.9999 -0.0081 -0.0090
vn 0.9810 -0.0147 0.1936
vn 0.9806 -0.0145 0.1954
vn 0.8265 0.0907 -0.5556
vn 0.7082 0.0273 -0.7055
vn 0.7083 0.0273 -0.7054
vn 0.8252 0.0890 -0.5579
vn 0.5525 0.0292 -0.8330
vn 0.5528 0.0291 -0.8328
vn 0.0276 0.9996 0.0075
vn 0.0305 0.9995 -0.0004
vn 0.0055 1.0000 -0.0058
vn -0.0053 1.0000 -0.0016
vn 0.0104 0.9999 -0.0022
vn -0.0047 1.0000 0.0073
vn 0.0004 0.9999 -0.0121
vn -0.0033 1.0000 0.0070
vn -0.0007 1.0000 -0.0078
vn 0.0047 1.0000 0.0004
vn 0.0090 1.0000 -0.0008
vn 0.0099 0.9999 0.0133
vn -0.1952 -0.0005 -0.9808
vn -0.3683 0.0025 -0.9297
vn -0.3710 0.0026 -0.9286
vn 0.0059 0.9999 0.0089
vn 0.0065 0.9999 0.0104
vn 0.0026 1.0000 0.0067
vn -0.1028 0.9401 -0.3251
vn 0.1970 -0.0237 0.9801
vn 0.1971 -0.0237 0.9801
vn 0.3849 -0.0200 0.9227
vn 0.3843 -0.0201 0.9230
vn 0.5628 0.0599 0.8244
vn 0.5630 0.0601 0.8243
vn 0.7050 0.2031 0.6795
vn 0.7023 0.1992 0.6834
vn 0.8048 0.2063 0.5565
vn 0.8134 0.1944 0.5483
vn 0.9146 0.0601 0.3999
vn 0.9149 0.0597 0.3992
vn -0.4493 -0.0003 0.8934
vn -0.0011 1.0000 0.0052
vn 0.0012 1.0000 0.0011
vn 0.0020 1.0000 -0.0021
vn 0.0118 0.9999 -0.0020
vn 0.0378 0.9983 0.0446
vn 0.0007 0.9998 0.0201
vn 0.8815 0.3592 -0.3063
vn 0.8410 0.4173 -0.3443
vn 0.8422 0.4132 -0.3464
vn 0.8920 0.3343 -0.3043
vn 0.0151 0.9745 0.2237
vn 0.0001 1.0000 -0.0019
vn 0.0002 1.0000 -0.0036
vn -0.0011 1.0000 0.0026
vn -0.0000 1.0000 0.0003
vn 0.0032 1.0000 -0.0032
vn 0.0002 1.0000 0.0017
vn 0.0038 1.0000 -0.0005
vn 0.7084 0.5809 -0.4010
vn 0.5973 0.7566 -0.2659
vn 0.6876 0.6925 -0.2184
vn 0.6680 0.6079 -0.4291
vn 0.0998 0.9943 -0.0378
vn 0.2089 0.9770 -0.0417
vn 0.9727 0.1132 -0.2024
vn 0.9743 0.1081 -0.1978
vn -0.0010 1.0000 -0.0010
vn -0.0021 1.0000 -0.0013
vn 0.0005 1.0000 -0.0006
vn 0.0001 1.0000 0.0035
vn 0.0007 1.0000 0.0064
vn -0.0080 1.0000 -0.0052
vn 0.0019 1.0000 -0.0060
vn -0.0000 1.0000 -0.0009
vn -0.0000 1.0000 -0.0000
vn -0.0000 1.0000 -0.0040
vn -0.0168 0.9998 0.0114
vn -0.0111 0.9999 0.0096
vn 0.0066 0.9999 -0.0090
vn -0.0006 1.0000 -0.0006
vn -0.0022 1.0000 0.0049
vn 0.3879 0.0085 -0.9217
vn 0.3906 0.0095 -0.9205
vn 0.0013 1.0000 -0.0019
vn 0.0027 1.0000 -0.0040
vn -0.0097 0.9999 0.0071
vn -0.0021 1.0000 0.0002
vn 0.0059 1.0000 -0.0005
vn -0.0006 1.0000 -0.0017
vn 0.0055 1.0000 0.0071
vn 0.1980 -0.0309 -0.9797
vn 0.1982 -0.0309 -0.9797
vn -0.0251 0.9995 -0.0182
vn 0.0001 1.0000 -0.0009
vn 0.0022 1.0000 -0.0005
vn -0.0421 0.9988 -0.0240
vn -0.0023 1.0000 0.0028
vn 0.0017 1.0000 0.0023
vn 0.0001 1.0000 0.0010
vn -0.0047 -0.0204 -0.9998
vn -0.0045 -0.0205 -0.9998
vn -0.0453 0.9986 -0.0264
vn 0.0142 0.9999 -0.0028
vn 0.0016 1.0000 0.0020
vn 0.0039 1.0000 0.0018
vn 0.0013 1.0000 0.0039
vn 0.0032 1.0000 0.0065
vn 0.0174 0.9576 -0.2877
vn -0.4490 0.0052 -0.8935
vn 0.0045 0.9989 0.0467
vn 0.0880 0.9960 0.0158
vn 0.0082 1.0000 0.0019
vn 0.1364 0.9863 -0.0933
vn -0.1451 0.6875 0.7116
vn -0.1350 0.6234 -0.7702
vn 0.9124 0.4091 -0.0128
vn 0.8945 0.4320 0.1152
vn 0.7886 0.5791 0.2067
vn 0.9123 0.4094 -0.0145
vn 0.7287 0.6246 0.2808
vn 0.6711 0.6438 0.3676
vn 0.5993 0.6797 0.4229
vn 0.5635 0.7064 0.4284
vn 0.5064 0.7349 0.4510
vn 0.5076 0.7347 0.4500
vn 0.4197 0.6707 0.6115
vn 0.4461 0.6983 0.5598
vn 0.2774 0.5754 0.7694
vn 0.3338 0.6020 0.7254
vn 0.1146 0.4333 0.8940
vn 0.2094 0.5290 0.8224
vn 0.0206 0.4840 0.8748
vn -0.0105 0.5228 0.8524
vn -0.0992 0.6235 0.7755
vn -0.1780 0.6991 0.6925
vn -0.2338 0.7182 0.6554
vn -0.2835 0.7176 0.6361
vn 0.8710 0.4703 -0.1420
vn 0.6375 0.7183 -0.2786
vn 0.5872 0.7537 -0.2951
vn 0.5591 0.7777 -0.2874
vn 0.5292 0.6660 -0.5257
vn 0.5294 0.6660 -0.5256
vn 0.4201 0.6187 -0.6638
vn 0.4372 0.6395 -0.6324
vn 0.2807 0.6086 -0.7422
vn 0.3448 0.5900 -0.7301
vn 0.1136 0.5092 -0.8531
vn 0.2066 0.5945 -0.7771
vn 0.0042 0.4370 -0.8995
vn -0.0123 0.4281 -0.9036
vn -0.1175 0.4271 -0.8966
vn -0.2107 0.5422 -0.8134
vn -0.2656 0.6142 -0.7431
vn -0.3047 0.6685 -0.6784
vt 0.956726 0.728314
vt 0.967280 0.729364
vt 0.961160 0.760365
vt 0.956156 0.729966
vt 0.960136 0.657727
vt 0.967369 0.698019
vt 0.955510 0.728142
vt 0.941982 0.689682
vt 0.945926 0.619858
vt 0.960136 0.657727
vt 0.921047 0.648583
vt 0.925036 0.585237
vt 0.894142 0.608420
vt 0.897555 0.555203
vt 0.862504 0.571318
vt 0.864663 0.530406
vt 0.897555 0.555203
vt 0.827791 0.539222
vt 0.826852 0.511574
vt 0.791370 0.513819
vt 0.796416 0.502967
vt 0.762335 0.500072
vt 0.755021 0.481920
vt 0.754975 0.492115
vt 0.712912 0.495976
vt 0.711276 0.485684
vt 0.746422 0.524003
vt 0.718903 0.504264
vt 0.700751 0.541732
vt 0.675344 0.515564
vt 0.798399 0.485750
vt 0.796508 0.495661
vt 0.754975 0.492115
vt 0.983231 0.730929
vt 0.973926 0.730018
vt 0.974032 0.690634
vt 0.983595 0.689876
vt 0.938563 0.845525
vt 0.910123 0.876689
vt 0.903516 0.869397
vt 0.930733 0.839657
vt 0.875859 0.901781
vt 0.870732 0.893312
vt 0.903516 0.869397
vt 0.908153 0.804618
vt 0.924820 0.832873
vt 0.897455 0.862643
vt 0.875387 0.837832
vt 0.897455 0.862643
vt 0.864515 0.886584
vt 0.838050 0.866461
vt 0.827312 0.904264
vt 0.797599 0.889415
vt 0.827312 0.904264
vt 0.786457 0.915101
vt 0.755239 0.905915
vt 0.753917 0.917506
vt 0.720742 0.913587
vt 0.709617 0.929808
vt 0.667456 0.917243
vt 0.671142 0.907471
vt 0.711634 0.919797
vt 0.714866 0.885834
vt 0.678914 0.900656
vt 0.673930 0.857522
vt 0.678914 0.900656
vt 0.638317 0.880757
vt 0.839909 0.497714
vt 0.836220 0.507014
vt 0.796508 0.495661
vt 0.878043 0.516966
vt 0.872750 0.525355
vt 0.911833 0.542646
vt 0.905136 0.549894
vt 0.872750 0.525355
vt 0.940287 0.573961
vt 0.932389 0.579771
vt 0.905136 0.549893
vt 0.961896 0.610014
vt 0.953090 0.614204
vt 0.932389 0.579771
vt 0.976436 0.649104
vt 0.967086 0.651602
vt 0.974032 0.690634
vt 0.967086 0.651602
vt 0.712912 0.495976
vt 0.669928 0.506514
vt 0.667356 0.495931
vt 0.782124 0.556408
vt 0.818775 0.595495
vt 0.854387 0.638757
vt 0.886849 0.683615
vt 0.916659 0.724403
vt 0.911979 0.723803
vt 0.968108 0.790618
vt 0.960590 0.809953
vt 0.951891 0.805655
vt 0.959137 0.787163
vt 0.666981 0.513496
vt 0.675344 0.515564
vt 0.656752 0.568285
vt 0.631719 0.533850
vt 0.735062 0.580464
vt 0.772530 0.625058
vt 0.810938 0.672637
vt 0.850535 0.717783
vt 0.845459 0.717130
vt 0.946191 0.798521
vt 0.951891 0.805655
vt 0.935272 0.768209
vt 0.975625 0.771282
vt 0.959137 0.787163
vt 0.966383 0.768670
vt 0.688667 0.611338
vt 0.725672 0.659370
vt 0.765392 0.709064
vt 0.847946 0.720269
vt 0.881035 0.765043
vt 0.843042 0.800915
vt 0.805565 0.757191
vt 0.617418 0.602606
vt 0.598164 0.564250
vt 0.645444 0.648173
vt 0.680421 0.697480
vt 0.682982 0.700764
vt 0.761371 0.793250
vt 0.719920 0.746900
vt 0.801649 0.833786
vt 0.837476 0.920207
vt 0.833968 0.910898
vt 0.870732 0.893312
vt 0.584811 0.642627
vt 0.571807 0.601091
vt 0.607617 0.689245
vt 0.677389 0.700336
vt 0.610234 0.693417
vt 0.716977 0.827074
vt 0.676013 0.784694
vt 0.758420 0.862444
vt 0.796136 0.931411
vt 0.794390 0.921533
vt 0.833968 0.910898
vt 0.560256 0.686335
vt 0.553748 0.642527
vt 0.604889 0.693008
vt 0.560982 0.688397
vt 0.638630 0.737640
vt 0.635340 0.820990
vt 0.602188 0.778276
vt 0.752952 0.934803
vt 0.753093 0.924693
vt 0.794389 0.921533
vt 0.559577 0.688284
vt 0.544611 0.686682
vt 0.576682 0.732431
vt 0.572377 0.817459
vt 0.553944 0.776030
vt 0.599161 0.853991
vt 0.629584 0.881038
vt 0.626410 0.898352
vt 0.631062 0.888482
vt 0.671142 0.907471
vt 0.711634 0.919797
vt 0.753092 0.924693
vt 0.914383 0.727576
vt 0.945714 0.749087
vt 0.544611 0.731757
vt 0.953621 0.779529
vt 0.946191 0.798521
vt 0.961160 0.760365
vt 0.953621 0.779529
vt 0.673759 0.510468
vt 0.671054 0.511145
vt 0.635743 0.885431
vt 0.633098 0.884162
vt 0.966384 0.768670
s 1
usemtl arene
f 82/1/1 97/2/2 122/3/3 75/4/4
f 100/5/5 98/6/6 82/1/1 85/7/7 68/8/8
f 102/9/9 100/10/5 68/8/8 61/11/10
f 104/12/11 102/9/9 61/11/10 54/13/12
f 106/14/13 104/12/11 54/13/12 47/15/14
f 108/16/15 106/17/13 47/15/14 40/18/16
f 110/19/17 108/16/15 40/18/16 33/20/18
f 112/21/19 110/19/17 33/20/18 114/22/20
f 10/23/21 115/24/22 117/25/23 11/26/24
f 114/22/20 33/20/18 34/27/25 116/28/26
f 116/28/26 34/27/25 35/29/27 119/30/28
f 9/31/29 113/32/30 115/33/22 10/23/21
f 1/34/31 96/35/32 99/36/33 2/37/34
f 20/38/35 21/39/36 127/40/37 126/41/38
f 21/39/36 22/42/39 129/43/40 127/44/37
f 77/45/41 125/46/42 128/47/43 78/48/44
f 78/48/44 128/49/43 130/50/45 79/51/46
f 79/51/46 130/50/45 132/52/47 80/53/48
f 80/53/48 132/54/47 134/55/49 81/56/50
f 81/56/50 134/55/49 135/57/51 138/58/52
f 26/59/53 27/60/54 139/61/55 137/62/53
f 74/63/56 81/56/50 138/58/52 140/64/57
f 67/65/58 74/63/56 140/66/57 141/67/59
f 8/68/60 111/69/61 113/70/30 9/31/29
f 7/71/62 109/72/63 111/69/61 8/68/60
f 6/73/64 107/74/65 109/75/63 7/71/62
f 5/76/66 105/77/67 107/78/65 6/73/64
f 4/79/68 103/80/69 105/81/67 5/76/66
f 3/82/70 101/83/71 103/80/69 4/79/68
f 2/37/34 99/84/33 101/85/71 3/82/70
f 11/26/24 117/86/23 118/87/72 12/88/72
f 33/20/18 40/18/16 41/89/73 34/27/25
f 40/18/16 47/15/14 48/90/74 41/89/73
f 47/15/14 54/13/12 55/91/75 48/90/74
f 54/13/12 61/11/10 62/92/76 55/91/75
f 61/11/10 68/8/8 83/93/77 86/94/78 62/92/76
f 68/8/8 85/7/7 83/93/77
f 94/95/79 19/96/80 124/97/81 144/98/82
f 120/99/83 119/100/28 35/29/27 36/101/84 13/102/85
f 34/27/25 41/89/73 42/103/86 35/29/27
f 41/89/73 48/90/74 49/104/87 42/103/86
f 48/90/74 55/91/75 56/105/88 49/104/87
f 55/91/75 62/92/76 84/106/89 87/107/90 56/105/88
f 62/92/76 86/94/78 84/106/89
f 125/46/91 123/108/92 124/109/93 126/41/94
f 76/110/95 123/108/96 125/46/42 77/45/41
f 18/111/97 94/95/79 144/112/82 121/113/98
f 35/29/27 42/103/86 43/114/99 36/101/84
f 42/103/86 49/104/87 50/115/100 43/114/99
f 49/104/87 56/105/88 57/116/101 50/115/100
f 56/105/88 87/107/90 57/116/101
f 63/117/102 70/118/103 71/119/104 64/120/105
f 70/118/103 77/45/41 78/48/44 71/119/104
f 13/102/85 36/101/84 37/121/106 14/122/107
f 36/101/84 43/114/99 44/123/108 37/121/106
f 43/114/99 50/115/100 51/124/109 44/123/108
f 50/115/100 57/116/101 91/125/110 51/124/109
f 57/116/101 64/120/105 65/126/111 58/127/112
f 64/120/105 71/119/104 72/128/113 65/126/111
f 71/119/104 78/48/44 79/51/46 72/128/113
f 22/42/39 23/129/114 131/130/115 129/131/40
f 14/122/107 37/121/106 38/132/116 15/133/107
f 37/121/106 44/123/108 45/134/117 38/132/116
f 44/123/108 51/124/109 88/135/118 92/136/119 45/134/117
f 51/124/109 91/125/110 88/135/118
f 58/127/112 65/126/111 66/137/120 59/138/121
f 65/126/111 72/128/113 73/139/122 66/137/120
f 72/128/113 79/51/46 80/53/48 73/139/122
f 23/129/114 24/140/123 133/141/124 131/142/115
f 15/133/107 38/132/116 39/143/125 16/144/126
f 38/132/116 45/134/117 89/145/127 93/146/128 39/143/125
f 45/134/117 92/136/119 89/145/127
f 52/147/129 59/138/121 60/148/130 53/149/131
f 59/138/121 66/137/120 67/65/58 60/148/130
f 66/137/120 73/139/122 74/63/56 67/65/58
f 73/139/122 80/53/48 81/56/50 74/63/56
f 24/140/123 25/150/132 136/151/133 133/152/124
f 16/144/126 39/143/125 90/153/134 17/154/135
f 39/143/125 93/146/128 90/153/134
f 46/155/136 53/149/131 30/156/137 31/157/138
f 53/149/131 60/148/130 29/158/139 30/156/137
f 60/148/130 67/65/58 141/67/59 143/159/140 29/158/139
f 27/60/54 28/160/141 142/161/141 139/162/55
f 25/150/132 26/59/53 137/163/53 136/164/133
f 93/146/128 89/145/127 46/155/136
f 86/94/78 83/93/77 69/165/142
f 89/145/127 92/136/119 52/147/129 53/149/131 46/155/136
f 83/93/77 85/7/7 75/4/4 95/166/143 76/110/95 69/165/142
f 92/136/119 88/135/118 52/147/129
f 85/7/7 82/1/1 75/4/4
f 88/135/118 91/125/110 58/127/112 59/138/121 52/147/129
f 98/6/6 97/2/2 82/1/1
f 91/125/110 57/116/101 58/127/112
f 57/116/101 87/107/90 63/117/102 64/120/105
f 17/154/135 90/153/134 32/167/144
f 87/107/90 84/106/89 63/117/102
f 90/153/134 93/146/128 46/155/136 31/157/138 32/167/144
f 84/106/89 86/94/78 69/165/142 70/118/103 63/117/102
f 95/166/143 145/168/145 123/169/96 76/110/95
f 75/4/4 122/170/3 145/171/145 95/166/143
f 118/87/146 119/172/28 120/173/83
f 141/174/59 142/161/147 143/175/140
f 97/2/148 98/6/149 99/36/150 96/35/151
f 98/6/149 100/5/152 101/85/153 99/84/150
f 100/10/152 102/9/154 103/80/155 101/83/153
f 102/9/154 104/12/156 105/81/157 103/80/155
f 104/12/156 106/14/158 107/78/159 105/77/157
f 106/17/158 108/16/160 109/75/161 107/74/159
f 108/16/160 110/19/162 111/69/163 109/72/161
f 110/19/162 112/21/164 113/70/165 111/69/163
f 112/21/164 114/22/166 115/33/167 113/32/165
f 114/22/166 116/28/168 117/25/169 115/24/167
f 116/28/168 119/30/28 118/87/146 117/86/169
f 122/3/170 97/2/148 96/35/151 121/176/171
f 145/171/172 122/170/170 121/113/171 144/112/173
f 19/96/80 20/38/35 126/41/38 124/109/81
f 128/47/174 125/46/91 126/41/94 127/40/175
f 130/50/176 128/49/174 127/44/175 129/43/177
f 132/52/178 130/50/176 129/131/177 131/130/179
f 134/55/180 132/54/178 131/142/179 133/141/181
f 135/57/182 134/55/180 133/152/181 136/151/183
f 138/58/184 135/57/182 136/164/183 137/163/185
f 140/64/186 138/58/184 137/62/185 139/61/187
f 141/67/59 140/66/186 139/162/187 142/161/147
f 123/169/92 145/168/172 144/98/173 124/97/93
f 1/34/31 18/111/97 121/176/98 96/35/32
f 69/165/142 76/110/95 77/45/41 70/118/103
