# Blender 4.2.0
# www.blender.org
mtllib Platform_Water.mtl
o Platform_Water
v -4.632128 -2.680387 9.999994
v -10.146566 -2.680388 4.485558
v -10.146566 -0.680388 4.485556
v -4.632128 -0.680387 9.999994
v -10.146566 -2.680390 -4.485565
v -4.632128 -2.680391 -10.000005
v -4.632128 -0.680391 -10.000005
v -10.146566 -0.680390 -4.485566
v 9.853434 -2.680388 4.485558
v 4.338995 -2.680387 9.999994
v 4.338995 -0.680387 9.999994
v 9.853434 -0.680388 4.485556
v 4.338995 -2.680391 -10.000005
v 9.853434 -2.680390 -4.485565
v 9.853434 -0.680390 -4.485566
v 4.338995 -0.680391 -10.000005
v -4.485041 -0.680387 9.672083
v -9.818655 -0.680388 4.338469
v -9.818655 -0.680390 -4.338479
v -4.485041 -0.680391 -9.672091
v 4.191908 -0.680391 -9.672091
v 9.525520 -0.680390 -4.338479
v 9.525520 -0.680388 4.338469
v 4.191908 -0.680387 9.672083
v -4.632128 0.319613 9.999994
v -10.146566 0.319612 4.485556
v -10.146566 0.319610 -4.485566
v -4.632128 0.319609 -10.000005
v 4.338995 0.319609 -10.000005
v 9.853434 0.319610 -4.485566
v 9.853434 0.319612 4.485556
v 4.338995 0.319613 9.999994
v -4.485041 0.319613 9.672083
v -9.818655 0.319612 4.338469
v -9.818655 0.319610 -4.338479
v -4.485041 0.319609 -9.672091
v 4.191908 0.319609 -9.672091
v 9.525520 0.319610 -4.338479
v 9.525520 0.319612 4.338469
v 4.191908 0.319613 9.672083
v -2.197510 -0.680388 4.572317
v -4.718889 -0.680389 2.050940
v -4.718889 -0.680389 -2.050951
v -2.197510 -0.680390 -4.572330
v 1.904379 -0.680390 -4.572330
v 4.425758 -0.680389 -2.050951
v 4.425758 -0.680389 2.050940
v 1.904379 -0.680388 4.572317
v -4.596687 -0.680389 -1.996134
v -2.142694 -0.680390 -4.450128
v -2.142694 -0.680388 4.450117
v -4.596687 -0.680389 1.996126
v 1.849564 -0.680390 -4.450128
v 4.303555 -0.680389 -1.996134
v 4.303555 -0.680389 1.996126
v 1.849564 -0.680388 4.450117
v -4.718889 -0.862989 -2.050949
v -2.197510 -0.862989 -4.572330
v -2.197510 -0.862987 4.572317
v -4.718889 -0.862988 2.050940
v 1.904379 -0.862989 -4.572330
v 4.425758 -0.862989 -2.050949
v 4.425758 -0.862988 2.050940
v 1.904379 -0.862987 4.572317
v -4.596687 -0.862988 -1.996134
v -2.142694 -0.862989 -4.450128
v -2.142694 -0.862987 4.450117
v -4.596687 -0.862988 1.996126
v 1.849564 -0.862989 -4.450128
v 4.303555 -0.862988 -1.996134
v 4.303555 -0.862988 1.996126
v 1.849564 -0.862987 4.450117
v -4.390202 -0.680389 -1.903513
v -2.050076 -0.680390 -4.243642
v -2.050076 -0.680388 4.243631
v -4.390202 -0.680389 1.903505
v 1.756943 -0.680390 -4.243642
v 4.097071 -0.680389 -1.903513
v 4.097071 -0.680389 1.903505
v 1.756943 -0.680388 4.243631
v -4.390202 0.412380 -1.903515
v -2.050076 0.412380 -4.243642
v -2.050076 0.412381 4.243631
v -4.390202 0.412380 1.903503
v 1.756943 0.412380 -4.243642
v 4.097071 0.412380 -1.903515
v 4.097071 0.412380 1.903503
v 1.756943 0.412381 4.243631
v -3.588955 0.412380 -1.544111
v -1.690670 0.412380 -3.442396
v -1.690670 0.412381 3.442385
v -3.588955 0.412380 1.544098
v 1.397539 0.412380 -3.442396
v 3.295824 0.412380 -1.544111
v 3.295824 0.412380 1.544098
v 1.397539 0.412381 3.442385
v -3.322144 -0.343260 -1.424431
v -1.570990 -0.343261 -3.175581
v -1.570990 -0.343260 3.175570
v -3.322144 -0.343260 1.424417
v 1.277859 -0.343261 -3.175581
v 3.029011 -0.343260 -1.424431
v 3.029011 -0.343260 1.424417
v 1.277859 -0.343260 3.175570
v -3.588955 0.151984 -1.544111
v -1.690670 0.151983 -3.442396
v -1.690670 0.151985 3.442385
v -3.588955 0.151984 1.544098
v 1.397539 0.151983 -3.442396
v 3.295824 0.151984 -1.544111
v 3.295824 0.151984 1.544098
v 1.397539 0.151985 3.442385
v -3.322144 0.151984 -1.424431
v -1.570990 0.151983 -3.175581
v -1.570990 0.151984 3.175570
v -3.322144 0.151984 1.424417
v 1.277859 0.151983 -3.175581
v 3.029011 0.151984 -1.424431
v 3.029011 0.151984 1.424417
v 1.277859 0.151984 3.175570
v -0.271025 -0.343260 -0.055838
v -0.202393 -0.343260 -0.124468
v -0.202393 -0.343260 0.124453
v -0.271025 -0.343260 0.055819
v -0.090736 -0.343260 -0.124468
v -0.022102 -0.343260 -0.055838
v -0.022102 -0.343260 0.055819
v -0.090736 -0.343260 0.124453
v -0.271025 3.854162 -0.055838
v -0.202393 3.854162 -0.124470
v -0.202393 3.854162 0.124453
v -0.271025 3.854162 0.055819
v -0.090736 3.854162 -0.124470
v -0.022102 3.854162 -0.055838
v -0.022102 3.854162 0.055819
v -0.090736 3.854162 0.124453
v -0.783577 4.723167 -0.285740
v -0.432306 4.723167 -0.637011
v -0.432306 4.723167 0.636993
v -0.783577 4.723167 0.285723
v 0.139156 4.723167 -0.637011
v 0.490427 4.723167 -0.285740
v 0.490427 4.723167 0.285723
v 0.139156 4.723167 0.636993
v 11.138557 -0.680388 4.485556
v 11.138557 -0.680390 -4.485566
v 4.338995 -1.680387 9.999994
v -4.632128 -1.680387 9.999994
v 9.853434 -1.680388 4.485558
v -10.146566 -1.680388 4.485558
v -10.146566 -1.680390 -4.485565
v -4.632128 -1.680391 -10.000005
v 4.338995 -1.680391 -10.000005
v 9.853434 -1.680390 -4.485565
vn -0.0000 -0.0000 1.0000
vn -0.0000 -0.0000 -1.0000
vn -0.7071 -0.0000 0.7071
vn -0.7071 -0.0000 -0.7071
vn 0.7071 -0.0000 -0.7071
vn 0.7071 -0.0000 0.7071
vn -0.0000 1.0000 -0.0000
vn 0.4093 -0.0000 -0.9124
vn 0.4093 -0.0000 0.9124
vn -0.4093 -0.0000 0.9124
vn -0.4093 -0.0000 -0.9124
vn 1.0000 -0.0000 -0.0000
vn -1.0000 -0.0000 -0.0000
vn -0.6052 -0.5171 0.6052
vn 0.8613 -0.5080 -0.0000
vn -0.8613 -0.5080 -0.0000
vn 0.6052 -0.5171 -0.6052
vn -0.6052 -0.5171 -0.6052
vn -0.0000 -0.5080 -0.8613
vn -0.0000 -0.5080 0.8613
vn 0.6052 -0.5171 0.6052
vt 0.478012 0.662560
vt 0.441172 0.662560
vt 0.441172 0.342284
vt 0.478012 0.342284
vt 0.404332 0.662560
vt 0.404332 0.342284
vt 0.201603 0.344591
vt 0.238491 0.344591
vt 0.238491 0.665607
vt 0.201603 0.665607
vt 0.441172 0.063868
vt 0.478012 0.063868
vt 0.164715 0.344591
vt 0.164715 0.065531
vt 0.201603 0.065531
vt 0.201603 0.944667
vt 0.164715 0.944667
vt 0.164715 0.665607
vt 0.514853 0.662560
vt 0.514853 0.940975
vt 0.478012 0.940975
vt 0.148465 0.939425
vt 0.010087 0.939425
vt 0.010087 0.877354
vt 0.148465 0.877354
vt 0.862584 0.276316
vt 0.771054 0.367846
vt 0.731798 0.280329
vt 0.775068 0.237060
vt 0.354252 0.940975
vt 0.354252 0.662560
vt 0.391092 0.662560
vt 0.391092 0.940975
vt 0.441172 0.940975
vt 0.404332 0.940975
vt 0.441172 0.965354
vt 0.404332 0.965354
vt 0.238491 0.065531
vt 0.275378 0.065531
vt 0.275378 0.344591
vt 0.325523 0.665607
vt 0.325523 0.944667
vt 0.288635 0.944667
vt 0.288635 0.665607
vt 0.773579 0.373473
vt 0.619626 0.373473
vt 0.622150 0.367846
vt 0.619626 0.030254
vt 0.773579 0.030254
vt 0.771055 0.035882
vt 0.622150 0.035882
vt 0.661406 0.280329
vt 0.123225 0.513863
vt 0.123225 0.418897
vt 0.128497 0.418897
vt 0.128497 0.513863
vt 0.275378 0.665607
vt 0.288635 0.344591
vt 0.391092 0.342284
vt 0.275378 0.944667
vt 0.288635 0.065531
vt 0.404332 0.063868
vt 0.391092 0.063868
vt 0.354252 0.342284
vt 0.238491 0.969101
vt 0.238491 0.944667
vt 0.275378 0.969101
vt 0.238491 0.041096
vt 0.275378 0.041096
vt 0.325523 0.344591
vt 0.354252 0.063868
vt 0.441172 0.039489
vt 0.404332 0.039489
vt 0.325523 0.065531
vt 0.530620 0.127411
vt 0.661406 0.123398
vt 0.618137 0.166668
vt 0.731798 0.123398
vt 0.530620 0.276316
vt 0.618137 0.237060
vt 0.862584 0.127411
vt 0.775068 0.166668
vt 0.123225 0.023682
vt 0.123225 0.118648
vt 0.116692 0.118648
vt 0.116692 0.023682
vt 0.137634 0.118648
vt 0.137634 0.214685
vt 0.132363 0.214685
vt 0.132363 0.118648
vt 0.123225 0.712070
vt 0.123225 0.617103
vt 0.128497 0.617103
vt 0.128497 0.712070
vt 0.137634 0.418897
vt 0.137634 0.513863
vt 0.132363 0.513863
vt 0.132363 0.418897
vt 0.123225 0.309652
vt 0.123225 0.214685
vt 0.128497 0.214685
vt 0.128497 0.309652
vt 0.137634 0.617103
vt 0.137634 0.712070
vt 0.132363 0.712070
vt 0.132363 0.617103
vt 0.128497 0.023682
vt 0.128497 0.118648
vt 0.123225 0.821315
vt 0.128497 0.821315
vt 0.132363 0.309652
vt 0.132363 0.821315
vt 0.132363 0.023682
vt 0.137634 0.023682
vt 0.137634 0.309652
vt 0.137634 0.821315
vt 0.116692 0.712070
vt 0.116692 0.821315
vt 0.085147 0.821315
vt 0.085147 0.712070
vt 0.116692 0.418897
vt 0.116692 0.309652
vt 0.116692 0.513863
vt 0.116692 0.214685
vt 0.116692 0.617103
vt 0.085147 0.617103
vt 0.059796 0.712070
vt 0.059796 0.617103
vt 0.085147 0.418897
vt 0.085147 0.309652
vt 0.085147 0.513863
vt 0.085147 0.214685
vt 0.085147 0.118648
vt 0.085147 0.023682
vt 0.029541 0.513863
vt 0.029541 0.418897
vt 0.043838 0.418897
vt 0.043838 0.513863
vt 0.059796 0.118648
vt 0.059796 0.023682
vt 0.059796 0.821315
vt 0.059796 0.418897
vt 0.059796 0.309652
vt 0.059796 0.513863
vt 0.059796 0.214685
vt 0.994343 0.759683
vt 0.994343 0.908364
vt 0.835106 0.836937
vt 0.835106 0.831110
vt 0.052279 0.214685
vt 0.052279 0.118648
vt 0.029541 0.712070
vt 0.029541 0.617103
vt 0.043838 0.617103
vt 0.043838 0.712070
vt 0.052279 0.513863
vt 0.052279 0.418897
vt 0.029541 0.309652
vt 0.029541 0.214685
vt 0.043838 0.214685
vt 0.043838 0.309652
vt 0.052279 0.712070
vt 0.052279 0.617103
vt 0.029541 0.118648
vt 0.029541 0.023682
vt 0.043838 0.023682
vt 0.043838 0.118648
vt 0.052279 0.309652
vt 0.052279 0.023682
vt 0.052279 0.821315
vt 0.043838 0.821315
vt 0.029541 0.821315
vt 0.904976 0.034630
vt 0.914890 0.034630
vt 0.914890 0.407300
vt 0.904976 0.407300
vt 0.662877 0.908364
vt 0.662878 0.759683
vt 0.822115 0.831110
vt 0.822115 0.836937
vt 0.902950 0.999756
vt 0.831524 0.840519
vt 0.754270 0.999756
vt 0.825696 0.840519
vt 0.754270 0.668291
vt 0.902950 0.668291
vt 0.831524 0.827528
vt 0.825696 0.827528
vt 0.857679 0.486530
vt 0.858353 0.493872
vt 0.782940 0.516037
vt 0.779491 0.478459
vt 0.942039 0.034630
vt 0.951952 0.034630
vt 0.951952 0.407300
vt 0.942039 0.407300
vt 0.923507 0.034630
vt 0.923507 0.407300
vt 0.933421 0.034630
vt 0.933421 0.407300
vt 0.886445 0.034630
vt 0.896359 0.034630
vt 0.896359 0.407300
vt 0.886445 0.407300
vt 0.877828 0.034630
vt 0.877828 0.407300
vt 0.048241 0.977579
vt 0.110311 0.977579
vt 0.868396 0.505692
vt 0.876666 0.507577
vt 0.876666 0.586179
vt 0.834341 0.576534
vt 0.894627 0.494950
vt 0.895652 0.486530
vt 0.973840 0.478459
vt 0.968591 0.521550
vt 0.883900 0.506153
vt 0.913691 0.578891
vt 0.890838 0.501275
vt 0.949203 0.553924
vt 0.862493 0.501275
vt 0.804129 0.553924
vt 0.048241 0.839201
vt 0.110311 0.839201
vt 0.773579 0.395527
vt 0.619626 0.395527
vt 0.514853 0.342284
vt 0.514853 0.063868
s 1
usemtl Jet_D'eau
f 147/1/1 11/2/1 4/3/1 148/4/1
f 4/3/1 11/2/1 32/5/1 25/6/1
f 152/7/2 7/8/2 16/9/2 153/10/2
f 148/4/3 4/3/3 3/11/3 150/12/3
f 152/7/4 6/13/4 5/14/4 151/15/4
f 154/16/5 14/17/5 13/18/5 153/10/5
f 147/1/6 10/19/6 9/20/6 149/21/6
f 138/22/7 139/23/7 144/24/7 141/25/7
f 24/26/7 23/27/7 47/28/7 48/29/7
f 23/30/4 24/31/4 40/32/4 39/33/4
f 11/2/6 12/34/6 31/35/6 32/5/6
f 12/34/8 23/36/8 39/37/8 31/35/8
f 7/8/4 8/38/4 27/39/4 28/40/4
f 21/41/3 22/42/3 38/43/3 37/44/3
f 12/45/7 15/46/7 22/47/7 23/27/7
f 8/48/7 3/49/7 18/50/7 19/51/7
f 23/27/7 22/47/7 46/52/7 47/28/7
f 55/53/6 56/54/6 72/55/6 71/56/6
f 29/57/7 28/40/7 36/58/7 37/44/7
f 32/5/7 31/35/7 39/33/7 40/32/7
f 25/6/7 32/5/7 40/32/7 33/59/7
f 30/60/7 29/57/7 37/44/7 38/43/7
f 28/40/7 27/39/7 35/61/7 36/58/7
f 26/62/7 25/6/7 33/59/7 34/63/7
f 24/31/2 17/64/2 33/59/2 40/32/2
f 22/65/9 15/66/9 30/60/9 38/67/9
f 15/66/5 16/9/5 29/57/5 30/60/5
f 16/9/2 7/8/2 28/40/2 29/57/2
f 8/38/10 19/68/10 35/69/10 27/39/10
f 20/70/1 21/41/1 37/44/1 36/58/1
f 17/64/5 18/71/5 34/63/5 33/59/5
f 18/72/11 3/11/11 26/62/11 34/73/11
f 3/11/3 4/3/3 25/6/3 26/62/3
f 19/74/6 20/70/6 36/58/6 35/61/6
f 20/75/7 19/51/7 43/76/7 44/77/7
f 19/51/7 18/50/7 42/78/7 43/76/7
f 22/47/7 21/79/7 45/80/7 46/52/7
f 18/50/7 17/81/7 41/82/7 42/78/7
f 21/79/7 20/75/7 44/77/7 45/80/7
f 17/81/7 24/26/7 48/29/7 41/82/7
f 50/83/7 49/84/7 73/85/7 74/86/7
f 43/87/12 42/88/12 60/89/12 57/90/12
f 53/91/5 54/92/5 70/93/5 69/94/5
f 48/95/4 47/96/4 63/97/4 64/98/4
f 51/99/3 52/100/3 68/101/3 67/102/3
f 46/103/3 45/104/3 61/105/3 62/106/3
f 49/84/4 50/83/4 66/107/4 65/108/4
f 50/109/2 53/91/2 69/94/2 66/110/2
f 63/97/7 62/106/7 70/93/7 71/56/7
f 57/90/7 60/89/7 68/101/7 65/108/7
f 60/89/7 59/111/7 67/102/7 68/101/7
f 62/106/7 61/105/7 69/94/7 70/93/7
f 61/105/7 58/112/7 66/110/7 69/94/7
f 59/111/7 64/98/7 72/55/7 67/102/7
f 64/98/7 63/97/7 71/56/7 72/55/7
f 58/113/7 57/90/7 65/108/7 66/107/7
f 44/114/6 43/87/6 57/90/6 58/113/6
f 41/115/2 48/95/2 64/98/2 59/111/2
f 52/100/13 49/84/13 65/108/13 68/101/13
f 42/88/5 41/115/5 59/111/5 60/89/5
f 47/96/13 46/103/13 62/106/13 63/97/13
f 56/54/1 51/99/1 67/102/1 72/55/1
f 45/104/1 44/116/1 58/112/1 61/105/1
f 54/92/12 55/53/12 71/56/12 70/93/12
f 77/117/2 74/118/2 82/119/2 85/120/2
f 53/91/7 50/109/7 74/118/7 77/117/7
f 51/99/7 56/54/7 80/121/7 75/122/7
f 56/54/7 55/53/7 79/123/7 80/121/7
f 52/100/7 51/99/7 75/122/7 76/124/7
f 55/53/7 54/92/7 78/125/7 79/123/7
f 49/84/7 52/100/7 76/124/7 73/85/7
f 54/92/7 53/91/7 77/117/7 78/125/7
f 86/126/7 85/120/7 93/127/7 94/128/7
f 75/122/1 80/121/1 88/129/1 83/130/1
f 80/121/6 79/123/6 87/131/6 88/129/6
f 76/124/3 75/122/3 83/130/3 84/132/3
f 79/123/12 78/125/12 86/126/12 87/131/12
f 73/85/13 76/124/13 84/132/13 81/133/13
f 78/125/5 77/117/5 85/120/5 86/126/5
f 74/86/4 73/85/4 81/133/4 82/134/4
f 103/135/4 104/136/4 120/137/4 119/138/4
f 82/134/7 81/133/7 89/139/7 90/140/7
f 85/120/7 82/119/7 90/141/7 93/127/7
f 83/130/7 88/129/7 96/142/7 91/143/7
f 88/129/7 87/131/7 95/144/7 96/142/7
f 84/132/7 83/130/7 91/143/7 92/145/7
f 87/131/7 86/126/7 94/128/7 95/144/7
f 81/133/7 84/132/7 92/145/7 89/139/7
f 103/146/7 102/147/7 126/148/7 127/149/7
f 89/139/12 92/145/12 108/150/12 105/151/12
f 101/152/3 102/153/3 118/154/3 117/155/3
f 96/142/4 95/144/4 111/156/4 112/157/4
f 99/158/5 100/159/5 116/160/5 115/161/5
f 94/128/3 93/127/3 109/162/3 110/163/3
f 97/164/6 98/165/6 114/166/6 113/167/6
f 92/145/5 91/143/5 107/168/5 108/150/5
f 111/156/7 110/163/7 118/154/7 119/138/7
f 105/151/7 108/150/7 116/160/7 113/167/7
f 110/163/7 109/162/7 117/155/7 118/154/7
f 106/169/7 105/151/7 113/167/7 114/166/7
f 109/162/7 106/170/7 114/171/7 117/155/7
f 107/168/7 112/157/7 120/137/7 115/161/7
f 112/157/7 111/156/7 119/138/7 120/137/7
f 108/150/7 107/168/7 115/161/7 116/160/7
f 91/143/2 96/142/2 112/157/2 107/168/2
f 100/159/12 97/164/12 113/167/12 116/160/12
f 95/144/13 94/128/13 110/163/13 111/156/13
f 104/136/2 99/158/2 115/161/2 120/137/2
f 93/127/1 90/141/1 106/170/1 109/162/1
f 102/153/13 103/135/13 119/138/13 118/154/13
f 90/140/6 89/139/6 105/151/6 106/169/6
f 98/172/1 101/152/1 117/155/1 114/171/1
f 127/173/12 126/174/12 134/175/12 135/176/12
f 97/177/7 100/178/7 124/179/7 121/180/7
f 102/147/7 101/181/7 125/182/7 126/148/7
f 98/183/7 97/177/7 121/180/7 122/184/7
f 101/181/7 98/183/7 122/184/7 125/182/7
f 99/185/7 104/186/7 128/187/7 123/188/7
f 104/186/7 103/146/7 127/149/7 128/187/7
f 100/178/7 99/185/7 123/188/7 124/179/7
f 132/189/14 131/190/14 139/191/14 140/192/14
f 121/193/13 124/194/13 132/195/13 129/196/13
f 126/174/5 125/197/5 133/198/5 134/175/5
f 122/199/4 121/193/4 129/196/4 130/200/4
f 125/197/2 122/199/2 130/200/2 133/198/2
f 123/201/1 128/202/1 136/203/1 131/204/1
f 128/202/6 127/173/6 135/176/6 136/203/6
f 124/205/3 123/201/3 131/204/3 132/206/3
f 140/207/7 139/23/7 138/22/7 137/208/7
f 135/209/15 134/210/15 142/211/15 143/212/15
f 129/213/16 132/214/16 140/215/16 137/216/16
f 134/210/17 133/217/17 141/218/17 142/211/17
f 130/219/18 129/213/18 137/216/18 138/220/18
f 133/217/19 130/219/19 138/220/19 141/218/19
f 131/190/20 136/221/20 144/222/20 139/191/20
f 136/221/21 135/209/21 143/212/21 144/222/21
f 141/25/7 144/24/7 143/223/7 142/224/7
f 15/46/7 12/45/7 145/225/7 146/226/7
f 11/2/6 147/1/6 149/21/6 12/34/6
f 15/66/5 154/16/5 153/10/5 16/9/5
f 7/8/4 152/7/4 151/15/4 8/38/4
f 1/227/3 148/4/3 150/12/3 2/228/3
f 6/13/2 152/7/2 153/10/2 13/18/2
f 10/19/1 147/1/1 148/4/1 1/227/1
