# Blender 4.2.0
# www.blender.org
mtllib Platform_P_1.mtl
o Platform_P_1
v -8.587978 -0.863003 -8.001917
v -8.587978 0.136997 -8.001917
v -8.587978 -0.863002 -3.057402
v -8.587978 0.136998 -3.057402
v -8.587978 0.136999 -0.000006
v 2.951796 0.136998 -3.057402
v 2.951796 0.136999 -0.000006
v 1.210411 -0.863003 -8.001917
v 2.951796 -0.863002 -4.519148
v 2.951796 0.136998 -4.519148
v 1.210411 0.136997 -8.001917
v -13.679886 0.136999 -0.000006
v -13.679886 0.136998 -3.057402
v -13.679886 -0.863002 -3.057402
v -8.587978 0.136998 -4.456863
v -8.587978 -0.863002 -4.442995
v -8.145748 0.136999 -0.000006
v -8.145748 0.136998 -3.057402
v -8.212481 -0.863003 -8.001917
v -8.212481 0.136997 -8.001917
v -8.145748 0.136998 -4.459249
v -8.587978 -0.863003 -7.599060
v -8.587978 0.136997 -7.600630
v 1.407530 0.136997 -7.607679
v 1.407530 -0.863003 -7.607679
v -8.204927 0.136997 -7.600901
v 0.916031 -0.863003 -8.001917
v 0.916031 0.136997 -8.001917
v 2.605099 0.136999 -0.000006
v 2.605099 0.136998 -3.057402
v 2.605099 0.136998 -4.517279
v 1.107227 0.136997 -7.607470
v -8.587978 0.136998 -2.681341
v 2.951796 0.136998 -2.681341
v -13.679886 0.136998 -2.681341
v -8.145748 0.136998 -2.681341
v 2.605099 0.136998 -2.681341
v -16.034035 0.136998 -2.681341
v -16.034035 0.136999 -0.000006
v -16.034035 -0.863001 -0.000006
v -16.034035 -0.863001 -2.681341
v -16.034035 -0.863002 -3.057402
v -16.034035 0.136998 -3.057402
v 5.309746 0.136999 -0.000006
v 5.309746 0.136998 -2.681341
v 5.309746 0.136998 -3.057402
v 5.309746 -0.863001 -2.681341
v 5.309746 -0.863001 -0.000006
v 5.309746 -0.863002 -3.057402
v 3.813920 0.136999 -0.000006
v 3.813920 0.136998 -2.681341
v 3.813920 0.136998 -3.057402
v 3.813920 -0.863002 -4.519148
v 3.813920 0.136998 -4.519148
v 2.951796 0.306151 -4.519148
v 2.951796 0.306151 -3.057402
v 2.605099 0.306151 -3.057402
v 2.605099 0.306151 -4.517279
v 5.309746 0.306152 -2.681341
v 5.309746 0.306151 -3.057402
v 5.309746 0.306152 -0.000006
v 3.813920 0.306152 -0.000006
v 3.813920 0.306151 -3.057402
v 3.813920 0.306152 -2.681341
v 3.813920 0.306151 -4.519148
v 3.860155 0.372183 -4.473967
v 5.263511 0.372184 -3.102583
v 3.813920 0.442839 -3.057402
v 3.813920 0.660332 -3.057402
v 3.880941 0.710972 -4.453653
v 3.813920 0.660331 -4.519148
v 5.242724 0.710972 -3.122896
v 5.309746 0.660332 -3.057402
v 3.813920 0.442839 -4.519148
v 5.309746 0.442839 -3.057402
v 3.860155 0.372184 -3.102583
v 3.880941 0.710972 -3.122896
v 3.813920 0.760937 -4.519148
v 5.309746 0.760937 -3.057402
v 3.813920 0.760937 -3.057402
v 5.277327 1.014512 -3.089821
v 5.309746 0.982093 -3.057402
v 3.846339 1.014512 -3.089821
v 3.813920 0.982093 -3.057402
v 3.813920 0.982093 -4.519148
v 3.846339 1.014512 -4.486729
v -8.587978 -0.363003 -8.001917
v -8.587978 -0.363002 -3.057402
v 2.951796 -0.363002 -4.519148
v 1.210411 -0.363003 -8.001917
v -13.679886 -0.363002 -3.057402
v -8.587978 -0.363002 -4.449930
v -8.212481 -0.363003 -8.001917
v -8.587978 -0.363003 -7.599844
v 1.407530 -0.363003 -7.607679
v 0.916031 -0.363003 -8.001917
v -16.034035 -0.363002 -3.057402
v -16.034035 -0.363001 -0.000006
v -16.034035 -0.363002 -2.681341
v 5.309746 -0.363001 -0.000006
v 5.309746 -0.363002 -3.057402
v 5.309746 -0.363002 -2.681341
v 3.813920 -0.363002 -4.519148
v -8.587978 -0.113002 -3.057402
v 1.210411 -0.113003 -8.001917
v -8.587978 -0.113003 -8.001917
v 1.407530 -0.113003 -7.607679
v -16.034035 -0.113001 -0.000006
v -16.034035 -0.113001 -2.681341
v 2.951796 -0.113002 -4.519148
v -13.679886 -0.113002 -3.057402
v -8.587978 -0.113002 -4.453398
v -8.212481 -0.113003 -8.001917
v -8.587978 -0.113003 -7.600237
v 0.916031 -0.113003 -8.001917
v -16.034035 -0.113002 -3.057402
v 3.813920 -0.113002 -4.519148
v -8.587978 -0.613003 -8.001917
v -8.587978 -0.613002 -3.057402
v 2.951796 -0.613002 -4.519148
v -13.679886 -0.613002 -3.057402
v -8.587978 -0.613002 -4.446463
v -8.212481 -0.613003 -8.001917
v -8.587978 -0.613003 -7.599451
v 0.916031 -0.613003 -8.001917
v -16.034035 -0.613002 -3.057402
v 3.813920 -0.613002 -4.519148
v 1.210411 -0.613003 -8.001917
v 1.407530 -0.613003 -7.607679
v -16.034035 -0.613001 -0.000006
v -16.034035 -0.613002 -2.681341
v -8.587978 0.136998 -4.057568
v -8.587978 -0.863002 -4.047655
v -8.145748 0.136998 -4.059273
v 2.605099 0.136998 -4.100744
v 5.309746 -0.863002 -4.102081
v 5.309746 0.136998 -4.102081
v 2.951796 0.306151 -4.102081
v 2.605099 0.306151 -4.100744
v 5.309746 0.306151 -4.102081
v 3.813920 0.306151 -4.102081
v 5.309746 0.660331 -4.102081
v 3.813920 0.660331 -4.102081
v 3.860155 0.372183 -4.082682
v 5.263511 0.372183 -4.082682
v 3.813920 0.442839 -4.102081
v 5.309746 0.442839 -4.102081
v 5.242724 0.710972 -4.073959
v 3.880941 0.710972 -4.073959
v 5.309746 0.760937 -4.102081
v 3.813920 0.760937 -4.102081
v 5.277327 1.014512 -4.088161
v 5.309746 0.982093 -4.102081
v 3.846339 1.014512 -4.088161
v 3.813920 0.982093 -4.102081
v 5.309746 -0.363002 -4.102081
v -8.587978 -0.363002 -4.052612
v -8.587978 -0.113002 -4.055090
v -8.587978 -0.613002 -4.050135
v 5.309746 -0.223844 -0.000006
v 5.309746 -0.002158 -0.000006
v 5.216042 -0.113001 -0.000006
v 5.309746 -0.223845 -3.057402
v 5.309746 -0.002158 -3.057402
v 5.216042 -0.113002 -3.057402
v 5.309746 -0.002158 -2.681341
v 5.309746 -0.223845 -2.681341
v 5.216042 -0.113001 -2.681341
v 5.309746 -0.723844 -0.000006
v 5.309746 -0.502158 -0.000006
v 5.216042 -0.613001 -0.000006
v 5.309746 -0.723845 -3.057402
v 5.309746 -0.502158 -3.057402
v 5.216042 -0.613002 -3.057402
v 5.309746 -0.723845 -2.681341
v 5.309746 -0.502158 -2.681341
v 5.216042 -0.613002 -2.681341
v 5.309746 -0.002159 -4.102081
v 5.309746 -0.223845 -4.102081
v 5.309746 -0.113002 -4.212925
v 5.216042 -0.113002 -4.102081
v 5.309746 -0.502159 -4.102081
v 5.309746 -0.723845 -4.102081
v 5.309746 -0.613002 -4.212925
v 5.216042 -0.613002 -4.102081
v 5.282802 -0.863002 -4.519148
v 5.309746 -0.863002 -4.492231
v 5.282288 0.136998 -4.519148
v 5.309746 0.136998 -4.491737
v 5.281950 0.306151 -4.519148
v 5.309746 0.306151 -4.491413
v 5.235280 0.372183 -4.473967
v 5.263511 0.372183 -4.445820
v 5.213555 0.710972 -4.453653
v 5.242724 0.710972 -4.424604
v 5.309746 0.660331 -4.490480
v 5.280978 0.660331 -4.519148
v 5.281239 0.442839 -4.519148
v 5.309746 0.442839 -4.490734
v 5.280542 0.760937 -4.519148
v 5.309746 0.760937 -4.490053
v 5.309746 0.982093 -4.490015
v 5.280513 0.982093 -4.519148
v 5.277327 1.014512 -4.457479
v 5.247983 1.014511 -4.486729
v 5.282682 -0.363002 -4.519148
v 5.309746 -0.363002 -4.492117
v 5.309746 -0.113002 -4.491966
v 5.282525 -0.113002 -4.519148
v 5.309746 -0.613002 -4.492205
v 5.282772 -0.613002 -4.519148
v -8.587978 -0.862999 8.001905
v -8.587978 0.137001 8.001905
v -8.587978 -0.863001 3.057390
v -8.587978 0.136999 3.057390
v 2.951796 0.136999 3.057390
v 1.210411 -0.862999 8.001905
v 2.951796 -0.863000 4.519136
v 2.951796 0.137000 4.519136
v 1.210411 0.137001 8.001905
v -13.679886 0.136999 3.057390
v -13.679886 -0.863001 3.057390
v -8.587978 0.137000 4.456852
v -8.587978 -0.863000 4.442984
v -8.145748 0.136999 3.057390
v -8.212481 -0.862999 8.001905
v -8.212481 0.137001 8.001905
v -8.145748 0.137000 4.459237
v -8.587978 -0.862999 7.599049
v -8.587978 0.137001 7.600618
v 1.407530 0.137001 7.607668
v 1.407530 -0.862999 7.607668
v -8.204927 0.137001 7.600889
v 0.916031 -0.862999 8.001905
v 0.916031 0.137001 8.001905
v 2.605099 0.136999 3.057390
v 2.605099 0.137000 4.517267
v 1.107227 0.137001 7.607458
v -8.587978 0.136999 2.681330
v 2.951796 0.136999 2.681330
v -13.679886 0.136999 2.681330
v -8.145748 0.136999 2.681330
v 2.605099 0.136999 2.681330
v -16.034035 0.136999 2.681330
v -16.034035 -0.863001 2.681330
v -16.034035 -0.863001 3.057390
v -16.034035 0.136999 3.057390
v 5.309746 0.136999 2.681330
v 5.309746 0.136999 3.057390
v 5.309746 -0.863001 2.681330
v 5.309746 -0.863001 3.057390
v 3.813920 0.136999 2.681330
v 3.813920 0.136999 3.057390
v 3.813920 -0.863000 4.519136
v 3.813920 0.137000 4.519136
v 2.951796 0.306153 4.519136
v 2.951796 0.306152 3.057390
v 2.605099 0.306152 3.057390
v 2.605099 0.306153 4.517267
v 5.309746 0.306152 2.681330
v 5.309746 0.306152 3.057390
v 3.813920 0.306152 3.057390
v 3.813920 0.306152 2.681330
v 3.813920 0.306153 4.519136
v 3.860155 0.372185 4.473955
v 5.263511 0.372185 3.102571
v 3.813920 0.442840 3.057390
v 3.813920 0.660333 3.057390
v 3.880941 0.710973 4.453642
v 3.813920 0.660333 4.519136
v 5.242724 0.710973 3.122885
v 5.309746 0.660333 3.057390
v 3.813920 0.442840 4.519136
v 5.309746 0.442840 3.057390
v 3.860155 0.372185 3.102571
v 3.880941 0.710973 3.122885
v 3.813920 0.760938 4.519136
v 5.309746 0.760938 3.057390
v 3.813920 0.760938 3.057390
v 5.277327 1.014513 3.089809
v 5.309746 0.982094 3.057390
v 3.846339 1.014513 3.089809
v 3.813920 0.982094 3.057390
v 3.813920 0.982094 4.519136
v 3.846339 1.014513 4.486717
v -8.587978 -0.362999 8.001905
v -8.587978 -0.363001 3.057390
v 2.951796 -0.363000 4.519136
v 1.210411 -0.362999 8.001905
v -13.679886 -0.363001 3.057390
v -8.587978 -0.363000 4.449919
v -8.212481 -0.362999 8.001905
v -8.587978 -0.362999 7.599833
v 1.407530 -0.362999 7.607668
v 0.916031 -0.362999 8.001905
v -16.034035 -0.363001 3.057390
v -16.034035 -0.363001 2.681330
v 5.309746 -0.363001 3.057390
v 5.309746 -0.363001 2.681330
v 3.813920 -0.363000 4.519136
v -8.587978 -0.113001 3.057390
v 1.210411 -0.112999 8.001905
v -8.587978 -0.112999 8.001905
v 1.407530 -0.112999 7.607668
v -16.034035 -0.113001 2.681330
v 2.951796 -0.113000 4.519136
v -13.679886 -0.113001 3.057390
v -8.587978 -0.113000 4.453386
v -8.212481 -0.112999 8.001905
v -8.587978 -0.112999 7.600225
v 0.916031 -0.112999 8.001905
v -16.034035 -0.113001 3.057390
v 3.813920 -0.113000 4.519136
v -8.587978 -0.612999 8.001905
v -8.587978 -0.613001 3.057390
v 2.951796 -0.613000 4.519136
v -13.679886 -0.613001 3.057390
v -8.587978 -0.613000 4.446451
v -8.212481 -0.612999 8.001905
v -8.587978 -0.612999 7.599440
v 0.916031 -0.612999 8.001905
v -16.034035 -0.613001 3.057390
v 3.813920 -0.613000 4.519136
v 1.210411 -0.612999 8.001905
v 1.407530 -0.612999 7.607668
v -16.034035 -0.613001 2.681330
v -8.587978 0.137000 4.057556
v -8.587978 -0.863000 4.047644
v -8.145748 0.137000 4.059261
v 2.605099 0.137000 4.100733
v 5.309746 -0.863000 4.102070
v 5.309746 0.137000 4.102070
v 2.951796 0.306153 4.102070
v 2.605099 0.306153 4.100733
v 5.309746 0.306153 4.102070
v 3.813920 0.306153 4.102070
v 5.309746 0.660333 4.102070
v 3.813920 0.660333 4.102070
v 3.860155 0.372185 4.082670
v 5.263511 0.372185 4.082670
v 3.813920 0.442840 4.102070
v 5.309746 0.442840 4.102070
v 5.242724 0.710973 4.073948
v 3.880941 0.710973 4.073948
v 5.309746 0.760938 4.102070
v 3.813920 0.760938 4.102070
v 5.277327 1.014513 4.088150
v 5.309746 0.982094 4.102070
v 3.846339 1.014513 4.088150
v 3.813920 0.982094 4.102070
v 5.309746 -0.363000 4.102070
v -8.587978 -0.363000 4.052601
v -8.587978 -0.113000 4.055079
v -8.587978 -0.613000 4.050123
v 5.309746 -0.223844 3.057390
v 5.309746 -0.002158 3.057390
v 5.216042 -0.113001 3.057390
v 5.309746 -0.002158 2.681330
v 5.309746 -0.223844 2.681330
v 5.216042 -0.113001 2.681330
v 5.309746 -0.723844 3.057390
v 5.309746 -0.502158 3.057390
v 5.216042 -0.613001 3.057390
v 5.309746 -0.723844 2.681330
v 5.309746 -0.502158 2.681330
v 5.216042 -0.613001 2.681330
v 5.309746 -0.002157 4.102070
v 5.309746 -0.223843 4.102070
v 5.309746 -0.113000 4.212914
v 5.216042 -0.113000 4.102070
v 5.309746 -0.502157 4.102070
v 5.309746 -0.723843 4.102070
v 5.309746 -0.613000 4.212914
v 5.216042 -0.613000 4.102070
v 5.282802 -0.863000 4.519136
v 5.309746 -0.863000 4.492220
v 5.282288 0.137000 4.519136
v 5.309746 0.137000 4.491726
v 5.281950 0.306153 4.519136
v 5.309746 0.306153 4.491402
v 5.235280 0.372185 4.473955
v 5.263511 0.372185 4.445808
v 5.213555 0.710973 4.453642
v 5.242724 0.710973 4.424593
v 5.309746 0.660333 4.490469
v 5.280978 0.660333 4.519136
v 5.281239 0.442840 4.519136
v 5.309746 0.442840 4.490723
v 5.280542 0.760938 4.519136
v 5.309746 0.760938 4.490042
v 5.309746 0.982094 4.490004
v 5.280513 0.982094 4.519136
v 5.277327 1.014513 4.457468
v 5.247983 1.014513 4.486717
v 5.282682 -0.363000 4.519136
v 5.309746 -0.363000 4.492105
v 5.309746 -0.113000 4.491955
v 5.282525 -0.113000 4.519136
v 5.309746 -0.613000 4.492193
v 5.282772 -0.613000 4.519136
vn -1.0000 -0.0000 -0.0000
vn -0.0000 -0.0000 -1.0000
vn -0.0000 1.0000 -0.0000
vn 0.8944 -0.0000 -0.4472
vn -0.0000 0.5647 -0.8253
vn 1.0000 -0.0000 -0.0000
vn -0.0000 -0.0000 1.0000
vn -0.0054 -0.0000 -1.0000
vn -0.8192 0.5736 -0.0000
vn 0.8192 0.5736 -0.0000
vn 0.8368 -0.5476 -0.0000
vn -0.0000 0.5647 0.8253
vn -0.8368 -0.5476 -0.0000
vn -0.0000 0.7911 -0.6117
vn -0.0000 -0.5388 -0.8425
vn -0.0000 -0.5387 0.8425
vn -0.0000 0.7911 0.6117
vn 0.5977 -0.8017 -0.0000
vn -0.6028 0.7979 -0.0000
vn -0.0000 -0.7950 0.6066
vn -0.0000 -0.7951 -0.6065
vn 0.6029 0.7979 -0.0000
vn -0.5977 -0.8017 -0.0000
vn 0.7071 0.7071 -0.0000
vn -0.0000 0.7071 0.7071
vn -0.7071 0.7071 -0.0000
vn -0.0000 0.7071 -0.7071
vn -0.6029 0.7979 -0.0000
vn 0.6028 0.7979 -0.0000
vn 0.6416 -0.5424 0.5424
vn 0.6416 0.5424 0.5424
vn 0.7637 0.6456 -0.0000
vn 0.7637 -0.6456 -0.0000
vn 0.7065 0.0007 -0.7077
vn 0.7064 0.0014 -0.7078
vn 0.5035 0.7012 -0.5048
vn 0.3348 0.8803 -0.3361
vn 0.5216 -0.6739 -0.5233
vn 0.7059 0.0008 -0.7083
vn 0.3321 -0.8823 -0.3334
vn 0.4071 0.8170 -0.4084
vn 0.7058 0.0001 -0.7084
vn 0.7067 0.0003 -0.7075
vn 0.7066 0.0004 -0.7076
vn 0.7067 0.0001 -0.7075
vn 0.8944 -0.0000 0.4472
vn -0.0054 -0.0000 1.0000
vn -0.0000 -0.5387 -0.8425
vn -0.0000 -0.7951 0.6065
vn 0.6416 -0.5424 -0.5424
vn 0.6416 0.5424 -0.5424
vn 0.7065 0.0007 0.7077
vn 0.7064 0.0014 0.7078
vn 0.5035 0.7012 0.5048
vn 0.3348 0.8803 0.3361
vn 0.5216 -0.6739 0.5232
vn 0.7059 0.0008 0.7083
vn 0.3321 -0.8823 0.3334
vn 0.4071 0.8170 0.4084
vn 0.7058 0.0001 0.7084
vn 0.7067 0.0002 0.7075
vn 0.7066 0.0004 0.7076
vn 0.7067 0.0001 0.7075
vt 0.569061 0.114939
vt 0.563734 0.114887
vt 0.563734 0.106379
vt 0.569061 0.106453
vt 0.860507 0.974471
vt 0.860507 0.969145
vt 0.866779 0.969145
vt 0.866779 0.974471
vt 0.896495 0.855784
vt 0.903881 0.855784
vt 0.903881 0.863797
vt 0.896495 0.863797
vt 0.885271 0.967892
vt 0.890036 0.970274
vt 0.885836 0.978673
vt 0.881071 0.976291
vt 0.579714 0.136196
vt 0.585040 0.136196
vt 0.585040 0.244685
vt 0.579714 0.244685
vt 0.569061 0.039406
vt 0.563734 0.039397
vt 0.563734 0.030848
vt 0.569061 0.030848
vt 0.658013 0.974471
vt 0.658013 0.969145
vt 0.666014 0.969145
vt 0.666014 0.974471
vt 0.896495 0.886026
vt 0.667435 0.885143
vt 0.667435 0.863797
vt 0.918174 0.902087
vt 0.922938 0.904469
vt 0.667435 0.893665
vt 0.896495 0.894901
vt 0.864580 0.960741
vt 0.666175 0.960601
vt 0.667435 0.855784
vt 0.667435 0.798655
vt 0.896495 0.798655
vt 0.658013 0.798655
vt 0.658013 0.855784
vt 0.549524 0.855784
vt 0.549524 0.798655
vt 0.903881 0.798655
vt 0.499367 0.855784
vt 0.499367 0.798655
vt 0.579714 0.302855
vt 0.585040 0.302855
vt 0.585040 0.359984
vt 0.579714 0.359984
vt 0.579714 0.294842
vt 0.585040 0.294842
vt 0.489037 0.951372
vt 0.489037 0.905689
vt 0.491527 0.907127
vt 0.491527 0.949920
vt 0.379153 0.731244
vt 0.374865 0.731212
vt 0.374859 0.699472
vt 0.379180 0.699317
vt 0.435787 0.267814
vt 0.439762 0.343645
vt 0.431026 0.344103
vt 0.427053 0.268289
vt 0.480829 0.386138
vt 0.467918 0.386815
vt 0.465584 0.342292
vt 0.478495 0.341615
vt 0.491406 0.340938
vt 0.474519 0.265758
vt 0.487429 0.265080
vt 0.455007 0.387492
vt 0.442096 0.388168
vt 0.452673 0.342969
vt 0.922250 0.855784
vt 0.922250 0.863797
vt 0.922250 0.798655
vt 0.349136 0.393127
vt 0.346756 0.348586
vt 0.355495 0.348119
vt 0.357875 0.392660
vt 0.350095 0.411038
vt 0.358834 0.410570
vt 0.396929 0.742916
vt 0.396876 0.731114
vt 0.402149 0.731056
vt 0.402235 0.742889
vt 0.454503 0.730913
vt 0.454526 0.742737
vt 0.449209 0.742745
vt 0.449184 0.730923
vt 0.396920 0.827006
vt 0.402227 0.827007
vt 0.433362 0.388615
vt 0.413198 0.416420
vt 0.359302 0.419308
vt 0.412728 0.407682
vt 0.442991 0.406087
vt 0.434244 0.406521
vt 0.396091 0.698939
vt 0.391766 0.699276
vt 0.387553 0.695898
vt 0.387365 0.686535
vt 0.395482 0.686317
vt 0.400959 0.686132
vt 0.401423 0.698754
vt 0.454564 0.827026
vt 0.449247 0.827024
vt 0.411833 0.389773
vt 0.409470 0.345240
vt 0.525957 0.959805
vt 0.513592 0.958572
vt 0.514549 0.952547
vt 0.526106 0.952464
vt 0.566417 0.905776
vt 0.566349 0.952740
vt 0.559405 0.952730
vt 0.559473 0.905766
vt 0.370787 0.695918
vt 0.371027 0.686475
vt 0.379203 0.686559
vt 0.526379 0.898373
vt 0.559058 0.898430
vt 0.559049 0.905350
vt 0.526363 0.905284
vt 0.578431 0.905793
vt 0.578364 0.952757
vt 0.571535 0.952748
vt 0.571602 0.905783
vt 0.506045 0.951328
vt 0.506045 0.905689
vt 0.512927 0.905689
vt 0.512927 0.951327
vt 0.525608 0.972067
vt 0.512682 0.971089
vt 0.513204 0.964998
vt 0.525802 0.964765
vt 0.526398 0.886332
vt 0.559076 0.886383
vt 0.559066 0.893187
vt 0.526388 0.893133
vt 0.526406 0.881170
vt 0.559084 0.881220
vt 0.557667 0.883740
vt 0.527009 0.883692
vt 0.525524 0.977160
vt 0.512010 0.977341
vt 0.513146 0.974325
vt 0.526147 0.974675
vt 0.583576 0.905800
vt 0.583509 0.952765
vt 0.580999 0.951310
vt 0.581062 0.907248
vt 0.500905 0.951342
vt 0.500905 0.905689
vt 0.503481 0.907774
vt 0.503481 0.949244
vt 0.494137 0.905689
vt 0.494136 0.951350
vt 0.568939 0.950639
vt 0.569000 0.907884
vt 0.526700 0.962293
vt 0.514456 0.961826
vt 0.557014 0.895811
vt 0.527263 0.895760
vt 0.526554 0.951023
vt 0.557968 0.951710
vt 0.558958 0.953177
vt 0.558032 0.906782
vt 0.526795 0.906718
vt 0.515378 0.951172
vt 0.514353 0.950315
vt 0.514354 0.906698
vt 0.513343 0.905265
vt 0.448698 0.267125
vt 0.461608 0.266440
vt 0.383487 0.699462
vt 0.392563 0.731142
vt 0.379084 0.826999
vt 0.374719 0.826998
vt 0.374757 0.742952
vt 0.379109 0.742957
vt 0.569061 0.244685
vt 0.574388 0.244685
vt 0.574388 0.294842
vt 0.569061 0.294842
vt 0.574388 0.302855
vt 0.569061 0.302855
vt 0.574388 0.359984
vt 0.569061 0.359984
vt 0.666014 0.985125
vt 0.666014 0.979798
vt 0.860507 0.979798
vt 0.860507 0.985125
vt 0.908646 0.897323
vt 0.913410 0.899705
vt 0.880507 0.965510
vt 0.875743 0.963127
vt 0.579714 0.106601
vt 0.574387 0.106526
vt 0.574387 0.039414
vt 0.579714 0.039422
vt 0.658013 0.985125
vt 0.658013 0.979798
vt 0.574387 0.030848
vt 0.579714 0.030848
vt 0.569061 0.136196
vt 0.574387 0.136196
vt 0.876307 0.973909
vt 0.871543 0.971527
vt 0.866779 0.979798
vt 0.866779 0.985125
vt 0.579714 0.115045
vt 0.574387 0.114992
vt 0.870979 0.960745
vt 0.563734 0.136196
vt 0.563734 0.244685
vt 0.903881 0.894941
vt 0.563734 0.302855
vt 0.563734 0.359984
vt 0.563734 0.294842
vt 0.383385 0.731243
vt 0.383448 0.827001
vt 0.383451 0.742954
vt 0.585040 0.115098
vt 0.585040 0.106675
vt 0.860507 0.990451
vt 0.866779 0.990451
vt 0.585040 0.039431
vt 0.585040 0.030848
vt 0.658013 0.990451
vt 0.666014 0.990451
vt 0.493740 0.385462
vt 0.365613 0.826995
vt 0.361248 0.826993
vt 0.361305 0.742875
vt 0.365652 0.742905
vt 0.365704 0.731186
vt 0.361461 0.731131
vt 0.362200 0.699052
vt 0.366547 0.699357
vt 0.392565 0.742936
vt 0.558762 0.960207
vt 0.515395 0.895746
vt 0.513347 0.898356
vt 0.556610 0.962819
vt 0.513351 0.893117
vt 0.558655 0.965512
vt 0.557049 0.975050
vt 0.558525 0.972400
vt 0.514773 0.883678
vt 0.513357 0.886317
vt 0.558438 0.977609
vt 0.513363 0.881155
vt 0.434715 0.415259
vt 0.387664 0.700319
vt 0.370730 0.700365
vt 0.387775 0.731185
vt 0.387991 0.742948
vt 0.388001 0.827003
vt 0.392554 0.827004
vt 0.370191 0.742931
vt 0.370166 0.826997
vt 0.370092 0.731189
vt 0.387346 0.685284
vt 0.395443 0.685060
vt 0.400915 0.684862
vt 0.510933 0.976990
vt 0.511702 0.974178
vt 0.512131 0.964754
vt 0.513016 0.961740
vt 0.511452 0.971101
vt 0.512462 0.958637
vt 0.513273 0.952007
vt 0.371055 0.685230
vt 0.379208 0.685311
vt 0.362926 0.684940
vt 0.362881 0.686179
vt 0.569061 0.605028
vt 0.569061 0.613515
vt 0.563734 0.613589
vt 0.563734 0.605081
vt 0.860507 0.622839
vt 0.866779 0.622839
vt 0.866779 0.628165
vt 0.860507 0.628165
vt 0.896495 0.741526
vt 0.896495 0.733514
vt 0.903881 0.733514
vt 0.903881 0.741526
vt 0.885271 0.629419
vt 0.881071 0.621019
vt 0.885835 0.618637
vt 0.890036 0.627037
vt 0.579714 0.583771
vt 0.579714 0.475283
vt 0.585040 0.475283
vt 0.585040 0.583771
vt 0.569061 0.680562
vt 0.569061 0.689120
vt 0.563734 0.689120
vt 0.563734 0.680570
vt 0.658013 0.622839
vt 0.666014 0.622839
vt 0.666014 0.628165
vt 0.658013 0.628165
vt 0.896495 0.711284
vt 0.667435 0.733514
vt 0.667435 0.712168
vt 0.918174 0.695223
vt 0.922938 0.692841
vt 0.667435 0.703646
vt 0.666175 0.636710
vt 0.864580 0.636570
vt 0.896495 0.702410
vt 0.667435 0.741526
vt 0.658013 0.741526
vt 0.549524 0.741526
vt 0.499367 0.741526
vt 0.579714 0.417113
vt 0.585040 0.417113
vt 0.579714 0.425125
vt 0.585040 0.425125
vt 0.658013 0.960595
vt 0.019041 0.035795
vt 0.021530 0.037248
vt 0.021530 0.080040
vt 0.019041 0.081479
vt 0.379087 0.922755
vt 0.379093 0.954682
vt 0.374772 0.954524
vt 0.374800 0.922784
vt 0.417103 0.293456
vt 0.417419 0.303055
vt 0.334112 0.305964
vt 0.333777 0.296365
vt 0.283368 0.255512
vt 0.332291 0.253805
vt 0.332787 0.267991
vt 0.283863 0.269699
vt 0.331796 0.239618
vt 0.415152 0.236708
vt 0.415645 0.250894
vt 0.284359 0.283886
vt 0.333282 0.282178
vt 0.284854 0.298073
vt 0.922250 0.733514
vt 0.922250 0.741526
vt 0.288326 0.400229
vt 0.288000 0.390625
vt 0.336948 0.388966
vt 0.337273 0.398570
vt 0.268643 0.400894
vt 0.268318 0.391290
vt 0.396872 0.911095
vt 0.402177 0.911125
vt 0.402083 0.922959
vt 0.396810 0.922897
vt 0.454437 0.923137
vt 0.449118 0.923123
vt 0.449151 0.911303
vt 0.454468 0.911313
vt 0.285202 0.307670
vt 0.256718 0.332386
vt 0.266320 0.332064
vt 0.258716 0.391614
vt 0.265530 0.308417
vt 0.265169 0.298809
vt 0.396004 0.955071
vt 0.395386 0.967693
vt 0.387270 0.967469
vt 0.387464 0.958106
vt 0.391679 0.954732
vt 0.401336 0.955260
vt 0.400863 0.967882
vt 0.285995 0.331329
vt 0.334931 0.329652
vt 0.055960 0.027362
vt 0.056110 0.034703
vt 0.044553 0.034620
vt 0.043596 0.028596
vt 0.096420 0.081391
vt 0.089476 0.081401
vt 0.089409 0.034437
vt 0.096353 0.034427
vt 0.379108 0.967440
vt 0.370931 0.967519
vt 0.370697 0.958076
vt 0.056382 0.088795
vt 0.056367 0.081882
vt 0.089053 0.081818
vt 0.089062 0.088737
vt 0.108435 0.081375
vt 0.101606 0.081384
vt 0.101539 0.034420
vt 0.108368 0.034410
vt 0.036048 0.035839
vt 0.042930 0.035840
vt 0.042931 0.081478
vt 0.036048 0.081478
vt 0.055612 0.015100
vt 0.055806 0.022403
vt 0.043208 0.022169
vt 0.042686 0.016078
vt 0.056402 0.100835
vt 0.056392 0.094034
vt 0.089070 0.093981
vt 0.089080 0.100785
vt 0.056409 0.105997
vt 0.057012 0.103475
vt 0.087671 0.103428
vt 0.089088 0.105948
vt 0.055528 0.010007
vt 0.056151 0.012493
vt 0.043150 0.012842
vt 0.042014 0.009826
vt 0.113580 0.081367
vt 0.111065 0.079919
vt 0.111003 0.035858
vt 0.113513 0.034403
vt 0.030908 0.035826
vt 0.033485 0.037923
vt 0.033485 0.079393
vt 0.030908 0.081479
vt 0.024140 0.035817
vt 0.024140 0.081479
vt 0.099003 0.079284
vt 0.098943 0.036528
vt 0.056704 0.024874
vt 0.044460 0.025342
vt 0.057266 0.091407
vt 0.087017 0.091357
vt 0.056558 0.036144
vt 0.088962 0.033991
vt 0.087971 0.035458
vt 0.088035 0.080385
vt 0.056799 0.080449
vt 0.044358 0.080470
vt 0.044357 0.036852
vt 0.045382 0.035995
vt 0.043347 0.081902
vt 0.416135 0.265081
vt 0.416622 0.279268
vt 0.383400 0.954540
vt 0.392498 0.922866
vt 0.379052 0.911043
vt 0.374699 0.911044
vt 0.569061 0.475283
vt 0.569061 0.425125
vt 0.574388 0.425125
vt 0.574388 0.475283
vt 0.569061 0.417113
vt 0.574388 0.417113
vt 0.666014 0.612186
vt 0.860507 0.612186
vt 0.860507 0.617512
vt 0.666014 0.617512
vt 0.908646 0.699988
vt 0.875743 0.634183
vt 0.880507 0.631801
vt 0.913410 0.697606
vt 0.579714 0.613367
vt 0.579714 0.680545
vt 0.574388 0.680554
vt 0.574388 0.613441
vt 0.658013 0.612186
vt 0.658013 0.617512
vt 0.579714 0.689120
vt 0.574388 0.689120
vt 0.569061 0.583771
vt 0.574388 0.583771
vt 0.871543 0.625783
vt 0.876307 0.623401
vt 0.866779 0.612186
vt 0.866779 0.617512
vt 0.579714 0.604923
vt 0.574388 0.604976
vt 0.870979 0.636565
vt 0.563734 0.583771
vt 0.563734 0.475283
vt 0.903881 0.702370
vt 0.563734 0.417113
vt 0.563734 0.425125
vt 0.383320 0.922760
vt 0.383394 0.911048
vt 0.585040 0.604870
vt 0.585040 0.613293
vt 0.860507 0.606860
vt 0.866779 0.606860
vt 0.585040 0.680537
vt 0.585040 0.689120
vt 0.658013 0.606860
vt 0.666014 0.606860
vt 0.282873 0.241326
vt 0.365595 0.911085
vt 0.361248 0.911112
vt 0.365639 0.922804
vt 0.366459 0.954633
vt 0.362113 0.954935
vt 0.361395 0.922856
vt 0.392508 0.911072
vt 0.088766 0.026960
vt 0.045399 0.091422
vt 0.043350 0.088812
vt 0.086614 0.024349
vt 0.043354 0.094050
vt 0.088659 0.021656
vt 0.087053 0.012117
vt 0.088528 0.014767
vt 0.044777 0.103490
vt 0.043361 0.100851
vt 0.088442 0.009558
vt 0.043367 0.106012
vt 0.255927 0.308738
vt 0.387577 0.953686
vt 0.370644 0.953628
vt 0.387933 0.911057
vt 0.387710 0.922820
vt 0.370133 0.911062
vt 0.370027 0.922803
vt 0.387249 0.968720
vt 0.395346 0.968950
vt 0.400817 0.969152
vt 0.041706 0.012989
vt 0.040937 0.010178
vt 0.043020 0.025427
vt 0.042134 0.022414
vt 0.041456 0.016066
vt 0.042466 0.028529
vt 0.043277 0.035161
vt 0.370959 0.968763
vt 0.379111 0.968688
vt 0.362829 0.969048
vt 0.362785 0.967809
vt 0.658013 0.893614
vt 0.658013 0.885106
vt 0.658013 0.863797
vt 0.549524 0.863797
vt 0.499367 0.863797
vt 0.499367 0.733514
vt 0.549524 0.733514
vt 0.658013 0.733514
vt 0.658013 0.712204
vt 0.658013 0.703697
vt 0.658013 0.636715
s 0
usemtl Platform_P
f 158/1/1 132/2/1 15/3/1 112/4/1
f 115/5/2 28/6/2 11/7/2 105/8/2
f 37/9/3 34/10/3 6/11/3 30/12/3
f 129/13/4 25/14/4 8/15/4 128/16/4
f 119/17/2 3/18/2 14/19/2 121/20/2
f 114/21/1 23/22/1 2/23/1 106/24/1
f 106/25/2 2/26/2 20/27/2 113/28/2
f 135/29/3 134/30/3 18/31/3 30/12/3
f 112/4/1 15/3/1 23/22/1 114/21/1
f 120/32/4 9/33/4 25/14/4 129/13/4
f 21/34/3 31/35/3 32/36/3 26/37/3
f 36/38/3 37/9/3 30/12/3 18/31/3
f 113/28/2 20/27/2 28/6/2 115/5/2
f 17/39/3 29/40/3 37/9/3 36/38/3
f 5/41/3 17/39/3 36/38/3 33/42/3
f 5/41/3 33/42/3 35/43/3 12/44/3
f 29/40/3 7/45/3 34/10/3 37/9/3
f 12/44/3 35/43/3 38/46/3 39/47/3
f 131/48/1 41/49/1 40/50/1 130/51/1
f 126/52/1 42/53/1 41/49/1 131/48/1
f 121/20/2 14/19/2 42/53/2 126/52/2
f 190/54/5 65/55/5 66/56/5 192/57/5
f 101/58/6 173/59/6 182/60/6 156/61/6
f 188/62/2 54/63/2 65/64/2 190/65/2
f 120/66/2 89/67/2 103/68/2 127/69/2
f 53/70/2 127/69/2 211/71/2 186/72/2
f 110/73/2 10/74/2 54/63/2 117/75/2
f 6/11/3 34/10/3 51/76/3 52/77/3
f 34/10/3 7/45/3 50/78/3 51/76/3
f 6/79/7 52/80/7 63/81/7 56/82/7
f 30/83/7 6/79/7 56/82/7 57/84/7
f 45/85/6 46/86/6 60/87/6 59/88/6
f 52/89/1 51/90/1 64/91/1 63/92/1
f 44/93/6 45/85/6 59/88/6 61/94/6
f 54/63/2 10/74/2 55/95/2 65/64/2
f 135/96/1 30/97/1 57/84/1 139/98/1
f 10/74/8 31/99/8 58/100/8 55/95/8
f 137/101/6 178/102/6 180/103/6 208/104/6 189/105/6
f 137/101/6 189/105/6 191/106/6 140/107/6
f 51/90/1 50/108/1 62/109/1 64/91/1
f 138/110/3 55/95/3 58/100/3 139/98/3
f 64/91/3 62/109/3 61/94/3 59/88/3
f 63/92/3 64/91/3 59/88/3 60/87/3
f 138/110/3 141/111/3 65/64/3 55/95/3
f 150/112/6 201/113/6 202/114/6 153/115/6
f 80/116/7 79/117/7 82/118/7 84/119/7
f 156/61/6 182/60/6 184/120/6 210/121/6 207/122/6
f 151/123/1 80/124/1 84/125/1 155/126/1
f 68/127/7 75/128/7 73/129/7 69/130/7
f 200/131/2 78/132/2 85/133/2 203/134/2
f 147/135/6 199/136/6 196/137/6 142/138/6
f 146/139/1 68/140/1 69/141/1 143/142/1
f 141/143/9 63/144/9 76/145/9 144/146/9
f 140/147/10 191/148/10 193/149/10 145/150/10
f 145/150/11 193/149/11 199/136/11 147/135/11
f 63/151/12 60/152/12 67/153/12 76/154/12
f 144/146/13 76/145/13 68/140/13 146/139/13
f 197/155/14 71/156/14 70/157/14 194/158/14
f 192/57/15 66/56/15 74/159/15 198/160/15
f 76/154/16 67/153/16 75/128/16 68/127/16
f 69/130/17 73/129/17 72/161/17 77/162/17
f 198/160/2 74/159/2 71/156/2 197/155/2
f 148/163/18 195/164/18 201/113/18 150/112/18
f 143/142/19 69/141/19 77/165/19 149/166/19
f 77/162/20 72/161/20 79/117/20 80/116/20
f 194/158/21 70/157/21 78/132/21 200/131/21
f 142/138/22 196/137/22 195/164/22 148/163/22
f 149/166/23 77/165/23 80/124/23 151/123/23
f 152/167/24 81/168/24 82/169/24 153/115/24
f 81/168/25 83/170/25 84/119/25 82/118/25
f 154/171/3 152/167/3 204/172/3 205/173/3 86/174/3
f 154/171/26 86/174/26 85/175/26 155/126/26
f 204/172/24 152/167/24 153/115/24 202/114/24
f 103/68/2 117/75/2 209/176/2 206/177/2
f 180/103/6 179/178/6 156/61/6 207/122/6 208/104/6
f 46/86/6 164/179/6 178/102/6 137/101/6
f 100/180/6 170/181/6 176/182/6 102/183/6
f 111/184/2 91/185/2 97/186/2 116/187/2
f 116/187/1 97/186/1 99/188/1 109/189/1
f 109/189/1 99/188/1 98/190/1 108/191/1
f 123/192/2 93/193/2 96/194/2 125/195/2
f 110/196/4 89/197/4 95/198/4 107/199/4
f 122/200/1 92/201/1 94/202/1 124/203/1
f 118/204/2 87/205/2 93/193/2 123/192/2
f 124/203/1 94/202/1 87/206/1 118/207/1
f 104/208/2 88/209/2 91/185/2 111/184/2
f 107/199/4 95/198/4 90/210/4 105/211/4
f 125/195/2 96/194/2 90/212/2 128/213/2
f 159/214/1 157/215/1 92/201/1 122/200/1
f 24/216/4 107/199/4 105/211/4 11/7/4
f 4/217/2 104/208/2 111/184/2 13/218/2
f 10/219/4 110/196/4 107/199/4 24/216/4
f 38/220/1 109/189/1 108/191/1 39/221/1
f 43/222/1 116/187/1 109/189/1 38/220/1
f 13/218/2 111/184/2 116/187/2 43/222/2
f 163/223/6 101/58/6 156/61/6 179/178/6
f 160/224/6 100/180/6 102/183/6 167/225/6
f 127/69/2 103/68/2 206/177/2 211/71/2
f 89/67/2 110/73/2 117/75/2 103/68/2
f 93/193/2 113/28/2 115/5/2 96/194/2
f 92/201/1 112/4/1 114/21/1 94/202/1
f 87/205/2 106/25/2 113/28/2 93/193/2
f 94/202/1 114/21/1 106/24/1 87/206/1
f 96/194/2 115/5/2 105/8/2 90/212/2
f 157/215/1 158/1/1 112/4/1 92/201/1
f 133/226/1 159/214/1 122/200/1 16/227/1
f 27/228/2 125/195/2 128/213/2 8/229/2
f 22/230/1 124/203/1 118/207/1 1/231/1
f 1/232/2 118/204/2 123/192/2 19/233/2
f 16/227/1 122/200/1 124/203/1 22/230/1
f 19/233/2 123/192/2 125/195/2 27/228/2
f 117/75/2 54/63/2 188/62/2 209/176/2
f 9/234/2 120/66/2 127/69/2 53/70/2
f 169/235/6 48/236/6 47/237/6 175/238/6
f 172/239/6 49/240/6 136/241/6 183/242/6
f 91/185/2 121/20/2 126/52/2 97/186/2
f 97/186/1 126/52/1 131/48/1 99/188/1
f 99/188/1 131/48/1 130/51/1 98/190/1
f 89/197/4 120/32/4 129/13/4 95/198/4
f 88/209/2 119/17/2 121/20/2 91/185/2
f 95/198/4 129/13/4 128/16/4 90/210/4
f 102/183/6 176/182/6 173/59/6 101/58/6
f 3/18/1 119/17/1 159/214/1 133/226/1
f 88/209/1 104/208/1 158/1/1 157/215/1
f 45/85/6 166/243/6 164/179/6 46/86/6
f 119/17/1 88/209/1 157/215/1 159/214/1
f 167/225/6 102/183/6 101/58/6 163/223/6
f 79/244/6 150/112/6 153/115/6 82/169/6
f 83/170/26 154/171/26 155/126/26 84/125/26
f 203/134/27 85/133/27 86/174/27 205/173/27
f 70/245/23 149/166/23 151/123/23 78/246/23
f 72/247/18 148/163/18 150/112/18 79/244/18
f 71/248/28 143/142/28 149/166/28 70/245/28
f 73/249/29 142/138/29 148/163/29 72/247/29
f 67/250/11 145/150/11 147/135/11 75/251/11
f 66/252/13 144/146/13 146/139/13 74/253/13
f 60/254/10 140/147/10 145/150/10 67/250/10
f 65/255/9 141/143/9 144/146/9 66/252/9
f 74/253/1 146/139/1 143/142/1 71/248/1
f 75/251/6 147/135/6 142/138/6 73/249/6
f 78/246/1 151/123/1 155/126/1 85/175/1
f 83/170/3 81/168/3 152/167/3 154/171/3
f 56/82/3 63/81/3 141/111/3 138/110/3
f 56/82/3 138/110/3 139/98/3 57/84/3
f 46/86/6 137/101/6 140/107/6 60/87/6
f 31/256/1 135/96/1 139/98/1 58/100/1
f 175/238/6 47/237/6 49/240/6 172/239/6
f 31/35/3 21/34/3 134/30/3 135/29/3
f 104/208/1 4/217/1 132/2/1 158/1/1
f 178/102/30 181/257/30 180/103/30
f 181/257/31 179/178/31 180/103/31
f 182/60/30 185/258/30 184/120/30
f 185/258/31 183/242/31 184/120/31
f 167/225/32 163/223/32 165/259/32 168/260/32
f 168/260/33 165/259/33 164/179/33 166/243/33
f 160/224/32 167/225/32 168/260/32 162/261/32
f 162/261/33 168/260/33 166/243/33 161/262/33
f 169/235/32 175/238/32 177/263/32 171/264/32
f 171/264/33 177/263/33 176/182/33 170/181/33
f 175/238/32 172/239/32 174/265/32 177/263/32
f 177/263/33 174/265/33 173/59/33 176/182/33
f 163/223/32 179/178/32 181/257/32 165/259/32
f 165/259/33 181/257/33 178/102/33 164/179/33
f 172/239/32 183/242/32 185/258/32 174/265/32
f 174/265/33 185/258/33 182/60/33 173/59/33
f 44/93/6 161/262/6 166/243/6 45/85/6
f 209/266/34 188/267/34 189/105/34 208/104/34
f 191/106/35 189/105/35 188/267/35 190/268/35
f 193/149/36 191/148/36 190/269/36 192/270/36
f 195/164/37 196/137/37 197/271/37 194/272/37
f 199/136/38 193/149/38 192/270/38 198/273/38
f 196/137/39 199/136/39 198/273/39 197/271/39
f 201/113/40 195/164/40 194/272/40 200/274/40
f 203/275/41 205/173/41 204/172/41 202/114/41
f 200/274/42 203/275/42 202/114/42 201/113/42
f 211/276/43 206/277/43 207/122/43 210/121/43
f 206/277/44 209/266/44 208/104/44 207/122/44
f 186/278/45 211/276/45 210/121/45 187/279/45
f 184/120/6 183/242/6 136/241/6 187/279/6 210/121/6
f 353/280/1 308/281/1 223/282/1 327/283/1
f 311/284/7 302/285/7 220/286/7 235/287/7
f 243/288/3 236/289/3 216/290/3 240/291/3
f 325/292/46 324/293/46 217/294/46 232/295/46
f 315/296/7 317/297/7 222/298/7 214/299/7
f 310/300/1 303/301/1 213/302/1 230/303/1
f 303/304/7 309/305/7 227/306/7 213/307/7
f 330/308/3 236/289/3 225/309/3 329/310/3
f 308/281/1 310/300/1 230/303/1 223/282/1
f 316/311/46 325/292/46 232/295/46 218/312/46
f 228/313/3 233/314/3 238/315/3 237/316/3
f 242/317/3 225/309/3 236/289/3 243/288/3
f 309/305/7 311/284/7 235/287/7 227/306/7
f 17/39/3 242/317/3 243/288/3 29/40/3
f 5/41/3 239/318/3 242/317/3 17/39/3
f 5/41/3 12/44/3 241/319/3 239/318/3
f 29/40/3 243/288/3 240/291/3 7/45/3
f 12/44/3 39/47/3 244/320/3 241/319/3
f 326/321/1 130/51/1 40/50/1 245/322/1
f 322/323/1 326/321/1 245/322/1 246/324/1
f 317/297/7 322/323/7 246/324/7 222/298/7
f 2/26/3 23/325/3 26/37/3 20/27/3
f 379/326/12 381/327/12 265/328/12 264/329/12
f 298/330/6 351/331/6 371/332/6 362/333/6
f 377/334/7 379/335/7 264/336/7 255/337/7
f 316/338/7 323/339/7 300/340/7 288/341/7
f 254/342/7 375/343/7 400/344/7 323/339/7
f 306/345/7 313/346/7 255/337/7 219/347/7
f 216/290/3 253/348/3 252/349/3 240/291/3
f 240/291/3 252/349/3 50/78/3 7/45/3
f 216/350/2 257/351/2 262/352/2 253/353/2
f 236/354/2 258/355/2 257/351/2 216/350/2
f 248/356/6 260/357/6 261/358/6 249/359/6
f 253/360/1 262/361/1 263/362/1 252/363/1
f 44/93/6 61/94/6 260/357/6 248/356/6
f 255/337/7 264/336/7 256/364/7 219/347/7
f 330/365/1 334/366/1 258/355/1 236/367/1
f 219/347/47 256/364/47 259/368/47 237/369/47
f 332/370/6 378/371/6 397/372/6 369/373/6 367/374/6
f 332/370/6 335/375/6 380/376/6 378/371/6
f 252/363/1 263/362/1 62/109/1 50/108/1
f 333/377/3 334/366/3 259/368/3 256/364/3
f 263/362/3 260/357/3 61/94/3 62/109/3
f 262/361/3 261/358/3 260/357/3 263/362/3
f 333/377/3 256/364/3 264/336/3 336/378/3
f 345/379/6 348/380/6 391/381/6 390/382/6
f 279/383/2 283/384/2 281/385/2 278/386/2
f 351/331/6 396/387/6 399/388/6 373/389/6 371/332/6
f 346/390/1 350/391/1 283/392/1 279/393/1
f 267/394/2 268/395/2 272/396/2 274/397/2
f 389/398/7 392/399/7 284/400/7 277/401/7
f 342/402/6 337/403/6 385/404/6 388/405/6
f 341/406/1 338/407/1 268/408/1 267/409/1
f 336/410/9 339/411/9 275/412/9 262/413/9
f 335/414/10 340/415/10 382/416/10 380/417/10
f 340/415/11 342/402/11 388/405/11 382/416/11
f 262/418/5 275/419/5 266/420/5 261/421/5
f 339/411/13 341/406/13 267/409/13 275/412/13
f 386/422/17 383/423/17 269/424/17 270/425/17
f 381/327/16 387/426/16 273/427/16 265/328/16
f 275/419/48 267/394/48 274/397/48 266/420/48
f 268/395/14 276/428/14 271/429/14 272/396/14
f 387/426/7 386/422/7 270/425/7 273/427/7
f 343/430/18 345/379/18 390/382/18 384/431/18
f 338/407/19 344/432/19 276/433/19 268/408/19
f 276/428/21 279/383/21 278/386/21 271/429/21
f 383/423/49 389/398/49 277/401/49 269/424/49
f 337/403/29 343/430/29 384/431/29 385/404/29
f 344/432/23 346/390/23 279/393/23 276/433/23
f 347/434/24 348/380/24 281/435/24 280/436/24
f 280/436/27 281/385/27 283/384/27 282/437/27
f 349/438/3 285/439/3 394/440/3 393/441/3 347/434/3
f 349/438/26 350/391/26 284/442/26 285/439/26
f 393/441/24 391/381/24 348/380/24 347/434/24
f 300/340/7 395/443/7 398/444/7 313/346/7
f 369/373/6 397/372/6 396/387/6 351/331/6 368/445/6
f 249/359/6 332/370/6 367/374/6 356/446/6
f 100/180/6 299/447/6 365/448/6 170/181/6
f 307/449/7 312/450/7 296/451/7 290/452/7
f 312/450/1 305/453/1 297/454/1 296/451/1
f 305/453/1 108/191/1 98/190/1 297/454/1
f 319/455/7 321/456/7 295/457/7 292/458/7
f 306/459/46 304/460/46 294/461/46 288/462/46
f 318/463/1 320/464/1 293/465/1 291/466/1
f 314/467/7 319/455/7 292/458/7 286/468/7
f 320/464/1 314/469/1 286/470/1 293/465/1
f 301/471/7 307/449/7 290/452/7 287/472/7
f 304/460/46 302/473/46 289/474/46 294/461/46
f 321/456/7 324/475/7 289/476/7 295/457/7
f 354/477/1 318/463/1 291/466/1 352/478/1
f 231/479/46 220/286/46 302/473/46 304/460/46
f 215/480/7 221/481/7 307/449/7 301/471/7
f 219/482/46 231/479/46 304/460/46 306/459/46
f 244/483/1 39/221/1 108/191/1 305/453/1
f 247/484/1 244/483/1 305/453/1 312/450/1
f 221/481/7 247/484/7 312/450/7 307/449/7
f 355/485/6 368/445/6 351/331/6 298/330/6
f 160/224/6 359/486/6 299/447/6 100/180/6
f 323/339/7 400/344/7 395/443/7 300/340/7
f 288/341/7 300/340/7 313/346/7 306/345/7
f 292/458/7 295/457/7 311/284/7 309/305/7
f 291/466/1 293/465/1 310/300/1 308/281/1
f 286/468/7 292/458/7 309/305/7 303/304/7
f 293/465/1 286/470/1 303/301/1 310/300/1
f 295/457/7 289/476/7 302/285/7 311/284/7
f 352/478/1 291/466/1 308/281/1 353/280/1
f 328/487/1 224/488/1 318/463/1 354/477/1
f 234/489/7 217/490/7 324/475/7 321/456/7
f 229/491/1 212/492/1 314/469/1 320/464/1
f 212/493/7 226/494/7 319/455/7 314/467/7
f 224/488/1 229/491/1 320/464/1 318/463/1
f 226/494/7 234/489/7 321/456/7 319/455/7
f 313/346/7 398/444/7 377/334/7 255/337/7
f 218/495/7 254/342/7 323/339/7 316/338/7
f 169/235/6 364/496/6 250/497/6 48/236/6
f 361/498/6 372/499/6 331/500/6 251/501/6
f 290/452/7 296/451/7 322/323/7 317/297/7
f 296/451/1 297/454/1 326/321/1 322/323/1
f 297/454/1 98/190/1 130/51/1 326/321/1
f 288/462/46 294/461/46 325/292/46 316/311/46
f 287/472/7 290/452/7 317/297/7 315/296/7
f 294/461/46 289/474/46 324/293/46 325/292/46
f 299/447/6 298/330/6 362/333/6 365/448/6
f 214/299/1 328/487/1 354/477/1 315/296/1
f 287/472/1 352/478/1 353/280/1 301/471/1
f 248/356/6 249/359/6 356/446/6 358/502/6
f 315/296/1 354/477/1 352/478/1 287/472/1
f 359/486/6 355/485/6 298/330/6 299/447/6
f 278/503/6 281/435/6 348/380/6 345/379/6
f 282/437/26 283/392/26 350/391/26 349/438/26
f 392/399/25 394/440/25 285/439/25 284/400/25
f 269/504/23 277/505/23 346/390/23 344/432/23
f 271/506/18 278/503/18 345/379/18 343/430/18
f 270/507/19 269/504/19 344/432/19 338/407/19
f 272/508/29 271/506/29 343/430/29 337/403/29
f 266/509/11 274/510/11 342/402/11 340/415/11
f 265/511/13 273/512/13 341/406/13 339/411/13
f 261/513/10 266/509/10 340/415/10 335/414/10
f 264/514/9 265/511/9 339/411/9 336/410/9
f 273/512/1 270/507/1 338/407/1 341/406/1
f 274/510/6 272/508/6 337/403/6 342/402/6
f 277/505/1 284/442/1 350/391/1 346/390/1
f 282/437/3 349/438/3 347/434/3 280/436/3
f 257/351/3 333/377/3 336/378/3 262/352/3
f 257/351/3 258/355/3 334/366/3 333/377/3
f 249/359/6 261/358/6 335/375/6 332/370/6
f 237/515/1 259/368/1 334/366/1 330/365/1
f 364/496/6 361/498/6 251/501/6 250/497/6
f 32/36/3 28/6/3 20/27/3 26/37/3
f 11/7/3 28/6/3 32/36/3 24/216/3
f 32/36/3 31/35/3 10/219/3 24/216/3
f 237/316/3 330/308/3 329/310/3 228/313/3
f 301/471/1 353/280/1 327/283/1 215/480/1
f 367/374/50 369/373/50 370/516/50
f 370/516/51 369/373/51 368/445/51
f 371/332/50 373/389/50 374/517/50
f 374/517/51 373/389/51 372/499/51
f 359/486/32 360/518/32 357/519/32 355/485/32
f 360/518/33 358/502/33 356/446/33 357/519/33
f 160/224/32 162/261/32 360/518/32 359/486/32
f 162/261/33 161/262/33 358/502/33 360/518/33
f 169/235/32 171/264/32 366/520/32 364/496/32
f 171/264/33 170/181/33 365/448/33 366/520/33
f 364/496/32 366/520/32 363/521/32 361/498/32
f 366/520/33 365/448/33 362/333/33 363/521/33
f 355/485/32 357/519/32 370/516/32 368/445/32
f 357/519/33 356/446/33 367/374/33 370/516/33
f 361/498/32 363/521/32 374/517/32 372/499/32
f 363/521/33 362/333/33 371/332/33 374/517/33
f 44/93/6 248/356/6 358/502/6 161/262/6
f 398/522/52 397/372/52 378/371/52 377/523/52
f 380/376/53 379/524/53 377/523/53 378/371/53
f 382/416/54 381/525/54 379/526/54 380/417/54
f 384/431/55 383/527/55 386/528/55 385/404/55
f 388/405/56 387/529/56 381/525/56 382/416/56
f 385/404/57 386/528/57 387/529/57 388/405/57
f 390/382/58 389/530/58 383/527/58 384/431/58
f 392/531/59 391/381/59 393/441/59 394/440/59
f 389/530/60 390/382/60 391/381/60 392/531/60
f 400/532/61 399/388/61 396/387/61 395/533/61
f 395/533/62 396/387/62 397/372/62 398/522/62
f 375/534/63 376/535/63 399/388/63 400/532/63
f 373/389/6 399/388/6 376/535/6 331/500/6 372/499/6
f 15/536/3 21/34/3 26/37/3 23/325/3
f 15/536/3 132/537/3 134/30/3 21/34/3
f 18/31/3 134/30/3 132/537/3 4/538/3
f 18/31/3 4/538/3 33/42/3 36/38/3
f 35/43/3 33/42/3 4/538/3 13/539/3
f 38/46/3 35/43/3 13/539/3 43/540/3
f 241/319/3 244/320/3 247/541/3 221/542/3
f 239/318/3 241/319/3 221/542/3 215/543/3
f 225/309/3 242/317/3 239/318/3 215/543/3
f 329/310/3 225/309/3 215/543/3 327/544/3
f 327/544/3 223/545/3 228/313/3 329/310/3
f 230/546/3 233/314/3 228/313/3 223/545/3
f 230/546/3 213/307/3 227/306/3 233/314/3
f 233/314/3 227/306/3 235/287/3 238/315/3
f 235/287/3 220/286/3 231/479/3 238/315/3
f 237/316/3 238/315/3 231/479/3 219/482/3
