# Blender 4.2.0
# www.blender.org
mtllib Platform_L_6.mtl
o Platform_L_6
v -3.000000 -0.499999 5.888798
v -3.000000 0.500001 5.888798
v -3.000000 -0.500001 -5.888805
v -3.000000 0.499999 -5.888805
v 3.000000 -0.499999 5.888798
v 3.000000 0.500001 5.888798
v 3.000000 -0.500001 -5.888805
v 3.000000 0.499999 -5.888805
vn -1.0000 -0.0000 -0.0000
vn -0.0000 -0.0000 -1.0000
vn 1.0000 -0.0000 -0.0000
vn -0.0000 -0.0000 1.0000
vn -0.0000 1.0000 -0.0000
vt 0.580640 0.927353
vt 0.508070 0.927353
vt 0.508070 0.072647
vt 0.580640 0.072647
vt 0.508070 0.000076
vt 0.072647 0.072647
vt 0.072647 0.000076
vt 0.000076 0.072647
vt 0.072647 0.927353
vt 0.000076 0.927353
vt 0.072647 0.999924
vt 0.508070 0.999924
s 1
usemtl Platform_L_5_9
f 1/1/1 2/2/1 4/3/1 3/4/1
f 3/5/2 4/3/2 8/6/2 7/7/2
f 7/8/3 8/6/3 6/9/3 5/10/3
f 5/11/4 6/9/4 2/2/4 1/12/4
f 8/6/5 4/3/5 2/2/5 6/9/5
