# Blender 4.2.0
# www.blender.org
mtllib Platform_P_Mid.mtl
o Platform_P_Mid
v -4.000000 -0.499999 8.000000
v -4.000000 0.500001 8.000000
v -4.000000 -0.500001 -8.000000
v -4.000000 0.499999 -8.000000
v 4.000000 -0.499999 8.000000
v 4.000000 0.500001 8.000000
v 4.000000 -0.500001 -8.000000
v 4.000000 0.499999 -8.000000
vn -1.0000 -0.0000 -0.0000
vn -0.0000 -0.0000 -1.0000
vn 1.0000 -0.0000 -0.0000
vn -0.0000 -0.0000 1.0000
vn -0.0000 1.0000 -0.0000
vt 0.962871 0.572929
vt 0.929731 0.572929
vt 0.929731 0.042689
vt 0.962871 0.042689
vt 0.929731 0.009549
vt 0.664611 0.042689
vt 0.664611 0.009549
vt 0.631471 0.042689
vt 0.664611 0.572929
vt 0.631471 0.572929
vt 0.664611 0.606069
vt 0.929731 0.606069
s 1
usemtl Platform_P
f 1/1/1 2/2/1 4/3/1 3/4/1
f 3/5/2 4/3/2 8/6/2 7/7/2
f 7/8/3 8/6/3 6/9/3 5/10/3
f 5/11/4 6/9/4 2/2/4 1/12/4
f 8/6/5 4/3/5 2/2/5 6/9/5
