# Blender 4.2.0
# www.blender.org
mtllib Platform_End_R.mtl
o Platform_End_R
v -2.168793 -0.999999 6.316494
v -2.168793 0.000001 6.316494
v -2.168793 -1.000001 -5.683506
v -2.168793 -0.000001 -5.683506
v 5.831207 -0.999999 6.316494
v 5.831207 0.000001 6.316494
v 5.831207 -1.000001 -5.683506
v 5.831207 -0.000001 -5.683506
v 5.831207 0.000000 0.316494
v -10.429153 0.000000 0.316494
v -12.629078 -0.000001 -5.683506
v -12.629078 -1.000001 -5.683506
v -10.429153 -1.000000 0.316494
v -2.168793 -0.999999 4.271680
v -4.805584 -1.000000 0.316494
v -10.540401 -1.000000 -0.027084
v -1.971931 0.000001 6.316494
v -4.805584 0.000000 0.316494
v -2.168793 0.000001 4.271680
v 0.075542 0.000000 0.316494
v -2.168793 -0.000000 -3.600527
v -11.697460 -0.000000 -3.600527
v 5.831207 -0.000000 -3.600527
v 0.075542 -0.999999 6.316494
v 5.831207 -1.000000 -3.600527
v -11.697460 -1.000000 -3.600527
v 0.075542 0.000001 6.316494
v -4.574299 0.000000 -0.027084
v -1.971931 0.000001 3.924753
v -10.540401 0.000000 -0.027084
v -1.971931 -0.999999 6.316494
v 5.831207 -1.000000 -5.354950
v -12.482132 -0.000001 -5.354950
v -2.168793 -0.000001 -5.354950
v 5.831207 -0.000001 -5.354950
v -12.482132 -1.000000 -5.354950
v 5.291401 -1.000001 -5.683506
v 5.291401 -0.000001 -5.683506
v 5.442841 -0.999999 6.316494
v 5.442841 0.000000 0.316494
v 5.442841 0.000001 6.316494
v 5.291401 -0.000000 -3.600527
v 5.291401 -0.000001 -5.354950
v 5.831207 0.000000 -1.344421
v -3.286858 -0.999999 2.594580
v -3.286858 0.000001 2.594580
v -0.876114 0.000000 -1.344421
v -3.075401 0.000001 2.249075
v 5.378624 0.000000 -1.344421
v 5.831207 0.000001 2.032261
v 5.831207 -0.999999 2.032261
v -2.168793 -0.999999 4.856418
v -2.168793 0.000001 4.856418
v 0.075542 0.000001 2.032261
v -1.971931 0.000001 4.608700
v 5.442841 0.000001 2.032261
v 5.291401 0.999999 -5.683506
v 5.831207 0.999999 -5.683506
v 5.831207 1.000001 2.032261
v 5.831207 1.000001 6.316494
v -1.971931 1.000001 6.316494
v -2.168793 1.000001 6.316494
v -12.482132 0.999999 -5.354950
v -12.629078 0.999999 -5.683506
v -2.168793 0.999999 -5.683506
v -2.168793 1.000001 4.271680
v -1.971931 1.000001 3.924753
v -4.574299 1.000000 -0.027084
v -4.805584 1.000000 0.316494
v -3.286858 1.000001 2.594580
v -2.168793 1.000001 4.856418
v -2.168793 0.999999 -5.354950
v 5.831207 0.999999 -5.354950
v 5.831207 1.000000 -3.600527
v 5.291401 1.000000 -3.600527
v -1.971931 1.000001 4.608700
v -3.075401 1.000001 2.249075
v 5.291401 0.999999 -5.354950
v 5.442841 1.000001 6.316494
v 5.442841 1.000001 2.032261
v 6.618332 -0.999999 2.032261
v 6.618332 -1.000000 0.316494
v 6.618332 0.000000 -1.344421
v 6.618332 0.000000 0.316494
v 6.618332 -1.000000 -1.344421
v 6.618332 -1.000000 -3.600527
v 6.618332 -0.000000 -3.600527
v 6.618332 0.000001 2.032261
vn -0.0000 -0.0000 -1.0000
vn 1.0000 -0.0000 -0.0000
vn -0.0000 -0.0000 1.0000
vn -0.0000 1.0000 -0.0000
vn -0.9514 -0.0000 0.3080
vn -0.8321 -0.0000 0.5547
vn -1.0000 -0.0000 -0.0000
vn -0.9129 -0.0000 0.4083
vn -0.8296 -0.0000 -0.5584
vn 0.8352 -0.0000 -0.5500
vn -0.8320 -0.0000 0.5547
vt 0.433347 0.219582
vt 0.442246 0.219582
vt 0.442246 0.312670
vt 0.433347 0.312670
vt 0.442246 0.153192
vt 0.433347 0.153192
vt 0.433347 0.148388
vt 0.442246 0.148388
vt 0.442246 0.065714
vt 0.433347 0.065714
vt 0.433347 0.027588
vt 0.442246 0.027588
vt 0.375964 0.052843
vt 0.384864 0.052843
vt 0.384864 0.100608
vt 0.375964 0.100608
vt 0.375964 0.181081
vt 0.384864 0.181081
vt 0.384864 0.231126
vt 0.375964 0.231126
vt 0.761283 0.052302
vt 0.761283 0.164991
vt 0.734781 0.164991
vt 0.734781 0.052302
vt 0.675613 0.204821
vt 0.680803 0.201327
vt 0.680803 0.291447
vt 0.675613 0.289767
vt 0.442246 0.145464
vt 0.433347 0.145464
vt 0.433347 0.129851
vt 0.442246 0.129851
vt 0.375964 0.288328
vt 0.383841 0.288328
vt 0.383841 0.328340
vt 0.375964 0.328340
vt 0.375964 0.234340
vt 0.384864 0.234340
vt 0.384864 0.267766
vt 0.375964 0.267766
vt 0.734781 0.308925
vt 0.384864 0.118829
vt 0.375964 0.118829
vt 0.649696 0.050014
vt 0.649696 0.131090
vt 0.584981 0.131090
vt 0.584981 0.050014
vt 0.675613 0.131090
vt 0.621109 0.162017
vt 0.610778 0.162017
vt 0.646421 0.178686
vt 0.700702 0.145465
vt 0.384864 0.156716
vt 0.375964 0.156715
vt 0.375964 0.138778
vt 0.384864 0.138778
vt 0.375964 0.133574
vt 0.384864 0.133574
vt 0.615503 0.330652
vt 0.606289 0.330652
vt 0.606289 0.306929
vt 0.615503 0.306929
vt 0.384864 0.120581
vt 0.375964 0.120581
vt 0.734781 0.044148
vt 0.700702 0.044148
vt 0.700702 0.032258
vt 0.734781 0.032258
vt 0.389956 0.027588
vt 0.414503 0.027588
vt 0.414503 0.041580
vt 0.389956 0.041580
vt 0.375964 0.284870
vt 0.384864 0.284870
vt 0.384864 0.288073
vt 0.375964 0.288073
vt 0.700702 0.050984
vt 0.675613 0.050014
vt 0.761283 0.320778
vt 0.384096 0.312938
vt 0.400668 0.312938
vt 0.400668 0.352950
vt 0.384096 0.352950
vt 0.606289 0.181567
vt 0.615503 0.181567
vt 0.615503 0.205291
vt 0.606289 0.205291
vt 0.675613 0.044148
vt 0.491343 0.111564
vt 0.491343 0.175480
vt 0.459487 0.175480
vt 0.459487 0.111564
vt 0.539524 0.100512
vt 0.539524 0.081884
vt 0.571381 0.081884
vt 0.571381 0.100512
vt 0.375964 0.049387
vt 0.384864 0.049387
vt 0.649696 0.044148
vt 0.649696 0.032258
vt 0.675613 0.032258
vt 0.491343 0.262302
vt 0.459487 0.262302
vt 0.539321 0.233364
vt 0.539321 0.252907
vt 0.528181 0.252907
vt 0.528181 0.233364
vt 0.584981 0.162017
vt 0.506674 0.160805
vt 0.517787 0.097562
vt 0.527975 0.105157
vt 0.517269 0.168171
vt 0.414503 0.297814
vt 0.414503 0.153513
vt 0.419100 0.153513
vt 0.419100 0.299870
vt 0.519209 0.085210
vt 0.510292 0.080508
vt 0.419100 0.049132
vt 0.414503 0.049132
vt 0.419100 0.041580
vt 0.389956 0.049132
vt 0.491578 0.246710
vt 0.502728 0.253766
vt 0.497320 0.035402
vt 0.491578 0.037926
vt 0.539321 0.035370
vt 0.539321 0.150259
vt 0.528181 0.150259
vt 0.528181 0.035370
vt 0.539524 0.164723
vt 0.571381 0.164723
vt 0.433092 0.041580
vt 0.433092 0.049132
vt 0.433092 0.153513
vt 0.433092 0.299870
vt 0.375964 0.049132
vt 0.375964 0.041580
vt 0.539524 0.035370
vt 0.571381 0.035370
vt 0.539524 0.251945
vt 0.571381 0.251945
vt 0.413388 0.312642
vt 0.408791 0.310586
vt 0.491343 0.035370
vt 0.491343 0.089775
vt 0.459487 0.089775
vt 0.459487 0.035370
vt 0.582566 0.306929
vt 0.582566 0.205291
vt 0.419100 0.027588
vt 0.639227 0.205291
vt 0.639227 0.306929
vt 0.442246 0.102769
vt 0.433347 0.102769
vt 0.433347 0.087988
vt 0.442246 0.087988
vt 0.442246 0.122846
vt 0.433347 0.122846
vt 0.433347 0.072719
vt 0.442246 0.072719
s 1
usemtl Platform_Dalle
f 4/1/1 3/2/1 12/3/1 11/4/1
f 37/5/1 38/6/1 8/7/1 7/8/1
f 51/9/2 50/10/2 6/11/2 5/12/2
f 39/13/3 41/14/3 27/15/3 24/16/3
f 15/17/3 18/18/3 10/19/3 13/20/3
f 43/21/4 34/22/4 21/23/4 42/24/4
f 18/25/4 28/26/4 30/27/4 10/28/4
f 32/29/2 35/30/2 23/31/2 25/32/2
f 2/33/3 17/34/3 61/35/3 62/36/3
f 16/37/5 30/38/5 22/39/5 26/40/5
f 28/26/4 21/23/4 22/41/4 30/27/4
f 24/16/3 27/15/3 17/42/3 31/43/3
f 56/44/4 54/45/4 27/46/4 41/47/4
f 54/45/4 20/48/4 29/49/4 55/50/4
f 48/51/4 29/49/4 20/48/4 47/52/4
f 46/53/6 45/54/6 14/55/6 19/56/6
f 52/57/7 53/58/7 19/56/7 14/55/7
f 41/59/3 6/60/3 60/61/3 79/62/3
f 31/43/3 17/42/3 2/63/3 1/64/3
f 23/65/4 44/66/4 83/67/4 87/68/4
f 23/69/2 35/70/2 73/71/2 74/72/2
f 36/73/8 33/74/8 11/75/8 12/76/8
f 49/77/4 47/52/4 20/48/4 40/78/4
f 13/20/5 10/19/5 30/38/5 16/37/5
f 26/40/8 22/39/8 33/74/8 36/73/8
f 22/41/4 21/23/4 34/22/4 33/79/4
f 7/8/2 8/7/2 35/30/2 32/29/2
f 28/80/9 18/81/9 69/82/9 68/83/9
f 50/84/1 56/85/1 80/86/1 59/87/1
f 44/66/4 49/77/4 40/78/4 9/88/4
f 29/89/10 48/90/10 77/91/10 67/92/10
f 19/93/7 53/94/7 71/95/7 66/96/7
f 5/97/3 6/98/3 41/14/3 39/13/3
f 3/2/1 4/1/1 38/6/1 37/5/1
f 23/65/4 42/24/4 49/77/4 44/66/4
f 42/24/4 21/23/4 47/52/4 49/77/4
f 9/88/4 50/99/4 88/100/4 84/101/4
f 18/18/11 15/17/6 45/54/6 46/53/6
f 28/26/4 48/51/4 47/52/4 21/23/4
f 48/90/10 28/102/10 68/103/10 77/91/10
f 9/88/4 40/78/4 56/44/4 50/99/4
f 43/104/7 42/105/7 75/106/7 78/107/7
f 1/64/7 2/63/7 53/58/7 52/57/7
f 27/46/4 54/45/4 55/50/4 17/108/4
f 40/78/4 20/48/4 54/45/4 56/44/4
f 70/109/4 66/110/4 67/111/4 77/112/4
f 63/113/4 72/114/4 65/115/4 64/116/4
f 76/117/4 67/111/4 66/110/4 71/118/4
f 57/119/4 65/115/4 72/114/4 78/120/4
f 58/121/4 57/119/4 78/120/4 73/71/4
f 59/87/4 80/86/4 79/62/4 60/61/4
f 73/71/4 78/120/4 75/122/4 74/72/4
f 69/123/4 70/109/4 77/112/4 68/124/4
f 61/125/4 76/117/4 71/118/4 62/126/4
f 33/127/3 34/128/3 72/129/3 63/130/3
f 46/131/6 19/93/6 66/96/6 70/132/6
f 8/133/1 38/134/1 57/119/1 58/121/1
f 4/135/1 11/136/1 64/116/1 65/115/1
f 34/128/3 43/104/3 78/107/3 72/129/3
f 42/137/3 23/138/3 74/72/3 75/122/3
f 53/94/7 2/139/7 62/140/7 71/95/7
f 18/141/11 46/131/6 70/132/6 69/142/11
f 11/143/8 33/144/8 63/113/8 64/116/8
f 17/145/2 55/146/2 76/147/2 61/148/2
f 38/134/1 4/135/1 65/115/1 57/119/1
f 6/149/2 50/150/2 59/87/2 60/61/2
f 55/146/2 29/89/2 67/92/2 76/147/2
f 35/70/2 8/151/2 58/121/2 73/71/2
f 56/152/7 41/153/7 79/62/7 80/86/7
f 85/154/2 83/155/2 84/156/2 82/157/2
f 86/158/2 87/159/2 83/155/2 85/154/2
f 82/157/2 84/156/2 88/160/2 81/161/2
f 44/66/4 9/88/4 84/101/4 83/67/4
f 50/10/3 51/9/3 81/161/3 88/160/3
f 25/32/1 23/31/1 87/159/1 86/158/1
