# Blender 4.2.0
# www.blender.org
mtllib Platform_R_2.mtl
o Platform_R_2
v 3.999999 -0.499999 6.500000
v 3.999999 0.500001 6.500000
v -4.000001 -0.500001 6.500000
v -4.000001 0.499999 6.500000
v 4.000002 -0.499999 -6.500000
v 4.000002 0.500001 -6.500000
v -3.999999 -0.500001 -6.500000
v -3.999999 0.499999 -6.500000
vn -0.0000 -0.0000 1.0000
vn -1.0000 -0.0000 -0.0000
vn -0.0000 -0.0000 -1.0000
vn 1.0000 -0.0000 -0.0000
vn -0.0000 1.0000 -0.0000
vt 0.755461 0.794835
vt 0.755461 0.770753
vt 0.948117 0.770753
vt 0.948117 0.794835
vt 0.972199 0.770753
vt 0.948117 0.457687
vt 0.972199 0.457687
vt 0.948117 0.433605
vt 0.755461 0.457687
vt 0.755461 0.433605
vt 0.731379 0.457687
vt 0.731379 0.770753
s 1
usemtl Platform_R_1_6
f 1/1/1 2/2/1 4/3/1 3/4/1
f 3/5/2 4/3/2 8/6/2 7/7/2
f 7/8/3 8/6/3 6/9/3 5/10/3
f 5/11/4 6/9/4 2/2/4 1/12/4
f 8/6/5 4/3/5 2/2/5 6/9/5
