# Blender 4.2.0
# www.blender.org
mtllib Platform_L_1.mtl
o Platform_L_1
v -1.245186 -0.499999 6.181061
v -1.245186 0.500001 6.181061
v -1.245186 -0.500001 -4.012896
v -1.245186 0.499999 -4.012896
v 4.754814 -0.499999 6.181061
v 4.754814 0.500001 6.181061
v 4.754814 -0.500001 -4.012896
v 4.754814 0.499999 -4.012896
v -1.245186 -0.500000 0.418934
v -1.245186 0.500000 0.418934
v 4.754814 -0.500000 -1.161299
v 4.754814 0.500000 -1.161299
v -5.264440 0.500000 0.418934
v -5.264440 0.499999 -4.012896
v -5.264440 -0.500001 -4.012896
v -5.264440 -0.500000 0.418934
vn -0.0000 -0.0000 -1.0000
vn 1.0000 -0.0000 -0.0000
vn -0.0000 -0.0000 1.0000
vn -0.0000 1.0000 -0.0000
vn -1.0000 -0.0000 -0.0000
vt 0.524666 0.693667
vt 0.567108 0.693667
vt 0.567108 0.948317
vt 0.524666 0.948317
vt 0.688134 0.990759
vt 0.688134 0.948317
vt 0.999756 0.948317
vt 0.999756 0.990759
vt 0.756048 0.000244
vt 0.798489 0.000244
vt 0.798489 0.254894
vt 0.756048 0.254894
vt 0.755202 0.693667
vt 0.999756 0.693667
vt 0.567108 0.990759
vt 0.798489 0.499449
vt 0.756048 0.499448
vt 0.755202 0.480642
vt 0.755202 0.523084
vt 0.567108 0.523084
vt 0.567108 0.480642
vt 0.797643 0.693667
vt 0.797643 0.523084
vt 0.524666 0.523084
s 1
usemtl Platform_L_1_4
f 3/1/1 4/2/1 8/3/1 7/4/1
f 11/5/2 12/6/2 6/7/2 5/8/2
f 5/9/3 6/10/3 2/11/3 1/12/3
f 12/6/4 10/13/4 2/14/4 6/7/4
f 8/3/4 4/2/4 10/13/4 12/6/4
f 7/15/2 8/3/2 12/6/2 11/5/2
f 1/12/5 2/11/5 10/16/5 9/17/5
f 16/18/5 13/19/5 14/20/5 15/21/5
f 9/22/3 10/13/3 13/19/3 16/23/3
f 10/13/4 4/2/4 14/20/4 13/19/4
f 4/2/1 3/1/1 15/24/1 14/20/1
