# Blender 4.2.0
# www.blender.org
mtllib Stairs_L_1.mtl
o Stairs_L_1
v 0.118629 0.033266 3.699219
v 5.147480 -1.204969 3.699219
v 5.147480 -1.051512 3.699219
v 0.646214 0.033266 3.699219
v 4.584824 -1.051512 3.699219
v 4.584824 -0.917549 3.699219
v 4.022163 -0.917549 3.699219
v 4.022163 -0.783587 3.699219
v 3.459507 -0.783587 3.699219
v 3.459507 -0.649624 3.699219
v 2.896847 -0.649624 3.699219
v 2.896847 -0.515661 3.699219
v 2.334187 -0.515661 3.699219
v 2.334187 -0.381699 3.699219
v 1.771530 -0.381699 3.699219
v 1.771530 -0.247736 3.699219
v 1.208870 -0.247736 3.699219
v 1.208870 -0.113774 3.699219
v 0.646214 -0.113774 3.699219
v 0.646214 0.033265 -3.699295
v 5.147480 -1.051513 -3.699295
v 0.646214 -0.113775 -3.699295
v 1.208870 -0.113775 -3.699295
v 1.208870 -0.247738 -3.699295
v 1.771530 -0.247738 -3.699295
v 1.771530 -0.381700 -3.699295
v 2.334187 -0.381700 -3.699295
v 2.334187 -0.515663 -3.699295
v 2.896847 -0.515663 -3.699295
v 2.896847 -0.649625 -3.699295
v 3.459507 -0.649625 -3.699295
v 3.459507 -0.783588 -3.699295
v 4.022163 -0.783588 -3.699295
v 4.022163 -0.917550 -3.699295
v 4.584824 -0.917550 -3.699295
v 4.584824 -1.051513 -3.699295
v 4.057240 -1.204969 3.699219
v 4.057240 -1.071006 3.699219
v 3.494583 -1.071006 3.699219
v 3.494583 -0.937044 3.699219
v 2.931923 -0.937044 3.699219
v 2.931923 -0.803081 3.699219
v 2.369267 -0.803081 3.699219
v 2.369267 -0.669119 3.699219
v 1.806606 -0.669119 3.699219
v 1.806606 -0.535156 3.699219
v 1.243946 -0.535156 3.699219
v 1.243946 -0.401193 3.699219
v 0.681290 -0.401193 3.699219
v 0.681290 -0.267231 3.699219
v 0.118629 -0.267231 3.699219
v 0.118629 0.033265 -3.699295
v 5.147480 -1.204970 -3.699295
v 0.118629 -0.267232 -3.699295
v 0.681290 -0.267232 -3.699295
v 0.681290 -0.401195 -3.699295
v 1.243946 -0.401195 -3.699295
v 1.243946 -0.535157 -3.699295
v 1.806606 -0.535157 -3.699295
v 1.806606 -0.669120 -3.699295
v 2.369267 -0.669120 -3.699295
v 2.369267 -0.803082 -3.699295
v 2.931923 -0.803082 -3.699295
v 2.931923 -0.937045 -3.699295
v 3.494583 -0.937045 -3.699295
v 3.494583 -1.071007 -3.699295
v 4.057240 -1.071007 -3.699295
v 4.057240 -1.204970 -3.699295
v -4.910221 1.271501 3.699219
v 0.118626 0.186723 3.699219
v -4.382641 1.271501 3.699219
v -0.444031 0.186723 3.699219
v -0.444031 0.320686 3.699219
v -1.006691 0.320686 3.699219
v -1.006691 0.454648 3.699219
v -1.569351 0.454648 3.699219
v -1.569351 0.588611 3.699219
v -2.132008 0.588611 3.699219
v -2.132008 0.722573 3.699219
v -2.694668 0.722573 3.699219
v -2.694668 0.856536 3.699219
v -3.257324 0.856536 3.699219
v -3.257324 0.990498 3.699219
v -3.819984 0.990498 3.699219
v -3.819984 1.124461 3.699219
v -4.382641 1.124461 3.699219
v -4.382641 1.271499 -3.699295
v 0.118626 0.186722 -3.699295
v -4.382641 1.124460 -3.699295
v -3.819984 1.124460 -3.699295
v -3.819984 0.990497 -3.699295
v -3.257324 0.990497 -3.699295
v -3.257324 0.856535 -3.699295
v -2.694668 0.856535 -3.699295
v -2.694668 0.722572 -3.699295
v -2.132008 0.722572 -3.699295
v -2.132008 0.588609 -3.699295
v -1.569351 0.588609 -3.699295
v -1.569351 0.454647 -3.699295
v -1.006691 0.454647 -3.699295
v -1.006691 0.320684 -3.699295
v -0.444031 0.320684 -3.699295
v -0.444031 0.186722 -3.699295
v -0.971615 0.033266 3.699219
v -0.971615 0.167228 3.699219
v -1.534275 0.167228 3.699219
v -1.534275 0.301191 3.699219
v -2.096931 0.301191 3.699219
v -2.096931 0.435154 3.699219
v -2.659592 0.435154 3.699219
v -2.659592 0.569116 3.699219
v -3.222248 0.569116 3.699219
v -3.222248 0.703079 3.699219
v -3.784908 0.703079 3.699219
v -3.784908 0.837041 3.699219
v -4.347565 0.837041 3.699219
v -4.347565 0.971004 3.699219
v -4.910221 0.971004 3.699219
v -4.910221 1.271499 -3.699295
v -4.910221 0.971003 -3.699295
v -4.347565 0.971003 -3.699295
v -4.347565 0.837040 -3.699295
v -3.784908 0.837040 -3.699295
v -3.784908 0.703078 -3.699295
v -3.222248 0.703078 -3.699295
v -3.222248 0.569115 -3.699295
v -2.659592 0.569115 -3.699295
v -2.659592 0.435153 -3.699295
v -2.096931 0.435153 -3.699295
v -2.096931 0.301190 -3.699295
v -1.534275 0.301190 -3.699295
v -1.534275 0.167227 -3.699295
v -0.971615 0.167227 -3.699295
v -0.971615 0.033265 -3.699295
vn -1.0000 -0.0000 -0.0000
vn -0.0000 -1.0000 -0.0000
vn -0.0000 -0.0000 1.0000
vn -0.0000 -0.0000 -1.0000
vn 1.0000 -0.0000 -0.0000
vt 0.000244 0.392347
vt 0.000244 0.379857
vt 0.455310 0.379857
vt 0.455310 0.392347
vt 0.000244 0.343991
vt 0.455310 0.343991
vt 0.000244 0.332612
vt 0.455310 0.332612
vt 0.000244 0.296747
vt 0.455310 0.296747
vt 0.000244 0.285368
vt 0.455310 0.285368
vt 0.000244 0.249502
vt 0.455310 0.249502
vt 0.000244 0.238123
vt 0.455310 0.238123
vt 0.000244 0.202258
vt 0.455310 0.202258
vt 0.000244 0.190878
vt 0.455310 0.190878
vt 0.000244 0.155013
vt 0.455310 0.155013
vt 0.000244 0.143634
vt 0.455310 0.143634
vt 0.000244 0.107769
vt 0.455310 0.107769
vt 0.000244 0.096389
vt 0.455310 0.096389
vt 0.000244 0.060524
vt 0.455310 0.060524
vt 0.000244 0.049145
vt 0.455310 0.049145
vt 0.000244 0.013279
vt 0.455310 0.013279
vt 0.617981 0.570145
vt 0.607134 0.566704
vt 0.629730 0.538592
vt 0.640576 0.542033
vt 0.607134 0.754840
vt 0.617981 0.720654
vt 0.640576 0.692542
vt 0.619559 0.758782
vt 0.576320 0.566454
vt 0.565474 0.569895
vt 0.542879 0.541783
vt 0.553725 0.538342
vt 0.565474 0.720404
vt 0.576320 0.754590
vt 0.563895 0.758532
vt 0.542878 0.692292
vt 0.617981 0.494891
vt 0.607134 0.491450
vt 0.629730 0.463337
vt 0.640576 0.466779
vt 0.607134 0.679586
vt 0.617981 0.645400
vt 0.640576 0.617287
vt 0.629730 0.651473
vt 0.000244 0.000244
vt 0.455310 0.000244
vt 0.576320 0.491200
vt 0.565474 0.494641
vt 0.542879 0.466529
vt 0.553725 0.463087
vt 0.565474 0.645150
vt 0.576320 0.679335
vt 0.553725 0.651223
vt 0.542878 0.617037
vt 0.607134 0.604331
vt 0.629730 0.576219
vt 0.576320 0.604081
vt 0.553725 0.575969
vt 0.607134 0.529077
vt 0.629730 0.500965
vt 0.617981 0.683027
vt 0.640576 0.654914
vt 0.576320 0.528827
vt 0.553725 0.500714
vt 0.565474 0.682777
vt 0.542878 0.654664
vt 0.617981 0.607773
vt 0.640576 0.579660
vt 0.565474 0.607523
vt 0.542879 0.579410
vt 0.617981 0.532518
vt 0.640576 0.504406
vt 0.607134 0.717213
vt 0.629730 0.689100
vt 0.617981 0.457264
vt 0.606076 0.453487
vt 0.616246 0.421432
vt 0.640576 0.429152
vt 0.565474 0.532268
vt 0.542879 0.504156
vt 0.576320 0.716963
vt 0.553725 0.688850
vt 0.455310 0.425976
vt 0.000244 0.425976
vt 0.607134 0.641958
vt 0.629730 0.613846
vt 0.577379 0.453237
vt 0.565474 0.457014
vt 0.542878 0.428902
vt 0.567209 0.421182
vt 0.576320 0.641708
vt 0.553725 0.613596
vt 0.000244 0.851708
vt 0.455310 0.851708
vt 0.455310 0.877234
vt 0.000244 0.877234
vt 0.000244 0.818079
vt 0.000244 0.805589
vt 0.455310 0.805589
vt 0.455310 0.818079
vt 0.000244 0.769724
vt 0.455310 0.769724
vt 0.000244 0.758344
vt 0.455310 0.758344
vt 0.000244 0.722479
vt 0.455310 0.722479
vt 0.000244 0.711100
vt 0.455310 0.711100
vt 0.000244 0.675234
vt 0.455310 0.675234
vt 0.000244 0.663855
vt 0.455310 0.663855
vt 0.000244 0.627990
vt 0.455310 0.627990
vt 0.000244 0.616611
vt 0.455310 0.616611
vt 0.000244 0.580745
vt 0.455310 0.580745
vt 0.000244 0.569366
vt 0.455310 0.569366
vt 0.000244 0.533501
vt 0.455310 0.533501
vt 0.000244 0.522121
vt 0.455310 0.522121
vt 0.000244 0.486256
vt 0.455310 0.486256
vt 0.000244 0.474877
vt 0.455310 0.474877
vt 0.000244 0.439012
vt 0.455310 0.439012
vt 0.645749 0.569895
vt 0.634902 0.566454
vt 0.657497 0.538341
vt 0.668344 0.541783
vt 0.634902 0.754590
vt 0.645749 0.720404
vt 0.668344 0.692291
vt 0.647327 0.758532
vt 0.604008 0.566454
vt 0.593162 0.569895
vt 0.570567 0.541783
vt 0.581413 0.538341
vt 0.593162 0.720404
vt 0.604008 0.754590
vt 0.591584 0.758532
vt 0.570567 0.692291
vt 0.645749 0.494641
vt 0.634902 0.491200
vt 0.657497 0.463087
vt 0.668344 0.466529
vt 0.634902 0.679335
vt 0.645749 0.645150
vt 0.668344 0.617037
vt 0.657497 0.651223
vt 0.604008 0.491200
vt 0.593162 0.494641
vt 0.570567 0.466529
vt 0.581413 0.463087
vt 0.593162 0.645150
vt 0.604008 0.679335
vt 0.581413 0.651223
vt 0.570567 0.617037
vt 0.634902 0.604081
vt 0.657497 0.575969
vt 0.604008 0.604081
vt 0.581413 0.575969
vt 0.634902 0.528827
vt 0.657497 0.500714
vt 0.645749 0.682777
vt 0.668344 0.654664
vt 0.604008 0.528827
vt 0.581413 0.500714
vt 0.593162 0.682777
vt 0.570567 0.654664
vt 0.645749 0.607522
vt 0.668344 0.579410
vt 0.593162 0.607522
vt 0.570567 0.579410
vt 0.645749 0.532268
vt 0.668344 0.504156
vt 0.634902 0.716962
vt 0.657497 0.688850
vt 0.645749 0.457014
vt 0.633843 0.453237
vt 0.644014 0.421182
vt 0.668344 0.428901
vt 0.593162 0.532268
vt 0.570567 0.504156
vt 0.604008 0.716962
vt 0.581413 0.688850
vt 0.634902 0.641708
vt 0.657497 0.613596
vt 0.605067 0.453236
vt 0.593162 0.457014
vt 0.570567 0.428901
vt 0.594897 0.421182
vt 0.604008 0.641708
vt 0.581413 0.613596
s 0
usemtl Platform_L_5_9
f 20/1/1 22/2/1 19/3/1 4/4/1
f 22/2/2 23/5/2 18/6/2 19/3/2
f 23/5/1 24/7/1 17/8/1 18/6/1
f 24/7/2 25/9/2 16/10/2 17/8/2
f 25/9/1 26/11/1 15/12/1 16/10/1
f 26/11/2 27/13/2 14/14/2 15/12/2
f 27/13/1 28/15/1 13/16/1 14/14/1
f 28/15/2 29/17/2 12/18/2 13/16/2
f 29/17/1 30/19/1 11/20/1 12/18/1
f 30/19/2 31/21/2 10/22/2 11/20/2
f 31/21/1 32/23/1 9/24/1 10/22/1
f 32/23/2 33/25/2 8/26/2 9/24/2
f 33/25/1 34/27/1 7/28/1 8/26/1
f 34/27/2 35/29/2 6/30/2 7/28/2
f 35/29/1 36/31/1 5/32/1 6/30/1
f 36/31/2 21/33/2 3/34/2 5/32/2
f 28/35/3 27/36/3 59/37/3 60/38/3
f 21/39/3 36/40/3 68/41/3 53/42/3
f 14/43/4 13/44/4 45/45/4 46/46/4
f 5/47/4 3/48/4 2/49/4 37/50/4
f 24/51/3 23/52/3 55/53/3 56/54/3
f 33/55/3 32/56/3 64/57/3 65/58/3
f 3/34/1 21/33/1 53/59/1 2/60/1
f 18/61/4 17/62/4 49/63/4 50/64/4
f 9/65/4 8/66/4 40/67/4 41/68/4
f 29/69/3 28/35/3 60/38/3 61/70/3
f 13/44/4 12/71/4 44/72/4 45/45/4
f 25/73/3 24/51/3 56/54/3 57/74/3
f 34/75/3 33/55/3 65/58/3 66/76/3
f 17/62/4 16/77/4 48/78/4 49/63/4
f 8/66/4 7/79/4 39/80/4 40/67/4
f 30/81/3 29/69/3 61/70/3 62/82/3
f 12/71/4 11/83/4 43/84/4 44/72/4
f 26/85/3 25/73/3 57/74/3 58/86/3
f 35/87/3 34/75/3 66/76/3 67/88/3
f 22/89/3 20/90/3 52/91/3 54/92/3
f 16/77/4 15/93/4 47/94/4 48/78/4
f 7/79/4 6/95/4 38/96/4 39/80/4
f 20/1/2 4/4/2 1/97/2 52/98/2
f 31/99/3 30/81/3 62/82/3 63/100/3
f 4/101/4 19/102/4 51/103/4 1/104/4
f 11/83/4 10/105/4 42/106/4 43/84/4
f 27/36/3 26/85/3 58/86/3 59/37/3
f 36/40/3 35/87/3 67/88/3 68/41/3
f 15/93/4 14/43/4 46/46/4 47/94/4
f 6/95/4 5/47/4 37/50/4 38/96/4
f 23/52/3 22/89/3 54/92/3 55/53/3
f 32/56/3 31/99/3 63/100/3 64/57/3
f 19/102/4 18/61/4 50/64/4 51/103/4
f 10/105/4 9/65/4 41/68/4 42/106/4
f 119/107/5 69/108/5 118/109/5 120/110/5
f 87/111/1 89/112/1 86/113/1 71/114/1
f 89/112/2 90/115/2 85/116/2 86/113/2
f 90/115/1 91/117/1 84/118/1 85/116/1
f 91/117/2 92/119/2 83/120/2 84/118/2
f 92/119/1 93/121/1 82/122/1 83/120/1
f 93/121/2 94/123/2 81/124/2 82/122/2
f 94/123/1 95/125/1 80/126/1 81/124/1
f 95/125/2 96/127/2 79/128/2 80/126/2
f 96/127/1 97/129/1 78/130/1 79/128/1
f 97/129/2 98/131/2 77/132/2 78/130/2
f 98/131/1 99/133/1 76/134/1 77/132/1
f 99/133/2 100/135/2 75/136/2 76/134/2
f 100/135/1 101/137/1 74/138/1 75/136/1
f 101/137/2 102/139/2 73/140/2 74/138/2
f 102/139/1 103/141/1 72/142/1 73/140/1
f 103/141/2 88/143/2 70/144/2 72/142/2
f 95/145/3 94/146/3 125/147/3 126/148/3
f 88/149/3 103/150/3 134/151/3 52/152/3
f 81/153/4 80/154/4 112/155/4 113/156/4
f 72/157/4 70/158/4 1/159/4 104/160/4
f 91/161/3 90/162/3 121/163/3 122/164/3
f 100/165/3 99/166/3 130/167/3 131/168/3
f 70/144/1 88/143/1 52/98/1 1/97/1
f 85/169/4 84/170/4 116/171/4 117/172/4
f 76/173/4 75/174/4 107/175/4 108/176/4
f 96/177/3 95/145/3 126/148/3 127/178/3
f 80/154/4 79/179/4 111/180/4 112/155/4
f 92/181/3 91/161/3 122/164/3 123/182/3
f 101/183/3 100/165/3 131/168/3 132/184/3
f 84/170/4 83/185/4 115/186/4 116/171/4
f 75/174/4 74/187/4 106/188/4 107/175/4
f 97/189/3 96/177/3 127/178/3 128/190/3
f 79/179/4 78/191/4 110/192/4 111/180/4
f 93/193/3 92/181/3 123/182/3 124/194/3
f 102/195/3 101/183/3 132/184/3 133/196/3
f 89/197/3 87/198/3 119/199/3 120/200/3
f 83/185/4 82/201/4 114/202/4 115/186/4
f 74/187/4 73/203/4 105/204/4 106/188/4
f 87/111/2 71/114/2 69/108/2 119/107/2
f 98/205/3 97/189/3 128/190/3 129/206/3
f 71/207/4 86/208/4 118/209/4 69/210/4
f 78/191/4 77/211/4 109/212/4 110/192/4
f 94/146/3 93/193/3 124/194/3 125/147/3
f 103/150/3 102/195/3 133/196/3 134/151/3
f 82/201/4 81/153/4 113/156/4 114/202/4
f 73/203/4 72/157/4 104/160/4 105/204/4
f 90/162/3 89/197/3 120/200/3 121/163/3
f 99/166/3 98/205/3 129/206/3 130/167/3
f 86/208/4 85/169/4 117/172/4 118/209/4
f 77/211/4 76/173/4 108/176/4 109/212/4
