# Blender 4.2.0
# www.blender.org
mtllib Stairs_Start.mtl
o Stairs_Start
v 0.062040 -0.210049 2.482303
v 5.090893 -1.448284 2.482303
v 5.090893 -1.294827 2.482303
v 0.589624 -0.210049 2.482303
v 4.528233 -1.294827 2.482303
v 4.528233 -1.160865 2.482303
v 3.965576 -1.160865 2.482303
v 3.965576 -1.026902 2.482303
v 3.402916 -1.026902 2.482303
v 3.402916 -0.892939 2.482303
v 2.840260 -0.892939 2.482303
v 2.840260 -0.758977 2.482303
v 2.277599 -0.758977 2.482303
v 2.277599 -0.625014 2.482303
v 1.714941 -0.625014 2.482303
v 1.714941 -0.491052 2.482303
v 1.152283 -0.491052 2.482303
v 1.152283 -0.357089 2.482303
v 0.589624 -0.357089 2.482303
v 0.589624 -0.210050 -2.279371
v 5.090893 -1.294828 -2.279371
v 0.589624 -0.357090 -2.279371
v 1.152283 -0.357090 -2.279371
v 1.152283 -0.491053 -2.279371
v 1.714941 -0.491053 -2.279371
v 1.714941 -0.625015 -2.279371
v 2.277599 -0.625015 -2.279371
v 2.277599 -0.758978 -2.279371
v 2.840260 -0.758978 -2.279371
v 2.840260 -0.892940 -2.279371
v 3.402916 -0.892940 -2.279371
v 3.402916 -1.026903 -2.279371
v 3.965576 -1.026903 -2.279371
v 3.965576 -1.160865 -2.279371
v 4.528233 -1.160865 -2.279371
v 4.528233 -1.294828 -2.279371
v 4.000652 -1.448284 2.482303
v 4.000652 -1.314322 2.482303
v 3.437992 -1.314322 2.482303
v 3.437992 -1.180359 2.482303
v 2.875336 -1.180359 2.482303
v 2.875336 -1.046396 2.482303
v 2.312675 -1.046396 2.482303
v 2.312675 -0.912434 2.482303
v 1.750017 -0.912434 2.482303
v 1.750017 -0.778471 2.482303
v 1.187359 -0.778471 2.482303
v 1.187359 -0.644509 2.482303
v 0.624701 -0.644509 2.482303
v 0.624701 -0.510546 2.482303
v 0.062042 -0.510546 2.482303
v 0.062040 -0.210050 -2.279371
v 5.090893 -1.448285 -2.279371
v 0.062042 -0.510547 -2.279371
v 0.624701 -0.510547 -2.279371
v 0.624701 -0.644510 -2.279371
v 1.187359 -0.644510 -2.279371
v 1.187359 -0.778472 -2.279371
v 1.750017 -0.778472 -2.279371
v 1.750017 -0.912435 -2.279371
v 2.312675 -0.912435 -2.279371
v 2.312675 -1.046397 -2.279371
v 2.875336 -1.046397 -2.279371
v 2.875336 -1.180360 -2.279371
v 3.437992 -1.180360 -2.279371
v 3.437992 -1.314322 -2.279371
v 4.000652 -1.314322 -2.279371
v 4.000652 -1.448285 -2.279371
v -4.966812 1.028185 2.482303
v 0.062037 -0.056592 2.482303
v -4.439230 1.028185 2.482303
v -0.500622 -0.056592 2.482303
v -0.500622 0.077370 2.482303
v -1.063280 0.077370 2.482303
v -1.063280 0.211333 2.482303
v -1.625938 0.211333 2.482303
v -1.625938 0.345295 2.482303
v -2.188597 0.345295 2.482303
v -2.188597 0.479258 2.482303
v -2.751255 0.479258 2.482303
v -2.751255 0.613220 2.482303
v -3.313913 0.613220 2.482303
v -3.313913 0.747183 2.482303
v -3.876572 0.747183 2.482303
v -3.876572 0.881145 2.482303
v -4.439230 0.881145 2.482303
v -4.439230 1.028184 -2.279371
v 0.062037 -0.056593 -2.279371
v -4.439230 0.881145 -2.279371
v -3.876572 0.881145 -2.279371
v -3.876572 0.747182 -2.279371
v -3.313913 0.747182 -2.279371
v -3.313913 0.613219 -2.279371
v -2.751255 0.613219 -2.279371
v -2.751255 0.479257 -2.279371
v -2.188597 0.479257 -2.279371
v -2.188597 0.345294 -2.279371
v -1.625938 0.345294 -2.279371
v -1.625938 0.211332 -2.279371
v -1.063280 0.211332 -2.279371
v -1.063280 0.077369 -2.279371
v -0.500622 0.077369 -2.279371
v -0.500622 -0.056593 -2.279371
v -1.028204 -0.210049 2.482303
v -1.028204 -0.076087 2.482303
v -1.590862 -0.076087 2.482303
v -1.590862 0.057876 2.482303
v -2.153521 0.057876 2.482303
v -2.153521 0.191838 2.482303
v -2.716179 0.191838 2.482303
v -2.716179 0.325801 2.482303
v -3.278837 0.325801 2.482303
v -3.278837 0.459763 2.482304
v -3.841496 0.459763 2.482304
v -3.841496 0.593726 2.482303
v -4.404154 0.593726 2.482303
v -4.404154 0.727688 2.482303
v -4.966812 0.727688 2.482303
v -4.966812 1.028184 -2.279371
v -4.966812 0.727687 -2.279371
v -4.404154 0.727687 -2.279371
v -4.404154 0.593725 -2.279371
v -3.841496 0.593725 -2.279371
v -3.841496 0.459762 -2.279371
v -3.278837 0.459762 -2.279371
v -3.278837 0.325800 -2.279371
v -2.716179 0.325800 -2.279371
v -2.716179 0.191837 -2.279371
v -2.153521 0.191837 -2.279371
v -2.153521 0.057875 -2.279371
v -1.590862 0.057875 -2.279371
v -1.590862 -0.076088 -2.279371
v -1.028204 -0.076088 -2.279371
v -1.028204 -0.210050 -2.279371
v 3.205265 -1.105521 -2.651822
v 3.152798 -0.234063 -2.566250
v 3.108669 -0.089229 -2.637363
v 3.017151 -0.183430 -2.638604
v 3.204273 -1.091602 -3.636796
v 3.323215 -1.064543 -3.709739
v 3.107685 -0.075311 -3.622338
v 3.151661 -0.218077 -3.697604
v 3.016167 -0.169512 -3.623579
v 5.255318 -1.603384 -2.661106
v 4.917923 -0.573065 -2.646163
v 4.935287 -0.710735 -2.574923
v 5.064556 -0.730941 -2.648561
v 5.134781 -1.614456 -3.719504
v 5.253925 -1.589465 -3.646083
v 4.916527 -0.559147 -3.631138
v 5.063160 -0.717023 -3.633537
v 4.933685 -0.694749 -3.706278
v 3.259972 -0.762831 -2.573831
v 3.134666 -0.759439 -2.646860
v 3.258827 -0.746845 -3.705184
v 3.133682 -0.745520 -3.631835
v 5.182320 -1.262017 -3.641374
v 5.059303 -1.269269 -3.714540
v 5.060905 -1.285255 -2.583184
v 5.183723 -1.275935 -2.656398
v 3.204624 -1.107592 -2.305945
v 3.323654 -1.081568 -2.305698
v 3.134022 -0.761510 -2.300984
v 5.060303 -1.286293 -2.310497
v 5.135780 -1.631480 -2.315461
v 5.254814 -1.605456 -2.315229
v 3.259258 -0.763869 -2.301143
v 5.183216 -1.278007 -2.310521
v 3.210670 -1.181069 2.694595
v 3.158031 -0.307543 2.633786
v 3.114029 -0.164778 2.709052
v 3.022495 -0.258978 2.707812
v 3.211674 -1.194987 3.679568
v 3.330849 -1.169997 3.753006
v 3.115017 -0.178695 3.694027
v 3.159172 -0.323530 3.765141
v 3.023483 -0.272896 3.692786
v 5.262901 -1.678932 2.685317
v 4.925507 -0.648613 2.700260
v 4.942661 -0.784215 2.625120
v 5.072136 -0.806489 2.697861
v 5.145367 -1.719909 3.743249
v 5.264301 -1.692850 3.670291
v 4.926899 -0.662531 3.685236
v 5.073536 -0.820408 3.682837
v 4.944267 -0.800202 3.756474
v 3.265259 -0.836311 2.626207
v 3.140038 -0.834987 2.699555
v 3.266415 -0.852298 3.757560
v 3.141029 -0.848905 3.684531
v 5.192699 -1.365401 3.675000
v 5.069885 -1.374721 3.748213
v 5.068287 -1.358734 2.616858
v 5.191299 -1.351483 2.690024
v 3.209328 -1.173367 2.348799
v 3.328415 -1.147342 2.349047
v 3.138699 -0.827284 2.353760
v 5.066906 -1.352067 2.344253
v 5.142380 -1.697255 2.339288
v 5.261417 -1.671229 2.339520
v 3.263988 -0.829643 2.353601
v 5.189819 -1.343781 2.344229
v 1.144972 -0.564183 -2.642116
v 1.092499 0.307274 -2.556545
v 1.048368 0.452108 -2.627658
v 0.956850 0.357907 -2.628897
v 1.143970 -0.550265 -3.627091
v 1.262939 -0.523206 -3.700033
v 1.047363 0.466027 -3.612633
v 1.091347 0.323261 -3.687899
v 0.955841 0.371826 -3.613872
v 3.195381 -1.062046 -2.651197
v 2.857986 -0.031727 -2.636303
v 2.875324 -0.169398 -2.565061
v 3.004623 -0.189604 -2.638679
v 3.075294 -1.073119 -3.709610
v 3.194393 -1.048128 -3.636173
v 2.857006 -0.017809 -3.621278
v 3.003639 -0.175685 -3.623654
v 2.874191 -0.153412 -3.696415
v 1.199686 -0.221494 -2.564125
v 1.074368 -0.218101 -2.637155
v 1.198536 -0.205507 -3.695478
v 1.073360 -0.204182 -3.622130
v 3.122807 -0.720679 -3.631473
v 2.999817 -0.727931 -3.704658
v 3.000950 -0.743918 -2.573304
v 3.123791 -0.734598 -2.646498
v 1.144335 -0.566255 -2.296240
v 1.263371 -0.540230 -2.295992
v 1.073727 -0.220173 -2.291278
v 3.000229 -0.744955 -2.300617
v 3.075706 -1.090143 -2.305569
v 3.194740 -1.064117 -2.305321
v 1.198973 -0.222531 -2.291438
v 3.123146 -0.736669 -2.300622
v 1.150410 -0.639732 2.704299
v 1.097794 0.233794 2.643491
v 1.053818 0.376560 2.718757
v 0.962307 0.282358 2.717519
v 1.151411 -0.653651 3.689274
v 1.270506 -0.628659 3.762712
v 1.054817 0.362642 3.703733
v 1.098942 0.217807 3.774846
v 0.963312 0.268442 3.702494
v 3.200787 -1.137594 2.695218
v 2.863331 -0.107275 2.710114
v 2.880520 -0.242878 2.634976
v 3.009968 -0.265152 2.707738
v 3.082760 -1.178572 3.753134
v 3.201790 -1.151513 3.680192
v 2.864315 -0.121194 3.695089
v 3.010952 -0.279070 3.692713
v 2.881653 -0.258864 3.766330
v 1.204969 -0.294974 2.635912
v 1.079809 -0.293650 2.709261
v 1.206116 -0.310960 3.767265
v 1.080811 -0.307567 3.694236
v 3.130150 -0.824064 3.684891
v 3.007275 -0.833384 3.758086
v 3.006145 -0.817397 2.626733
v 3.129154 -0.810146 2.699917
v 1.149065 -0.632030 2.358505
v 1.268093 -0.606005 2.358753
v 1.078466 -0.285946 2.363466
v 3.004883 -0.810729 2.354128
v 3.080360 -1.155917 2.349176
v 3.199444 -1.129892 2.349423
v 1.203701 -0.288305 2.363306
v 3.127815 -0.802444 2.354122
v -0.915371 -0.022846 -2.632314
v -0.967838 0.848611 -2.546737
v -1.011976 0.993446 -2.617846
v -1.103497 0.899245 -2.619076
v -0.916443 -0.008927 -3.617288
v -0.797472 0.018132 -3.690242
v -1.013054 1.007364 -3.602822
v -0.969072 0.864598 -3.678090
v -1.104580 0.913164 -3.604050
v 1.135092 -0.520708 -2.641492
v 0.797682 0.509610 -2.626593
v 0.815020 0.371939 -2.555352
v 0.944321 0.351734 -2.628972
v 1.014971 -0.531781 -3.699904
v 1.134087 -0.506790 -3.626467
v 0.796673 0.523528 -3.611568
v 0.943312 0.365652 -3.613947
v 0.813858 0.387926 -3.686705
v -0.860651 0.319844 -2.554328
v -0.985979 0.323237 -2.627346
v -0.861879 0.335831 -3.685682
v -0.987055 0.337155 -3.612320
v 1.062485 -0.179342 -3.621768
v 0.939487 -0.186593 -3.694951
v 0.940645 -0.202580 -2.563596
v 1.063490 -0.193260 -2.636793
v -0.915985 -0.024918 -2.286438
v -0.796944 0.001108 -2.286202
v -0.986591 0.321165 -2.281469
v 0.939932 -0.203617 -2.290910
v 1.015411 -0.548805 -2.295864
v 1.134451 -0.522780 -2.295615
v -0.861345 0.318807 -2.281641
v 1.062851 -0.195332 -2.290916
v -0.909557 -0.098394 2.714100
v -0.962172 0.775132 2.653298
v -1.006138 0.917898 2.728568
v -1.097635 0.823696 2.727340
v -0.908491 -0.112313 3.699074
v -0.789408 -0.087322 3.772499
v -1.005064 0.903979 3.713542
v -0.960941 0.759145 3.784652
v -1.096558 0.809779 3.712313
v 1.140528 -0.596257 2.704924
v 0.803158 0.434061 2.719822
v 0.820345 0.298459 2.644684
v 0.949780 0.276185 2.717444
v 1.022581 -0.637235 3.762840
v 1.141527 -0.610175 3.689898
v 0.804167 0.420143 3.704797
v 0.950785 0.262268 3.702419
v 0.821501 0.282473 3.776038
v -0.855013 0.246364 2.645707
v -0.980150 0.247688 2.719068
v -0.853786 0.230377 3.777061
v -0.979076 0.233770 3.704043
v 1.069939 -0.282726 3.694597
v 0.947111 -0.292046 3.767794
v 0.945957 -0.276060 2.636440
v 1.068935 -0.268808 2.709622
v -0.910927 -0.090692 2.368306
v -0.791914 -0.064667 2.368541
v -0.981516 0.255391 2.373274
v 0.944687 -0.269392 2.363834
v 1.020157 -0.614580 2.358881
v 1.139187 -0.588554 2.359129
v -0.856298 0.253031 2.373102
v 1.067593 -0.261106 2.363827
v -2.975752 0.518492 -2.622312
v -3.028212 1.389949 -2.536730
v -3.072357 1.534783 -2.607835
v -3.163881 1.440583 -2.609056
v -2.976948 0.532410 -3.607286
v -2.857983 0.559469 -3.680250
v -3.073561 1.548702 -3.592809
v -3.029587 1.405936 -3.668083
v -3.165089 1.454501 -3.594031
v -0.925253 0.020629 -2.631689
v -1.262669 1.050948 -2.616756
v -1.245323 0.913277 -2.545516
v -1.116026 0.893071 -2.619149
v -1.045454 0.009556 -3.690089
v -0.926327 0.034547 -3.616663
v -1.263758 1.064866 -3.601731
v -1.117109 0.906990 -3.604124
v -1.246576 0.929264 -3.676870
v -2.921021 0.861181 -2.544331
v -3.046362 0.864574 -2.617337
v -2.922388 0.877168 -3.675684
v -3.047560 0.878492 -3.602311
v -0.997932 0.361996 -3.611957
v -1.120941 0.354744 -3.685127
v -1.119698 0.338758 -2.553774
v -0.996853 0.348077 -2.626983
v -2.976326 0.516420 -2.276435
v -2.857283 0.542445 -2.276210
v -3.046932 0.862502 -2.271460
v -1.120388 0.337720 -2.281087
v -1.044909 -0.007468 -2.286049
v -0.925869 0.018558 -2.285813
v -2.921682 0.860144 -2.271643
v -0.997469 0.346006 -2.281106
v -2.969284 0.442943 2.724102
v -3.021900 1.316469 2.663305
v -3.065851 1.459235 2.738579
v -3.157337 1.365034 2.737358
v -2.968096 0.429024 3.709077
v -2.849018 0.454016 3.782491
v -3.064655 1.445316 3.723555
v -3.020531 1.300482 3.794659
v -3.156136 1.351115 3.722333
v -0.919439 -0.054919 2.714726
v -1.256763 0.975399 2.729659
v -1.239586 0.839797 2.654520
v -1.110161 0.817523 2.727264
v -1.037294 -0.095897 3.772654
v -0.918371 -0.068838 3.699699
v -1.255676 0.961482 3.714634
v -1.109081 0.803605 3.712240
v -1.238338 0.823811 3.785872
v -2.914753 0.787700 2.655704
v -3.039865 0.789025 2.729078
v -2.913391 0.771714 3.787058
v -3.038670 0.775107 3.714051
v -0.989948 0.258611 3.704407
v -1.112751 0.249291 3.777614
v -1.113991 0.265277 2.646262
v -0.991022 0.272529 2.719432
v -2.970692 0.450645 2.378308
v -2.851692 0.476671 2.378534
v -3.041275 0.796728 2.383284
v -1.115280 0.271946 2.373657
v -1.039818 -0.073242 2.368695
v -0.920805 -0.047217 2.368931
v -2.916071 0.794370 2.383100
v -0.992388 0.280231 2.373638
v -5.036200 1.059829 -2.612015
v -5.088642 1.931287 -2.526425
v -5.132809 2.076121 -2.597515
v -5.224344 1.981920 -2.598706
v -5.037609 1.073748 -3.596989
v -4.918650 1.100806 -3.669969
v -5.134235 2.090039 -3.582488
v -5.090267 1.947273 -3.657778
v -5.225788 1.995839 -3.583679
v -2.985636 0.561967 -2.621686
v -3.323055 1.592285 -2.606722
v -3.305700 1.454614 -2.535484
v -3.176411 1.434409 -2.609128
v -3.105972 0.550894 -3.680074
v -2.986830 0.575885 -3.606660
v -3.324274 1.606203 -3.591697
v -3.177620 1.448328 -3.594103
v -3.307102 1.470602 -3.666838
v -4.981449 1.402519 -2.534041
v -5.106812 1.405912 -2.607025
v -4.983063 1.418505 -3.665394
v -5.108231 1.419830 -3.591998
v -3.058437 0.903333 -3.601948
v -3.181461 0.896082 -3.675107
v -3.180071 0.880095 -2.543753
v -3.057238 0.889415 -2.616972
v -5.036697 1.057757 -2.266138
v -4.917654 1.083783 -2.265929
v -5.107307 1.403841 -2.261149
v -3.180727 0.879058 -2.271066
v -3.105247 0.533870 -2.276034
v -2.986206 0.559895 -2.275809
v -4.982056 1.401482 -2.261354
v -3.057808 0.887344 -2.271096
v -5.028589 0.984281 2.734401
v -5.081205 1.857806 2.673610
v -5.125124 2.000572 2.748894
v -5.216551 1.906372 2.747704
v -5.027191 0.970362 3.719375
v -4.908129 0.995353 3.792773
v -5.123716 1.986654 3.733869
v -5.079592 1.841820 3.804964
v -5.215120 1.892454 3.732678
v -2.979162 0.486418 2.724730
v -3.316446 1.516737 2.739693
v -3.299282 1.381135 2.664552
v -3.169861 1.358860 2.737286
v -3.096874 0.445440 3.782668
v -2.977972 0.472500 3.709704
v -3.315233 1.502818 3.724668
v -3.168659 1.344943 3.722260
v -3.297890 1.365148 3.795906
v -4.974079 1.329039 2.665996
v -5.099155 1.330363 2.739385
v -4.972485 1.313053 3.797349
v -5.097746 1.316445 3.724360
v -3.049543 0.799949 3.714417
v -3.172318 0.790629 3.787637
v -3.173700 0.806615 2.656283
v -3.050737 0.813867 2.729442
v -5.030071 0.991983 2.388606
v -4.911093 1.018008 2.388815
v -5.100639 1.338066 2.393591
v -3.175026 0.813283 2.383678
v -3.099571 0.468095 2.378710
v -2.980572 0.494121 2.378934
v -4.975458 1.335707 2.393390
v -3.052149 0.821569 2.383648
v -5.561584 -3.512842 -3.214720
v -5.452477 1.244475 -3.187735
v -5.547409 -3.512843 -3.924894
v -5.438299 1.284328 -3.897908
v 5.803650 -3.512843 -3.145499
v 5.912758 -1.564859 -3.118515
v 5.817825 -3.512843 -3.855673
v 5.926933 -1.525007 -3.828688
vn -1.0000 -0.0000 -0.0000
vn -0.0000 -1.0000 -0.0000
vn -0.0000 -0.0000 1.0000
vn -0.0000 -0.0000 -1.0000
vn 1.0000 -0.0000 -0.0000
vn 0.0011 -0.0141 0.9999
vn 0.9769 0.2136 0.0016
vn 0.2584 0.9659 0.0133
vn -0.0011 0.0141 -0.9999
vn -0.3474 0.3259 0.8793
vn -0.3491 0.3506 -0.8690
vn 0.4944 0.4479 0.7450
vn 0.4926 0.4687 -0.7333
vn -0.5015 -0.1143 0.8576
vn -0.7173 0.6967 0.0106
vn -0.5049 -0.0904 -0.8584
vn 0.1277 0.4930 -0.8606
vn 0.5020 0.1221 -0.8562
vn 0.7328 0.6804 0.0086
vn -0.0700 0.9975 0.0049
vn 0.1296 0.4686 0.8739
vn -0.9798 -0.1999 -0.0018
vn -0.9798 -0.1998 -0.0018
vn 0.5041 0.0979 0.8581
vn -0.5032 -0.0900 -0.8595
vn -0.9798 -0.1998 -0.0030
vn 0.2786 0.9604 0.0043
vn 0.0010 -0.0141 0.9999
vn 0.9769 0.2136 0.0027
vn 0.0215 0.9998 0.0051
vn 0.2581 0.9660 0.0133
vn -0.3490 0.3506 -0.8691
vn -0.3473 0.3259 0.8793
vn 0.4926 0.4686 -0.7333
vn -0.5030 -0.0900 -0.8596
vn -0.7172 0.6968 0.0106
vn -0.5030 -0.1146 0.8567
vn 0.1294 0.4685 0.8739
vn -0.0700 0.9973 0.0235
vn 0.1275 0.4930 -0.8606
vn -0.9798 -0.2000 -0.0018
vn -0.5013 -0.1143 0.8577
vn -0.9798 -0.2000 -0.0006
vn 0.2783 0.9602 0.0221
vn -0.0010 0.0141 -0.9999
vn 0.9769 0.2136 0.0006
vn 0.0215 0.9995 0.0231
vn 0.9769 0.2136 0.0020
vn 0.2583 0.9660 0.0134
vn 0.4942 0.4478 0.7451
vn 0.4928 0.4687 -0.7331
vn -0.5014 -0.1143 0.8576
vn -0.5049 -0.0904 -0.8585
vn 0.5022 0.1221 -0.8561
vn 0.7327 0.6804 0.0089
vn 0.5039 0.0979 0.8582
vn -0.5031 -0.0900 -0.8595
vn -0.9798 -0.1999 -0.0030
vn 0.2786 0.9604 0.0044
vn 0.9769 0.2135 0.0031
vn -0.5032 -0.1146 0.8565
vn 0.1295 0.4685 0.8739
vn 0.5038 0.0979 0.8583
vn -0.9798 -0.1999 -0.0006
vn 0.9769 0.2137 0.0020
vn 0.2786 0.9602 0.0222
vn 0.9769 0.2137 0.0010
vn -0.3492 0.3506 -0.8690
vn 0.4927 0.4687 -0.7332
vn 0.7327 0.6805 0.0089
vn -0.9798 -0.1999 -0.0029
vn 0.9769 0.2136 0.0031
vn 0.2584 0.9660 0.0134
vn -0.3493 0.3506 -0.8690
vn 0.4943 0.4478 0.7451
vn -0.5033 -0.0900 -0.8594
vn -0.7174 0.6966 0.0106
vn -0.5032 -0.1146 0.8566
vn 0.5040 0.0979 0.8582
vn 0.7328 0.6804 0.0089
vn -0.9798 -0.1998 -0.0006
vn 0.2786 0.9601 0.0222
vn 0.9769 0.2136 0.0010
vn 0.9769 0.2136 0.0019
vn 0.2583 0.9660 0.0133
vn -0.3472 0.3259 0.8793
vn 0.4926 0.4687 -0.7332
vn -0.5012 -0.1143 0.8577
vn -0.7172 0.6967 0.0107
vn -0.5050 -0.0904 -0.8584
vn 0.1276 0.4930 -0.8606
vn 0.5021 0.1221 -0.8562
vn 0.7327 0.6805 0.0088
vn 0.1296 0.4685 0.8739
vn -0.9798 -0.1999 -0.0016
vn 0.5040 0.0979 0.8581
vn -0.9798 -0.1999 -0.0028
vn 0.0012 -0.0141 0.9999
vn 0.9769 0.2136 0.0030
vn 0.9769 0.2135 0.0020
vn -0.3494 0.3506 -0.8689
vn 0.4944 0.4478 0.7450
vn -0.5035 -0.0900 -0.8593
vn -0.7174 0.6966 0.0107
vn -0.5031 -0.1146 0.8566
vn 0.7328 0.6804 0.0088
vn -0.9798 -0.1998 -0.0016
vn -0.9798 -0.1998 -0.0005
vn 0.2787 0.9601 0.0222
vn -0.0012 0.0141 -0.9999
vn 0.9769 0.2136 0.0009
vn 0.0013 -0.0141 0.9999
vn 0.9769 0.2136 0.0018
vn -0.0013 0.0141 -0.9999
vn -0.3468 0.3259 0.8795
vn 0.4925 0.4687 -0.7333
vn -0.5010 -0.1143 0.8579
vn -0.7172 0.6968 0.0109
vn -0.5051 -0.0904 -0.8583
vn 0.1274 0.4931 -0.8606
vn 0.7327 0.6805 0.0087
vn 0.1297 0.4685 0.8739
vn -0.9798 -0.1999 -0.0014
vn -0.5034 -0.0900 -0.8593
vn -0.9798 -0.1999 -0.0026
vn 0.0014 -0.0141 0.9999
vn 0.9769 0.2136 0.0029
vn 0.9769 0.2135 0.0018
vn 0.2585 0.9659 0.0133
vn -0.3498 0.3505 -0.8688
vn -0.3473 0.3258 0.8793
vn 0.4927 0.4686 -0.7332
vn 0.4945 0.4478 0.7449
vn -0.5038 -0.0900 -0.8591
vn -0.7177 0.6963 0.0109
vn 0.1298 0.4685 0.8739
vn 0.5042 0.0979 0.8580
vn 0.7329 0.6803 0.0087
vn -0.9799 -0.1997 -0.0014
vn -0.9798 -0.1998 -0.0014
vn 0.5043 0.0979 0.8580
vn -0.9798 -0.1998 -0.0003
vn 0.2787 0.9601 0.0221
vn 0.9769 0.2135 0.0008
vn -0.9996 0.0229 -0.0193
vn -0.1692 0.9842 0.0515
vn -0.0287 0.2155 -0.9761
vn -0.0802 0.0096 -0.9967
vn -0.0802 0.0097 -0.9967
vn -0.0288 0.2154 -0.9761
vn 0.0933 0.2112 -0.9730
vn 0.0431 0.0057 -0.9991
vn 0.0431 0.0058 -0.9991
vn 0.0933 0.2113 -0.9730
vn 0.3898 0.9190 0.0597
vn 0.9983 -0.0556 0.0184
vn -0.1691 0.9842 0.0516
vn 0.3897 0.9190 0.0596
vt 0.623983 0.457276
vt 0.623983 0.444043
vt 0.975038 0.444043
vt 0.975038 0.457276
vt 0.623983 0.406043
vt 0.975038 0.406043
vt 0.623983 0.393987
vt 0.975038 0.393987
vt 0.623983 0.355988
vt 0.975038 0.355988
vt 0.623983 0.343932
vt 0.975038 0.343932
vt 0.623983 0.305933
vt 0.975038 0.305933
vt 0.623983 0.293876
vt 0.975038 0.293876
vt 0.623983 0.255877
vt 0.975038 0.255877
vt 0.623983 0.243821
vt 0.975038 0.243821
vt 0.623983 0.205822
vt 0.975038 0.205822
vt 0.623983 0.193766
vt 0.975038 0.193766
vt 0.623983 0.155767
vt 0.975038 0.155767
vt 0.623983 0.143710
vt 0.975038 0.143710
vt 0.623983 0.105711
vt 0.975038 0.105711
vt 0.623983 0.093655
vt 0.975038 0.093655
vt 0.623983 0.055656
vt 0.975038 0.055656
vt 0.556660 0.792997
vt 0.545524 0.789464
vt 0.568721 0.760603
vt 0.579856 0.764136
vt 0.545524 0.982608
vt 0.556660 0.947512
vt 0.579856 0.918651
vt 0.558280 0.986655
vt 0.507569 0.789464
vt 0.496434 0.792997
vt 0.473237 0.764136
vt 0.484373 0.760603
vt 0.496434 0.947512
vt 0.507569 0.982608
vt 0.494814 0.986655
vt 0.473237 0.918651
vt 0.556660 0.715739
vt 0.545524 0.712206
vt 0.568721 0.683345
vt 0.579856 0.686878
vt 0.545524 0.905350
vt 0.556660 0.870254
vt 0.579856 0.841393
vt 0.568721 0.876489
vt 0.623983 0.041845
vt 0.975038 0.041845
vt 0.507569 0.712206
vt 0.496434 0.715739
vt 0.473237 0.686878
vt 0.484373 0.683345
vt 0.496434 0.870254
vt 0.507569 0.905350
vt 0.484373 0.876489
vt 0.473237 0.841393
vt 0.545524 0.828092
vt 0.568721 0.799232
vt 0.507569 0.828092
vt 0.484373 0.799232
vt 0.545524 0.750835
vt 0.568721 0.721974
vt 0.556660 0.908883
vt 0.579856 0.880022
vt 0.507569 0.750835
vt 0.484373 0.721974
vt 0.496434 0.908883
vt 0.473237 0.880022
vt 0.556660 0.831625
vt 0.579856 0.802765
vt 0.496434 0.831625
vt 0.473237 0.802765
vt 0.556660 0.754368
vt 0.579856 0.725507
vt 0.545524 0.943979
vt 0.568721 0.915118
vt 0.556660 0.677110
vt 0.544437 0.673232
vt 0.554878 0.640324
vt 0.579856 0.648249
vt 0.496434 0.754368
vt 0.473237 0.725507
vt 0.507569 0.943979
vt 0.484373 0.915118
vt 0.975038 0.492906
vt 0.623983 0.492906
vt 0.545524 0.866721
vt 0.568721 0.837860
vt 0.508656 0.673232
vt 0.496434 0.677110
vt 0.473237 0.648249
vt 0.498215 0.640324
vt 0.507569 0.866721
vt 0.484373 0.837860
vt 0.623983 0.943967
vt 0.975038 0.943967
vt 0.975038 0.971011
vt 0.623983 0.971011
vt 0.623983 0.908337
vt 0.623983 0.895104
vt 0.975038 0.895104
vt 0.975038 0.908337
vt 0.623983 0.857105
vt 0.975038 0.857105
vt 0.623983 0.845048
vt 0.975038 0.845048
vt 0.623983 0.807049
vt 0.975038 0.807049
vt 0.623983 0.794993
vt 0.975038 0.794993
vt 0.623983 0.756994
vt 0.975038 0.756994
vt 0.623983 0.744937
vt 0.975038 0.744937
vt 0.623983 0.706939
vt 0.975038 0.706939
vt 0.623983 0.694882
vt 0.975038 0.694882
vt 0.623983 0.656883
vt 0.975038 0.656883
vt 0.623983 0.644827
vt 0.975038 0.644827
vt 0.623983 0.606828
vt 0.975038 0.606828
vt 0.623983 0.594771
vt 0.975038 0.594771
vt 0.623983 0.556772
vt 0.975038 0.556772
vt 0.623983 0.544716
vt 0.975038 0.544716
vt 0.623983 0.506717
vt 0.975038 0.506717
vt 0.592260 0.792997
vt 0.581124 0.789464
vt 0.604321 0.760603
vt 0.615456 0.764136
vt 0.581124 0.982608
vt 0.592259 0.947512
vt 0.615456 0.918651
vt 0.593880 0.986655
vt 0.543169 0.789464
vt 0.532034 0.792997
vt 0.508837 0.764136
vt 0.519973 0.760603
vt 0.532034 0.947512
vt 0.543169 0.982608
vt 0.530414 0.986655
vt 0.508837 0.918651
vt 0.592260 0.715739
vt 0.581124 0.712206
vt 0.604321 0.683345
vt 0.615456 0.686878
vt 0.581124 0.905350
vt 0.592260 0.870254
vt 0.615456 0.841393
vt 0.604321 0.876489
vt 0.543169 0.712206
vt 0.532034 0.715739
vt 0.508837 0.686878
vt 0.519973 0.683345
vt 0.532034 0.870254
vt 0.543169 0.905350
vt 0.519973 0.876489
vt 0.508837 0.841393
vt 0.581124 0.828092
vt 0.604321 0.799232
vt 0.543169 0.828092
vt 0.519973 0.799232
vt 0.581124 0.750835
vt 0.604321 0.721974
vt 0.592260 0.908883
vt 0.615456 0.880022
vt 0.543169 0.750835
vt 0.519973 0.721974
vt 0.532034 0.908883
vt 0.508837 0.880022
vt 0.592260 0.831625
vt 0.615456 0.802765
vt 0.532034 0.831625
vt 0.508837 0.802765
vt 0.592260 0.754368
vt 0.615456 0.725507
vt 0.581124 0.943979
vt 0.604321 0.915118
vt 0.592260 0.677110
vt 0.580037 0.673232
vt 0.590478 0.640324
vt 0.615456 0.648249
vt 0.532034 0.754368
vt 0.508837 0.725507
vt 0.543169 0.943979
vt 0.519973 0.915118
vt 0.581124 0.866721
vt 0.604321 0.837860
vt 0.544256 0.673232
vt 0.532034 0.677110
vt 0.508837 0.648249
vt 0.533815 0.640324
vt 0.543169 0.866721
vt 0.519973 0.837860
vt 0.154300 0.250723
vt 0.154300 0.278348
vt 0.070461 0.278348
vt 0.070461 0.250723
vt 0.189191 0.358968
vt 0.162603 0.358968
vt 0.162204 0.291867
vt 0.189191 0.291867
vt 0.154300 0.358968
vt 0.070461 0.359834
vt 0.070461 0.291867
vt 0.154300 0.291867
vt 0.070461 0.389276
vt 0.070461 0.369205
vt 0.154300 0.369205
vt 0.154300 0.389276
vt 0.061313 0.278348
vt 0.060675 0.369205
vt 0.158057 0.279950
vt 0.159198 0.370581
vt 0.061313 0.250723
vt 0.063806 0.359931
vt 0.062580 0.285686
vt 0.070461 0.402949
vt 0.060675 0.402949
vt 0.060675 0.389276
vt 0.205701 0.358968
vt 0.205701 0.370581
vt 0.189191 0.370581
vt 0.186216 0.279719
vt 0.185294 0.263466
vt 0.189560 0.271013
vt 0.037441 0.286102
vt 0.038668 0.360346
vt 0.022338 0.286351
vt 0.023565 0.360596
vt 0.022033 0.260281
vt 0.037137 0.260031
vt 0.154300 0.402949
vt 0.205701 0.291867
vt 0.070461 0.233835
vt 0.154300 0.233835
vt 0.203166 0.263466
vt 0.203166 0.271013
vt 0.070461 0.215371
vt 0.061313 0.233835
vt 0.061313 0.215371
vt 0.154300 0.215371
vt 0.152638 0.054743
vt 0.068799 0.054743
vt 0.068799 0.082368
vt 0.152638 0.082368
vt 0.187529 0.162988
vt 0.187529 0.095887
vt 0.160543 0.095887
vt 0.160941 0.162988
vt 0.152638 0.162988
vt 0.152638 0.095887
vt 0.068799 0.095887
vt 0.068799 0.163854
vt 0.068799 0.193296
vt 0.152638 0.193296
vt 0.152638 0.173226
vt 0.068799 0.173226
vt 0.059651 0.082368
vt 0.059013 0.173226
vt 0.156395 0.083970
vt 0.157536 0.174601
vt 0.059651 0.054743
vt 0.060918 0.089706
vt 0.062145 0.163951
vt 0.059013 0.193296
vt 0.059013 0.206969
vt 0.068799 0.206969
vt 0.187529 0.174601
vt 0.204039 0.174601
vt 0.204039 0.162988
vt 0.187898 0.075034
vt 0.183632 0.067486
vt 0.184554 0.083739
vt 0.035779 0.090122
vt 0.037007 0.164366
vt 0.020676 0.090371
vt 0.021903 0.164616
vt 0.035475 0.064052
vt 0.020371 0.064301
vt 0.152638 0.206969
vt 0.204039 0.095887
vt 0.152638 0.037855
vt 0.068799 0.037855
vt 0.201504 0.075034
vt 0.201504 0.067486
vt 0.068799 0.019391
vt 0.059651 0.019391
vt 0.059651 0.037855
vt 0.152638 0.019391
vt 0.152836 0.449048
vt 0.152836 0.476673
vt 0.068997 0.476673
vt 0.068997 0.449048
vt 0.187727 0.557294
vt 0.161139 0.557294
vt 0.160741 0.490192
vt 0.187727 0.490192
vt 0.152836 0.557294
vt 0.068997 0.558159
vt 0.068997 0.490192
vt 0.152836 0.490192
vt 0.068997 0.587601
vt 0.068997 0.567531
vt 0.152836 0.567531
vt 0.152836 0.587601
vt 0.059850 0.476673
vt 0.059211 0.567531
vt 0.156593 0.478275
vt 0.157735 0.568906
vt 0.059850 0.449048
vt 0.062343 0.558256
vt 0.061116 0.484011
vt 0.068997 0.601274
vt 0.059211 0.601274
vt 0.059211 0.587601
vt 0.204238 0.557294
vt 0.204238 0.568906
vt 0.187727 0.568906
vt 0.184753 0.478044
vt 0.183831 0.461791
vt 0.188096 0.469339
vt 0.035978 0.484427
vt 0.037205 0.558671
vt 0.020874 0.484676
vt 0.022101 0.558921
vt 0.020569 0.458606
vt 0.035673 0.458357
vt 0.152836 0.601274
vt 0.204238 0.490192
vt 0.068997 0.432160
vt 0.152836 0.432160
vt 0.201702 0.461791
vt 0.201702 0.469339
vt 0.068997 0.413696
vt 0.059850 0.432160
vt 0.059850 0.413696
vt 0.152836 0.413696
vt 0.348966 0.061713
vt 0.265127 0.061713
vt 0.265127 0.089338
vt 0.348966 0.089338
vt 0.383857 0.169959
vt 0.383857 0.102857
vt 0.356870 0.102857
vt 0.357269 0.169959
vt 0.348966 0.169959
vt 0.348966 0.102857
vt 0.265127 0.102857
vt 0.265127 0.170824
vt 0.265127 0.200267
vt 0.348966 0.200267
vt 0.348966 0.180196
vt 0.265127 0.180196
vt 0.255979 0.089338
vt 0.255341 0.180196
vt 0.352723 0.090940
vt 0.353864 0.181571
vt 0.255979 0.061713
vt 0.257246 0.096677
vt 0.258472 0.170921
vt 0.255341 0.200267
vt 0.255341 0.213940
vt 0.265127 0.213940
vt 0.383857 0.181571
vt 0.400367 0.181571
vt 0.400367 0.169959
vt 0.384226 0.082004
vt 0.379960 0.074456
vt 0.380882 0.090710
vt 0.232107 0.097092
vt 0.233334 0.171337
vt 0.217004 0.097342
vt 0.218231 0.171586
vt 0.231803 0.071022
vt 0.216699 0.071271
vt 0.348966 0.213940
vt 0.400367 0.102857
vt 0.348966 0.044825
vt 0.265127 0.044825
vt 0.397832 0.082004
vt 0.397832 0.074456
vt 0.265127 0.026361
vt 0.255979 0.026361
vt 0.255979 0.044825
vt 0.348966 0.026361
vt 0.351893 0.453439
vt 0.351893 0.481064
vt 0.268054 0.481064
vt 0.268054 0.453439
vt 0.386784 0.561684
vt 0.360196 0.561684
vt 0.359798 0.494583
vt 0.386784 0.494583
vt 0.351893 0.561684
vt 0.268054 0.562550
vt 0.268054 0.494583
vt 0.351893 0.494583
vt 0.268054 0.591992
vt 0.268054 0.571922
vt 0.351893 0.571922
vt 0.351893 0.591992
vt 0.258907 0.481064
vt 0.258268 0.571922
vt 0.355650 0.482666
vt 0.356792 0.573297
vt 0.258907 0.453439
vt 0.261400 0.562647
vt 0.260173 0.488402
vt 0.268054 0.605665
vt 0.258268 0.605665
vt 0.258268 0.591992
vt 0.403295 0.561684
vt 0.403295 0.573297
vt 0.386784 0.573297
vt 0.383810 0.482435
vt 0.382888 0.466182
vt 0.387153 0.473729
vt 0.235035 0.488818
vt 0.236262 0.563062
vt 0.219931 0.489067
vt 0.221158 0.563312
vt 0.219627 0.462997
vt 0.234730 0.462748
vt 0.351893 0.605665
vt 0.403295 0.494583
vt 0.268054 0.436551
vt 0.351893 0.436551
vt 0.400759 0.466182
vt 0.400759 0.473729
vt 0.268054 0.418087
vt 0.258907 0.436551
vt 0.258907 0.418087
vt 0.351893 0.418087
vt 0.539485 0.066360
vt 0.455646 0.066360
vt 0.455646 0.093985
vt 0.539485 0.093985
vt 0.574376 0.174605
vt 0.574376 0.107504
vt 0.547390 0.107504
vt 0.547788 0.174605
vt 0.539485 0.174605
vt 0.539485 0.107504
vt 0.455646 0.107504
vt 0.455646 0.175471
vt 0.455646 0.204913
vt 0.539485 0.204913
vt 0.539485 0.184843
vt 0.455646 0.184843
vt 0.446499 0.093985
vt 0.445860 0.184843
vt 0.543242 0.095587
vt 0.544384 0.186218
vt 0.446499 0.066360
vt 0.447765 0.101323
vt 0.448992 0.175568
vt 0.445860 0.204913
vt 0.445860 0.218586
vt 0.455646 0.218586
vt 0.574376 0.186218
vt 0.590887 0.186218
vt 0.590887 0.174605
vt 0.574745 0.086651
vt 0.570480 0.079103
vt 0.571402 0.095356
vt 0.422627 0.101739
vt 0.423854 0.175983
vt 0.407523 0.101988
vt 0.408750 0.176233
vt 0.422322 0.075669
vt 0.407219 0.075918
vt 0.539485 0.218586
vt 0.590887 0.107504
vt 0.539485 0.049472
vt 0.455646 0.049472
vt 0.588351 0.086651
vt 0.588351 0.079103
vt 0.455646 0.031008
vt 0.446499 0.031008
vt 0.446499 0.049472
vt 0.539485 0.031008
vt 0.537777 0.263895
vt 0.537777 0.291521
vt 0.453939 0.291521
vt 0.453939 0.263895
vt 0.572669 0.372141
vt 0.546080 0.372141
vt 0.545682 0.305040
vt 0.572669 0.305040
vt 0.537777 0.372141
vt 0.453939 0.373007
vt 0.453939 0.305040
vt 0.537777 0.305040
vt 0.453939 0.402449
vt 0.453939 0.382378
vt 0.537777 0.382378
vt 0.537777 0.402449
vt 0.444791 0.291521
vt 0.444152 0.382378
vt 0.541534 0.293123
vt 0.542676 0.383754
vt 0.444791 0.263895
vt 0.447284 0.373104
vt 0.446057 0.298859
vt 0.453939 0.416122
vt 0.444152 0.416122
vt 0.444152 0.402449
vt 0.589179 0.372141
vt 0.589179 0.383754
vt 0.572669 0.383754
vt 0.569694 0.292892
vt 0.568772 0.276639
vt 0.573037 0.284186
vt 0.420919 0.299275
vt 0.422146 0.373519
vt 0.405815 0.299524
vt 0.407042 0.373769
vt 0.405511 0.273454
vt 0.420614 0.273204
vt 0.537777 0.416122
vt 0.589179 0.305040
vt 0.453939 0.247008
vt 0.537777 0.247008
vt 0.586643 0.276639
vt 0.586643 0.284186
vt 0.453939 0.228544
vt 0.444791 0.247008
vt 0.444791 0.228544
vt 0.537777 0.228544
vt 0.253412 0.635645
vt 0.169573 0.635645
vt 0.169573 0.663270
vt 0.253412 0.663270
vt 0.288304 0.743891
vt 0.288304 0.676789
vt 0.261317 0.676789
vt 0.261715 0.743891
vt 0.253412 0.743891
vt 0.253412 0.676789
vt 0.169573 0.676789
vt 0.169573 0.744756
vt 0.169573 0.774199
vt 0.253412 0.774199
vt 0.253412 0.754128
vt 0.169573 0.754128
vt 0.160426 0.663270
vt 0.159787 0.754128
vt 0.257169 0.664872
vt 0.258311 0.755503
vt 0.160426 0.635645
vt 0.161692 0.670608
vt 0.162919 0.744853
vt 0.159787 0.774199
vt 0.159787 0.787871
vt 0.169573 0.787871
vt 0.288304 0.755503
vt 0.304814 0.755503
vt 0.304814 0.743891
vt 0.288672 0.655936
vt 0.284407 0.648388
vt 0.285329 0.664641
vt 0.136554 0.671024
vt 0.137781 0.745268
vt 0.121450 0.671273
vt 0.122677 0.745518
vt 0.136249 0.644954
vt 0.121146 0.645203
vt 0.253412 0.787871
vt 0.304814 0.676789
vt 0.253412 0.618757
vt 0.169573 0.618757
vt 0.302278 0.655936
vt 0.302278 0.648388
vt 0.169573 0.600293
vt 0.160426 0.600293
vt 0.160426 0.618757
vt 0.253412 0.600293
vt 0.543632 0.460757
vt 0.543632 0.488382
vt 0.459793 0.488382
vt 0.459793 0.460757
vt 0.578523 0.569003
vt 0.551935 0.569003
vt 0.551536 0.501901
vt 0.578523 0.501901
vt 0.543632 0.569003
vt 0.459793 0.569869
vt 0.459793 0.501901
vt 0.543632 0.501901
vt 0.459793 0.599311
vt 0.459793 0.579240
vt 0.543632 0.579240
vt 0.543632 0.599311
vt 0.450645 0.488382
vt 0.450007 0.579240
vt 0.547389 0.489984
vt 0.548530 0.580615
vt 0.450645 0.460757
vt 0.453139 0.569965
vt 0.451912 0.495721
vt 0.459793 0.612984
vt 0.450007 0.612984
vt 0.450007 0.599311
vt 0.595033 0.569003
vt 0.595033 0.580615
vt 0.578523 0.580615
vt 0.575548 0.489754
vt 0.574626 0.473500
vt 0.578892 0.481048
vt 0.426773 0.496136
vt 0.428000 0.570381
vt 0.411670 0.496386
vt 0.412897 0.570630
vt 0.411365 0.470315
vt 0.426469 0.470066
vt 0.543632 0.612984
vt 0.595033 0.501901
vt 0.459793 0.443869
vt 0.543632 0.443869
vt 0.592498 0.473500
vt 0.592498 0.481048
vt 0.459793 0.425406
vt 0.450645 0.443869
vt 0.450645 0.425406
vt 0.543632 0.425406
vt 0.348966 0.258041
vt 0.265127 0.258041
vt 0.265127 0.285666
vt 0.348966 0.285666
vt 0.383857 0.366287
vt 0.383857 0.299185
vt 0.356870 0.299185
vt 0.357269 0.366287
vt 0.348966 0.366287
vt 0.348966 0.299185
vt 0.265127 0.299185
vt 0.265127 0.367152
vt 0.265127 0.396594
vt 0.348966 0.396594
vt 0.348966 0.376524
vt 0.265127 0.376524
vt 0.255979 0.285666
vt 0.255341 0.376524
vt 0.352723 0.287268
vt 0.353864 0.377899
vt 0.255979 0.258041
vt 0.257246 0.293004
vt 0.258472 0.367249
vt 0.255341 0.396594
vt 0.255341 0.410267
vt 0.265127 0.410267
vt 0.383857 0.377899
vt 0.400367 0.377899
vt 0.400367 0.366287
vt 0.384226 0.278332
vt 0.379960 0.270784
vt 0.380882 0.287038
vt 0.232107 0.293420
vt 0.233334 0.367664
vt 0.217004 0.293669
vt 0.218231 0.367914
vt 0.231803 0.267350
vt 0.216699 0.267599
vt 0.348966 0.410267
vt 0.400367 0.299185
vt 0.348966 0.241153
vt 0.265127 0.241153
vt 0.397832 0.278332
vt 0.397832 0.270784
vt 0.265127 0.222689
vt 0.255979 0.222689
vt 0.255979 0.241153
vt 0.348966 0.222689
vt 0.459117 0.804458
vt 0.456180 0.968136
vt 0.431719 0.968940
vt 0.434687 0.803893
vt 0.040274 0.874172
vt 0.043705 0.805765
vt 0.015906 0.871884
vt 0.019287 0.804845
vt 0.425961 0.992728
vt 0.034515 0.897959
s 0
usemtl 00_UV_Grid
f 20/1/1 22/2/1 19/3/1 4/4/1
f 22/2/2 23/5/2 18/6/2 19/3/2
f 23/5/1 24/7/1 17/8/1 18/6/1
f 24/7/2 25/9/2 16/10/2 17/8/2
f 25/9/1 26/11/1 15/12/1 16/10/1
f 26/11/2 27/13/2 14/14/2 15/12/2
f 27/13/1 28/15/1 13/16/1 14/14/1
f 28/15/2 29/17/2 12/18/2 13/16/2
f 29/17/1 30/19/1 11/20/1 12/18/1
f 30/19/2 31/21/2 10/22/2 11/20/2
f 31/21/1 32/23/1 9/24/1 10/22/1
f 32/23/2 33/25/2 8/26/2 9/24/2
f 33/25/1 34/27/1 7/28/1 8/26/1
f 34/27/2 35/29/2 6/30/2 7/28/2
f 35/29/1 36/31/1 5/32/1 6/30/1
f 36/31/2 21/33/2 3/34/2 5/32/2
f 28/35/3 27/36/3 59/37/3 60/38/3
f 21/39/3 36/40/3 68/41/3 53/42/3
f 14/43/4 13/44/4 45/45/4 46/46/4
f 5/47/4 3/48/4 2/49/4 37/50/4
f 24/51/3 23/52/3 55/53/3 56/54/3
f 33/55/3 32/56/3 64/57/3 65/58/3
f 3/34/1 21/33/1 53/59/1 2/60/1
f 18/61/4 17/62/4 49/63/4 50/64/4
f 9/65/4 8/66/4 40/67/4 41/68/4
f 29/69/3 28/35/3 60/38/3 61/70/3
f 13/44/4 12/71/4 44/72/4 45/45/4
f 25/73/3 24/51/3 56/54/3 57/74/3
f 34/75/3 33/55/3 65/58/3 66/76/3
f 17/62/4 16/77/4 48/78/4 49/63/4
f 8/66/4 7/79/4 39/80/4 40/67/4
f 30/81/3 29/69/3 61/70/3 62/82/3
f 12/71/4 11/83/4 43/84/4 44/72/4
f 26/85/3 25/73/3 57/74/3 58/86/3
f 35/87/3 34/75/3 66/76/3 67/88/3
f 22/89/3 20/90/3 52/91/3 54/92/3
f 16/77/4 15/93/4 47/94/4 48/78/4
f 7/79/4 6/95/4 38/96/4 39/80/4
f 20/1/2 4/4/2 1/97/2 52/98/2
f 31/99/3 30/81/3 62/82/3 63/100/3
f 4/101/4 19/102/4 51/103/4 1/104/4
f 11/83/4 10/105/4 42/106/4 43/84/4
f 27/36/3 26/85/3 58/86/3 59/37/3
f 36/40/3 35/87/3 67/88/3 68/41/3
f 15/93/4 14/43/4 46/46/4 47/94/4
f 6/95/4 5/47/4 37/50/4 38/96/4
f 23/52/3 22/89/3 54/92/3 55/53/3
f 32/56/3 31/99/3 63/100/3 64/57/3
f 19/102/4 18/61/4 50/64/4 51/103/4
f 10/105/4 9/65/4 41/68/4 42/106/4
f 119/107/5 69/108/5 118/109/5 120/110/5
f 87/111/1 89/112/1 86/113/1 71/114/1
f 89/112/2 90/115/2 85/116/2 86/113/2
f 90/115/1 91/117/1 84/118/1 85/116/1
f 91/117/2 92/119/2 83/120/2 84/118/2
f 92/119/1 93/121/1 82/122/1 83/120/1
f 93/121/2 94/123/2 81/124/2 82/122/2
f 94/123/1 95/125/1 80/126/1 81/124/1
f 95/125/2 96/127/2 79/128/2 80/126/2
f 96/127/1 97/129/1 78/130/1 79/128/1
f 97/129/2 98/131/2 77/132/2 78/130/2
f 98/131/1 99/133/1 76/134/1 77/132/1
f 99/133/2 100/135/2 75/136/2 76/134/2
f 100/135/1 101/137/1 74/138/1 75/136/1
f 101/137/2 102/139/2 73/140/2 74/138/2
f 102/139/1 103/141/1 72/142/1 73/140/1
f 103/141/2 88/143/2 70/144/2 72/142/2
f 95/145/3 94/146/3 125/147/3 126/148/3
f 88/149/3 103/150/3 134/151/3 52/152/3
f 81/153/4 80/154/4 112/155/4 113/156/4
f 72/157/4 70/158/4 1/159/4 104/160/4
f 91/161/3 90/162/3 121/163/3 122/164/3
f 100/165/3 99/166/3 130/167/3 131/168/3
f 70/144/1 88/143/1 52/98/1 1/97/1
f 85/169/4 84/170/4 116/171/4 117/172/4
f 76/173/4 75/174/4 107/175/4 108/176/4
f 96/177/3 95/145/3 126/148/3 127/178/3
f 80/154/4 79/179/4 111/180/4 112/155/4
f 92/181/3 91/161/3 122/164/3 123/182/3
f 101/183/3 100/165/3 131/168/3 132/184/3
f 84/170/4 83/185/4 115/186/4 116/171/4
f 75/174/4 74/187/4 106/188/4 107/175/4
f 97/189/3 96/177/3 127/178/3 128/190/3
f 79/179/4 78/191/4 110/192/4 111/180/4
f 93/193/3 92/181/3 123/182/3 124/194/3
f 102/195/3 101/183/3 132/184/3 133/196/3
f 89/197/3 87/198/3 119/199/3 120/200/3
f 83/185/4 82/201/4 114/202/4 115/186/4
f 74/187/4 73/203/4 105/204/4 106/188/4
f 87/111/2 71/114/2 69/108/2 119/107/2
f 98/205/3 97/189/3 128/190/3 129/206/3
f 71/207/4 86/208/4 118/209/4 69/210/4
f 78/191/4 77/211/4 109/212/4 110/192/4
f 94/146/3 93/193/3 124/194/3 125/147/3
f 103/150/3 102/195/3 133/196/3 134/151/3
f 82/201/4 81/153/4 113/156/4 114/202/4
f 73/203/4 72/157/4 104/160/4 105/204/4
f 90/162/3 89/197/3 120/200/3 121/163/3
f 99/166/3 98/205/3 129/206/3 130/167/3
f 86/208/4 85/169/4 117/172/4 118/209/4
f 77/211/4 76/173/4 108/176/4 109/212/4
f 159/213/6 146/214/6 136/215/6 153/216/6
f 157/217/7 151/218/7 147/219/7 160/220/7
f 150/221/8 141/222/8 137/223/8 145/224/8
f 155/225/9 142/226/9 152/227/9 158/228/9
f 136/215/10 137/223/10 138/229/10
f 141/222/11 142/226/11 143/230/11
f 145/224/12 146/231/12 147/219/12
f 150/221/13 151/218/13 152/232/13
f 153/216/14 136/215/14 138/229/14 154/233/14
f 137/223/15 141/222/15 143/234/15 138/235/15
f 155/225/16 140/236/16 139/237/16 156/238/16
f 141/222/17 150/221/17 152/227/17 142/226/17
f 157/217/18 149/239/18 148/240/18 158/241/18
f 150/221/19 145/224/19 147/219/19 151/218/19
f 160/220/20 159/242/20 164/243/20 168/244/20
f 145/224/21 137/223/21 136/215/21 146/214/21
f 154/245/22 138/235/22 143/234/22 156/246/22
f 135/247/23 154/245/23 156/246/23 139/248/23
f 146/231/24 159/242/24 160/220/24 147/219/24
f 151/218/18 157/217/18 158/241/18 152/232/18
f 142/226/25 155/225/25 156/238/25 143/230/25
f 154/245/26 135/247/26 161/249/26 163/250/26
f 140/236/9 155/225/9 158/228/9 148/251/9
f 149/239/7 157/217/7 160/220/7 144/252/7
f 159/213/27 153/216/27 167/253/27 164/254/27
f 164/243/6 165/255/6 166/256/6 168/244/6
f 162/257/28 167/253/28 163/258/28 161/259/28
f 165/260/6 164/254/6 167/253/6 162/257/6
f 144/252/29 160/220/29 168/244/29 166/256/29
f 153/216/30 154/233/30 163/258/30 167/253/30
f 193/261/9 187/262/9 170/263/9 180/264/9
f 191/265/7 194/266/7 181/267/7 185/268/7
f 184/269/31 179/270/31 171/271/31 175/272/31
f 189/273/6 192/274/6 186/275/6 176/276/6
f 170/263/32 172/277/32 171/271/32
f 175/272/33 177/278/33 176/276/33
f 179/270/34 181/267/34 180/279/34
f 184/269/12 186/280/12 185/268/12
f 187/262/35 188/281/35 172/277/35 170/263/35
f 171/271/36 172/282/36 177/283/36 175/272/36
f 189/273/37 190/284/37 173/285/37 174/286/37
f 175/272/38 176/276/38 186/275/38 184/269/38
f 191/265/24 192/287/24 182/288/24 183/289/24
f 184/269/19 185/268/19 181/267/19 179/270/19
f 194/266/39 202/290/39 198/291/39 193/292/39
f 179/270/40 180/264/40 170/263/40 171/271/40
f 188/293/22 190/294/22 177/283/22 172/282/22
f 169/295/41 173/296/41 190/294/41 188/293/41
f 180/279/18 181/267/18 194/266/18 193/292/18
f 185/268/24 186/280/24 192/287/24 191/265/24
f 176/276/42 177/278/42 190/284/42 189/273/42
f 188/293/43 197/297/43 195/298/43 169/295/43
f 174/286/6 182/299/6 192/274/6 189/273/6
f 183/289/7 178/300/7 194/266/7 191/265/7
f 193/261/44 198/301/44 201/302/44 187/262/44
f 198/291/9 202/290/9 200/303/9 199/304/9
f 196/305/45 195/306/45 197/307/45 201/302/45
f 199/308/9 196/305/9 201/302/9 198/301/9
f 178/300/46 200/303/46 202/290/46 194/266/46
f 187/262/47 201/302/47 197/307/47 188/281/47
f 227/309/28 214/310/28 204/311/28 221/312/28
f 225/313/48 219/314/48 215/315/48 228/316/48
f 218/317/49 209/318/49 205/319/49 213/320/49
f 223/321/45 210/322/45 220/323/45 226/324/45
f 204/311/33 205/319/33 206/325/33
f 209/318/11 210/322/11 211/326/11
f 213/320/50 214/327/50 215/315/50
f 218/317/51 219/314/51 220/328/51
f 221/312/52 204/311/52 206/325/52 222/329/52
f 205/319/15 209/318/15 211/330/15 206/331/15
f 223/321/53 208/332/53 207/333/53 224/334/53
f 209/318/17 218/317/17 220/323/17 210/322/17
f 225/313/54 217/335/54 216/336/54 226/337/54
f 218/317/55 213/320/55 215/315/55 219/314/55
f 228/316/20 227/338/20 232/339/20 236/340/20
f 213/320/38 205/319/38 204/311/38 214/310/38
f 222/341/22 206/331/22 211/330/22 224/342/22
f 203/343/22 222/341/22 224/342/22 207/344/22
f 214/327/56 227/338/56 228/316/56 215/315/56
f 219/314/54 225/313/54 226/337/54 220/328/54
f 210/322/57 223/321/57 224/334/57 211/326/57
f 222/341/58 203/343/58 229/345/58 231/346/58
f 208/332/45 223/321/45 226/324/45 216/347/45
f 217/335/48 225/313/48 228/316/48 212/348/48
f 227/309/59 221/312/59 235/349/59 232/350/59
f 232/339/28 233/351/28 234/352/28 236/340/28
f 230/353/28 235/349/28 231/354/28 229/355/28
f 233/356/28 232/350/28 235/349/28 230/353/28
f 212/348/60 228/316/60 236/340/60 234/352/60
f 221/312/30 222/329/30 231/354/30 235/349/30
f 261/357/45 255/358/45 238/359/45 248/360/45
f 259/361/48 262/362/48 249/363/48 253/364/48
f 252/365/49 247/366/49 239/367/49 243/368/49
f 257/369/28 260/370/28 254/371/28 244/372/28
f 238/359/11 240/373/11 239/367/11
f 243/368/10 245/374/10 244/372/10
f 247/366/51 249/363/51 248/375/51
f 252/365/50 254/376/50 253/364/50
f 255/358/25 256/377/25 240/373/25 238/359/25
f 239/367/15 240/378/15 245/379/15 243/368/15
f 257/369/61 258/380/61 241/381/61 242/382/61
f 243/368/62 244/372/62 254/371/62 252/365/62
f 259/361/63 260/383/63 250/384/63 251/385/63
f 252/365/55 253/364/55 249/363/55 247/366/55
f 262/362/39 270/386/39 266/387/39 261/388/39
f 247/366/17 248/360/17 238/359/17 239/367/17
f 256/389/23 258/390/23 245/379/23 240/378/23
f 237/391/22 241/392/22 258/390/22 256/389/22
f 248/375/54 249/363/54 262/362/54 261/388/54
f 253/364/56 254/376/56 260/383/56 259/361/56
f 244/372/14 245/374/14 258/380/14 257/369/14
f 256/389/64 265/393/64 263/394/64 237/391/64
f 242/382/28 250/395/28 260/370/28 257/369/28
f 251/385/65 246/396/65 262/362/65 259/361/65
f 261/357/66 266/397/66 269/398/66 255/358/66
f 266/387/45 270/386/45 268/399/45 267/400/45
f 264/401/45 263/402/45 265/403/45 269/398/45
f 267/404/45 264/401/45 269/398/45 266/397/45
f 246/396/67 268/399/67 270/386/67 262/362/67
f 255/358/47 269/398/47 265/403/47 256/377/47
f 295/405/6 282/406/6 272/407/6 289/408/6
f 293/409/48 287/410/48 283/411/48 296/412/48
f 286/413/49 277/414/49 273/415/49 281/416/49
f 291/417/9 278/418/9 288/419/9 294/420/9
f 272/407/33 273/415/33 274/421/33
f 277/414/68 278/418/68 279/422/68
f 281/416/50 282/423/50 283/411/50
f 286/413/69 287/410/69 288/424/69
f 289/408/42 272/407/42 274/421/42 290/425/42
f 273/415/15 277/414/15 279/426/15 274/427/15
f 291/417/16 276/428/16 275/429/16 292/430/16
f 277/414/17 286/413/17 288/419/17 278/418/17
f 293/409/54 285/431/54 284/432/54 294/433/54
f 286/413/70 281/416/70 283/411/70 287/410/70
f 296/412/20 295/434/20 300/435/20 304/436/20
f 281/416/62 273/415/62 272/407/62 282/406/62
f 290/437/22 274/427/22 279/426/22 292/438/22
f 271/439/22 290/437/22 292/438/22 275/440/22
f 282/423/56 295/434/56 296/412/56 283/411/56
f 287/410/54 293/409/54 294/433/54 288/424/54
f 278/418/25 291/417/25 292/430/25 279/422/25
f 290/437/71 271/439/71 297/441/71 299/442/71
f 276/428/45 291/417/45 294/420/45 284/443/45
f 285/431/48 293/409/48 296/412/48 280/444/48
f 295/405/59 289/408/59 303/445/59 300/446/59
f 300/435/28 301/447/28 302/448/28 304/436/28
f 298/449/6 303/445/6 299/450/6 297/451/6
f 301/452/28 300/446/28 303/445/28 298/449/28
f 280/444/72 296/412/72 304/436/72 302/448/72
f 289/408/30 290/425/30 299/450/30 303/445/30
f 329/453/45 323/454/45 306/455/45 316/456/45
f 327/457/48 330/458/48 317/459/48 321/460/48
f 320/461/73 315/462/73 307/463/73 311/464/73
f 325/465/28 328/466/28 322/467/28 312/468/28
f 306/455/74 308/469/74 307/463/74
f 311/464/33 313/470/33 312/468/33
f 315/462/51 317/459/51 316/471/51
f 320/461/75 322/472/75 321/460/75
f 323/454/76 324/473/76 308/469/76 306/455/76
f 307/463/77 308/474/77 313/475/77 311/464/77
f 325/465/78 326/476/78 309/477/78 310/478/78
f 311/464/62 312/468/62 322/467/62 320/461/62
f 327/457/79 328/479/79 318/480/79 319/481/79
f 320/461/80 321/460/80 317/459/80 315/462/80
f 330/458/39 338/482/39 334/483/39 329/484/39
f 315/462/17 316/456/17 306/455/17 307/463/17
f 324/485/23 326/486/23 313/475/23 308/474/23
f 305/487/23 309/488/23 326/486/23 324/485/23
f 316/471/54 317/459/54 330/458/54 329/484/54
f 321/460/79 322/472/79 328/479/79 327/457/79
f 312/468/14 313/470/14 326/476/14 325/465/14
f 324/485/81 333/489/81 331/490/81 305/487/81
f 310/478/28 318/491/28 328/466/28 325/465/28
f 319/481/48 314/492/48 330/458/48 327/457/48
f 329/453/82 334/493/82 337/494/82 323/454/82
f 334/483/45 338/482/45 336/495/45 335/496/45
f 332/497/9 331/498/9 333/499/9 337/494/9
f 335/500/45 332/497/45 337/494/45 334/493/45
f 314/492/83 336/495/83 338/482/83 330/458/83
f 323/454/47 337/494/47 333/499/47 324/473/47
f 363/501/6 350/502/6 340/503/6 357/504/6
f 361/505/84 355/506/84 351/507/84 364/508/84
f 354/509/85 345/510/85 341/511/85 349/512/85
f 359/513/9 346/514/9 356/515/9 362/516/9
f 340/503/86 341/511/86 342/517/86
f 345/510/74 346/514/74 347/518/74
f 349/512/75 350/519/75 351/507/75
f 354/509/87 355/506/87 356/520/87
f 357/504/88 340/503/88 342/517/88 358/521/88
f 341/511/89 345/510/89 347/522/89 342/523/89
f 359/513/90 344/524/90 343/525/90 360/526/90
f 345/510/91 354/509/91 356/515/91 346/514/91
f 361/505/92 353/527/92 352/528/92 362/529/92
f 354/509/93 349/512/93 351/507/93 355/506/93
f 364/508/20 363/530/20 368/531/20 372/532/20
f 349/512/94 341/511/94 340/503/94 350/502/94
f 358/533/95 342/523/95 347/522/95 360/534/95
f 339/535/95 358/533/95 360/534/95 343/536/95
f 350/519/96 363/530/96 364/508/96 351/507/96
f 355/506/92 361/505/92 362/529/92 356/520/92
f 346/514/76 359/513/76 360/526/76 347/518/76
f 358/533/97 339/535/97 365/537/97 367/538/97
f 344/524/9 359/513/9 362/516/9 352/539/9
f 353/527/84 361/505/84 364/508/84 348/540/84
f 363/501/27 357/504/27 371/541/27 368/542/27
f 368/531/6 369/543/6 370/544/6 372/532/6
f 366/545/98 371/541/98 367/546/98 365/547/98
f 369/548/6 368/542/6 371/541/6 366/545/6
f 348/540/99 364/508/99 372/532/99 370/544/99
f 357/504/30 358/521/30 367/546/30 371/541/30
f 397/549/9 391/550/9 374/551/9 384/552/9
f 395/553/100 398/554/100 385/555/100 389/556/100
f 388/557/8 383/558/8 375/559/8 379/560/8
f 393/561/6 396/562/6 390/563/6 380/564/6
f 374/551/101 376/565/101 375/559/101
f 379/560/33 381/566/33 380/564/33
f 383/558/69 385/555/69 384/567/69
f 388/557/102 390/568/102 389/556/102
f 391/550/103 392/569/103 376/565/103 374/551/103
f 375/559/104 376/570/104 381/571/104 379/560/104
f 393/561/105 394/572/105 377/573/105 378/574/105
f 379/560/94 380/564/94 390/563/94 388/557/94
f 395/553/24 396/575/24 386/576/24 387/577/24
f 388/557/106 389/556/106 385/555/106 383/558/106
f 398/554/39 406/578/39 402/579/39 397/580/39
f 383/558/91 384/552/91 374/551/91 375/559/91
f 392/581/107 394/582/107 381/571/107 376/570/107
f 373/583/107 377/584/107 394/582/107 392/581/107
f 384/567/54 385/555/54 398/554/54 397/580/54
f 389/556/24 390/568/24 396/575/24 395/553/24
f 380/564/52 381/566/52 394/572/52 393/561/52
f 392/581/108 401/585/108 399/586/108 373/583/108
f 378/574/6 386/587/6 396/562/6 393/561/6
f 387/577/100 382/588/100 398/554/100 395/553/100
f 397/549/109 402/589/109 405/590/109 391/550/109
f 402/579/9 406/578/9 404/591/9 403/592/9
f 400/593/110 399/594/110 401/595/110 405/590/110
f 403/596/9 400/593/9 405/590/9 402/589/9
f 382/588/111 404/591/111 406/578/111 398/554/111
f 391/550/47 405/590/47 401/595/47 392/569/47
f 431/597/112 418/598/112 408/599/112 425/600/112
f 429/601/113 423/602/113 419/603/113 432/604/113
f 422/605/85 413/606/85 409/607/85 417/608/85
f 427/609/114 414/610/114 424/611/114 430/612/114
f 408/599/115 409/607/115 410/613/115
f 413/606/101 414/610/101 415/614/101
f 417/608/102 418/615/102 419/603/102
f 422/605/116 423/602/116 424/616/116
f 425/600/117 408/599/117 410/613/117 426/617/117
f 409/607/118 413/606/118 415/618/118 410/619/118
f 427/609/119 412/620/119 411/621/119 428/622/119
f 413/606/120 422/605/120 424/611/120 414/610/120
f 429/601/18 421/623/18 420/624/18 430/625/18
f 422/605/121 417/608/121 419/603/121 423/602/121
f 432/604/20 431/626/20 436/627/20 440/628/20
f 417/608/122 409/607/122 408/599/122 418/598/122
f 426/629/123 410/619/123 415/618/123 428/630/123
f 407/631/123 426/629/123 428/630/123 411/632/123
f 418/615/24 431/626/24 432/604/24 419/603/24
f 423/602/18 429/601/18 430/625/18 424/616/18
f 414/610/124 427/609/124 428/622/124 415/614/124
f 426/629/125 407/631/125 433/633/125 435/634/125
f 412/620/114 427/609/114 430/612/114 420/635/114
f 421/623/113 429/601/113 432/604/113 416/636/113
f 431/597/27 425/600/27 439/637/27 436/638/27
f 436/627/98 437/639/98 438/640/98 440/628/98
f 434/641/126 439/637/126 435/642/126 433/643/126
f 437/644/112 436/638/112 439/637/112 434/641/112
f 416/636/127 432/604/127 440/628/127 438/640/127
f 425/600/30 426/617/30 435/642/30 439/637/30
f 465/645/114 459/646/114 442/647/114 452/648/114
f 463/649/128 466/650/128 453/651/128 457/652/128
f 456/653/129 451/654/129 443/655/129 447/656/129
f 461/657/112 464/658/112 458/659/112 448/660/112
f 442/647/130 444/661/130 443/655/130
f 447/656/131 449/662/131 448/660/131
f 451/654/132 453/651/132 452/663/132
f 456/653/133 458/664/133 457/652/133
f 459/646/134 460/665/134 444/661/134 442/647/134
f 443/655/135 444/666/135 449/667/135 447/656/135
f 461/657/105 462/668/105 445/669/105 446/670/105
f 447/656/136 448/660/136 458/659/136 456/653/136
f 463/649/137 464/671/137 454/672/137 455/673/137
f 456/653/138 457/652/138 453/651/138 451/654/138
f 466/650/39 474/674/39 470/675/39 465/676/39
f 451/654/40 452/648/40 442/647/40 443/655/40
f 460/677/139 462/678/139 449/667/139 444/666/139
f 441/679/140 445/680/140 462/678/140 460/677/140
f 452/663/54 453/651/54 466/650/54 465/676/54
f 457/652/141 458/664/141 464/671/141 463/649/141
f 448/660/52 449/662/52 462/668/52 461/657/52
f 460/677/142 469/681/142 467/682/142 441/679/142
f 446/670/112 454/683/112 464/658/112 461/657/112
f 455/673/128 450/684/128 466/650/128 463/649/128
f 465/645/143 470/685/143 473/686/143 459/646/143
f 470/675/110 474/674/110 472/687/110 471/688/110
f 468/689/114 467/690/114 469/691/114 473/686/114
f 471/692/114 468/689/114 473/686/114 470/685/114
f 450/684/144 472/687/144 474/674/144 466/650/144
f 459/646/47 473/686/47 469/691/47 460/665/47
f 475/693/145 476/694/146 478/695/147 477/696/148
f 477/696/149 478/695/150 482/697/151 481/698/152
f 481/698/153 482/697/154 480/699/155 479/700/156
f 482/697/154 478/695/150 476/701/157 480/702/158
