# Blender 4.2.0
# www.blender.org
mtllib Stone_Pillar.mtl
o Stone_Pillar_R
v -0.900170 0.319045 -2.303897
v -0.900170 0.319045 -5.154614
v 0.900173 0.319045 -2.303897
v 0.900173 0.319045 -5.154614
v -0.671897 0.368778 -2.665351
v -0.671897 0.368778 -4.793160
v 0.671901 0.368778 -4.793160
v 0.671901 0.368778 -2.665351
v -0.671897 1.281799 -2.665351
v -0.671897 1.281799 -4.793160
v 0.671901 1.281799 -4.793160
v 0.671901 1.281799 -2.665351
v -0.556507 1.281799 -2.848063
v -0.556507 1.281799 -4.610447
v 0.556510 1.281799 -4.610447
v 0.556510 1.281799 -2.848063
v -0.556507 1.946182 -2.848063
v -0.556507 1.946182 -4.610447
v 0.556510 1.946182 -4.610447
v 0.556510 1.946182 -2.848063
v -0.730953 1.946182 -2.571840
v -0.730953 1.946182 -4.886671
v 0.730956 1.946182 -4.886671
v 0.730956 1.946182 -2.571840
v -0.730953 2.771276 -2.571840
v -0.730953 2.771276 -4.886671
v 0.730956 2.771276 -4.886671
v 0.730956 2.771276 -2.571840
v -0.900170 -1.054877 -2.303897
v -0.900170 -1.054877 -5.154614
v 0.900173 -1.054877 -5.154614
v 0.900173 -1.054877 -2.303897
v -1.088271 -7.752764 -5.452460
v -1.088271 -7.752764 -2.006052
v -1.088271 -1.107409 -5.452460
v 1.088274 -7.752764 -5.452460
v 1.088274 -1.107409 -5.452460
v 1.088274 -7.752764 -2.006052
v 1.088274 -1.107409 -2.006052
v -1.088271 -1.107409 -2.006052
v -0.900170 0.319044 5.154613
v -0.900170 0.319044 2.303896
v 0.900173 0.319044 5.154613
v 0.900173 0.319044 2.303896
v -0.671897 0.368778 4.793159
v -0.671897 0.368778 2.665350
v 0.671901 0.368778 2.665350
v 0.671901 0.368778 4.793159
v -0.671897 1.281799 4.793159
v -0.671897 1.281799 2.665350
v 0.671901 1.281799 2.665350
v 0.671901 1.281799 4.793159
v -0.556507 1.281799 4.610446
v -0.556507 1.281799 2.848063
v 0.556510 1.281799 2.848063
v 0.556510 1.281799 4.610446
v -0.556507 1.946182 4.610446
v -0.556507 1.946182 2.848063
v 0.556510 1.946182 2.848063
v 0.556510 1.946182 4.610446
v -0.730953 1.946182 4.886671
v -0.730953 1.946182 2.571839
v 0.730956 1.946182 2.571839
v 0.730956 1.946182 4.886671
v -0.730953 2.771276 4.886671
v -0.730953 2.771276 2.571839
v 0.730956 2.771276 2.571839
v 0.730956 2.771276 4.886671
v -0.900170 -1.054877 5.154613
v -0.900170 -1.054877 2.303896
v 0.900173 -1.054877 2.303896
v 0.900173 -1.054877 5.154613
v -1.088271 -7.752764 2.006051
v -1.088271 -7.752764 5.452459
v -1.088271 -1.107409 2.006051
v 1.088274 -7.752764 2.006051
v 1.088274 -1.107409 2.006051
v 1.088274 -7.752764 5.452459
v 1.088274 -1.107409 5.452459
v -1.088271 -1.107409 5.452459
vn -1.0000 -0.0000 -0.0000
vn -0.0000 -0.0000 -1.0000
vn 1.0000 -0.0000 -0.0000
vn -0.0000 -0.0000 1.0000
vn 0.2129 0.9771 -0.0000
vn -0.2129 0.9771 -0.0000
vn -0.0000 0.9907 0.1363
vn -0.0000 0.9907 -0.1363
vn -0.0000 1.0000 -0.0000
vn -0.0000 -1.0000 -0.0000
vn 0.2690 0.9631 -0.0000
vn -0.2690 0.9631 -0.0000
vn -0.0000 0.9848 -0.1737
vn -0.0000 0.9848 0.1737
vt 0.944751 0.464675
vt 0.944751 0.512596
vt 0.834380 0.512596
vt 0.834380 0.464675
vt 0.724009 0.512596
vt 0.724009 0.464675
vt 0.569364 0.512596
vt 0.569364 0.464675
vt 0.503267 0.512596
vt 0.503267 0.464675
vt 0.724009 0.536370
vt 0.569364 0.536370
vt 0.503267 0.536369
vt 0.569364 0.578249
vt 0.503267 0.578249
vt 0.944751 0.536370
vt 0.834380 0.536370
vt 0.724009 0.578249
vt 0.724009 0.597598
vt 0.569364 0.597598
vt 0.834380 0.578249
vt 0.944751 0.578249
vt 0.724009 0.657589
vt 0.569364 0.657589
vt 0.944751 0.597598
vt 0.834380 0.597598
vt 0.503267 0.597598
vt 0.503267 0.657589
vt 0.569364 0.669486
vt 0.503267 0.669486
vt 0.944751 0.657589
vt 0.834380 0.657589
vt 0.724009 0.669486
vt 0.724009 0.705506
vt 0.569364 0.705506
vt 0.834380 0.669486
vt 0.944751 0.669486
vt 0.724009 0.853777
vt 0.569363 0.853777
vt 0.944751 0.705507
vt 0.834380 0.705506
vt 0.503267 0.705506
vt 0.569364 0.441029
vt 0.724009 0.441029
vt 0.834380 0.441029
vt 0.944751 0.441029
vt 0.569364 0.165432
vt 0.503267 0.441029
vt 0.503267 0.165432
vt 0.724009 0.165432
vt 0.834380 0.165432
vt 0.944751 0.165432
vt 0.474610 0.464958
vt 0.474610 0.512577
vt 0.364934 0.512577
vt 0.364934 0.464958
vt 0.255259 0.512577
vt 0.255259 0.464958
vt 0.101588 0.512577
vt 0.101588 0.464958
vt 0.035908 0.512577
vt 0.035908 0.464958
vt 0.255259 0.536201
vt 0.101588 0.536201
vt 0.035908 0.536201
vt 0.101588 0.577816
vt 0.035908 0.577816
vt 0.474610 0.536201
vt 0.364934 0.536201
vt 0.255259 0.577816
vt 0.255259 0.597044
vt 0.101588 0.597044
vt 0.364934 0.577816
vt 0.474610 0.577817
vt 0.255259 0.656656
vt 0.101588 0.656656
vt 0.474610 0.597044
vt 0.364934 0.597044
vt 0.035908 0.597044
vt 0.035908 0.656656
vt 0.101588 0.668479
vt 0.035908 0.668478
vt 0.474610 0.656657
vt 0.364934 0.656656
vt 0.255259 0.668479
vt 0.255259 0.704272
vt 0.101588 0.704272
vt 0.364934 0.668479
vt 0.474610 0.668479
vt 0.255259 0.851609
vt 0.101588 0.851609
vt 0.474610 0.704272
vt 0.364934 0.704272
vt 0.035908 0.704272
vt 0.101588 0.441461
vt 0.255259 0.441461
vt 0.364934 0.441461
vt 0.474610 0.441461
vt 0.101588 0.167600
vt 0.035908 0.441461
vt 0.035908 0.167600
vt 0.255259 0.167600
vt 0.364934 0.167600
vt 0.474610 0.167600
s 0
usemtl 00_UV_Grid
f 29/1/1 1/2/1 2/3/1 30/4/1
f 30/4/2 2/3/2 4/5/2 31/6/2
f 31/6/3 4/5/3 3/7/3 32/8/3
f 32/8/4 3/7/4 1/9/4 29/10/4
f 3/7/5 4/5/5 7/11/5 8/12/5
f 5/13/4 8/12/4 12/14/4 9/15/4
f 2/3/6 1/2/6 5/16/6 6/17/6
f 1/9/7 3/7/7 8/12/7 5/13/7
f 4/5/8 2/3/8 6/17/8 7/11/8
f 12/14/9 11/18/9 15/19/9 16/20/9
f 7/11/2 6/17/2 10/21/2 11/18/2
f 8/12/3 7/11/3 11/18/3 12/14/3
f 6/17/1 5/16/1 9/22/1 10/21/1
f 16/20/3 15/19/3 19/23/3 20/24/3
f 10/21/9 9/22/9 13/25/9 14/26/9
f 9/15/9 12/14/9 16/20/9 13/27/9
f 11/18/9 10/21/9 14/26/9 15/19/9
f 17/28/10 20/24/10 24/29/10 21/30/10
f 14/26/1 13/25/1 17/31/1 18/32/1
f 13/27/4 16/20/4 20/24/4 17/28/4
f 15/19/2 14/26/2 18/32/2 19/23/2
f 24/29/3 23/33/3 27/34/3 28/35/3
f 19/23/10 18/32/10 22/36/10 23/33/10
f 20/24/10 19/23/10 23/33/10 24/29/10
f 18/32/10 17/31/10 21/37/10 22/36/10
f 27/34/9 26/38/9 25/39/9 28/35/9
f 22/36/1 21/37/1 25/40/1 26/41/1
f 21/30/4 24/29/4 28/35/4 25/42/4
f 23/33/2 22/36/2 26/41/2 27/34/2
f 31/6/11 32/8/11 39/43/11 37/44/11
f 29/1/12 30/4/12 35/45/12 40/46/12
f 38/47/4 39/43/4 40/48/4 34/49/4
f 36/50/3 37/44/3 39/43/3 38/47/3
f 33/51/2 35/45/2 37/44/2 36/50/2
f 34/52/1 40/46/1 35/45/1 33/51/1
f 30/4/13 31/6/13 37/44/13 35/45/13
f 32/8/14 29/10/14 40/48/14 39/43/14
f 69/53/1 41/54/1 42/55/1 70/56/1
f 70/56/2 42/55/2 44/57/2 71/58/2
f 71/58/3 44/57/3 43/59/3 72/60/3
f 72/60/4 43/59/4 41/61/4 69/62/4
f 43/59/5 44/57/5 47/63/5 48/64/5
f 45/65/4 48/64/4 52/66/4 49/67/4
f 42/55/6 41/54/6 45/68/6 46/69/6
f 41/61/7 43/59/7 48/64/7 45/65/7
f 44/57/8 42/55/8 46/69/8 47/63/8
f 52/66/9 51/70/9 55/71/9 56/72/9
f 47/63/2 46/69/2 50/73/2 51/70/2
f 48/64/3 47/63/3 51/70/3 52/66/3
f 46/69/1 45/68/1 49/74/1 50/73/1
f 56/72/3 55/71/3 59/75/3 60/76/3
f 50/73/9 49/74/9 53/77/9 54/78/9
f 49/67/9 52/66/9 56/72/9 53/79/9
f 51/70/9 50/73/9 54/78/9 55/71/9
f 57/80/10 60/76/10 64/81/10 61/82/10
f 54/78/1 53/77/1 57/83/1 58/84/1
f 53/79/4 56/72/4 60/76/4 57/80/4
f 55/71/2 54/78/2 58/84/2 59/75/2
f 64/81/3 63/85/3 67/86/3 68/87/3
f 59/75/10 58/84/10 62/88/10 63/85/10
f 60/76/10 59/75/10 63/85/10 64/81/10
f 58/84/10 57/83/10 61/89/10 62/88/10
f 67/86/9 66/90/9 65/91/9 68/87/9
f 62/88/1 61/89/1 65/92/1 66/93/1
f 61/82/4 64/81/4 68/87/4 65/94/4
f 63/85/2 62/88/2 66/93/2 67/86/2
f 71/58/11 72/60/11 79/95/11 77/96/11
f 69/53/12 70/56/12 75/97/12 80/98/12
f 78/99/4 79/95/4 80/100/4 74/101/4
f 76/102/3 77/96/3 79/95/3 78/99/3
f 73/103/2 75/97/2 77/96/2 76/102/2
f 74/104/1 80/98/1 75/97/1 73/103/1
f 70/56/13 71/58/13 77/96/13 75/97/13
f 72/60/14 69/62/14 80/100/14 79/95/14
