# Blender 4.2.0
# www.blender.org
mtllib Slash_v2.mtl
o Cylinder
v 0.000000 1.601731 -2.136502
v 0.416811 1.601731 -2.095449
v 0.817604 1.601731 -1.973870
v 1.186977 1.601731 -1.776436
v 1.510735 1.601731 -1.510735
v 1.776436 1.601731 -1.186977
v 1.973870 1.601731 -0.817604
v 2.095449 1.601731 -0.416811
v 2.136502 1.601731 0.000000
v 2.095449 1.601731 0.416811
v 1.973870 1.601731 0.817604
v 1.776436 1.601731 1.186977
v 1.510735 1.601731 1.510735
v 1.186977 1.601731 1.776436
v 0.817604 1.601731 1.973870
v 0.416811 1.601731 2.095449
v 0.000000 1.601731 2.136502
v -0.416811 1.601731 2.095449
v -0.817604 1.601731 1.973870
v -1.186977 1.601731 1.776436
v -1.510735 1.601731 1.510735
v -1.776436 1.601731 1.186977
v -1.973870 1.601731 0.817604
v -2.095449 1.601731 0.416811
v -2.136502 1.601731 0.000000
v -2.095449 1.601731 -0.416811
v -1.973870 1.601731 -0.817604
v -1.776436 1.601731 -1.186977
v -1.510735 1.601731 -1.510735
v -1.186977 1.601731 -1.776436
v -0.817604 1.601731 -1.973870
v -0.416811 1.601731 -2.095449
v 0.000000 1.601731 -1.287853
v 0.251248 1.601731 -1.263107
v 0.492840 1.601731 -1.189821
v 0.715493 1.601731 -1.070810
v 0.910649 1.601731 -0.910649
v 1.070810 1.601731 -0.715493
v 1.189821 1.601731 -0.492840
v 1.263107 1.601731 -0.251248
v 1.287853 1.601731 0.000000
v 1.263107 1.601731 0.251248
v 1.189821 1.601731 0.492840
v 1.070810 1.601731 0.715493
v 0.910649 1.601731 0.910649
v 0.715493 1.601731 1.070810
v 0.492840 1.601731 1.189821
v 0.251248 1.601731 1.263107
v 0.000000 1.601731 1.287853
v -0.251248 1.601731 1.263107
v -0.492840 1.601731 1.189821
v -0.715493 1.601731 1.070810
v -0.910649 1.601731 0.910649
v -1.070810 1.601731 0.715493
v -1.189821 1.601731 0.492840
v -1.263107 1.601731 0.251248
v -1.287853 1.601731 0.000000
v -1.263107 1.601731 -0.251248
v -1.189821 1.601731 -0.492840
v -1.070810 1.601731 -0.715493
v -0.910649 1.601731 -0.910649
v -0.715493 1.601731 -1.070810
v -0.492840 1.601731 -1.189821
v -0.251248 1.601731 -1.263107
v 0.000000 1.472168 -2.136502
v 0.416811 1.472168 -2.095449
v 0.817604 1.472168 -1.973870
v 1.186977 1.472168 -1.776436
v 1.510735 1.472168 -1.510735
v 1.776436 1.472168 -1.186977
v 1.973870 1.472168 -0.817604
v 2.095449 1.472168 -0.416811
v 2.136502 1.472168 0.000000
v 2.095449 1.472168 0.416811
v 1.973870 1.472168 0.817604
v 1.776436 1.472168 1.186977
v 1.510735 1.472168 1.510735
v 1.186977 1.472168 1.776436
v 0.817604 1.472168 1.973870
v 0.416811 1.472168 2.095449
v 0.000000 1.472168 2.136502
v -0.416811 1.472168 2.095449
v -0.817604 1.472168 1.973870
v -1.186977 1.472168 1.776436
v -1.510735 1.472168 1.510735
v -1.776436 1.472168 1.186977
v -1.973870 1.472168 0.817604
v -2.095449 1.472168 0.416811
v -2.136502 1.472168 0.000000
v -2.095449 1.472168 -0.416811
v -1.973870 1.472168 -0.817604
v -1.776436 1.472168 -1.186977
v -1.510735 1.472168 -1.510735
v -1.186977 1.472168 -1.776436
v -0.817604 1.472168 -1.973870
v -0.416811 1.472168 -2.095449
v 0.000000 1.472168 -1.205591
v 0.235199 1.472168 -1.182426
v 0.461360 1.472168 -1.113821
v 0.669790 1.472168 -1.002412
v 0.852481 1.472168 -0.852481
v 1.002412 1.472168 -0.669790
v 1.113821 1.472168 -0.461360
v 1.182426 1.472168 -0.235199
v 1.205591 1.472168 0.000000
v 1.182426 1.472168 0.235199
v 1.113821 1.472168 0.461360
v 1.002412 1.472168 0.669790
v 0.852481 1.472168 0.852481
v 0.669790 1.472168 1.002412
v 0.461360 1.472168 1.113821
v 0.235199 1.472168 1.182426
v 0.000000 1.472168 1.205591
v -0.235199 1.472168 1.182426
v -0.461360 1.472168 1.113821
v -0.669790 1.472168 1.002412
v -0.852481 1.472168 0.852481
v -1.002412 1.472168 0.669790
v -1.113820 1.472168 0.461360
v -1.182426 1.472168 0.235199
v -1.205591 1.472168 0.000000
v -1.182426 1.472168 -0.235199
v -1.113820 1.472168 -0.461360
v -1.002412 1.472168 -0.669790
v -0.852481 1.472168 -0.852481
v -0.669790 1.472168 -1.002412
v -0.461360 1.472168 -1.113821
v -0.235199 1.472168 -1.182426
v -2.310898 1.536949 0.459666
v -2.356171 1.536949 -0.000000
v 2.176818 1.536949 0.901668
v 1.959085 1.536949 1.309018
v -2.310898 1.536949 -0.459666
v 1.666065 1.536949 1.666065
v -2.176818 1.536949 -0.901668
v 1.309018 1.536949 1.959085
v -1.959085 1.536949 -1.309018
v 0.901668 1.536949 2.176818
v 0.000000 1.536949 -2.356171
v 0.459666 1.536949 -2.310898
v -1.666065 1.536949 -1.666065
v 0.459666 1.536949 2.310898
v 0.901668 1.536949 -2.176818
v -1.309018 1.536949 -1.959085
v 0.000000 1.536949 2.356171
v 1.309018 1.536949 -1.959085
v -0.901668 1.536949 -2.176818
v -0.459666 1.536949 2.310898
v 1.666065 1.536949 -1.666065
v -0.459666 1.536949 -2.310898
v -0.901668 1.536949 2.176818
v 1.959085 1.536949 -1.309018
v -1.309018 1.536949 1.959085
v 2.176818 1.536949 -0.901668
v -1.666065 1.536949 1.666065
v 2.310898 1.536949 -0.459666
v -1.959085 1.536949 1.309018
v 2.356171 1.536949 -0.000000
v -2.176818 1.536949 0.901668
v 2.310898 1.536949 0.459666
v -0.373467 1.536949 -0.901630
v -0.190392 1.536949 -0.957165
v -0.542191 1.536949 -0.811446
v -0.690078 1.536949 -0.690078
v -0.811446 1.536949 -0.542191
v -0.901630 1.536949 -0.373468
v -0.957165 1.536949 -0.190392
v -0.975917 1.536949 0.000000
v -0.957165 1.536949 0.190392
v -0.901630 1.536949 0.373467
v -0.811446 1.536949 0.542191
v -0.690078 1.536949 0.690078
v -0.542191 1.536949 0.811446
v -0.373467 1.536949 0.901630
v -0.190392 1.536949 0.957165
v 0.000000 1.536949 0.975917
v 0.190392 1.536949 0.957165
v 0.373468 1.536949 0.901630
v 0.542191 1.536949 0.811446
v 0.690078 1.536949 0.690078
v 0.811446 1.536949 0.542191
v 0.901630 1.536949 0.373467
v 0.957165 1.536949 0.190392
v 0.975917 1.536949 0.000000
v 0.957165 1.536949 -0.190392
v 0.901630 1.536949 -0.373468
v 0.811446 1.536949 -0.542191
v 0.690078 1.536949 -0.690078
v 0.542191 1.536949 -0.811446
v 0.373468 1.536949 -0.901630
v 0.190392 1.536949 -0.957165
v 0.000000 1.536949 -0.975917
vn -0.0000 1.0000 -0.0000
vn -0.2828 -0.9588 0.0278
vn 0.2506 -0.9588 0.1339
vn -0.2828 -0.9588 -0.0278
vn 0.2196 -0.9588 0.1802
vn -0.2719 -0.9588 -0.0825
vn 0.1802 -0.9588 0.2196
vn -0.2506 -0.9588 -0.1339
vn 0.1339 -0.9588 0.2506
vn 0.0278 -0.9588 -0.2828
vn -0.2196 -0.9588 -0.1802
vn 0.0825 -0.9588 0.2719
vn 0.0825 -0.9588 -0.2719
vn -0.1802 -0.9588 -0.2196
vn 0.0278 -0.9588 0.2828
vn 0.1339 -0.9588 -0.2506
vn -0.1339 -0.9588 -0.2506
vn -0.0278 -0.9588 0.2828
vn 0.1802 -0.9588 -0.2196
vn -0.0825 -0.9588 -0.2719
vn -0.0825 -0.9588 0.2719
vn 0.2196 -0.9588 -0.1802
vn -0.0278 -0.9588 -0.2828
vn -0.1339 -0.9588 0.2506
vn 0.2506 -0.9588 -0.1339
vn -0.1802 -0.9588 0.2196
vn 0.2719 -0.9588 -0.0825
vn -0.2196 -0.9588 0.1802
vn 0.2827 -0.9588 -0.0278
vn -0.2506 -0.9588 0.1339
vn 0.2827 -0.9588 0.0278
vn -0.2719 -0.9588 0.0825
vn 0.2719 -0.9588 0.0825
vn -0.0000 -1.0000 -0.0000
vn 0.2719 0.9588 0.0825
vn -0.2719 0.9588 0.0825
vn 0.2827 0.9588 0.0278
vn -0.2506 0.9588 0.1339
vn 0.2827 0.9588 -0.0278
vn -0.2196 0.9588 0.1802
vn 0.2719 0.9588 -0.0825
vn -0.1802 0.9588 0.2196
vn 0.2506 0.9588 -0.1339
vn -0.1339 0.9588 0.2506
vn -0.0278 0.9588 -0.2827
vn 0.2196 0.9588 -0.1802
vn -0.0825 0.9588 0.2719
vn -0.0825 0.9588 -0.2719
vn 0.1802 0.9588 -0.2196
vn -0.0278 0.9588 0.2827
vn -0.1339 0.9588 -0.2506
vn 0.1339 0.9588 -0.2506
vn 0.0278 0.9588 0.2827
vn -0.1802 0.9588 -0.2196
vn 0.0825 0.9588 -0.2719
vn 0.0825 0.9588 0.2719
vn -0.2196 0.9588 -0.1802
vn 0.0278 0.9588 -0.2827
vn 0.1339 0.9588 0.2506
vn -0.2506 0.9588 -0.1339
vn 0.1802 0.9588 0.2196
vn -0.2719 0.9588 -0.0825
vn 0.2196 0.9588 0.1802
vn -0.2828 0.9588 -0.0278
vn 0.2506 0.9588 0.1339
vn -0.2828 0.9588 0.0278
vn 0.0792 -0.9621 0.2609
vn 0.1285 -0.9621 0.2405
vn 0.1730 -0.9621 0.2108
vn 0.2108 -0.9621 0.1730
vn 0.2405 -0.9621 0.1285
vn 0.2609 -0.9621 0.0792
vn 0.2714 -0.9621 0.0267
vn 0.2714 -0.9621 -0.0267
vn 0.2609 -0.9621 -0.0792
vn 0.2405 -0.9621 -0.1285
vn 0.2108 -0.9621 -0.1730
vn 0.1730 -0.9621 -0.2108
vn 0.1285 -0.9621 -0.2405
vn 0.0792 -0.9621 -0.2609
vn 0.0267 -0.9621 -0.2714
vn -0.0267 -0.9621 -0.2714
vn -0.0792 -0.9621 -0.2609
vn -0.1285 -0.9621 -0.2405
vn -0.1730 -0.9621 -0.2108
vn -0.2108 -0.9621 -0.1730
vn -0.2405 -0.9621 -0.1285
vn -0.2609 -0.9621 -0.0792
vn -0.2714 -0.9621 -0.0267
vn -0.2714 -0.9621 0.0267
vn -0.2609 -0.9621 0.0792
vn -0.2405 -0.9621 0.1285
vn -0.2108 -0.9621 0.1730
vn -0.1730 -0.9621 0.2108
vn -0.1285 -0.9621 0.2405
vn -0.0792 -0.9621 0.2609
vn -0.0267 -0.9621 0.2714
vn 0.0267 -0.9621 0.2714
vn 0.0200 0.9789 0.2033
vn -0.0200 0.9789 0.2033
vn -0.0593 0.9789 0.1955
vn -0.0963 0.9789 0.1802
vn -0.1296 0.9789 0.1579
vn -0.1579 0.9789 0.1296
vn -0.1802 0.9789 0.0963
vn -0.1955 0.9789 0.0593
vn -0.2033 0.9789 0.0200
vn -0.2033 0.9789 -0.0200
vn -0.1955 0.9789 -0.0593
vn -0.1802 0.9789 -0.0963
vn -0.1579 0.9789 -0.1296
vn -0.1296 0.9789 -0.1579
vn -0.0963 0.9789 -0.1802
vn -0.0593 0.9789 -0.1955
vn -0.0200 0.9789 -0.2033
vn 0.0200 0.9789 -0.2033
vn 0.0593 0.9789 -0.1955
vn 0.0963 0.9789 -0.1802
vn 0.1296 0.9789 -0.1579
vn 0.1579 0.9789 -0.1296
vn 0.1802 0.9789 -0.0963
vn 0.1955 0.9789 -0.0593
vn 0.2033 0.9789 -0.0200
vn 0.2033 0.9789 0.0200
vn 0.1955 0.9789 0.0593
vn 0.1802 0.9789 0.0963
vn 0.1579 0.9789 0.1296
vn 0.1296 0.9789 0.1579
vn 0.0963 0.9789 0.1802
vn 0.0593 0.9789 0.1955
vt 0.226402 0.188590
vt 0.730841 0.188590
vt 0.730841 0.219076
vt 0.226402 0.219076
vt 0.226402 0.462969
vt 0.730841 0.462969
vt 0.730841 0.493455
vt 0.226402 0.493455
vt 0.226402 0.737347
vt 0.730841 0.737347
vt 0.730841 0.767834
vt 0.226402 0.767834
vt 0.226402 0.066644
vt 0.730841 0.066644
vt 0.730841 0.097130
vt 0.226402 0.097130
vt 0.226402 0.341023
vt 0.730841 0.341023
vt 0.730841 0.371509
vt 0.226402 0.371509
vt 0.226402 0.615401
vt 0.730841 0.615401
vt 0.730841 0.645888
vt 0.226402 0.645888
vt 0.226402 0.889780
vt 0.730841 0.889780
vt 0.730841 0.920267
vt 0.226402 0.920267
vt 0.730841 0.249563
vt 0.226402 0.249563
vt 0.730841 0.523942
vt 0.226402 0.523942
vt 0.730841 0.798321
vt 0.226402 0.798321
vt 0.730841 0.127617
vt 0.226402 0.127617
vt 0.730841 0.401996
vt 0.226402 0.401996
vt 0.730841 0.676374
vt 0.226402 0.676374
vt 0.730841 0.950753
vt 0.226402 0.950753
vt 0.730841 0.280050
vt 0.226402 0.280050
vt 0.730841 0.554428
vt 0.226402 0.554428
vt 0.730841 0.828807
vt 0.226402 0.828807
vt 0.730841 0.158103
vt 0.226402 0.158103
vt 0.730841 0.432482
vt 0.226402 0.432482
vt 0.730841 0.706861
vt 0.226402 0.706861
vt 0.226402 0.005671
vt 0.730841 0.005671
vt 0.730841 0.036157
vt 0.226402 0.036157
vt 0.730841 0.981240
vt 0.226402 0.981240
vt 0.730841 0.310536
vt 0.226402 0.310536
vt 0.730841 0.584915
vt 0.226402 0.584915
vt 0.730841 0.859294
vt 0.226402 0.859294
vt 0.082801 0.274107
vt 0.082801 0.244459
vt 0.221286 0.244459
vt 0.221286 0.274107
vt 0.082801 0.659535
vt 0.082801 0.629887
vt 0.221286 0.629887
vt 0.221286 0.659535
vt 0.082801 0.214811
vt 0.221286 0.214811
vt 0.082801 0.600239
vt 0.221286 0.600239
vt 0.082801 0.185162
vt 0.221286 0.185162
vt 0.082801 0.570590
vt 0.221286 0.570590
vt 0.082801 0.155514
vt 0.221286 0.155514
vt 0.082801 0.540942
vt 0.221286 0.540942
vt 0.082801 0.956018
vt 0.082801 0.926370
vt 0.221286 0.926370
vt 0.221286 0.956018
vt 0.082801 0.125866
vt 0.221286 0.125866
vt 0.082801 0.511294
vt 0.221286 0.511294
vt 0.082801 0.896722
vt 0.221286 0.896722
vt 0.082801 0.096218
vt 0.221286 0.096218
vt 0.082801 0.481646
vt 0.221286 0.481646
vt 0.082801 0.867074
vt 0.221286 0.867074
vt 0.082801 0.066569
vt 0.221286 0.066569
vt 0.082801 0.451997
vt 0.221286 0.451997
vt 0.082801 0.837425
vt 0.221286 0.837425
vt 0.082801 0.036921
vt 0.221286 0.036921
vt 0.082801 0.422349
vt 0.221286 0.422349
vt 0.082801 0.807777
vt 0.221286 0.807777
vt 0.082801 0.007273
vt 0.221286 0.007273
vt 0.082801 0.392701
vt 0.221286 0.392701
vt 0.082801 0.778129
vt 0.221286 0.778129
vt 0.082801 0.363052
vt 0.221286 0.363052
vt 0.082801 0.748480
vt 0.221286 0.748480
vt 0.082801 0.333404
vt 0.221286 0.333404
vt 0.082801 0.718832
vt 0.221286 0.718832
vt 0.082801 0.303756
vt 0.221286 0.303756
vt 0.082801 0.689184
vt 0.221286 0.689184
vt 0.772991 0.303756
vt 0.772991 0.333404
vt 0.772991 0.689184
vt 0.772991 0.718832
vt 0.772991 0.274107
vt 0.772991 0.659535
vt 0.772991 0.244459
vt 0.772991 0.629887
vt 0.772991 0.214811
vt 0.772991 0.600239
vt 0.772991 0.185162
vt 0.772991 0.570590
vt 0.772991 0.155514
vt 0.772991 0.540942
vt 0.772991 0.926370
vt 0.772991 0.956018
vt 0.772991 0.125866
vt 0.772991 0.511294
vt 0.772991 0.896722
vt 0.772991 0.096218
vt 0.772991 0.481645
vt 0.772991 0.867073
vt 0.772991 0.066569
vt 0.772991 0.451997
vt 0.772991 0.837425
vt 0.772991 0.036921
vt 0.772991 0.422349
vt 0.772991 0.807777
vt 0.772991 0.007273
vt 0.772991 0.392701
vt 0.772991 0.778129
vt 0.772991 0.363052
vt 0.772991 0.748480
vt 0.087507 0.310536
vt 0.087507 0.280050
vt 0.087508 0.706861
vt 0.087507 0.676374
vt 0.087507 0.249563
vt 0.087507 0.645888
vt 0.087507 0.219076
vt 0.087507 0.615401
vt 0.087507 0.188590
vt 0.087507 0.584915
vt 0.087507 0.158103
vt 0.087507 0.554428
vt 0.087508 0.981240
vt 0.087507 0.950753
vt 0.087507 0.127617
vt 0.087507 0.523942
vt 0.087507 0.920267
vt 0.087507 0.097130
vt 0.087507 0.493455
vt 0.087507 0.889780
vt 0.087507 0.066644
vt 0.087507 0.462969
vt 0.087508 0.859294
vt 0.087507 0.036157
vt 0.087507 0.432482
vt 0.087507 0.828807
vt 0.087507 0.005671
vt 0.087507 0.401996
vt 0.087507 0.798321
vt 0.087507 0.371509
vt 0.087507 0.767834
vt 0.087507 0.341023
vt 0.087507 0.737347
vt 0.917065 0.036921
vt 0.917065 0.066569
vt 0.917065 0.096218
vt 0.917065 0.125866
vt 0.917065 0.155514
vt 0.917065 0.185162
vt 0.917065 0.214811
vt 0.917065 0.244459
vt 0.917065 0.274107
vt 0.917065 0.303756
vt 0.917065 0.333404
vt 0.917065 0.363052
vt 0.917065 0.392701
vt 0.917065 0.422349
vt 0.917065 0.451997
vt 0.917065 0.481645
vt 0.917065 0.511294
vt 0.917065 0.540942
vt 0.917065 0.570590
vt 0.917065 0.600239
vt 0.917065 0.629887
vt 0.917065 0.659535
vt 0.917065 0.689184
vt 0.917065 0.718832
vt 0.917065 0.748480
vt 0.917065 0.778129
vt 0.917065 0.807777
vt 0.917065 0.837425
vt 0.917065 0.867073
vt 0.917065 0.896722
vt 0.917065 0.926370
vt 0.917065 0.956018
vt 0.917065 0.007273
vt 0.922208 0.950753
vt 0.922208 0.981240
vt 0.922208 0.005671
vt 0.922208 0.036157
vt 0.922208 0.066644
vt 0.922208 0.097130
vt 0.922208 0.127617
vt 0.922208 0.158103
vt 0.922208 0.188590
vt 0.922208 0.219076
vt 0.922208 0.249563
vt 0.922208 0.280049
vt 0.922208 0.310536
vt 0.922208 0.341023
vt 0.922208 0.371509
vt 0.922208 0.401996
vt 0.922208 0.432482
vt 0.922208 0.462969
vt 0.922208 0.493455
vt 0.922208 0.523942
vt 0.922208 0.554428
vt 0.922208 0.584915
vt 0.922208 0.615401
vt 0.922208 0.645888
vt 0.922208 0.676374
vt 0.922208 0.706861
vt 0.922208 0.737347
vt 0.922208 0.767834
vt 0.922208 0.798321
vt 0.922208 0.828807
vt 0.922208 0.859294
vt 0.922208 0.889780
vt 0.922208 0.920267
s 0
f 7/1/1 39/2/1 40/3/1 8/4/1
f 16/5/1 48/6/1 49/7/1 17/8/1
f 25/9/1 57/10/1 58/11/1 26/12/1
f 3/13/1 35/14/1 36/15/1 4/16/1
f 12/17/1 44/18/1 45/19/1 13/20/1
f 21/21/1 53/22/1 54/23/1 22/24/1
f 30/25/1 62/26/1 63/27/1 31/28/1
f 8/4/1 40/3/1 41/29/1 9/30/1
f 17/8/1 49/7/1 50/31/1 18/32/1
f 26/12/1 58/11/1 59/33/1 27/34/1
f 4/16/1 36/15/1 37/35/1 5/36/1
f 13/20/1 45/19/1 46/37/1 14/38/1
f 22/24/1 54/23/1 55/39/1 23/40/1
f 31/28/1 63/27/1 64/41/1 32/42/1
f 9/30/1 41/29/1 42/43/1 10/44/1
f 18/32/1 50/31/1 51/45/1 19/46/1
f 27/34/1 59/33/1 60/47/1 28/48/1
f 5/36/1 37/35/1 38/49/1 6/50/1
f 14/38/1 46/37/1 47/51/1 15/52/1
f 23/40/1 55/39/1 56/53/1 24/54/1
f 1/55/1 33/56/1 34/57/1 2/58/1
f 32/42/1 64/41/1 33/59/1 1/60/1
f 10/44/1 42/43/1 43/61/1 11/62/1
f 19/46/1 51/45/1 52/63/1 20/64/1
f 28/48/1 60/47/1 61/65/1 29/66/1
f 6/50/1 38/49/1 39/2/1 7/1/1
f 15/52/1 47/51/1 48/6/1 16/5/1
f 24/54/1 56/53/1 57/10/1 25/9/1
f 2/58/1 34/57/1 35/14/1 3/13/1
f 11/62/1 43/61/1 44/18/1 12/17/1
f 20/64/1 52/63/1 53/22/1 21/21/1
f 29/66/1 61/65/1 62/26/1 30/25/1
f 129/67/2 130/68/2 89/69/2 88/70/2
f 131/71/3 132/72/3 76/73/3 75/74/3
f 130/68/4 133/75/4 90/76/4 89/69/4
f 132/72/5 134/77/5 77/78/5 76/73/5
f 133/75/6 135/79/6 91/80/6 90/76/6
f 134/77/7 136/81/7 78/82/7 77/78/7
f 135/79/8 137/83/8 92/84/8 91/80/8
f 136/81/9 138/85/9 79/86/9 78/82/9
f 139/87/10 140/88/10 66/89/10 65/90/10
f 137/83/11 141/91/11 93/92/11 92/84/11
f 138/85/12 142/93/12 80/94/12 79/86/12
f 140/88/13 143/95/13 67/96/13 66/89/13
f 141/91/14 144/97/14 94/98/14 93/92/14
f 142/93/15 145/99/15 81/100/15 80/94/15
f 143/95/16 146/101/16 68/102/16 67/96/16
f 144/97/17 147/103/17 95/104/17 94/98/17
f 145/99/18 148/105/18 82/106/18 81/100/18
f 146/101/19 149/107/19 69/108/19 68/102/19
f 147/103/20 150/109/20 96/110/20 95/104/20
f 148/105/21 151/111/21 83/112/21 82/106/21
f 149/107/22 152/113/22 70/114/22 69/108/22
f 150/109/23 139/115/23 65/116/23 96/110/23
f 151/111/24 153/117/24 84/118/24 83/112/24
f 152/113/25 154/119/25 71/120/25 70/114/25
f 153/117/26 155/121/26 85/122/26 84/118/26
f 154/119/27 156/123/27 72/124/27 71/120/27
f 155/121/28 157/125/28 86/126/28 85/122/28
f 156/123/29 158/127/29 73/128/29 72/124/29
f 157/125/30 159/129/30 87/130/30 86/126/30
f 158/127/31 160/131/31 74/132/31 73/128/31
f 159/129/32 129/67/32 88/70/32 87/130/32
f 160/131/33 131/71/33 75/74/33 74/132/33
f 86/126/34 87/130/34 119/133/34 118/134/34
f 73/128/34 74/132/34 106/135/34 105/136/34
f 87/130/34 88/70/34 120/137/34 119/133/34
f 74/132/34 75/74/34 107/138/34 106/135/34
f 88/70/34 89/69/34 121/139/34 120/137/34
f 75/74/34 76/73/34 108/140/34 107/138/34
f 89/69/34 90/76/34 122/141/34 121/139/34
f 76/73/34 77/78/34 109/142/34 108/140/34
f 90/76/34 91/80/34 123/143/34 122/141/34
f 77/78/34 78/82/34 110/144/34 109/142/34
f 91/80/34 92/84/34 124/145/34 123/143/34
f 78/82/34 79/86/34 111/146/34 110/144/34
f 65/90/34 66/89/34 98/147/34 97/148/34
f 92/84/34 93/92/34 125/149/34 124/145/34
f 79/86/34 80/94/34 112/150/34 111/146/34
f 66/89/34 67/96/34 99/151/34 98/147/34
f 93/92/34 94/98/34 126/152/34 125/149/34
f 80/94/34 81/100/34 113/153/34 112/150/34
f 67/96/34 68/102/34 100/154/34 99/151/34
f 94/98/34 95/104/34 127/155/34 126/152/34
f 81/100/34 82/106/34 114/156/34 113/153/34
f 68/102/34 69/108/34 101/157/34 100/154/34
f 95/104/34 96/110/34 128/158/34 127/155/34
f 82/106/34 83/112/34 115/159/34 114/156/34
f 69/108/34 70/114/34 102/160/34 101/157/34
f 96/110/34 65/116/34 97/161/34 128/158/34
f 83/112/34 84/118/34 116/162/34 115/159/34
f 70/114/34 71/120/34 103/163/34 102/160/34
f 84/118/34 85/122/34 117/164/34 116/162/34
f 71/120/34 72/124/34 104/165/34 103/163/34
f 85/122/34 86/126/34 118/134/34 117/164/34
f 72/124/34 73/128/34 105/136/34 104/165/34
f 10/44/35 11/62/35 131/166/35 160/167/35
f 23/40/36 24/54/36 129/168/36 159/169/36
f 9/30/37 10/44/37 160/167/37 158/170/37
f 22/24/38 23/40/38 159/169/38 157/171/38
f 8/4/39 9/30/39 158/170/39 156/172/39
f 21/21/40 22/24/40 157/171/40 155/173/40
f 7/1/41 8/4/41 156/172/41 154/174/41
f 20/64/42 21/21/42 155/173/42 153/175/42
f 6/50/43 7/1/43 154/174/43 152/176/43
f 19/46/44 20/64/44 153/175/44 151/177/44
f 32/42/45 1/60/45 139/178/45 150/179/45
f 5/36/46 6/50/46 152/176/46 149/180/46
f 18/32/47 19/46/47 151/177/47 148/181/47
f 31/28/48 32/42/48 150/179/48 147/182/48
f 4/16/49 5/36/49 149/180/49 146/183/49
f 17/8/50 18/32/50 148/181/50 145/184/50
f 30/25/51 31/28/51 147/182/51 144/185/51
f 3/13/52 4/16/52 146/183/52 143/186/52
f 16/5/53 17/8/53 145/184/53 142/187/53
f 29/66/54 30/25/54 144/185/54 141/188/54
f 2/58/55 3/13/55 143/186/55 140/189/55
f 15/52/56 16/5/56 142/187/56 138/190/56
f 28/48/57 29/66/57 141/188/57 137/191/57
f 1/55/58 2/58/58 140/189/58 139/192/58
f 14/38/59 15/52/59 138/190/59 136/193/59
f 27/34/60 28/48/60 137/191/60 135/194/60
f 13/20/61 14/38/61 136/193/61 134/195/61
f 26/12/62 27/34/62 135/194/62 133/196/62
f 12/17/63 13/20/63 134/195/63 132/197/63
f 25/9/64 26/12/64 133/196/64 130/198/64
f 11/62/65 12/17/65 132/197/65 131/166/65
f 24/54/66 25/9/66 130/198/66 129/168/66
f 162/199/67 161/200/67 127/155/67 128/158/67
f 163/201/68 126/152/68 127/155/68 161/200/68
f 164/202/69 125/149/69 126/152/69 163/201/69
f 165/203/70 124/145/70 125/149/70 164/202/70
f 166/204/71 123/143/71 124/145/71 165/203/71
f 167/205/72 122/141/72 123/143/72 166/204/72
f 168/206/73 121/139/73 122/141/73 167/205/73
f 169/207/74 120/137/74 121/139/74 168/206/74
f 170/208/75 119/133/75 120/137/75 169/207/75
f 171/209/76 118/134/76 119/133/76 170/208/76
f 172/210/77 117/164/77 118/134/77 171/209/77
f 173/211/78 116/162/78 117/164/78 172/210/78
f 174/212/79 115/159/79 116/162/79 173/211/79
f 175/213/80 114/156/80 115/159/80 174/212/80
f 176/214/81 113/153/81 114/156/81 175/213/81
f 177/215/82 112/150/82 113/153/82 176/214/82
f 178/216/83 111/146/83 112/150/83 177/215/83
f 179/217/84 110/144/84 111/146/84 178/216/84
f 180/218/85 109/142/85 110/144/85 179/217/85
f 181/219/86 108/140/86 109/142/86 180/218/86
f 182/220/87 107/138/87 108/140/87 181/219/87
f 183/221/88 106/135/88 107/138/88 182/220/88
f 184/222/89 105/136/89 106/135/89 183/221/89
f 185/223/90 104/165/90 105/136/90 184/222/90
f 186/224/91 103/163/91 104/165/91 185/223/91
f 187/225/92 102/160/92 103/163/92 186/224/92
f 188/226/93 101/157/93 102/160/93 187/225/93
f 189/227/94 100/154/94 101/157/94 188/226/94
f 190/228/95 99/151/95 100/154/95 189/227/95
f 191/229/96 98/147/96 99/151/96 190/228/96
f 192/230/97 97/148/97 98/147/97 191/229/97
f 162/199/98 128/158/98 97/161/98 192/231/98
f 64/41/99 162/232/99 192/233/99 33/59/99
f 33/56/100 192/234/100 191/235/100 34/57/100
f 34/57/101 191/235/101 190/236/101 35/14/101
f 35/14/102 190/236/102 189/237/102 36/15/102
f 36/15/103 189/237/103 188/238/103 37/35/103
f 37/35/104 188/238/104 187/239/104 38/49/104
f 38/49/105 187/239/105 186/240/105 39/2/105
f 39/2/106 186/240/106 185/241/106 40/3/106
f 40/3/107 185/241/107 184/242/107 41/29/107
f 41/29/108 184/242/108 183/243/108 42/43/108
f 42/43/109 183/243/109 182/244/109 43/61/109
f 43/61/110 182/244/110 181/245/110 44/18/110
f 44/18/111 181/245/111 180/246/111 45/19/111
f 45/19/112 180/246/112 179/247/112 46/37/112
f 46/37/113 179/247/113 178/248/113 47/51/113
f 47/51/114 178/248/114 177/249/114 48/6/114
f 48/6/115 177/249/115 176/250/115 49/7/115
f 49/7/116 176/250/116 175/251/116 50/31/116
f 50/31/117 175/251/117 174/252/117 51/45/117
f 51/45/118 174/252/118 173/253/118 52/63/118
f 52/63/119 173/253/119 172/254/119 53/22/119
f 53/22/120 172/254/120 171/255/120 54/23/120
f 54/23/121 171/255/121 170/256/121 55/39/121
f 55/39/122 170/256/122 169/257/122 56/53/122
f 56/53/123 169/257/123 168/258/123 57/10/123
f 57/10/124 168/258/124 167/259/124 58/11/124
f 58/11/125 167/259/125 166/260/125 59/33/125
f 59/33/126 166/260/126 165/261/126 60/47/126
f 60/47/127 165/261/127 164/262/127 61/65/127
f 61/65/128 164/262/128 163/263/128 62/26/128
f 62/26/129 163/263/129 161/264/129 63/27/129
f 64/41/130 63/27/130 161/264/130 162/232/130
