# Blender 4.2.0
# www.blender.org
mtllib Wave_3.mtl
o Cylinder.001
v -0.000000 0.000000 -0.993595
v 0.193841 0.000000 -0.974504
v 0.380232 0.000000 -0.917962
v 0.552012 0.000000 -0.826144
v 0.702578 0.000000 -0.702578
v 0.826144 0.000000 -0.552012
v 0.917962 0.000000 -0.380232
v 0.974504 0.000000 -0.193841
v 0.993595 0.000000 0.000000
v 0.974504 0.000000 0.193841
v 0.917962 0.000000 0.380232
v 0.826144 0.000000 0.552012
v 0.702578 0.000000 0.702578
v 0.552012 0.000000 0.826144
v 0.380232 0.000000 0.917962
v 0.193841 0.000000 0.974504
v -0.000000 0.000000 0.993595
v -0.193841 0.000000 0.974504
v -0.380232 0.000000 0.917962
v -0.552012 0.000000 0.826144
v -0.702578 0.000000 0.702578
v -0.826144 0.000000 0.552012
v -0.917962 0.000000 0.380232
v -0.974504 0.000000 0.193841
v -0.993595 0.000000 0.000000
v -0.974504 0.000000 -0.193841
v -0.917962 0.000000 -0.380232
v -0.826144 0.000000 -0.552012
v -0.702578 0.000000 -0.702578
v -0.552012 0.000000 -0.826144
v -0.380232 0.000000 -0.917962
v -0.193841 0.000000 -0.974504
v 0.000000 0.000000 -0.033339
v 0.006504 0.000000 -0.032699
v 0.012758 0.000000 -0.030802
v 0.018522 0.000000 -0.027721
v 0.023575 0.000000 -0.023575
v 0.027721 0.000000 -0.018522
v 0.030802 0.000000 -0.012758
v 0.032699 0.000000 -0.006504
v 0.033339 0.000000 -0.000000
v 0.032699 0.000000 0.006504
v 0.030802 0.000000 0.012758
v 0.027721 0.000000 0.018522
v 0.023575 0.000000 0.023575
v 0.018522 0.000000 0.027721
v 0.012758 0.000000 0.030802
v 0.006504 0.000000 0.032699
v 0.000000 0.000000 0.033339
v -0.006504 0.000000 0.032699
v -0.012758 0.000000 0.030802
v -0.018522 0.000000 0.027721
v -0.023575 0.000000 0.023575
v -0.027721 0.000000 0.018522
v -0.030802 0.000000 0.012758
v -0.032699 0.000000 0.006504
v -0.033339 0.000000 -0.000000
v -0.032699 0.000000 -0.006504
v -0.030802 0.000000 -0.012758
v -0.027721 0.000000 -0.018522
v -0.023575 0.000000 -0.023575
v -0.018522 0.000000 -0.027721
v -0.012758 0.000000 -0.030802
v -0.006504 0.000000 -0.032699
v 0.097389 0.000000 -0.988807
v 0.288424 0.000000 -0.950808
v 0.468376 0.000000 -0.876269
v 0.630328 0.000000 -0.768056
v 0.768056 0.000000 -0.630328
v 0.876269 0.000000 -0.468376
v 0.950808 0.000000 -0.288424
v 0.988807 0.000000 -0.097389
v 0.988807 0.000000 0.097389
v 0.950808 0.000000 0.288424
v 0.876269 0.000000 0.468376
v 0.768056 0.000000 0.630328
v 0.630328 0.000000 0.768056
v 0.468376 0.000000 0.876269
v 0.288424 0.000000 0.950808
v 0.097389 0.000000 0.988807
v -0.097389 0.000000 0.988807
v -0.288424 0.000000 0.950808
v -0.468376 0.000000 0.876269
v -0.630328 0.000000 0.768056
v -0.768056 0.000000 0.630328
v -0.876269 0.000000 0.468376
v -0.950808 0.000000 0.288424
v -0.988807 0.000000 0.097389
v -0.988807 0.000000 -0.097389
v -0.950808 0.000000 -0.288424
v -0.876269 0.000000 -0.468376
v -0.768056 0.000000 -0.630328
v -0.630328 0.000000 -0.768056
v -0.468376 0.000000 -0.876269
v -0.288424 0.000000 -0.950808
v -0.097389 0.000000 -0.988807
v 0.003268 0.000000 -0.033179
v 0.009678 0.000000 -0.031904
v 0.015716 0.000000 -0.029403
v 0.021150 0.000000 -0.025772
v 0.025772 0.000000 -0.021150
v 0.029403 0.000000 -0.015716
v 0.031904 0.000000 -0.009678
v 0.033179 0.000000 -0.003268
v 0.033179 0.000000 0.003268
v 0.031904 0.000000 0.009678
v 0.029403 0.000000 0.015716
v 0.025772 0.000000 0.021150
v 0.021150 0.000000 0.025772
v 0.015716 0.000000 0.029403
v 0.009678 0.000000 0.031904
v 0.003268 0.000000 0.033179
v -0.003268 0.000000 0.033179
v -0.009678 0.000000 0.031904
v -0.015716 0.000000 0.029403
v -0.021150 0.000000 0.025772
v -0.025772 0.000000 0.021150
v -0.029403 0.000000 0.015716
v -0.031904 0.000000 0.009678
v -0.033179 0.000000 0.003268
v -0.033179 0.000000 -0.003268
v -0.031904 0.000000 -0.009678
v -0.029403 0.000000 -0.015716
v -0.025772 0.000000 -0.021150
v -0.021150 0.000000 -0.025772
v -0.015716 0.000000 -0.029403
v -0.009678 0.000000 -0.031904
v -0.003268 0.000000 -0.033179
v -0.363076 0.000000 -0.363076
v -0.426932 0.000000 -0.285267
v 0.474382 0.000000 -0.196495
v 0.426932 0.000000 -0.285267
v 0.100173 0.000000 0.503601
v 0.196495 0.000000 0.474382
v -0.513467 0.000000 0.000000
v -0.503601 0.000000 0.100173
v 0.196495 0.000000 -0.474382
v 0.100173 0.000000 -0.503601
v 0.426932 0.000000 0.285267
v 0.474382 0.000000 0.196495
v -0.363076 0.000000 0.363076
v -0.285267 0.000000 0.426932
v -0.285267 0.000000 -0.426932
v 0.503601 0.000000 -0.100173
v 0.000000 0.000000 0.513467
v -0.503601 0.000000 -0.100173
v 0.285267 0.000000 -0.426932
v 0.363076 0.000000 0.363076
v -0.426932 0.000000 0.285267
v -0.196495 0.000000 -0.474382
v 0.513467 0.000000 0.000000
v -0.100172 0.000000 0.503601
v -0.474382 0.000000 -0.196495
v 0.363076 0.000000 -0.363076
v 0.285267 0.000000 0.426932
v -0.474382 0.000000 0.196495
v -0.100172 0.000000 -0.503601
v 0.503601 0.000000 0.100173
v -0.196495 0.000000 0.474382
v 0.000000 0.000000 -0.513467
v 0.452836 0.000000 -0.242046
v -0.396914 0.000000 -0.325739
v 0.149051 0.000000 0.491356
v -0.510993 0.000000 0.050328
v 0.149051 0.000000 -0.491356
v 0.452836 0.000000 0.242046
v -0.325739 0.000000 0.396914
v -0.325739 0.000000 -0.396914
v 0.491356 0.000000 -0.149051
v 0.050328 0.000000 0.510993
v -0.510993 0.000000 -0.050328
v 0.242046 0.000000 -0.452836
v 0.396914 0.000000 0.325739
v -0.396914 0.000000 0.325739
v -0.242046 0.000000 -0.452836
v 0.510993 0.000000 -0.050328
v -0.050328 0.000000 0.510993
v -0.491356 0.000000 -0.149051
v 0.325739 0.000000 -0.396914
v 0.325739 0.000000 0.396914
v -0.452836 0.000000 0.242046
v -0.149051 0.000000 -0.491356
v 0.510993 0.000000 0.050328
v -0.149051 0.000000 0.491356
v -0.452836 0.000000 -0.242046
v 0.396914 0.000000 -0.325739
v 0.242046 0.000000 0.452836
v -0.491356 0.000000 0.149051
v 0.050328 0.000000 -0.510993
v -0.050328 0.000000 -0.510993
v 0.491356 0.000000 0.149051
v -0.242046 0.000000 0.452836
vn -0.0000 1.0000 -0.0000
vt 0.281764 0.316945
vt 0.297426 0.316945
vt 0.297426 0.517621
vt 0.281764 0.517621
vt 0.313088 0.316945
vt 0.313088 0.517621
vt 0.313088 0.718297
vt 0.297426 0.718297
vt 0.281764 0.718297
vt 0.595002 0.316945
vt 0.610664 0.316945
vt 0.610664 0.517621
vt 0.595002 0.517621
vt 0.626326 0.316945
vt 0.626326 0.517621
vt 0.626326 0.718297
vt 0.610664 0.718297
vt 0.595002 0.718297
vt -0.000150 0.316945
vt 0.015512 0.316945
vt 0.015512 0.517621
vt -0.000150 0.517621
vt 0.031174 0.316945
vt 0.031174 0.517621
vt 0.031174 0.718297
vt 0.015512 0.718297
vt -0.000150 0.718297
vt 0.720297 0.316945
vt 0.735959 0.316945
vt 0.735959 0.517621
vt 0.720297 0.517621
vt 0.751621 0.316945
vt 0.751621 0.517621
vt 0.751621 0.718297
vt 0.735959 0.718297
vt 0.720297 0.718297
vt 0.407059 0.316945
vt 0.422721 0.316945
vt 0.422721 0.517621
vt 0.407059 0.517621
vt 0.438383 0.316945
vt 0.438383 0.517621
vt 0.438383 0.718297
vt 0.422721 0.718297
vt 0.407059 0.718297
vt 0.125145 0.316945
vt 0.140807 0.316945
vt 0.140807 0.517621
vt 0.125145 0.517621
vt 0.156469 0.316945
vt 0.156469 0.517621
vt 0.156469 0.718297
vt 0.140807 0.718297
vt 0.125145 0.718297
vt 0.845592 0.316945
vt 0.861254 0.316945
vt 0.861254 0.517621
vt 0.845592 0.517621
vt 0.876916 0.316945
vt 0.876916 0.517621
vt 0.876916 0.718297
vt 0.861254 0.718297
vt 0.845592 0.718297
vt 0.563678 0.316945
vt 0.579340 0.316945
vt 0.579340 0.517621
vt 0.563678 0.517621
vt 0.579340 0.718297
vt 0.563678 0.718297
vt 0.250440 0.316945
vt 0.266102 0.316945
vt 0.266102 0.517621
vt 0.250440 0.517621
vt 0.266102 0.718297
vt 0.250440 0.718297
vt 0.970887 0.316945
vt 0.986549 0.316945
vt 0.986549 0.517621
vt 0.970887 0.517621
vt 1.002211 0.316945
vt 1.002211 0.517621
vt 1.002211 0.718297
vt 0.986549 0.718297
vt 0.970887 0.718297
vt 0.688973 0.316945
vt 0.704635 0.316945
vt 0.704635 0.517621
vt 0.688973 0.517621
vt 0.704635 0.718297
vt 0.688973 0.718297
vt 0.375735 0.316945
vt 0.391397 0.316945
vt 0.391397 0.517621
vt 0.375735 0.517621
vt 0.391397 0.718297
vt 0.375735 0.718297
vt 0.093821 0.316945
vt 0.109483 0.316945
vt 0.109483 0.517621
vt 0.093821 0.517621
vt 0.109483 0.718297
vt 0.093821 0.718297
vt 0.814268 0.316945
vt 0.829930 0.316945
vt 0.829930 0.517621
vt 0.814268 0.517621
vt 0.829930 0.718297
vt 0.814268 0.718297
vt 0.532354 0.316945
vt 0.548016 0.316945
vt 0.548016 0.517621
vt 0.532354 0.517621
vt 0.548016 0.718297
vt 0.532354 0.718297
vt 0.219116 0.316945
vt 0.234778 0.316945
vt 0.234778 0.517621
vt 0.219116 0.517621
vt 0.234778 0.718297
vt 0.219116 0.718297
vt 0.939564 0.316945
vt 0.955226 0.316945
vt 0.955225 0.517621
vt 0.939564 0.517621
vt 0.955226 0.718297
vt 0.939564 0.718297
vt 0.657649 0.316945
vt 0.673311 0.316945
vt 0.673311 0.517621
vt 0.657649 0.517621
vt 0.673311 0.718297
vt 0.657649 0.718297
vt 0.344412 0.316945
vt 0.360074 0.316945
vt 0.360074 0.517621
vt 0.344412 0.517621
vt 0.360074 0.718297
vt 0.344412 0.718297
vt 0.062498 0.316945
vt 0.078159 0.316945
vt 0.078159 0.517621
vt 0.062498 0.517621
vt 0.078159 0.718297
vt 0.062498 0.718297
vt 0.782945 0.316945
vt 0.798607 0.316945
vt 0.798606 0.517621
vt 0.782945 0.517621
vt 0.798607 0.718297
vt 0.782945 0.718297
vt 0.501031 0.316945
vt 0.516692 0.316945
vt 0.516693 0.517621
vt 0.501031 0.517621
vt 0.516692 0.718297
vt 0.501031 0.718297
vt 0.187793 0.316945
vt 0.203455 0.316945
vt 0.203455 0.517621
vt 0.187793 0.517621
vt 0.203455 0.718297
vt 0.187793 0.718297
vt 0.908240 0.316945
vt 0.923902 0.316945
vt 0.923902 0.517621
vt 0.908240 0.517621
vt 0.923902 0.718297
vt 0.908240 0.718297
vt 0.641988 0.316945
vt 0.641988 0.517621
vt 0.641988 0.718297
vt 0.328750 0.316945
vt 0.328750 0.517621
vt 0.328750 0.718297
vt 0.046836 0.316945
vt 0.046836 0.517621
vt 0.046836 0.718297
vt 0.767283 0.316945
vt 0.767283 0.517621
vt 0.767283 0.718297
vt 0.454045 0.316945
vt 0.454045 0.517621
vt 0.469707 0.316945
vt 0.469707 0.517621
vt 0.469707 0.718297
vt 0.454045 0.718297
vt 0.485369 0.316945
vt 0.485369 0.517621
vt 0.485369 0.718297
vt 0.172131 0.316945
vt 0.172131 0.517621
vt 0.172131 0.718297
vt 0.892578 0.316945
vt 0.892578 0.517621
vt 0.892578 0.718297
s 1
usemtl Material.001
f 7/1/1 70/2/1 161/3/1 131/4/1
f 70/2/1 6/5/1 132/6/1 161/3/1
f 161/3/1 132/6/1 38/7/1 102/8/1
f 131/4/1 161/3/1 102/8/1 39/9/1
f 29/10/1 92/11/1 162/12/1 129/13/1
f 92/11/1 28/14/1 130/15/1 162/12/1
f 162/12/1 130/15/1 60/16/1 124/17/1
f 129/13/1 162/12/1 124/17/1 61/18/1
f 16/19/1 79/20/1 163/21/1 133/22/1
f 79/20/1 15/23/1 134/24/1 163/21/1
f 163/21/1 134/24/1 47/25/1 111/26/1
f 133/22/1 163/21/1 111/26/1 48/27/1
f 25/28/1 88/29/1 164/30/1 135/31/1
f 88/29/1 24/32/1 136/33/1 164/30/1
f 164/30/1 136/33/1 56/34/1 120/35/1
f 135/31/1 164/30/1 120/35/1 57/36/1
f 3/37/1 66/38/1 165/39/1 137/40/1
f 66/38/1 2/41/1 138/42/1 165/39/1
f 165/39/1 138/42/1 34/43/1 98/44/1
f 137/40/1 165/39/1 98/44/1 35/45/1
f 12/46/1 75/47/1 166/48/1 139/49/1
f 75/47/1 11/50/1 140/51/1 166/48/1
f 166/48/1 140/51/1 43/52/1 107/53/1
f 139/49/1 166/48/1 107/53/1 44/54/1
f 21/55/1 84/56/1 167/57/1 141/58/1
f 84/56/1 20/59/1 142/60/1 167/57/1
f 167/57/1 142/60/1 52/61/1 116/62/1
f 141/58/1 167/57/1 116/62/1 53/63/1
f 30/64/1 93/65/1 168/66/1 143/67/1
f 93/65/1 29/10/1 129/13/1 168/66/1
f 168/66/1 129/13/1 61/18/1 125/68/1
f 143/67/1 168/66/1 125/68/1 62/69/1
f 8/70/1 71/71/1 169/72/1 144/73/1
f 71/71/1 7/1/1 131/4/1 169/72/1
f 169/72/1 131/4/1 39/9/1 103/74/1
f 144/73/1 169/72/1 103/74/1 40/75/1
f 17/76/1 80/77/1 170/78/1 145/79/1
f 80/77/1 16/80/1 133/81/1 170/78/1
f 170/78/1 133/81/1 48/82/1 112/83/1
f 145/79/1 170/78/1 112/83/1 49/84/1
f 26/85/1 89/86/1 171/87/1 146/88/1
f 89/86/1 25/28/1 135/31/1 171/87/1
f 171/87/1 135/31/1 57/36/1 121/89/1
f 146/88/1 171/87/1 121/89/1 58/90/1
f 4/91/1 67/92/1 172/93/1 147/94/1
f 67/92/1 3/37/1 137/40/1 172/93/1
f 172/93/1 137/40/1 35/45/1 99/95/1
f 147/94/1 172/93/1 99/95/1 36/96/1
f 13/97/1 76/98/1 173/99/1 148/100/1
f 76/98/1 12/46/1 139/49/1 173/99/1
f 173/99/1 139/49/1 44/54/1 108/101/1
f 148/100/1 173/99/1 108/101/1 45/102/1
f 22/103/1 85/104/1 174/105/1 149/106/1
f 85/104/1 21/55/1 141/58/1 174/105/1
f 174/105/1 141/58/1 53/63/1 117/107/1
f 149/106/1 174/105/1 117/107/1 54/108/1
f 31/109/1 94/110/1 175/111/1 150/112/1
f 94/110/1 30/64/1 143/67/1 175/111/1
f 175/111/1 143/67/1 62/69/1 126/113/1
f 150/112/1 175/111/1 126/113/1 63/114/1
f 9/115/1 72/116/1 176/117/1 151/118/1
f 72/116/1 8/70/1 144/73/1 176/117/1
f 176/117/1 144/73/1 40/75/1 104/119/1
f 151/118/1 176/117/1 104/119/1 41/120/1
f 18/121/1 81/122/1 177/123/1 152/124/1
f 81/122/1 17/76/1 145/79/1 177/123/1
f 177/123/1 145/79/1 49/84/1 113/125/1
f 152/124/1 177/123/1 113/125/1 50/126/1
f 27/127/1 90/128/1 178/129/1 153/130/1
f 90/128/1 26/85/1 146/88/1 178/129/1
f 178/129/1 146/88/1 58/90/1 122/131/1
f 153/130/1 178/129/1 122/131/1 59/132/1
f 5/133/1 68/134/1 179/135/1 154/136/1
f 68/134/1 4/91/1 147/94/1 179/135/1
f 179/135/1 147/94/1 36/96/1 100/137/1
f 154/136/1 179/135/1 100/137/1 37/138/1
f 14/139/1 77/140/1 180/141/1 155/142/1
f 77/140/1 13/97/1 148/100/1 180/141/1
f 180/141/1 148/100/1 45/102/1 109/143/1
f 155/142/1 180/141/1 109/143/1 46/144/1
f 23/145/1 86/146/1 181/147/1 156/148/1
f 86/146/1 22/103/1 149/106/1 181/147/1
f 181/147/1 149/106/1 54/108/1 118/149/1
f 156/148/1 181/147/1 118/149/1 55/150/1
f 32/151/1 95/152/1 182/153/1 157/154/1
f 95/152/1 31/109/1 150/112/1 182/153/1
f 182/153/1 150/112/1 63/114/1 127/155/1
f 157/154/1 182/153/1 127/155/1 64/156/1
f 10/157/1 73/158/1 183/159/1 158/160/1
f 73/158/1 9/115/1 151/118/1 183/159/1
f 183/159/1 151/118/1 41/120/1 105/161/1
f 158/160/1 183/159/1 105/161/1 42/162/1
f 19/163/1 82/164/1 184/165/1 159/166/1
f 82/164/1 18/121/1 152/124/1 184/165/1
f 184/165/1 152/124/1 50/126/1 114/167/1
f 159/166/1 184/165/1 114/167/1 51/168/1
f 28/14/1 91/169/1 185/170/1 130/15/1
f 91/169/1 27/127/1 153/130/1 185/170/1
f 185/170/1 153/130/1 59/132/1 123/171/1
f 130/15/1 185/170/1 123/171/1 60/16/1
f 6/5/1 69/172/1 186/173/1 132/6/1
f 69/172/1 5/133/1 154/136/1 186/173/1
f 186/173/1 154/136/1 37/138/1 101/174/1
f 132/6/1 186/173/1 101/174/1 38/7/1
f 15/23/1 78/175/1 187/176/1 134/24/1
f 78/175/1 14/139/1 155/142/1 187/176/1
f 187/176/1 155/142/1 46/144/1 110/177/1
f 134/24/1 187/176/1 110/177/1 47/25/1
f 24/32/1 87/178/1 188/179/1 136/33/1
f 87/178/1 23/145/1 156/148/1 188/179/1
f 188/179/1 156/148/1 55/150/1 119/180/1
f 136/33/1 188/179/1 119/180/1 56/34/1
f 2/41/1 65/181/1 189/182/1 138/42/1
f 65/181/1 1/183/1 160/184/1 189/182/1
f 189/182/1 160/184/1 33/185/1 97/186/1
f 138/42/1 189/182/1 97/186/1 34/43/1
f 1/183/1 96/187/1 190/188/1 160/184/1
f 96/187/1 32/151/1 157/154/1 190/188/1
f 190/188/1 157/154/1 64/156/1 128/189/1
f 160/184/1 190/188/1 128/189/1 33/185/1
f 11/50/1 74/190/1 191/191/1 140/51/1
f 74/190/1 10/157/1 158/160/1 191/191/1
f 191/191/1 158/160/1 42/162/1 106/192/1
f 140/51/1 191/191/1 106/192/1 43/52/1
f 20/59/1 83/193/1 192/194/1 142/60/1
f 83/193/1 19/163/1 159/166/1 192/194/1
f 192/194/1 159/166/1 51/168/1 115/195/1
f 142/60/1 192/194/1 115/195/1 52/61/1
