# Blender 4.2.0
# www.blender.org
mtllib Mortar_Sol.mtl
o Cylinder
v -0.000000 0.013393 -1.000000
v 0.000000 0.013393 -0.010313
v 0.195090 0.013393 -0.980785
v 0.002012 0.013393 -0.010114
v 0.382683 0.013393 -0.923879
v 0.003946 0.013393 -0.009528
v 0.555570 0.013393 -0.831470
v 0.005729 0.013393 -0.008575
v 0.707107 0.013393 -0.707107
v 0.007292 0.013393 -0.007292
v 0.831470 0.013393 -0.555570
v 0.008575 0.013393 -0.005729
v 0.923879 0.013393 -0.382683
v 0.009528 0.013393 -0.003946
v 0.980785 0.013393 -0.195090
v 0.010114 0.013393 -0.002012
v 1.000000 0.013393 -0.000000
v 0.010313 0.013393 -0.000000
v 0.980785 0.013393 0.195090
v 0.010114 0.013393 0.002012
v 0.923879 0.013393 0.382683
v 0.009528 0.013393 0.003946
v 0.831470 0.013393 0.555570
v 0.008575 0.013393 0.005729
v 0.707107 0.013393 0.707107
v 0.007292 0.013393 0.007292
v 0.555570 0.013393 0.831470
v 0.005729 0.013393 0.008575
v 0.382683 0.013393 0.923879
v 0.003946 0.013393 0.009528
v 0.195090 0.013393 0.980785
v 0.002012 0.013393 0.010114
v -0.000000 0.013393 1.000000
v 0.000000 0.013393 0.010313
v -0.195090 0.013393 0.980785
v -0.002012 0.013393 0.010114
v -0.382683 0.013393 0.923879
v -0.003946 0.013393 0.009528
v -0.555570 0.013393 0.831470
v -0.005729 0.013393 0.008575
v -0.707107 0.013393 0.707107
v -0.007292 0.013393 0.007292
v -0.831470 0.013393 0.555570
v -0.008575 0.013393 0.005729
v -0.923879 0.013393 0.382683
v -0.009528 0.013393 0.003946
v -0.980785 0.013393 0.195090
v -0.010114 0.013393 0.002012
v -1.000000 0.013393 -0.000000
v -0.010313 0.013393 -0.000000
v -0.980785 0.013393 -0.195090
v -0.010114 0.013393 -0.002012
v -0.923879 0.013393 -0.382683
v -0.009528 0.013393 -0.003946
v -0.831470 0.013393 -0.555570
v -0.008575 0.013393 -0.005729
v -0.707107 0.013393 -0.707107
v -0.007292 0.013393 -0.007292
v -0.555570 0.013393 -0.831470
v -0.005729 0.013393 -0.008575
v -0.382683 0.013393 -0.923879
v -0.003946 0.013393 -0.009528
v -0.195090 0.013393 -0.980785
v -0.002012 0.013393 -0.010114
vn -0.0000 1.0000 -0.0000
vt 0.977619 0.022381
vt 0.977619 0.977619
vt 0.947768 0.977619
vt 0.947768 0.022381
vt 0.917917 0.977619
vt 0.917917 0.022381
vt 0.888066 0.977619
vt 0.888066 0.022381
vt 0.858214 0.977619
vt 0.858214 0.022381
vt 0.828363 0.977619
vt 0.828363 0.022381
vt 0.798512 0.977619
vt 0.798512 0.022381
vt 0.768661 0.977619
vt 0.768661 0.022381
vt 0.738810 0.977619
vt 0.738810 0.022381
vt 0.708958 0.977619
vt 0.708958 0.022381
vt 0.679107 0.977619
vt 0.679107 0.022381
vt 0.649256 0.977619
vt 0.649256 0.022381
vt 0.619405 0.977619
vt 0.619405 0.022381
vt 0.589554 0.977619
vt 0.589554 0.022381
vt 0.559702 0.977619
vt 0.559702 0.022381
vt 0.529851 0.977619
vt 0.529851 0.022381
vt 0.500000 0.977619
vt 0.500000 0.022381
vt 0.470149 0.977619
vt 0.470149 0.022381
vt 0.440298 0.977619
vt 0.440298 0.022381
vt 0.410446 0.977619
vt 0.410446 0.022381
vt 0.380595 0.977619
vt 0.380595 0.022381
vt 0.350744 0.977619
vt 0.350744 0.022381
vt 0.320893 0.977619
vt 0.320893 0.022381
vt 0.291042 0.977619
vt 0.291042 0.022381
vt 0.261190 0.977619
vt 0.261190 0.022381
vt 0.231339 0.977619
vt 0.231339 0.022381
vt 0.201488 0.977619
vt 0.201488 0.022381
vt 0.171637 0.977619
vt 0.171637 0.022381
vt 0.141786 0.977619
vt 0.141786 0.022381
vt 0.111934 0.977619
vt 0.111934 0.022381
vt 0.082083 0.977619
vt 0.082083 0.022381
vt 0.052232 0.977619
vt 0.052232 0.022381
vt 0.022381 0.977619
vt 0.022381 0.022381
s 0
f 1/1/1 2/2/1 4/3/1 3/4/1
f 3/4/1 4/3/1 6/5/1 5/6/1
f 5/6/1 6/5/1 8/7/1 7/8/1
f 7/8/1 8/7/1 10/9/1 9/10/1
f 9/10/1 10/9/1 12/11/1 11/12/1
f 11/12/1 12/11/1 14/13/1 13/14/1
f 13/14/1 14/13/1 16/15/1 15/16/1
f 15/16/1 16/15/1 18/17/1 17/18/1
f 17/18/1 18/17/1 20/19/1 19/20/1
f 19/20/1 20/19/1 22/21/1 21/22/1
f 21/22/1 22/21/1 24/23/1 23/24/1
f 23/24/1 24/23/1 26/25/1 25/26/1
f 25/26/1 26/25/1 28/27/1 27/28/1
f 27/28/1 28/27/1 30/29/1 29/30/1
f 29/30/1 30/29/1 32/31/1 31/32/1
f 31/32/1 32/31/1 34/33/1 33/34/1
f 33/34/1 34/33/1 36/35/1 35/36/1
f 35/36/1 36/35/1 38/37/1 37/38/1
f 37/38/1 38/37/1 40/39/1 39/40/1
f 39/40/1 40/39/1 42/41/1 41/42/1
f 41/42/1 42/41/1 44/43/1 43/44/1
f 43/44/1 44/43/1 46/45/1 45/46/1
f 45/46/1 46/45/1 48/47/1 47/48/1
f 47/48/1 48/47/1 50/49/1 49/50/1
f 49/50/1 50/49/1 52/51/1 51/52/1
f 51/52/1 52/51/1 54/53/1 53/54/1
f 53/54/1 54/53/1 56/55/1 55/56/1
f 55/56/1 56/55/1 58/57/1 57/58/1
f 57/58/1 58/57/1 60/59/1 59/60/1
f 59/60/1 60/59/1 62/61/1 61/62/1
f 61/62/1 62/61/1 64/63/1 63/64/1
f 63/64/1 64/63/1 2/65/1 1/66/1
