# Blender 4.2.0
# www.blender.org
mtllib Mortar_Sol_2.mtl
o Cylinder
v -0.000000 -0.000001 -0.496798
v 0.096920 -0.000001 -0.487252
v 0.190116 -0.000001 -0.458981
v 0.276006 -0.000001 -0.413072
v 0.351289 -0.000001 -0.351289
v 0.413072 -0.000001 -0.276006
v 0.458981 -0.000001 -0.190116
v 0.487252 -0.000001 -0.096920
v 0.496798 -0.000001 0.000000
v 0.487252 -0.000001 0.096920
v 0.458981 -0.000001 0.190116
v 0.413072 -0.000001 0.276006
v 0.351289 -0.000001 0.351289
v 0.276006 -0.000001 0.413072
v 0.190116 -0.000001 0.458981
v 0.096920 -0.000001 0.487252
v -0.000000 -0.000001 0.496798
v -0.096920 -0.000001 0.487252
v -0.190116 -0.000001 0.458981
v -0.276006 -0.000001 0.413072
v -0.351289 -0.000001 0.351289
v -0.413072 -0.000001 0.276006
v -0.458981 -0.000001 0.190116
v -0.487252 -0.000001 0.096920
v -0.496798 -0.000001 0.000000
v -0.487252 -0.000001 -0.096920
v -0.458981 -0.000001 -0.190116
v -0.413072 -0.000001 -0.276006
v -0.351289 -0.000001 -0.351289
v -0.276006 -0.000001 -0.413072
v -0.190116 -0.000001 -0.458981
v -0.096920 -0.000001 -0.487252
v -0.000000 0.000000 -0.008731
v 0.001703 0.000000 -0.008563
v 0.003341 0.000000 -0.008067
v 0.004851 0.000000 -0.007260
v 0.006174 0.000000 -0.006174
v 0.007260 0.000000 -0.004851
v 0.008067 0.000000 -0.003341
v 0.008563 0.000000 -0.001703
v 0.008731 0.000000 0.000000
v 0.008563 0.000000 0.001703
v 0.008067 0.000000 0.003341
v 0.007260 0.000000 0.004851
v 0.006174 0.000000 0.006174
v 0.004851 0.000000 0.007260
v 0.003341 0.000000 0.008067
v 0.001703 0.000000 0.008563
v -0.000000 0.000000 0.008731
v -0.001703 0.000000 0.008563
v -0.003341 0.000000 0.008067
v -0.004851 0.000000 0.007260
v -0.006174 0.000000 0.006174
v -0.007260 0.000000 0.004851
v -0.008067 0.000000 0.003341
v -0.008563 0.000000 0.001703
v -0.008731 0.000000 0.000000
v -0.008563 0.000000 -0.001703
v -0.008067 0.000000 -0.003341
v -0.007260 0.000000 -0.004851
v -0.006174 0.000000 -0.006174
v -0.004851 0.000000 -0.007260
v -0.003341 0.000000 -0.008067
v -0.001703 0.000000 -0.008563
v 0.048694 -0.000001 -0.494403
v 0.144212 -0.000001 -0.475404
v 0.234188 -0.000001 -0.438135
v 0.315164 -0.000001 -0.384028
v 0.384028 -0.000001 -0.315164
v 0.438135 -0.000001 -0.234188
v 0.475404 -0.000001 -0.144212
v 0.494403 -0.000001 -0.048694
v 0.494403 -0.000001 0.048695
v 0.475404 -0.000001 0.144212
v 0.438135 -0.000001 0.234188
v 0.384028 -0.000001 0.315164
v 0.315164 -0.000001 0.384028
v 0.234188 -0.000001 0.438135
v 0.144212 -0.000001 0.475404
v 0.048694 -0.000001 0.494403
v -0.048695 -0.000001 0.494403
v -0.144212 -0.000001 0.475404
v -0.234188 -0.000001 0.438135
v -0.315164 -0.000001 0.384028
v -0.384028 -0.000001 0.315164
v -0.438135 -0.000001 0.234188
v -0.475404 -0.000001 0.144212
v -0.494403 -0.000001 0.048694
v -0.494403 -0.000001 -0.048694
v -0.475404 -0.000001 -0.144212
v -0.438135 -0.000001 -0.234188
v -0.384028 -0.000001 -0.315164
v -0.315164 -0.000001 -0.384028
v -0.234188 -0.000001 -0.438135
v -0.144212 -0.000001 -0.475404
v -0.048694 -0.000001 -0.494403
v 0.000856 0.000000 -0.008689
v 0.002535 0.000000 -0.008355
v 0.004116 0.000000 -0.007700
v 0.005539 0.000000 -0.006749
v 0.006749 0.000000 -0.005539
v 0.007700 0.000000 -0.004116
v 0.008355 0.000000 -0.002535
v 0.008689 0.000000 -0.000856
v 0.008689 0.000000 0.000856
v 0.008355 0.000000 0.002535
v 0.007700 0.000000 0.004116
v 0.006749 0.000000 0.005539
v 0.005539 0.000000 0.006749
v 0.004116 0.000000 0.007700
v 0.002535 0.000000 0.008355
v 0.000856 0.000000 0.008689
v -0.000856 0.000000 0.008689
v -0.002535 0.000000 0.008355
v -0.004116 0.000000 0.007700
v -0.005539 0.000000 0.006749
v -0.006749 0.000000 0.005539
v -0.007700 0.000000 0.004116
v -0.008355 0.000000 0.002535
v -0.008689 0.000000 0.000856
v -0.008689 0.000000 -0.000856
v -0.008355 0.000000 -0.002535
v -0.007700 0.000000 -0.004116
v -0.006749 0.000000 -0.005539
v -0.005539 0.000000 -0.006749
v -0.004116 0.000000 -0.007700
v -0.002535 0.000000 -0.008355
v -0.000856 0.000000 -0.008689
vn -0.0000 1.0000 -0.0000
vt 0.496900 0.018506
vt 0.496900 0.966177
vt 0.481856 0.966177
vt 0.481856 0.018506
vt 0.752637 0.018506
vt 0.752637 0.966177
vt 0.737593 0.966177
vt 0.737593 0.018506
vt 0.226119 0.018506
vt 0.226119 0.966177
vt 0.211076 0.966177
vt 0.211076 0.018506
vt 0.466813 0.966177
vt 0.466813 0.018506
vt 0.888027 0.018506
vt 0.888027 0.966177
vt 0.872983 0.966177
vt 0.872983 0.018506
vt 0.196033 0.966177
vt 0.196033 0.018506
vt 0.617246 0.018506
vt 0.617246 0.966177
vt 0.602203 0.966177
vt 0.602203 0.018506
vt 0.857940 0.966177
vt 0.857940 0.018506
vt 0.346466 0.018506
vt 0.346466 0.966177
vt 0.331423 0.966177
vt 0.331423 0.018506
vt 0.587160 0.966177
vt 0.587160 0.018506
vt 0.075686 0.018506
vt 0.075686 0.966177
vt 0.060642 0.966177
vt 0.060642 0.018506
vt 0.316379 0.966177
vt 0.316379 0.018506
vt 0.722550 0.966177
vt 0.722550 0.018506
vt 0.045599 0.966177
vt 0.045599 0.018506
vt 0.451770 0.966177
vt 0.451770 0.018506
vt 0.707507 0.966177
vt 0.707507 0.018506
vt 0.180989 0.966177
vt 0.180989 0.018506
vt 0.436726 0.966177
vt 0.436726 0.018506
vt 0.842897 0.966177
vt 0.842897 0.018506
vt 0.165946 0.966177
vt 0.165946 0.018506
vt 0.572116 0.966177
vt 0.572116 0.018506
vt 0.827853 0.966177
vt 0.827853 0.018506
vt 0.978287 0.018506
vt 0.978287 0.966177
vt 0.963244 0.966177
vt 0.963244 0.018506
vt 0.557073 0.966177
vt 0.557073 0.018506
vt 0.301336 0.966177
vt 0.301336 0.018506
vt 0.948200 0.966177
vt 0.948200 0.018506
vt 0.030556 0.492341
vt 0.030556 0.018506
vt 0.286293 0.966177
vt 0.286293 0.018506
vt 0.692463 0.966177
vt 0.692463 0.018506
vt 0.015512 0.018506
vt 0.421683 0.966177
vt 0.421683 0.018506
vt 0.677420 0.966177
vt 0.677420 0.018506
vt 0.150903 0.966177
vt 0.150903 0.018506
vt 0.406640 0.966177
vt 0.406640 0.018506
vt 0.812810 0.966177
vt 0.812810 0.018506
vt 0.135859 0.966177
vt 0.135859 0.018506
vt 0.542030 0.966177
vt 0.542030 0.018506
vt 0.797767 0.966177
vt 0.797767 0.018506
vt 0.271249 0.966177
vt 0.271249 0.018506
vt 0.526986 0.966177
vt 0.526986 0.018506
vt 0.933157 0.966177
vt 0.933157 0.018506
vt 0.256206 0.966177
vt 0.256206 0.018506
vt 0.662377 0.966177
vt 0.662377 0.018506
vt 0.918113 0.966177
vt 0.918113 0.018506
vt 0.391596 0.966177
vt 0.391596 0.018506
vt 0.647333 0.966177
vt 0.647333 0.018506
vt 0.120816 0.966177
vt 0.120816 0.018506
vt 0.376553 0.966177
vt 0.376553 0.018506
vt 0.782723 0.966177
vt 0.782723 0.018506
vt 0.105772 0.966177
vt 0.105772 0.018506
vt 0.511943 0.966177
vt 0.511943 0.018506
vt 0.767680 0.966177
vt 0.767680 0.018506
vt 0.241163 0.966177
vt 0.241163 0.018506
vt 0.903070 0.966177
vt 0.903070 0.018506
vt 0.632290 0.966177
vt 0.632290 0.018506
vt 0.361510 0.966177
vt 0.361510 0.018506
vt 0.090729 0.966177
vt 0.090729 0.018506
s 0
f 17/1/1 49/2/1 113/3/1 81/4/1
f 72/5/1 104/6/1 41/7/1 9/8/1
f 26/9/1 58/10/1 122/11/1 90/12/1
f 81/4/1 113/3/1 50/13/1 18/14/1
f 4/15/1 36/16/1 100/17/1 68/18/1
f 90/12/1 122/11/1 59/19/1 27/20/1
f 13/21/1 45/22/1 109/23/1 77/24/1
f 68/18/1 100/17/1 37/25/1 5/26/1
f 22/27/1 54/28/1 118/29/1 86/30/1
f 77/24/1 109/23/1 46/31/1 14/32/1
f 31/33/1 63/34/1 127/35/1 95/36/1
f 86/30/1 118/29/1 55/37/1 23/38/1
f 41/7/1 105/39/1 73/40/1 9/8/1
f 95/36/1 127/35/1 64/41/1 32/42/1
f 50/13/1 114/43/1 82/44/1 18/14/1
f 73/40/1 105/39/1 42/45/1 10/46/1
f 59/19/1 123/47/1 91/48/1 27/20/1
f 82/44/1 114/43/1 51/49/1 19/50/1
f 37/25/1 101/51/1 69/52/1 5/26/1
f 91/48/1 123/47/1 60/53/1 28/54/1
f 46/31/1 110/55/1 78/56/1 14/32/1
f 69/52/1 101/51/1 38/57/1 6/58/1
f 1/59/1 33/60/1 97/61/1 65/62/1
f 78/56/1 110/55/1 47/63/1 15/64/1
f 55/37/1 119/65/1 87/66/1 23/38/1
f 65/62/1 97/61/1 34/67/1 2/68/1
f 64/41/1 128/69/1 96/70/1 32/42/1
f 87/66/1 119/65/1 56/71/1 24/72/1
f 42/45/1 106/73/1 74/74/1 10/46/1
f 96/70/1 128/69/1 33/75/1 1/75/1
f 51/49/1 115/76/1 83/77/1 19/50/1
f 74/74/1 106/73/1 43/78/1 11/79/1
f 60/53/1 124/80/1 92/81/1 28/54/1
f 83/77/1 115/76/1 52/82/1 20/83/1
f 38/57/1 102/84/1 70/85/1 6/58/1
f 92/81/1 124/80/1 61/86/1 29/87/1
f 47/63/1 111/88/1 79/89/1 15/64/1
f 70/85/1 102/84/1 39/90/1 7/91/1
f 56/71/1 120/92/1 88/93/1 24/72/1
f 79/89/1 111/88/1 48/94/1 16/95/1
f 34/67/1 98/96/1 66/97/1 2/68/1
f 88/93/1 120/92/1 57/98/1 25/99/1
f 43/78/1 107/100/1 75/101/1 11/79/1
f 66/97/1 98/96/1 35/102/1 3/103/1
f 52/82/1 116/104/1 84/105/1 20/83/1
f 75/101/1 107/100/1 44/106/1 12/107/1
f 61/86/1 125/108/1 93/109/1 29/87/1
f 84/105/1 116/104/1 53/110/1 21/111/1
f 39/90/1 103/112/1 71/113/1 7/91/1
f 93/109/1 125/108/1 62/114/1 30/115/1
f 48/94/1 112/116/1 80/117/1 16/95/1
f 71/113/1 103/112/1 40/118/1 8/119/1
f 57/98/1 121/120/1 89/121/1 25/99/1
f 80/117/1 112/116/1 49/2/1 17/1/1
f 35/102/1 99/122/1 67/123/1 3/103/1
f 89/121/1 121/120/1 58/10/1 26/9/1
f 44/106/1 108/124/1 76/125/1 12/107/1
f 67/123/1 99/122/1 36/16/1 4/15/1
f 53/110/1 117/126/1 85/127/1 21/111/1
f 76/125/1 108/124/1 45/22/1 13/21/1
f 62/114/1 126/128/1 94/129/1 30/115/1
f 85/127/1 117/126/1 54/28/1 22/27/1
f 94/129/1 126/128/1 63/34/1 31/33/1
f 8/119/1 40/118/1 104/6/1 72/5/1
