# Blender 4.2.0
# www.blender.org
mtllib Zone_Ground.mtl
o Zone
v -0.000000 -0.000001 3.541019
v 0.690818 -0.000001 3.472979
v 1.355089 -0.000001 3.271475
v 1.967285 -0.000001 2.944250
v 2.503879 -0.000001 2.503879
v 2.944250 -0.000001 1.967285
v 3.271475 -0.000001 1.355089
v 3.472979 -0.000000 0.690818
v 3.541019 -0.000000 -0.000000
v 3.472979 0.000000 -0.690819
v 3.271475 0.000000 -1.355089
v 2.944250 0.000001 -1.967285
v 2.503879 0.000001 -2.503879
v 1.967285 0.000001 -2.944250
v 1.355089 0.000001 -3.271475
v 0.690818 0.000001 -3.472979
v -0.000000 0.000001 -3.541019
v -0.690819 0.000001 -3.472979
v -1.355089 0.000001 -3.271475
v -1.967285 0.000001 -2.944250
v -2.503879 0.000001 -2.503879
v -2.944250 0.000001 -1.967285
v -3.271475 0.000000 -1.355089
v -3.472979 0.000000 -0.690819
v -3.541019 -0.000000 -0.000000
v -3.472979 -0.000000 0.690818
v -3.271475 -0.000001 1.355089
v -2.944250 -0.000001 1.967285
v -2.503879 -0.000001 2.503879
v -1.967285 -0.000001 2.944250
v -1.355089 -0.000001 3.271475
v -0.690819 -0.000001 3.472979
v -0.000000 0.000000 -0.000000
vn -0.0000 1.0000 -0.0000
vt 0.937500 0.500000
vt 0.906250 0.500000
vt 0.656250 0.500000
vt 0.625000 0.500000
vt 0.375000 0.500000
vt 0.343750 0.500000
vt 0.093750 0.500000
vt 0.062500 0.500000
vt 0.781250 0.500000
vt 0.750000 0.500000
vt 0.500000 0.500000
vt 0.468750 0.500000
vt 0.218750 0.500000
vt 0.187500 0.500000
vt 0.875000 0.500000
vt 0.593750 0.500000
vt 0.312500 0.500000
vt 0.031250 0.500000
vt 0.718750 0.500000
vt 0.437500 0.500000
vt 0.156250 0.500000
vt 0.843750 0.500000
vt 0.562500 0.500000
vt 0.281250 0.500000
vt 1.000000 0.500000
vt 0.968750 0.500000
vt 0.000000 0.500000
vt 0.687500 0.500000
vt 0.406250 0.500000
vt 0.125000 0.500000
vt 0.812500 0.500000
vt 0.531250 0.500000
vt 0.250000 0.500000
s 0
f 3/1/1 4/2/1 33/1/1
f 12/3/1 13/4/1 33/3/1
f 21/5/1 22/6/1 33/5/1
f 30/7/1 31/8/1 33/7/1
f 8/9/1 9/10/1 33/9/1
f 17/11/1 18/12/1 33/11/1
f 26/13/1 27/14/1 33/13/1
f 4/2/1 5/15/1 33/2/1
f 13/4/1 14/16/1 33/4/1
f 22/6/1 23/17/1 33/6/1
f 31/8/1 32/18/1 33/8/1
f 9/10/1 10/19/1 33/10/1
f 18/12/1 19/20/1 33/12/1
f 27/14/1 28/21/1 33/14/1
f 5/15/1 6/22/1 33/15/1
f 14/16/1 15/23/1 33/16/1
f 23/17/1 24/24/1 33/17/1
f 1/25/1 2/26/1 33/25/1
f 32/18/1 1/27/1 33/18/1
f 10/19/1 11/28/1 33/19/1
f 19/20/1 20/29/1 33/20/1
f 28/21/1 29/30/1 33/21/1
f 6/22/1 7/31/1 33/22/1
f 15/23/1 16/32/1 33/23/1
f 24/24/1 25/33/1 33/24/1
f 2/26/1 3/1/1 33/26/1
f 11/28/1 12/3/1 33/28/1
f 20/29/1 21/5/1 33/29/1
f 29/30/1 30/7/1 33/30/1
f 7/31/1 8/9/1 33/31/1
f 16/32/1 17/11/1 33/32/1
f 25/33/1 26/13/1 33/33/1
