# Blender 4.2.0
# www.blender.org
mtllib Rampe.mtl
o Cube
v -2.500000 0.014348 5.000000
v -2.500000 0.014348 -7.624212
v -2.500000 0.014348 -5.000000
v -2.500000 3.014348 -5.000000
v 2.500000 0.014348 5.000000
v -2.500000 3.014348 -7.624212
v 2.500000 0.014348 -5.000000
v 2.500000 3.014348 -5.000000
v 2.500000 0.014348 -7.624212
v 2.500000 3.014348 -7.624212
vn -1.0000 -0.0000 -0.0000
vn 1.0000 -0.0000 -0.0000
vn -0.0000 -0.0000 -1.0000
vn -0.0000 -1.0000 -0.0000
vn -0.0000 0.9578 0.2873
vn -0.0000 1.0000 -0.0000
vt 0.375000 0.000000
vt 0.625000 0.250000
vt 0.375000 0.250000
vt 0.375000 0.500000
vt 0.625000 0.500000
vt 0.375000 0.750000
vt 0.125000 0.500000
vt 0.125000 0.750000
vt 0.875000 0.500000
vt 0.375000 1.000000
s 0
f 1/1/1 4/2/1 3/3/1
f 3/3/1 4/2/1 6/2/1 2/3/1
f 7/4/2 8/5/2 5/6/2
f 2/3/3 6/2/3 10/5/3 9/4/3
f 3/7/4 7/4/4 5/6/4 1/8/4
f 8/5/2 7/4/2 9/4/2 10/5/2
f 8/5/5 4/9/5 1/10/5 5/6/5
f 7/4/4 3/7/4 2/7/4 9/4/4
f 4/9/6 8/5/6 10/5/6 6/9/6
