# Blender 4.2.0
# www.blender.org
mtllib Zone.mtl
o Ground
v 0.000000 0.089583 -3.500000
v 0.000000 0.089584 -0.000000
v 0.682816 0.089583 -3.432748
v 1.339392 0.089583 -3.233578
v 1.944496 0.089583 -2.910144
v 2.474874 0.089583 -2.474874
v 2.910144 0.089583 -1.944496
v 3.233578 0.089583 -1.339392
v 3.432748 0.089583 -0.682816
v 3.500000 0.089583 0.000000
v 3.432748 0.089583 0.682816
v 3.233578 0.089583 1.339392
v 2.910144 0.089583 1.944496
v 2.474874 0.089583 2.474874
v 1.944496 0.089583 2.910144
v 1.339392 0.089583 3.233578
v 0.682816 0.089583 3.432748
v 0.000000 0.089583 3.500000
v -0.682816 0.089583 3.432748
v -1.339392 0.089583 3.233578
v -1.944496 0.089583 2.910144
v -2.474874 0.089583 2.474874
v -2.910144 0.089583 1.944496
v -3.233578 0.089583 1.339392
v -3.432748 0.089583 0.682816
v -3.500000 0.089583 0.000000
v -3.432748 0.089583 -0.682816
v -3.233578 0.089583 -1.339392
v -2.910144 0.089583 -1.944496
v -2.474874 0.089583 -2.474874
v -1.944496 0.089583 -2.910144
v -1.339392 0.089583 -3.233578
v -0.682816 0.089583 -3.432748
vn -0.0000 1.0000 -0.0000
vt 0.979650 0.020350
vt 0.949672 0.979650
vt 0.949672 0.020350
vt 0.919694 0.979650
vt 0.919694 0.020350
vt 0.889716 0.979650
vt 0.889716 0.020350
vt 0.859738 0.979650
vt 0.859738 0.020350
vt 0.829759 0.979650
vt 0.829759 0.020350
vt 0.799781 0.979650
vt 0.799781 0.020350
vt 0.769803 0.979650
vt 0.769803 0.020350
vt 0.739825 0.979650
vt 0.739825 0.020350
vt 0.709847 0.979650
vt 0.709847 0.020350
vt 0.679869 0.979650
vt 0.679869 0.020350
vt 0.649891 0.979650
vt 0.649891 0.020350
vt 0.619913 0.979650
vt 0.619913 0.020350
vt 0.589934 0.979650
vt 0.589934 0.020350
vt 0.559956 0.979650
vt 0.559956 0.020350
vt 0.529978 0.979650
vt 0.529978 0.020350
vt 0.500000 0.979650
vt 0.500000 0.020350
vt 0.470022 0.979650
vt 0.470022 0.020350
vt 0.440044 0.979650
vt 0.440044 0.020350
vt 0.410066 0.979650
vt 0.410066 0.020350
vt 0.380087 0.979650
vt 0.380087 0.020350
vt 0.350109 0.979650
vt 0.350109 0.020350
vt 0.320131 0.979650
vt 0.320131 0.020350
vt 0.290153 0.979650
vt 0.290153 0.020350
vt 0.260175 0.979650
vt 0.260175 0.020350
vt 0.230197 0.979650
vt 0.230197 0.020350
vt 0.200219 0.979650
vt 0.200219 0.020350
vt 0.170241 0.979650
vt 0.170241 0.020350
vt 0.140262 0.979650
vt 0.140262 0.020350
vt 0.110284 0.979650
vt 0.110284 0.020350
vt 0.080306 0.979650
vt 0.080306 0.020350
vt 0.050328 0.979650
vt 0.050328 0.020350
vt 0.020350 0.979650
vt 0.020350 0.020350
s 0
f 1/1/1 2/2/1 3/3/1
f 3/3/1 2/4/1 4/5/1
f 4/5/1 2/6/1 5/7/1
f 5/7/1 2/8/1 6/9/1
f 6/9/1 2/10/1 7/11/1
f 7/11/1 2/12/1 8/13/1
f 8/13/1 2/14/1 9/15/1
f 9/15/1 2/16/1 10/17/1
f 10/17/1 2/18/1 11/19/1
f 11/19/1 2/20/1 12/21/1
f 12/21/1 2/22/1 13/23/1
f 13/23/1 2/24/1 14/25/1
f 14/25/1 2/26/1 15/27/1
f 15/27/1 2/28/1 16/29/1
f 16/29/1 2/30/1 17/31/1
f 17/31/1 2/32/1 18/33/1
f 18/33/1 2/34/1 19/35/1
f 19/35/1 2/36/1 20/37/1
f 20/37/1 2/38/1 21/39/1
f 21/39/1 2/40/1 22/41/1
f 22/41/1 2/42/1 23/43/1
f 23/43/1 2/44/1 24/45/1
f 24/45/1 2/46/1 25/47/1
f 25/47/1 2/48/1 26/49/1
f 26/49/1 2/50/1 27/51/1
f 27/51/1 2/52/1 28/53/1
f 28/53/1 2/54/1 29/55/1
f 29/55/1 2/56/1 30/57/1
f 30/57/1 2/58/1 31/59/1
f 31/59/1 2/60/1 32/61/1
f 32/61/1 2/62/1 33/63/1
f 33/63/1 2/64/1 1/65/1
