# Blender 4.2.0
# www.blender.org
mtllib Mortar_Sol_5.mtl.mtl
o Cylinder.002
v 0.000000 -0.000001 -0.496798
v 0.096920 -0.000001 -0.487252
v 0.190116 -0.000001 -0.458981
v 0.276006 -0.000001 -0.413072
v 0.351289 -0.000001 -0.351289
v 0.413072 -0.000001 -0.276006
v 0.458981 -0.000001 -0.190116
v 0.487252 -0.000001 -0.096920
v 0.496798 -0.000001 0.000000
v 0.487252 -0.000001 0.096920
v 0.458981 -0.000001 0.190116
v 0.413072 -0.000001 0.276006
v 0.351289 -0.000001 0.351289
v 0.276006 -0.000001 0.413072
v 0.190116 -0.000001 0.458981
v 0.096920 -0.000001 0.487252
v 0.000000 -0.000001 0.496798
v -0.096920 -0.000001 0.487252
v -0.190116 -0.000001 0.458981
v -0.276006 -0.000001 0.413072
v -0.351289 -0.000001 0.351289
v -0.413072 -0.000001 0.276006
v -0.458981 -0.000001 0.190116
v -0.487252 -0.000001 0.096920
v -0.496798 -0.000001 0.000000
v -0.487252 -0.000001 -0.096920
v -0.458981 -0.000001 -0.190116
v -0.413072 -0.000001 -0.276006
v -0.351289 -0.000001 -0.351289
v -0.276006 -0.000001 -0.413072
v -0.190116 -0.000001 -0.458981
v -0.096920 -0.000001 -0.487252
v 0.000000 -0.000000 -0.008731
v 0.001703 -0.000000 -0.008563
v 0.003341 -0.000000 -0.008067
v 0.004851 -0.000000 -0.007260
v 0.006174 -0.000000 -0.006174
v 0.007260 -0.000000 -0.004851
v 0.008067 -0.000000 -0.003341
v 0.008563 -0.000000 -0.001703
v 0.008731 0.000000 0.000000
v 0.008563 0.000000 0.001703
v 0.008067 0.000000 0.003341
v 0.007260 0.000000 0.004851
v 0.006174 0.000000 0.006174
v 0.004851 0.000000 0.007260
v 0.003341 0.000000 0.008067
v 0.001703 0.000000 0.008563
v 0.000000 0.000000 0.008731
v -0.001703 0.000000 0.008563
v -0.003341 0.000000 0.008067
v -0.004851 0.000000 0.007260
v -0.006174 0.000000 0.006174
v -0.007260 0.000000 0.004851
v -0.008067 0.000000 0.003341
v -0.008563 0.000000 0.001703
v -0.008731 0.000000 0.000000
v -0.008563 -0.000000 -0.001703
v -0.008067 -0.000000 -0.003341
v -0.007260 -0.000000 -0.004851
v -0.006174 -0.000000 -0.006174
v -0.004851 -0.000000 -0.007260
v -0.003341 -0.000000 -0.008067
v -0.001703 -0.000000 -0.008563
v 0.048694 -0.000001 -0.494403
v 0.144212 -0.000001 -0.475404
v 0.234188 -0.000001 -0.438135
v 0.315164 -0.000001 -0.384028
v 0.384028 -0.000001 -0.315164
v 0.438135 -0.000001 -0.234188
v 0.475404 -0.000001 -0.144212
v 0.494403 -0.000001 -0.048694
v 0.494403 -0.000001 0.048695
v 0.475404 -0.000001 0.144212
v 0.438135 -0.000001 0.234188
v 0.384028 -0.000001 0.315164
v 0.315164 -0.000001 0.384028
v 0.234188 -0.000001 0.438135
v 0.144212 -0.000001 0.475404
v 0.048694 -0.000001 0.494403
v -0.048695 -0.000001 0.494403
v -0.144212 -0.000001 0.475404
v -0.234188 -0.000001 0.438135
v -0.315164 -0.000001 0.384028
v -0.384028 -0.000001 0.315164
v -0.438135 -0.000001 0.234188
v -0.475404 -0.000001 0.144212
v -0.494403 -0.000001 0.048694
v -0.494403 -0.000001 -0.048694
v -0.475404 -0.000001 -0.144212
v -0.438135 -0.000001 -0.234188
v -0.384028 -0.000001 -0.315164
v -0.315164 -0.000001 -0.384028
v -0.234188 -0.000001 -0.438135
v -0.144212 -0.000001 -0.475404
v -0.048694 -0.000001 -0.494403
v 0.000856 -0.000000 -0.008689
v 0.002535 -0.000000 -0.008355
v 0.004116 -0.000000 -0.007700
v 0.005539 -0.000000 -0.006749
v 0.006749 -0.000000 -0.005539
v 0.007700 -0.000000 -0.004116
v 0.008355 -0.000000 -0.002535
v 0.008689 -0.000000 -0.000856
v 0.008689 0.000000 0.000856
v 0.008355 0.000000 0.002535
v 0.007700 0.000000 0.004116
v 0.006749 0.000000 0.005539
v 0.005539 0.000000 0.006749
v 0.004116 0.000000 0.007700
v 0.002535 0.000000 0.008355
v 0.000856 0.000000 0.008689
v -0.000856 0.000000 0.008689
v -0.002535 0.000000 0.008355
v -0.004116 0.000000 0.007700
v -0.005539 0.000000 0.006749
v -0.006749 0.000000 0.005539
v -0.007700 0.000000 0.004116
v -0.008355 0.000000 0.002535
v -0.008689 0.000000 0.000856
v -0.008689 -0.000000 -0.000856
v -0.008355 -0.000000 -0.002535
v -0.007700 -0.000000 -0.004116
v -0.006749 -0.000000 -0.005539
v -0.005539 -0.000000 -0.006749
v -0.004116 -0.000000 -0.007700
v -0.002535 -0.000000 -0.008355
v -0.000856 -0.000000 -0.008689
vn -0.0000 1.0000 -0.0000
vt 0.499903 0.029416
vt 0.499903 0.960249
vt 0.484992 0.960249
vt 0.484992 0.029416
vt 0.753378 0.029416
vt 0.753378 0.960249
vt 0.738468 0.960249
vt 0.738468 0.029416
vt 0.231518 0.029416
vt 0.231518 0.960249
vt 0.216607 0.960249
vt 0.216607 0.029416
vt 0.470082 0.960249
vt 0.470082 0.029416
vt 0.887572 0.029416
vt 0.887572 0.960249
vt 0.872661 0.960249
vt 0.872661 0.029416
vt 0.201697 0.960249
vt 0.201697 0.029416
vt 0.619186 0.029416
vt 0.619186 0.960249
vt 0.604275 0.960249
vt 0.604275 0.029416
vt 0.857751 0.960249
vt 0.857751 0.029416
vt 0.350800 0.029416
vt 0.350800 0.960249
vt 0.335890 0.960249
vt 0.335890 0.029416
vt 0.589365 0.960249
vt 0.589365 0.029416
vt 0.082414 0.029416
vt 0.082414 0.960249
vt 0.067504 0.960249
vt 0.067504 0.029416
vt 0.320979 0.960249
vt 0.320979 0.029416
vt 0.723557 0.960249
vt 0.723557 0.029416
vt 0.052593 0.960249
vt 0.052593 0.029416
vt 0.455172 0.960249
vt 0.455172 0.029416
vt 0.708648 0.960249
vt 0.708648 0.029416
vt 0.186786 0.960249
vt 0.186786 0.029416
vt 0.440262 0.960249
vt 0.440262 0.029416
vt 0.842840 0.960249
vt 0.842840 0.029416
vt 0.171876 0.960249
vt 0.171876 0.029416
vt 0.574455 0.960249
vt 0.574455 0.029416
vt 0.827930 0.960249
vt 0.827930 0.029416
vt 0.977034 0.029416
vt 0.977034 0.960249
vt 0.962124 0.960249
vt 0.962124 0.029416
vt 0.559544 0.960249
vt 0.559544 0.029416
vt 0.306069 0.960249
vt 0.306069 0.029416
vt 0.947213 0.960249
vt 0.947213 0.029416
vt 0.037683 0.960249
vt 0.037683 0.029416
vt 0.291158 0.960249
vt 0.291158 0.029416
vt 0.693737 0.960249
vt 0.693737 0.029416
vt 0.022773 0.960249
vt 0.022773 0.029416
vt 0.425351 0.960249
vt 0.425351 0.029416
vt 0.678827 0.960249
vt 0.678827 0.029416
vt 0.156966 0.960249
vt 0.156966 0.029416
vt 0.410441 0.960249
vt 0.410441 0.029416
vt 0.813020 0.960249
vt 0.813020 0.029416
vt 0.142055 0.960249
vt 0.142055 0.029416
vt 0.544634 0.960249
vt 0.544634 0.029416
vt 0.798109 0.960249
vt 0.798109 0.029416
vt 0.276248 0.960249
vt 0.276248 0.029416
vt 0.529723 0.960249
vt 0.529723 0.029416
vt 0.932303 0.960249
vt 0.932303 0.029416
vt 0.261338 0.960249
vt 0.261338 0.029416
vt 0.663916 0.960249
vt 0.663916 0.029416
vt 0.917392 0.960249
vt 0.917392 0.029416
vt 0.395531 0.960249
vt 0.395531 0.029416
vt 0.649006 0.960249
vt 0.649006 0.029416
vt 0.127145 0.960249
vt 0.127145 0.029416
vt 0.380620 0.960249
vt 0.380620 0.029416
vt 0.783199 0.960249
vt 0.783199 0.029416
vt 0.112235 0.960249
vt 0.112235 0.029416
vt 0.514813 0.960249
vt 0.514813 0.029416
vt 0.768288 0.960249
vt 0.768288 0.029416
vt 0.246428 0.960249
vt 0.246428 0.029416
vt 0.902482 0.960249
vt 0.902482 0.029416
vt 0.634096 0.960249
vt 0.634096 0.029416
vt 0.365710 0.960249
vt 0.365710 0.029416
vt 0.097324 0.960249
vt 0.097324 0.029416
s 0
f 17/1/1 49/2/1 113/3/1 81/4/1
f 72/5/1 104/6/1 41/7/1 9/8/1
f 26/9/1 58/10/1 122/11/1 90/12/1
f 81/4/1 113/3/1 50/13/1 18/14/1
f 4/15/1 36/16/1 100/17/1 68/18/1
f 90/12/1 122/11/1 59/19/1 27/20/1
f 13/21/1 45/22/1 109/23/1 77/24/1
f 68/18/1 100/17/1 37/25/1 5/26/1
f 22/27/1 54/28/1 118/29/1 86/30/1
f 77/24/1 109/23/1 46/31/1 14/32/1
f 31/33/1 63/34/1 127/35/1 95/36/1
f 86/30/1 118/29/1 55/37/1 23/38/1
f 41/7/1 105/39/1 73/40/1 9/8/1
f 95/36/1 127/35/1 64/41/1 32/42/1
f 50/13/1 114/43/1 82/44/1 18/14/1
f 73/40/1 105/39/1 42/45/1 10/46/1
f 59/19/1 123/47/1 91/48/1 27/20/1
f 82/44/1 114/43/1 51/49/1 19/50/1
f 37/25/1 101/51/1 69/52/1 5/26/1
f 91/48/1 123/47/1 60/53/1 28/54/1
f 46/31/1 110/55/1 78/56/1 14/32/1
f 69/52/1 101/51/1 38/57/1 6/58/1
f 1/59/1 33/60/1 97/61/1 65/62/1
f 78/56/1 110/55/1 47/63/1 15/64/1
f 55/37/1 119/65/1 87/66/1 23/38/1
f 65/62/1 97/61/1 34/67/1 2/68/1
f 64/41/1 128/69/1 96/70/1 32/42/1
f 87/66/1 119/65/1 56/71/1 24/72/1
f 42/45/1 106/73/1 74/74/1 10/46/1
f 96/70/1 128/69/1 33/75/1 1/76/1
f 51/49/1 115/77/1 83/78/1 19/50/1
f 74/74/1 106/73/1 43/79/1 11/80/1
f 60/53/1 124/81/1 92/82/1 28/54/1
f 83/78/1 115/77/1 52/83/1 20/84/1
f 38/57/1 102/85/1 70/86/1 6/58/1
f 92/82/1 124/81/1 61/87/1 29/88/1
f 47/63/1 111/89/1 79/90/1 15/64/1
f 70/86/1 102/85/1 39/91/1 7/92/1
f 56/71/1 120/93/1 88/94/1 24/72/1
f 79/90/1 111/89/1 48/95/1 16/96/1
f 34/67/1 98/97/1 66/98/1 2/68/1
f 88/94/1 120/93/1 57/99/1 25/100/1
f 43/79/1 107/101/1 75/102/1 11/80/1
f 66/98/1 98/97/1 35/103/1 3/104/1
f 52/83/1 116/105/1 84/106/1 20/84/1
f 75/102/1 107/101/1 44/107/1 12/108/1
f 61/87/1 125/109/1 93/110/1 29/88/1
f 84/106/1 116/105/1 53/111/1 21/112/1
f 39/91/1 103/113/1 71/114/1 7/92/1
f 93/110/1 125/109/1 62/115/1 30/116/1
f 48/95/1 112/117/1 80/118/1 16/96/1
f 71/114/1 103/113/1 40/119/1 8/120/1
f 57/99/1 121/121/1 89/122/1 25/100/1
f 80/118/1 112/117/1 49/2/1 17/1/1
f 35/103/1 99/123/1 67/124/1 3/104/1
f 89/122/1 121/121/1 58/10/1 26/9/1
f 44/107/1 108/125/1 76/126/1 12/108/1
f 67/124/1 99/123/1 36/16/1 4/15/1
f 53/111/1 117/127/1 85/128/1 21/112/1
f 76/126/1 108/125/1 45/22/1 13/21/1
f 62/115/1 126/129/1 94/130/1 30/116/1
f 85/128/1 117/127/1 54/28/1 22/27/1
f 94/130/1 126/129/1 63/34/1 31/33/1
f 8/120/1 40/119/1 104/6/1 72/5/1
